<svg aria-hidden="true" style="position: absolute; width: 0; height: 0; overflow: hidden;" version="1.1" xmlns="http://www.w3.org/2000/svg" xmlns:xlink="http://www.w3.org/1999/xlink">
<defs>

<symbol fill="none"  viewBox="0 0 24 24" id="download">
  <path d="M21 15V19C21 19.5304 20.7893 20.0391 20.4142 20.4142C20.0391 20.7893 19.5304 21 19 21H5C4.46957 21 3.96086 20.7893 3.58579 20.4142C3.21071 20.0391 3 19.5304 3 19V15" stroke="currentColor" stroke-width="1.5" stroke-linecap="round" stroke-linejoin="round"></path>
  <path d="M7 10L12 15L17 10" stroke="currentColor" stroke-width="1.5" stroke-linecap="round" stroke-linejoin="round"></path>
  <path d="M12 15V3" stroke="currentColor" stroke-width="1.5" stroke-linecap="round" stroke-linejoin="round"></path>
</symbol>

<symbol id="arrow" viewBox="0 0 33 32">
<path fill="none" stroke="currentColor" style="stroke: currentColor" stroke-linejoin="round" stroke-linecap="round" stroke-miterlimit="4" stroke-width="2" d="M8.737 12l8 8 8-8"></path>
</symbol>
<symbol id="facebook" viewBox="0 0 32 32">
<path fill="none" stroke="currentColor" style="stroke: currentColor" stroke-linejoin="round" stroke-linecap="round" stroke-miterlimit="4" stroke-width="2" d="M24 2.667h-4c-1.768 0-3.464 0.702-4.714 1.953s-1.953 2.946-1.953 4.714v4h-4v5.333h4v10.667h5.333v-10.667h4l1.333-5.333h-5.333v-4c0-0.354 0.141-0.693 0.391-0.943s0.589-0.391 0.943-0.391h4v-5.333z"></path>
</symbol>
<symbol id="instagram" viewBox="0 0 32 32">
<path fill="none" stroke="currentColor" style="stroke: currentColor" stroke-linejoin="round" stroke-linecap="round" stroke-miterlimit="4" stroke-width="2" d="M22.667 2.667h-13.333c-3.682 0-6.667 2.985-6.667 6.667v13.333c0 3.682 2.985 6.667 6.667 6.667h13.333c3.682 0 6.667-2.985 6.667-6.667v-13.333c0-3.682-2.985-6.667-6.667-6.667z"></path>
<path fill="none" stroke="currentColor" style="stroke: currentColor" stroke-linejoin="round" stroke-linecap="round" stroke-miterlimit="4" stroke-width="2" d="M21.338 15.16c0.165 1.11-0.025 2.243-0.542 3.239s-1.334 1.803-2.336 2.308c-1.002 0.504-2.137 0.68-3.245 0.502s-2.131-0.701-2.924-1.494-1.316-1.816-1.494-2.924c-0.178-1.107-0.003-2.243 0.502-3.245s1.312-1.82 2.308-2.336 2.129-0.706 3.239-0.542c1.132 0.168 2.18 0.695 2.989 1.504s1.337 1.857 1.504 2.989z"></path>
<path fill="none" stroke="currentColor" style="stroke: currentColor" stroke-linejoin="round" stroke-linecap="round" stroke-miterlimit="4" stroke-width="2" d="M23.333 8.667h0.013"></path>
</symbol>
<symbol id="location" viewBox="0 0 32 32">
<path fill="none" stroke="currentColor" style="stroke: currentColor" stroke-linejoin="round" stroke-linecap="round" stroke-miterlimit="4" stroke-width="1.3333" d="M26.667 13.333c0 8-10.667 16-10.667 16s-10.667-8-10.667-16c0-2.829 1.124-5.542 3.124-7.542s4.713-3.124 7.542-3.124c2.829 0 5.542 1.124 7.543 3.124s3.124 4.713 3.124 7.542z"></path>
<path fill="none" stroke="currentColor" style="stroke: currentColor" stroke-linejoin="round" stroke-linecap="round" stroke-miterlimit="4" stroke-width="1.3333" d="M16 17.333c2.209 0 4-1.791 4-4s-1.791-4-4-4-4 1.791-4 4c0 2.209 1.791 4 4 4z"></path>
</symbol>
<symbol id="mail" viewBox="0 0 32 32">
<path fill="none" stroke="currentColor" style="stroke: currentColor" stroke-linejoin="round" stroke-linecap="round" stroke-miterlimit="4" stroke-width="1.3333" d="M26.667 5.333h-21.333c-1.473 0-2.667 1.194-2.667 2.667v16c0 1.473 1.194 2.667 2.667 2.667h21.333c1.473 0 2.667-1.194 2.667-2.667v-16c0-1.473-1.194-2.667-2.667-2.667z"></path>
<path fill="none" stroke="currentColor" style="stroke: currentColor" stroke-linejoin="round" stroke-linecap="round" stroke-miterlimit="4" stroke-width="1.3333" d="M29.333 9.333l-11.96 7.6c-0.412 0.258-0.888 0.395-1.373 0.395s-0.962-0.137-1.373-0.395l-11.96-7.6"></path>
</symbol>
<symbol id="phone" viewBox="0 0 32 32">
<path fill="none" stroke="currentColor" style="stroke: currentColor" stroke-linejoin="round" stroke-linecap="round" stroke-miterlimit="4" stroke-width="1.3333" d="M29.33 22.56v4c0.001 0.371-0.075 0.739-0.223 1.079s-0.367 0.646-0.641 0.897c-0.274 0.251-0.597 0.442-0.949 0.561s-0.724 0.163-1.094 0.13c-4.103-0.446-8.044-1.848-11.507-4.093-3.222-2.047-5.953-4.778-8-8-2.253-3.478-3.656-7.439-4.093-11.56-0.033-0.369 0.010-0.74 0.129-1.091s0.308-0.673 0.558-0.947c0.25-0.273 0.553-0.492 0.892-0.641s0.705-0.227 1.075-0.227h4c0.647-0.006 1.274 0.223 1.765 0.645s0.811 1.008 0.902 1.649c0.169 1.28 0.482 2.537 0.933 3.747 0.179 0.477 0.218 0.996 0.112 1.495s-0.353 0.956-0.712 1.319l-1.693 1.693c1.898 3.338 4.662 6.102 8 8l1.693-1.693c0.363-0.359 0.82-0.606 1.319-0.712s1.017-0.067 1.495 0.112c1.21 0.451 2.467 0.765 3.747 0.933 0.648 0.091 1.239 0.418 1.662 0.917s0.648 1.136 0.631 1.79z"></path>
</symbol>
<symbol id="search" viewBox="0 0 33 32">
<path fill="none" stroke="currentColor" style="stroke: currentColor" stroke-linejoin="round" stroke-linecap="round" stroke-miterlimit="4" stroke-width="2" d="M14.735 25.333c5.891 0 10.667-4.776 10.667-10.667s-4.776-10.667-10.667-10.667c-5.891 0-10.667 4.776-10.667 10.667s4.776 10.667 10.667 10.667z"></path>
<path fill="none" stroke="currentColor" style="stroke: currentColor" stroke-linejoin="round" stroke-linecap="round" stroke-miterlimit="4" stroke-width="2" d="M28.069 28l-5.733-5.733"></path>
</symbol>
<symbol id="youtube" viewBox="0 0 32 32">
<path fill="none" stroke="currentColor" style="stroke: currentColor" stroke-linejoin="round" stroke-linecap="round" stroke-miterlimit="4" stroke-width="2" d="M3.334 22.667c-0.931-4.396-0.931-8.938 0-13.333 0.122-0.446 0.359-0.853 0.686-1.181s0.734-0.564 1.181-0.686c7.151-1.185 14.449-1.185 21.6 0 0.446 0.122 0.853 0.359 1.181 0.686s0.564 0.734 0.686 1.181c0.931 4.396 0.931 8.938 0 13.333-0.122 0.446-0.359 0.853-0.686 1.181s-0.734 0.564-1.181 0.686c-7.151 1.185-14.449 1.185-21.6 0-0.446-0.122-0.853-0.359-1.181-0.686s-0.564-0.734-0.686-1.181z"></path>
<path fill="none" stroke="currentColor" style="stroke: currentColor" stroke-linejoin="round" stroke-linecap="round" stroke-miterlimit="4" stroke-width="2" d="M13.333 20l6.667-4-6.667-4v8z"></path>
</symbol>
<symbol id="close" viewBox="0 0 32 32">
<path d="M24.707 7.293c0.391 0.391 0.391 1.024 0 1.414l-16 16c-0.391 0.391-1.024 0.391-1.414 0s-0.391-1.024 0-1.414l16-16c0.391-0.391 1.024-0.391 1.414 0z"></path>
<path d="M7.293 7.293c0.391-0.391 1.024-0.391 1.414 0l16 16c0.391 0.391 0.391 1.024 0 1.414s-1.024 0.391-1.414 0l-16-16c-0.391-0.391-0.391-1.024 0-1.414z"></path>
</symbol>
<symbol id="burger" viewBox="0 0 32 32">
<path d="M4.333 16c0-0.552 0.448-1 1-1h21.333c0.552 0 1 0.448 1 1s-0.448 1-1 1h-21.333c-0.552 0-1-0.448-1-1z"></path>
<path d="M4.333 24c0-0.552 0.448-1 1-1h21.333c0.552 0 1 0.448 1 1s-0.448 1-1 1h-21.333c-0.552 0-1-0.448-1-1z"></path>
<path d="M16.84 7h-11.506c-0.552 0-1 0.448-1 1s0.448 1 1 1h11.957c-0.26-0.62-0.417-1.294-0.45-2z"></path>
<path d="M25.498 9.498c0.391-0.391 1.024-0.391 1.414 0l2.628 2.628c0.391 0.391 0.391 1.024 0 1.414s-1.024 0.391-1.414 0l-2.628-2.628c-0.391-0.391-0.391-1.024 0-1.414z"></path>
<path d="M21.889 3.333c-2.148 0-3.889 1.741-3.889 3.889s1.741 3.889 3.889 3.889c2.148 0 3.889-1.741 3.889-3.889s-1.741-3.889-3.889-3.889zM16 7.222c0-3.252 2.637-5.889 5.889-5.889s5.889 2.637 5.889 5.889-2.637 5.889-5.889 5.889c-3.252 0-5.889-2.637-5.889-5.889z"></path>
</symbol>

<!-- scrollUp arrow -->
	<symbol   
			id="scrollUp"
			viewBox="0 0 25 29"
			fill="none"
			xmlns="http://www.w3.org/2000/svg"
		>
			<path
				fill-rule="evenodd"
				clip-rule="evenodd"
				d="M0.97153 12.4994L12.6388 0.402191L13.0003 0.0273333L13.3601 0.403834L24.9721 12.554L24.2492 13.2449L13.4961 1.99343L13.4368 28.0288L12.4368 28.0265L12.4961 1.99065L1.69131 13.1936L0.97153 12.4994Z"
				fill="#080708"
			/>
	</symbol>

	<!-- media player icon -->
	<symbol id="mediaPlayer" fill="#f5f5f5"   xmlns="http://www.w3.org/2000/svg" xmlns:xlink="http://www.w3.org/1999/xlink" viewBox="-7.04 -7.04 78.08 78.08" enable-background="new 0 0 64 64" xml:space="preserve" stroke="#f5f5f5" stroke-width="0.00064">
		<g id="SVGRepo_bgCarrier" stroke-width="0"/>
		<g id="SVGRepo_tracerCarrier" stroke-linecap="round" stroke-linejoin="round" stroke="#CCCCCC" stroke-width="0.64"/>
		<g id="SVGRepo_iconCarrier"> <g id="Play"> <path d="M46.0136986,31.1054993L25.1973,20.6973c-0.3096008-0.1532993-0.6777992-0.1387005-0.9727001,0.0438995 C23.9297009,20.9237995,23.75,21.2451,23.75,21.5918007v20.8163986c0,0.3467026,0.1797009,0.6679993,0.4745998,0.8506012 C24.3848,43.3583984,24.5674,43.4081993,24.75,43.4081993c0.1532993,0,0.3057003-0.035099,0.4473-0.1054001l20.8163986-10.4081993 c0.3388023-0.1699982,0.5527-0.5157013,0.5527-0.8945999C46.5663986,31.6210995,46.3525009,31.2754002,46.0136986,31.1054993z M25.75,40.7901001v-17.580101L43.330101,32L25.75,40.7901001z"/> <path d="M32,0C14.3268995,0,0,14.3268995,0,32s14.3268995,32,32,32s32-14.3269005,32-32S49.6730995,0,32,0z M32,62 C15.4579,62,2,48.542099,2,32C2,15.4580002,15.4579,2,32,2c16.5419998,0,30,13.4580002,30,30C62,48.542099,48.5419998,62,32,62z"/> </g> </g>
	</symbol>


</defs>
</svg>
