<svg aria-hidden="true" style="position: absolute; width: 0; height: 0; overflow: hidden;" version="1.1" xmlns="http://www.w3.org/2000/svg" xmlns:xlink="http://www.w3.org/1999/xlink">
<defs>
<symbol id="arrow" viewBox="0 0 33 32">
<path fill="none" stroke="currentColor" style="stroke: currentColor" stroke-linejoin="round" stroke-linecap="round" stroke-miterlimit="4" stroke-width="2" d="M8.737 12l8 8 8-8"></path>
</symbol>
<symbol id="facebook" viewBox="0 0 32 32">
<path fill="none" stroke="currentColor" style="stroke: currentColor" stroke-linejoin="round" stroke-linecap="round" stroke-miterlimit="4" stroke-width="2" d="M24 2.667h-4c-1.768 0-3.464 0.702-4.714 1.953s-1.953 2.946-1.953 4.714v4h-4v5.333h4v10.667h5.333v-10.667h4l1.333-5.333h-5.333v-4c0-0.354 0.141-0.693 0.391-0.943s0.589-0.391 0.943-0.391h4v-5.333z"></path>
</symbol>
<symbol id="instagram" viewBox="0 0 32 32">
<path fill="none" stroke="currentColor" style="stroke: currentColor" stroke-linejoin="round" stroke-linecap="round" stroke-miterlimit="4" stroke-width="2" d="M22.667 2.667h-13.333c-3.682 0-6.667 2.985-6.667 6.667v13.333c0 3.682 2.985 6.667 6.667 6.667h13.333c3.682 0 6.667-2.985 6.667-6.667v-13.333c0-3.682-2.985-6.667-6.667-6.667z"></path>
<path fill="none" stroke="currentColor" style="stroke: currentColor" stroke-linejoin="round" stroke-linecap="round" stroke-miterlimit="4" stroke-width="2" d="M21.338 15.16c0.165 1.11-0.025 2.243-0.542 3.239s-1.334 1.803-2.336 2.308c-1.002 0.504-2.137 0.68-3.245 0.502s-2.131-0.701-2.924-1.494-1.316-1.816-1.494-2.924c-0.178-1.107-0.003-2.243 0.502-3.245s1.312-1.82 2.308-2.336 2.129-0.706 3.239-0.542c1.132 0.168 2.18 0.695 2.989 1.504s1.337 1.857 1.504 2.989z"></path>
<path fill="none" stroke="currentColor" style="stroke: currentColor" stroke-linejoin="round" stroke-linecap="round" stroke-miterlimit="4" stroke-width="2" d="M23.333 8.667h0.013"></path>
</symbol>
<symbol id="location" viewBox="0 0 32 32">
<path fill="none" stroke="currentColor" style="stroke: currentColor" stroke-linejoin="round" stroke-linecap="round" stroke-miterlimit="4" stroke-width="1.3333" d="M26.667 13.333c0 8-10.667 16-10.667 16s-10.667-8-10.667-16c0-2.829 1.124-5.542 3.124-7.542s4.713-3.124 7.542-3.124c2.829 0 5.542 1.124 7.543 3.124s3.124 4.713 3.124 7.542z"></path>
<path fill="none" stroke="currentColor" style="stroke: currentColor" stroke-linejoin="round" stroke-linecap="round" stroke-miterlimit="4" stroke-width="1.3333" d="M16 17.333c2.209 0 4-1.791 4-4s-1.791-4-4-4-4 1.791-4 4c0 2.209 1.791 4 4 4z"></path>
</symbol>
<symbol id="mail" viewBox="0 0 32 32">
<path fill="none" stroke="currentColor" style="stroke: currentColor" stroke-linejoin="round" stroke-linecap="round" stroke-miterlimit="4" stroke-width="1.3333" d="M26.667 5.333h-21.333c-1.473 0-2.667 1.194-2.667 2.667v16c0 1.473 1.194 2.667 2.667 2.667h21.333c1.473 0 2.667-1.194 2.667-2.667v-16c0-1.473-1.194-2.667-2.667-2.667z"></path>
<path fill="none" stroke="currentColor" style="stroke: currentColor" stroke-linejoin="round" stroke-linecap="round" stroke-miterlimit="4" stroke-width="1.3333" d="M29.333 9.333l-11.96 7.6c-0.412 0.258-0.888 0.395-1.373 0.395s-0.962-0.137-1.373-0.395l-11.96-7.6"></path>
</symbol>
<symbol id="phone" viewBox="0 0 32 32">
<path fill="none" stroke="currentColor" style="stroke: currentColor" stroke-linejoin="round" stroke-linecap="round" stroke-miterlimit="4" stroke-width="1.3333" d="M29.33 22.56v4c0.001 0.371-0.075 0.739-0.223 1.079s-0.367 0.646-0.641 0.897c-0.274 0.251-0.597 0.442-0.949 0.561s-0.724 0.163-1.094 0.13c-4.103-0.446-8.044-1.848-11.507-4.093-3.222-2.047-5.953-4.778-8-8-2.253-3.478-3.656-7.439-4.093-11.56-0.033-0.369 0.010-0.74 0.129-1.091s0.308-0.673 0.558-0.947c0.25-0.273 0.553-0.492 0.892-0.641s0.705-0.227 1.075-0.227h4c0.647-0.006 1.274 0.223 1.765 0.645s0.811 1.008 0.902 1.649c0.169 1.28 0.482 2.537 0.933 3.747 0.179 0.477 0.218 0.996 0.112 1.495s-0.353 0.956-0.712 1.319l-1.693 1.693c1.898 3.338 4.662 6.102 8 8l1.693-1.693c0.363-0.359 0.82-0.606 1.319-0.712s1.017-0.067 1.495 0.112c1.21 0.451 2.467 0.765 3.747 0.933 0.648 0.091 1.239 0.418 1.662 0.917s0.648 1.136 0.631 1.79z"></path>
</symbol>
<symbol id="search" viewBox="0 0 33 32">
<path fill="none" stroke="currentColor" style="stroke: currentColor" stroke-linejoin="round" stroke-linecap="round" stroke-miterlimit="4" stroke-width="2" d="M14.735 25.333c5.891 0 10.667-4.776 10.667-10.667s-4.776-10.667-10.667-10.667c-5.891 0-10.667 4.776-10.667 10.667s4.776 10.667 10.667 10.667z"></path>
<path fill="none" stroke="currentColor" style="stroke: currentColor" stroke-linejoin="round" stroke-linecap="round" stroke-miterlimit="4" stroke-width="2" d="M28.069 28l-5.733-5.733"></path>
</symbol>
<symbol id="youtube" viewBox="0 0 32 32">
<path fill="none" stroke="currentColor" style="stroke: currentColor" stroke-linejoin="round" stroke-linecap="round" stroke-miterlimit="4" stroke-width="2" d="M3.334 22.667c-0.931-4.396-0.931-8.938 0-13.333 0.122-0.446 0.359-0.853 0.686-1.181s0.734-0.564 1.181-0.686c7.151-1.185 14.449-1.185 21.6 0 0.446 0.122 0.853 0.359 1.181 0.686s0.564 0.734 0.686 1.181c0.931 4.396 0.931 8.938 0 13.333-0.122 0.446-0.359 0.853-0.686 1.181s-0.734 0.564-1.181 0.686c-7.151 1.185-14.449 1.185-21.6 0-0.446-0.122-0.853-0.359-1.181-0.686s-0.564-0.734-0.686-1.181z"></path>
<path fill="none" stroke="currentColor" style="stroke: currentColor" stroke-linejoin="round" stroke-linecap="round" stroke-miterlimit="4" stroke-width="2" d="M13.333 20l6.667-4-6.667-4v8z"></path>
</symbol>
<symbol id="close" viewBox="0 0 32 32">
<path d="M24.707 7.293c0.391 0.391 0.391 1.024 0 1.414l-16 16c-0.391 0.391-1.024 0.391-1.414 0s-0.391-1.024 0-1.414l16-16c0.391-0.391 1.024-0.391 1.414 0z"></path>
<path d="M7.293 7.293c0.391-0.391 1.024-0.391 1.414 0l16 16c0.391 0.391 0.391 1.024 0 1.414s-1.024 0.391-1.414 0l-16-16c-0.391-0.391-0.391-1.024 0-1.414z"></path>
</symbol>
<symbol id="burger" viewBox="0 0 32 32">
<path d="M4.333 16c0-0.552 0.448-1 1-1h21.333c0.552 0 1 0.448 1 1s-0.448 1-1 1h-21.333c-0.552 0-1-0.448-1-1z"></path>
<path d="M4.333 24c0-0.552 0.448-1 1-1h21.333c0.552 0 1 0.448 1 1s-0.448 1-1 1h-21.333c-0.552 0-1-0.448-1-1z"></path>
<path d="M16.84 7h-11.506c-0.552 0-1 0.448-1 1s0.448 1 1 1h11.957c-0.26-0.62-0.417-1.294-0.45-2z"></path>
<path d="M25.498 9.498c0.391-0.391 1.024-0.391 1.414 0l2.628 2.628c0.391 0.391 0.391 1.024 0 1.414s-1.024 0.391-1.414 0l-2.628-2.628c-0.391-0.391-0.391-1.024 0-1.414z"></path>
<path d="M21.889 3.333c-2.148 0-3.889 1.741-3.889 3.889s1.741 3.889 3.889 3.889c2.148 0 3.889-1.741 3.889-3.889s-1.741-3.889-3.889-3.889zM16 7.222c0-3.252 2.637-5.889 5.889-5.889s5.889 2.637 5.889 5.889-2.637 5.889-5.889 5.889c-3.252 0-5.889-2.637-5.889-5.889z"></path>
</symbol>
</defs>
</svg>
