<svg width="240" height="48" viewBox="0 0 240 48" fill="none" xmlns="http://www.w3.org/2000/svg">
<g id="Group">
<g id="Group_2">
<g id="Group_3">
<path id="Vector" d="M208.794 11.8502H209.54C209.54 11.913 209.602 11.9758 209.602 12.0386C210.41 14.3627 211.281 16.6868 212.089 19.0737C212.275 19.639 212.462 20.2043 212.586 20.7068C212.586 20.7696 212.648 20.8325 212.648 20.8953L212.711 20.8325C213.084 19.3878 213.643 18.0059 214.141 16.624C214.7 15.1165 215.26 13.6717 215.757 12.1642C215.819 12.0386 215.819 11.913 215.882 11.7874H216.628C216.69 12.1014 217.249 20.8325 217.312 21.8375C217.187 21.9003 217.125 21.9003 217.001 21.9003C216.876 21.9003 216.814 21.9003 216.69 21.9003C216.628 21.3978 216.628 20.8953 216.565 20.3928C216.503 19.8903 216.503 19.3878 216.441 18.8852C216.441 18.3827 216.379 17.8802 216.379 17.3777C216.379 16.8752 216.317 16.3727 216.317 15.8702C216.317 15.3677 216.255 14.8652 216.255 14.3627C216.255 13.8602 216.255 13.3577 216.192 12.918C216.006 13.1692 215.944 13.4833 215.819 13.7974C215.695 14.1114 215.633 14.4255 215.508 14.6768C215.384 14.9908 215.322 15.3049 215.198 15.619C215.073 15.933 215.011 16.2471 214.887 16.4983C214.762 16.8124 214.638 17.0637 214.576 17.3777C214.451 17.6918 214.327 17.943 214.265 18.2571C214.141 18.5712 214.016 18.8224 213.954 19.1365C213.83 19.4506 213.705 19.7646 213.643 20.0787C213.519 20.3928 213.394 20.644 213.332 20.9581C213.208 21.2721 213.084 21.5234 213.021 21.8375C212.835 21.9003 212.711 21.8375 212.524 21.8375C211.467 18.8224 210.348 15.8702 209.415 12.7924C209.291 12.9808 209.353 13.1064 209.353 13.2321C209.353 13.4205 209.353 13.5461 209.353 13.7346C209.353 13.8602 209.353 14.0486 209.353 14.1743C209.353 14.2999 209.353 14.4883 209.353 14.6139C209.353 14.7396 209.353 14.928 209.353 15.0536C209.353 15.2421 209.353 15.3677 209.353 15.5561C209.353 15.6818 209.353 15.8702 209.291 15.9958C209.291 16.1215 209.291 16.3099 209.291 16.4355C209.291 16.5612 209.291 16.7496 209.291 16.8752C209.291 17.0637 209.291 17.1893 209.229 17.3777C209.229 17.5034 209.229 17.6918 209.229 17.8174C209.229 17.943 209.229 18.1315 209.167 18.2571C209.167 18.3827 209.167 18.5712 209.167 18.6968C209.167 18.8852 209.167 19.0109 209.104 19.1993C209.104 19.3249 209.104 19.5134 209.104 19.639C209.104 19.7646 209.104 19.9531 209.104 20.0787C209.104 20.2043 209.104 20.3928 209.042 20.5184C209.042 20.7068 209.042 20.8325 209.042 21.0209C209.042 21.1465 209.042 21.335 208.98 21.4606C208.98 21.5862 208.98 21.7746 208.98 21.9003C208.794 21.9631 208.545 21.9003 208.358 21.9631C208.358 21.9003 208.358 21.8375 208.358 21.7747C208.42 21.0209 208.483 20.2671 208.545 19.5134C208.607 19.0737 208.607 18.634 208.669 18.1943C208.794 16.7496 208.856 15.2421 208.98 13.7974C209.042 13.2321 209.042 12.6039 209.104 12.0386C208.731 11.9758 208.794 11.913 208.794 11.8502Z" fill="white"/>
<path id="Vector_2" d="M124.855 20.8325C124.855 21.0837 124.855 21.2721 124.855 21.4606C124.855 21.649 124.855 21.8375 124.855 22.0259V22.5912V23.1565V23.7219V24.2872V24.8525C124.607 24.9153 124.42 24.8525 124.234 24.9153C124.172 24.7897 124.172 24.6641 124.172 24.5384C124.172 22.34 124.172 20.1415 124.172 17.8802C124.172 16.938 124.109 15.9958 124.109 15.0536C124.109 14.9908 124.109 14.8652 124.109 14.8024C124.296 14.7396 124.545 14.8024 124.731 14.8024C124.793 14.928 124.731 15.1165 124.793 15.2421C124.793 15.3677 124.793 15.5561 124.793 15.6818C124.793 15.8074 124.793 15.933 124.793 16.0587C124.855 16.1215 124.918 16.0587 124.918 16.0587C124.98 15.9958 125.042 15.933 125.042 15.8074C125.477 15.1793 126.161 14.8024 126.907 14.6768C127.28 14.6139 127.653 14.6139 127.964 14.7396C128.586 14.8652 129.083 15.2421 129.519 15.7446C129.892 16.2471 130.078 16.8124 130.203 17.4405C130.327 18.2571 130.265 19.1365 130.016 19.9531C129.892 20.2671 129.767 20.5812 129.581 20.8953C128.959 21.7118 128.151 22.1515 127.156 22.1515C126.223 22.1515 125.477 21.7746 124.98 21.0209C124.98 20.8953 124.918 20.8953 124.855 20.8325ZM124.855 18.5084C124.855 18.7596 124.855 19.0109 124.855 19.1993C124.855 19.3249 124.855 19.4506 124.855 19.5134C125.042 20.5812 125.85 21.3978 127.032 21.4606C127.84 21.4606 128.524 21.1465 128.959 20.5184C129.146 20.2671 129.27 20.0159 129.332 19.7646C129.581 18.9481 129.643 18.0687 129.456 17.2521C129.332 16.7496 129.146 16.3099 128.835 15.933C128.337 15.3677 127.716 15.1165 126.969 15.1793C126.286 15.2421 125.788 15.5561 125.353 16.1215C124.98 16.624 124.793 17.1893 124.793 17.7546C124.855 18.0059 124.855 18.2571 124.855 18.5084Z" fill="white"/>
<path id="Vector_3" d="M162.038 11.8501H162.722C162.722 11.9129 162.722 12.0385 162.722 12.1014C162.722 14.0486 162.722 15.9958 162.722 17.943C162.722 18.5711 162.66 19.2621 162.411 19.8274C162.349 20.0158 162.287 20.2043 162.163 20.3927C161.603 21.3977 160.795 21.963 159.676 22.0258C159.24 22.0886 158.743 22.0258 158.308 21.9002C157.624 21.7118 157.126 21.2721 156.753 20.7068C156.442 20.2671 156.318 19.7646 156.194 19.1992C156.132 18.8224 156.069 18.3827 156.069 18.0058C156.069 16.0586 156.069 14.0486 156.069 12.1014V11.9129C156.194 11.8501 156.318 11.8501 156.442 11.8501C156.567 11.8501 156.629 11.8501 156.753 11.8501C156.815 11.9757 156.815 12.1013 156.815 12.227C156.815 14.1114 156.815 15.9958 156.815 17.8802C156.815 18.257 156.815 18.6967 156.878 19.0736C156.94 19.3877 157.002 19.7646 157.188 20.0786C157.624 21.0208 158.308 21.4605 159.365 21.4605C159.613 21.4605 159.862 21.4605 160.111 21.3977C160.732 21.2093 161.168 20.8952 161.479 20.3927C161.727 19.953 161.852 19.5133 161.976 19.0108C162.038 18.6339 162.038 18.3199 162.038 17.943C162.038 16.0586 162.038 14.1742 162.038 12.2898C162.038 12.1642 162.038 12.0385 162.038 11.8501Z" fill="white"/>
<path id="Vector_4" d="M103.402 21.3349C103.464 21.5233 103.402 21.7118 103.402 21.9002C103.402 21.9002 103.402 21.963 103.34 21.963C103.34 21.963 103.34 21.963 103.277 21.963C101.723 21.963 100.107 21.963 98.5522 21.963C98.49 21.963 98.49 21.963 98.49 21.963C98.49 21.963 98.49 21.963 98.49 21.9002C98.49 21.9002 98.49 21.9002 98.49 21.8374C98.49 18.5083 98.49 15.242 98.49 11.9129V11.8501C98.49 11.8501 98.49 11.8501 98.5522 11.8501C99.9822 11.8501 101.474 11.8501 102.904 11.8501C102.967 11.8501 103.029 11.8501 103.091 11.8501C103.091 11.8501 103.091 11.8501 103.153 11.9129C103.153 12.0385 103.153 12.227 103.153 12.4154C103.091 12.4782 102.967 12.4782 102.842 12.4782C101.723 12.4782 100.604 12.4782 99.4848 12.4782H99.1739L99.1117 12.541C99.1117 13.7973 99.1117 14.9908 99.1117 16.247C99.1117 16.3098 99.1117 16.3098 99.1117 16.3727C99.547 16.3727 99.92 16.3727 100.355 16.3727C100.79 16.3727 101.226 16.3727 101.661 16.3727C102.096 16.3727 102.469 16.3727 102.904 16.3727C102.967 16.5611 102.904 16.7495 102.967 16.938C102.842 17.0636 102.78 17.0008 102.656 17.0008C101.599 17.0008 100.542 17.0008 99.547 17.0008H99.1739C99.1739 17.0636 99.1739 17.1264 99.1739 17.1892C99.1739 18.5711 99.1739 19.8902 99.1739 21.2721C99.1739 21.3349 99.1739 21.3349 99.1739 21.3349C99.1739 21.3349 99.1739 21.3349 99.1739 21.3977C100.604 21.3349 101.972 21.3349 103.402 21.3349Z" fill="white"/>
<path id="Vector_5" d="M136.605 21.1465C136.667 21.3349 136.729 21.4605 136.791 21.649C136.729 21.7118 136.667 21.7118 136.605 21.7746C135.734 22.1515 134.864 22.2143 133.993 22.0259C133.061 21.8374 132.439 21.3349 131.942 20.4555C131.693 19.953 131.569 19.4505 131.506 18.948C131.444 18.1315 131.506 17.3149 131.817 16.5611C132.004 16.1214 132.253 15.6817 132.626 15.3677C133.247 14.8024 133.993 14.5511 134.864 14.6139C135.797 14.6767 136.418 15.1792 136.853 16.0586C137.164 16.7496 137.289 17.5033 137.227 18.2571C137.102 18.3199 136.978 18.3199 136.853 18.3199C135.423 18.3199 133.993 18.3199 132.626 18.3199H132.253C132.253 18.3827 132.19 18.4455 132.19 18.5083C132.19 19.0736 132.315 19.5762 132.501 20.0787C132.874 20.958 133.62 21.4606 134.553 21.5234C135.237 21.5862 135.921 21.4606 136.543 21.2093C136.543 21.1465 136.605 21.1465 136.605 21.1465ZM136.48 17.6918C136.48 17.1893 136.418 16.6867 136.17 16.2471C135.983 15.8074 135.672 15.4933 135.237 15.3677C134.429 15.0536 133.434 15.242 132.812 15.9958C132.563 16.3099 132.377 16.6239 132.315 17.0008C132.253 17.2521 132.19 17.4405 132.19 17.6918C132.501 17.7546 136.107 17.7546 136.48 17.6918Z" fill="white"/>
<path id="Vector_6" d="M181.437 18.3826C181.437 19.0107 181.313 19.5761 181.064 20.2042C180.629 21.2092 179.883 21.8373 178.763 22.0886C177.458 22.3398 176.339 21.8373 175.655 20.8323C175.344 20.3926 175.157 19.8901 175.095 19.3876C174.909 18.5082 174.971 17.6917 175.282 16.8751C175.592 15.9329 176.214 15.242 177.085 14.8651C178.453 14.2998 180.193 14.7394 181.002 16.3726C181.313 16.9379 181.437 17.566 181.437 18.3826ZM180.753 18.3198C180.753 17.566 180.504 16.8123 180.193 16.247C179.261 14.8023 177.209 14.8651 176.339 16.247C176.214 16.4354 176.152 16.6238 176.028 16.8123C175.655 17.6917 175.655 18.571 175.841 19.4504C175.965 20.0158 176.276 20.5183 176.649 20.8951C177.396 21.5861 178.515 21.7117 179.385 21.1464C179.758 20.8951 180.069 20.5183 180.318 20.1414C180.629 19.5761 180.753 18.9479 180.753 18.3198Z" fill="white"/>
<path id="Vector_7" d="M122.43 18.3199C122.43 18.8852 122.368 19.4505 122.181 19.9531C121.746 21.0209 121 21.7746 119.881 22.0259C118.575 22.2771 117.456 21.7746 116.772 20.7696C116.461 20.3299 116.275 19.8274 116.213 19.3249C116.088 18.5083 116.088 17.629 116.399 16.8124C116.648 16.1214 117.021 15.5561 117.58 15.1793C118.948 14.1742 121.124 14.4255 122.057 16.2471C122.244 16.8124 122.43 17.5033 122.43 18.3199ZM121.746 18.3199C121.746 17.5662 121.56 16.8752 121.124 16.1843C120.192 14.8024 118.202 14.8652 117.332 16.1214C117.207 16.3099 117.083 16.4983 117.021 16.6868C116.648 17.629 116.586 18.5712 116.897 19.5134C117.021 20.0159 117.332 20.4556 117.705 20.8324C118.451 21.5234 119.508 21.5862 120.378 21.0837C120.751 20.8324 121.062 20.5184 121.249 20.1415C121.622 19.639 121.746 19.0109 121.746 18.3199Z" fill="white"/>
<path id="Vector_8" d="M193.304 18.3827C193.304 17.8174 193.366 17.2521 193.615 16.6867C193.988 15.7445 194.61 15.0536 195.605 14.7395C196.91 14.2998 198.589 14.7395 199.335 16.3099C199.584 16.8124 199.708 17.3149 199.708 17.8174C199.77 18.5083 199.708 19.1365 199.522 19.8274C199.149 20.8952 198.465 21.649 197.408 21.963C196.102 22.3399 194.672 21.9002 193.926 20.644C193.615 20.1415 193.491 19.639 193.428 19.0736C193.366 18.8224 193.366 18.5711 193.304 18.3827ZM194.05 18.3199C194.05 18.6968 194.05 18.948 194.112 19.2621C194.237 19.8274 194.423 20.2671 194.796 20.7068C195.729 21.7746 197.159 21.7118 198.029 20.8324C198.34 20.5183 198.589 20.2043 198.713 19.8274C198.962 19.1993 199.024 18.5083 198.962 17.8174C198.9 17.2521 198.713 16.7495 198.402 16.247C198.092 15.8073 197.719 15.4933 197.283 15.3677C196.351 15.0536 195.232 15.3048 194.61 16.3099C194.485 16.4983 194.423 16.6867 194.299 16.8752C194.112 17.3149 193.988 17.8174 194.05 18.3199Z" fill="white"/>
<path id="Vector_9" d="M138.843 15.242C138.967 15.1164 139.154 14.9908 139.34 14.928C139.962 14.6767 140.646 14.5511 141.33 14.6139C142.138 14.7395 142.698 15.1792 142.946 15.933C143.133 16.4355 143.195 16.8752 143.195 17.3777C143.195 18.2571 143.195 19.1993 143.195 20.0787C143.195 20.3299 143.195 20.5812 143.195 20.8324C143.195 21.0837 143.257 21.3349 143.257 21.5862C143.257 21.649 143.257 21.7746 143.257 21.9002C143.071 21.9002 142.884 21.9002 142.636 21.9002C142.573 21.5862 142.573 21.2721 142.511 20.958C142.387 20.958 142.387 21.0209 142.325 21.0837C142.014 21.4605 141.579 21.7746 141.143 21.9002C140.646 22.0887 140.149 22.0887 139.713 21.963C138.905 21.7746 138.408 21.0837 138.346 20.3299C138.283 19.3249 138.656 18.5711 139.527 18.0686C140.024 17.8174 140.584 17.6289 141.143 17.5661C141.516 17.5033 141.89 17.5033 142.263 17.5033C142.325 17.5033 142.387 17.5033 142.449 17.5033C142.449 17.4405 142.449 17.3777 142.449 17.3149C142.449 17.0636 142.387 16.7496 142.325 16.4983C142.138 15.7445 141.641 15.3049 140.833 15.242C140.211 15.242 139.651 15.3677 139.154 15.6817C139.092 15.6817 139.029 15.7445 138.967 15.8074C138.905 15.7445 138.905 15.6189 138.843 15.5561C138.905 15.4305 138.843 15.3049 138.843 15.242ZM142.449 18.1314C141.889 18.1314 141.268 18.1314 140.708 18.2571C140.397 18.3199 140.149 18.3827 139.9 18.5711C139.34 18.8852 139.029 19.3249 139.029 19.953C139.029 20.2043 139.029 20.4555 139.092 20.644C139.278 21.1465 139.651 21.4605 140.149 21.5234C140.459 21.5862 140.833 21.5234 141.143 21.3977C142.014 21.0837 142.511 20.2043 142.449 19.5133C142.449 19.1365 142.449 18.7596 142.449 18.3827C142.511 18.3199 142.511 18.1943 142.449 18.1314Z" fill="white"/>
<path id="Vector_10" d="M219.423 14.8022C219.672 14.8022 219.859 14.8022 220.107 14.8022V15.1163C220.107 16.3726 220.107 17.566 220.107 18.8223C220.107 19.262 220.107 19.7017 220.232 20.1414C220.294 20.3298 220.356 20.4554 220.418 20.6439C220.667 21.0836 221.04 21.3976 221.537 21.4604C221.786 21.5233 222.097 21.5233 222.346 21.4604C223.092 21.3348 224.024 20.4554 224.024 19.3876C224.024 19.262 224.024 19.1364 224.024 19.0735C224.024 17.8173 224.024 16.4982 224.024 15.2419V14.9279C224.273 14.8651 224.459 14.9279 224.646 14.8651C224.708 14.9907 224.708 15.1163 224.708 15.1791C224.708 16.6866 224.708 18.1942 224.708 19.7645C224.708 20.4554 224.708 21.1464 224.77 21.8373C224.77 21.9001 224.77 21.9629 224.77 22.0258C224.646 22.0886 224.584 22.0258 224.46 22.0258C224.335 22.0258 224.273 22.0258 224.149 22.0258C224.149 21.6489 224.086 21.2092 224.086 20.7695C223.962 20.8323 223.962 20.9579 223.9 21.0207C223.527 21.5861 222.967 21.9629 222.346 22.0886C221.91 22.1514 221.475 22.1514 221.102 22.0258C220.605 21.9001 220.232 21.5861 219.983 21.1464C219.796 20.8323 219.61 20.4554 219.548 20.0157C219.485 19.7017 219.485 19.3876 219.485 19.0735C219.485 17.6916 219.485 16.2469 219.485 14.8651C219.361 14.8651 219.361 14.8651 219.423 14.8022Z" fill="white"/>
<path id="Vector_11" d="M170.371 21.963H169.687C169.687 21.8374 169.687 21.7746 169.687 21.649C169.687 20.3299 169.687 19.0108 169.687 17.7545C169.687 17.3777 169.687 17.0008 169.563 16.6239C169.563 16.5611 169.563 16.5611 169.501 16.4983C169.127 15.4933 168.195 14.9908 167.2 15.3676C166.33 15.6817 165.832 16.3726 165.708 17.252C165.708 17.3777 165.708 17.5661 165.708 17.7545C165.708 19.0736 165.708 20.3299 165.708 21.649V22.0258C165.583 22.0258 165.459 22.0258 165.335 22.0258C165.21 22.0258 165.148 22.0258 165.024 22.0258C164.962 21.9002 164.962 21.7746 164.962 21.7118C164.962 20.2043 164.962 18.6967 164.962 17.1892C164.962 16.4983 164.962 15.8073 164.9 15.1792C164.9 15.1164 164.9 14.9908 164.9 14.9279C165.086 14.8651 165.273 14.9279 165.459 14.9279C165.521 15.1164 165.521 15.3048 165.521 15.5561C165.521 15.7445 165.521 15.933 165.583 16.1214C165.708 16.1214 165.708 16.0586 165.708 15.9958C166.205 15.1792 166.951 14.8023 167.884 14.7395C168.754 14.7395 169.438 15.1164 169.936 15.8701C170.184 16.3098 170.309 16.7495 170.371 17.252C170.371 17.4405 170.371 17.6289 170.371 17.8173C170.371 19.1364 170.371 20.5183 170.371 21.8374V21.963Z" fill="white"/>
<path id="Vector_12" d="M188.584 21.9631H187.962C187.9 21.9003 187.9 21.7746 187.9 21.649C187.9 20.3928 187.9 19.1365 187.9 17.8174C187.9 17.4405 187.9 17.0637 187.776 16.7496C187.713 16.5612 187.651 16.3727 187.589 16.2471C187.216 15.3677 186.346 15.1165 185.662 15.2421C184.667 15.4305 183.859 16.3727 183.859 17.3777C183.859 17.5034 183.859 17.629 183.859 17.6918C183.859 19.0109 183.859 20.2671 183.859 21.5862V21.9003C183.734 21.9631 183.61 21.9631 183.548 21.9631C183.423 21.9631 183.361 21.9631 183.237 21.9631C183.175 21.8375 183.175 21.7746 183.175 21.649C183.175 20.0787 183.175 18.5084 183.175 16.938C183.175 16.3099 183.175 15.7446 183.112 15.1165C183.112 14.9908 183.112 14.928 183.112 14.8024C183.299 14.7396 183.485 14.8024 183.734 14.8024C183.796 15.2421 183.796 15.619 183.796 15.9958C183.921 15.9958 183.921 15.933 183.921 15.8702C184.418 15.0536 185.164 14.6768 186.097 14.6768C187.029 14.6768 187.713 15.1165 188.149 15.933C188.335 16.2471 188.397 16.624 188.46 17.0008C188.522 17.2521 188.522 17.5034 188.522 17.7546C188.522 19.0737 188.522 20.3928 188.522 21.7118V21.9631H188.584Z" fill="white"/>
<path id="Vector_13" d="M150.773 21.963H150.089C150.089 21.8374 150.089 21.7746 150.089 21.7118C150.089 20.3927 150.089 19.0736 150.089 17.7545C150.089 17.3777 150.027 17.0008 149.965 16.6239C149.903 16.4983 149.903 16.3726 149.841 16.247C149.468 15.3676 148.659 15.1164 147.976 15.242C147.043 15.3676 146.297 16.1842 146.172 17.1264C146.172 17.3148 146.11 17.5033 146.11 17.6917C146.11 19.0108 146.11 20.2671 146.11 21.5861V21.963C145.862 21.963 145.675 21.963 145.488 21.963C145.426 21.8374 145.426 21.7746 145.426 21.6489C145.426 20.0158 145.426 18.3827 145.426 16.6867C145.426 16.0586 145.426 15.4933 145.364 14.8651C145.364 14.8023 145.364 14.8023 145.364 14.7395C145.551 14.7395 145.737 14.7395 145.986 14.7395C146.048 15.1164 145.986 15.4933 146.048 15.8701C146.172 15.8701 146.172 15.8073 146.172 15.7445C146.545 15.1792 147.043 14.8023 147.727 14.6139C148.162 14.4882 148.597 14.4882 149.032 14.6139C149.654 14.8023 150.152 15.1792 150.463 15.8073C150.649 16.247 150.773 16.6867 150.773 17.1264C150.773 17.252 150.773 17.3777 150.773 17.5033C150.773 18.8852 150.773 20.2671 150.773 21.6489V21.963Z" fill="white"/>
<path id="Vector_14" d="M109.618 14.8022H110.302C110.302 14.9279 110.302 15.0535 110.302 15.1163C110.302 16.561 110.302 18.0057 110.302 19.4504C110.302 20.267 110.302 21.0836 110.364 21.9001C110.178 21.9629 109.929 21.9001 109.743 21.9629C109.68 21.5233 109.743 21.1464 109.68 20.7695C109.556 20.7695 109.556 20.8951 109.494 20.9579C109.183 21.3976 108.81 21.7745 108.313 21.9629C107.815 22.1514 107.318 22.2142 106.758 22.0886C106.136 21.9629 105.763 21.5861 105.453 21.0836C105.266 20.7067 105.142 20.3298 105.08 19.9529C105.017 19.7017 105.017 19.3876 105.017 19.1364C105.017 17.8173 105.017 16.4354 105.017 15.1163C105.017 15.0535 105.017 14.9907 105.017 14.9279C105.266 14.8651 105.453 14.9279 105.701 14.9279C105.701 15.0535 105.701 15.1791 105.701 15.3047C105.701 16.4982 105.701 17.7545 105.701 18.9479C105.701 19.3876 105.763 19.7645 105.826 20.1414C105.888 20.3926 105.95 20.6439 106.074 20.8951C106.323 21.3348 106.696 21.5861 107.193 21.6489C107.753 21.7117 108.313 21.5861 108.748 21.2092C109.307 20.7695 109.618 20.1414 109.618 19.3876C109.618 18.0057 109.618 16.6866 109.618 15.3676V14.8022Z" fill="white"/>
<path id="Vector_15" d="M202.261 14.7395C202.821 14.7395 203.443 14.7395 204.002 14.7395C204.065 14.928 204.002 15.1164 204.002 15.3048C203.878 15.3677 203.691 15.3048 203.567 15.3048C203.381 15.3048 203.256 15.3048 203.07 15.3048C202.945 15.3048 202.759 15.3048 202.634 15.3048C202.51 15.3048 202.324 15.3048 202.199 15.3048C202.199 15.8702 202.199 16.4355 202.199 16.938C202.199 17.5033 202.199 18.0058 202.199 18.5711V20.2043V21.8374C201.951 21.9002 201.764 21.8374 201.515 21.9002C201.515 21.5862 201.515 21.3349 201.515 21.0837C201.515 20.8324 201.515 20.5183 201.515 20.2671V19.4505V18.6339V17.8174V17.0008V16.1842V15.3677C201.204 15.3048 200.894 15.3677 200.583 15.3048C200.521 15.1164 200.583 14.928 200.583 14.7395C200.894 14.6767 201.204 14.7395 201.515 14.6767C201.577 14.5511 201.577 14.4255 201.577 14.2998C201.577 13.8601 201.64 13.3576 201.702 12.918C201.764 12.6039 201.888 12.3526 202.075 12.1014C202.448 11.4732 203.008 11.1592 203.754 11.1592C204.065 11.1592 204.375 11.1592 204.686 11.2848C204.748 11.2848 204.811 11.3476 204.873 11.4104C204.873 11.5989 204.748 11.7873 204.686 11.9129C204.624 11.9129 204.562 11.9129 204.562 11.8501C204.251 11.7245 204.002 11.7245 203.691 11.7245C203.256 11.7245 202.883 11.9758 202.697 12.3526C202.572 12.6039 202.448 12.9179 202.448 13.1692C202.386 13.6717 202.386 14.1114 202.386 14.6139C202.199 14.6767 202.199 14.7395 202.261 14.7395Z" fill="white"/>
<path id="Vector_16" d="M240.002 15.0536C239.94 15.242 239.815 15.4305 239.753 15.6189C239.691 15.5561 239.567 15.5561 239.504 15.4933C238.82 15.1792 238.074 15.1164 237.39 15.3048C236.707 15.4933 236.209 15.8702 235.836 16.4983C235.587 16.938 235.463 17.3777 235.401 17.8174C235.339 18.4455 235.339 19.0736 235.587 19.7018C235.898 20.644 236.582 21.2721 237.515 21.4605C238.074 21.5862 238.696 21.5233 239.256 21.3349C239.442 21.2721 239.567 21.2093 239.691 21.1465C239.815 21.2093 239.815 21.3349 239.815 21.3977C239.877 21.4605 239.877 21.5861 239.877 21.649C239.691 21.7746 239.442 21.8374 239.194 21.9002C238.572 22.0887 237.888 22.1515 237.204 22.0258C236.085 21.8374 235.276 21.1465 234.841 20.0786C234.406 18.948 234.406 17.8174 234.903 16.6867C235.401 15.4933 236.333 14.8023 237.639 14.6139C238.261 14.5511 238.82 14.6139 239.442 14.8023C239.691 14.928 239.815 14.9908 240.002 15.0536Z" fill="white"/>
<path id="Vector_17" d="M230.232 15.0536C230.169 15.242 230.045 15.4305 229.983 15.6189C229.859 15.5561 229.796 15.4933 229.734 15.4933C229.361 15.3048 228.988 15.242 228.615 15.242C228.553 15.242 228.429 15.242 228.366 15.242C227.682 15.3676 227.247 15.933 227.372 16.7495C227.434 17.0008 227.558 17.1892 227.745 17.3777C227.869 17.5033 228.055 17.6289 228.242 17.6917C228.491 17.8174 228.677 17.943 228.926 18.0058C229.237 18.1314 229.486 18.2571 229.734 18.4455C230.543 19.0736 230.791 20.0786 230.294 20.958C230.045 21.4605 229.61 21.7746 229.112 21.963C228.242 22.2143 227.372 22.1515 226.563 21.649C226.563 21.649 226.563 21.5862 226.501 21.5862C226.563 21.3977 226.625 21.2093 226.75 21.0208C226.874 21.0836 226.936 21.1465 227.061 21.2093C227.558 21.4605 228.118 21.5862 228.677 21.4605C228.802 21.4605 228.926 21.3977 229.05 21.3977C229.672 21.1465 229.921 20.644 229.921 20.0786C229.921 19.6389 229.734 19.3249 229.423 19.0736C229.175 18.8852 228.926 18.7596 228.677 18.6339C228.491 18.5711 228.304 18.4455 228.118 18.3827C227.869 18.2571 227.62 18.0686 227.372 17.8802C226.377 17.0636 226.688 15.6817 227.496 15.0536C227.869 14.8023 228.304 14.6767 228.739 14.6139C229.237 14.6139 229.734 14.6767 230.169 14.928C230.107 14.9908 230.169 14.9908 230.232 15.0536Z" fill="white"/>
<path id="Vector_18" d="M113.232 21.963H112.548C112.548 21.9002 112.548 21.7746 112.548 21.7118C112.548 20.3299 112.548 19.0108 112.548 17.6289C112.548 16.8124 112.548 15.9958 112.486 15.1792C112.486 15.0536 112.486 14.928 112.486 14.8023C112.673 14.7395 112.859 14.8023 113.046 14.8023C113.108 15.0536 113.046 15.242 113.108 15.4933C113.108 15.7445 113.108 15.933 113.108 16.1842C113.232 16.1842 113.232 16.0586 113.232 15.9958C113.357 15.6817 113.605 15.3677 113.854 15.1164C114.165 14.8023 114.538 14.6767 114.973 14.6139C115.097 14.6139 115.222 14.6139 115.346 14.6139C115.408 14.8651 115.346 15.0536 115.346 15.3048H115.035C114.476 15.3048 114.103 15.5561 113.73 15.933C113.419 16.3098 113.294 16.7495 113.17 17.1892C113.108 17.4405 113.108 17.7546 113.108 18.0058C113.108 19.1993 113.108 20.3927 113.108 21.5862V21.963H113.232Z" fill="white"/>
<path id="Vector_19" d="M172.668 14.8022H173.29C173.29 14.8022 173.352 14.8022 173.352 14.8651C173.352 14.8651 173.352 14.8651 173.352 14.9279C173.352 17.252 173.352 19.576 173.352 21.9629C173.352 21.9629 173.352 22.0258 173.29 22.0258C173.103 22.0258 172.855 22.0258 172.668 22.0258C172.668 22.0258 172.668 22.0258 172.668 21.9629C172.668 19.6389 172.668 17.3148 172.668 14.9907C172.606 14.8651 172.668 14.8651 172.668 14.8022Z" fill="white"/>
<path id="Vector_20" d="M232.297 14.8023C232.484 14.7395 232.732 14.8023 232.919 14.8023L232.981 14.8651C232.981 14.8651 232.981 14.8651 232.981 14.928C232.981 17.252 232.981 19.5761 232.981 21.963V22.0258C232.795 22.0258 232.546 22.0258 232.359 22.0258C232.359 22.0258 232.359 22.0258 232.359 21.963C232.359 21.963 232.359 21.963 232.359 21.9002C232.359 19.5761 232.359 17.252 232.359 14.8651C232.297 14.8651 232.297 14.8023 232.297 14.8023Z" fill="white"/>
</g>
<path id="Vector_21" d="M173.532 12.6666C173.532 13.1691 173.159 13.4204 172.786 13.2947C172.6 13.2319 172.413 12.9807 172.413 12.7294C172.413 12.541 172.475 12.4154 172.537 12.2897C172.786 11.9757 173.221 12.0385 173.408 12.3525C173.47 12.4782 173.47 12.6038 173.532 12.6666Z" fill="white"/>
<path id="Vector_22" d="M233.16 12.7295C233.16 13.0435 232.973 13.2948 232.663 13.3576C232.476 13.3576 232.352 13.3576 232.227 13.232C231.916 12.9807 231.979 12.4154 232.29 12.227C232.538 12.1013 232.787 12.1013 232.973 12.2898C233.16 12.4154 233.16 12.541 233.16 12.7295Z" fill="white"/>
</g>
<g id="Group_4">
<g id="Group_5">
<path id="Vector_23" d="M119.755 36.9125H119.133C119.071 36.8497 119.071 36.7241 119.071 36.5985C119.071 35.2166 119.071 33.8975 119.071 32.5156C119.071 32.1387 119.071 31.7619 118.947 31.4478C118.885 31.3222 118.823 31.1965 118.76 31.0081C118.387 30.2543 117.579 29.9403 116.771 30.2543C116.522 30.38 116.336 30.5056 116.149 30.694C115.652 31.1965 115.403 31.8247 115.403 32.5156C115.403 33.0809 115.403 33.7091 115.403 34.2744C115.403 35.0281 115.403 35.7191 115.403 36.4729V36.8497C115.154 36.8497 114.968 36.8497 114.719 36.8497C114.657 36.7241 114.719 36.5985 114.657 36.4729C114.657 34.9025 114.657 33.3322 114.657 31.7619C114.657 31.1337 114.657 30.4428 114.595 29.8146C114.595 29.7518 114.595 29.7518 114.595 29.689C114.719 29.689 114.781 29.689 114.905 29.689C115.03 29.689 115.092 29.689 115.216 29.689C115.216 30.0659 115.279 30.4428 115.279 30.8825C115.341 30.8197 115.403 30.8197 115.403 30.7568C115.527 30.5684 115.652 30.4428 115.776 30.2543C116.398 29.6262 117.144 29.375 117.952 29.5634C118.449 29.689 118.823 29.9403 119.133 30.38C119.258 30.5056 119.32 30.694 119.444 30.8825C119.444 30.9453 119.506 31.0081 119.506 31.0709C119.569 30.9453 119.631 30.8197 119.693 30.7568C120.004 30.2543 120.439 29.8775 121.061 29.689C121.434 29.5634 121.807 29.5634 122.242 29.6262C122.864 29.7518 123.299 30.1287 123.672 30.6312C123.859 31.0081 123.983 31.385 124.045 31.8247C124.107 32.1387 124.107 32.4528 124.107 32.7669C124.107 34.0231 124.107 35.2794 124.107 36.5985C124.107 36.7241 124.107 36.8497 124.107 36.9754C123.983 36.9754 123.859 36.9754 123.734 36.9754C123.61 36.9754 123.548 36.9754 123.424 36.9754C123.424 36.8497 123.424 36.7241 123.424 36.5985C123.424 35.405 123.424 34.2116 123.424 33.0181C123.424 32.6412 123.424 32.2015 123.299 31.8247C123.237 31.6362 123.175 31.4478 123.113 31.2594C122.677 30.1915 121.558 30.1287 120.874 30.5056C120.315 30.8197 119.942 31.3222 119.755 31.9503C119.693 32.1387 119.693 32.39 119.693 32.6412C119.693 34.0231 119.693 35.3422 119.693 36.7241C119.755 36.6613 119.755 36.7869 119.755 36.9125Z" fill="white"/>
<path id="Vector_24" d="M127.026 35.8447V39.8019C126.777 39.8648 126.591 39.8019 126.342 39.8648C126.28 39.7391 126.28 39.6135 126.28 39.4879C126.28 37.3522 126.28 35.1538 126.28 33.0181C126.28 32.0131 126.218 31.0081 126.218 30.0031C126.218 29.9403 126.218 29.8146 126.218 29.7518C126.404 29.689 126.591 29.7518 126.84 29.7518C126.84 29.8146 126.902 29.8775 126.902 29.9403C126.902 30.2543 126.902 30.5684 126.902 30.8825C126.902 30.9453 126.902 31.0081 126.964 31.0709C127.026 31.0081 127.088 30.8825 127.151 30.8197C127.524 30.2543 128.021 29.9403 128.643 29.7518C129.886 29.4378 131.13 29.8775 131.876 31.0709C132.125 31.5106 132.249 31.9503 132.311 32.39C132.435 33.2694 132.373 34.0859 132.125 34.9653C131.938 35.4678 131.689 35.9703 131.316 36.2844C130.446 37.101 129.389 37.2894 128.27 36.9125C127.834 36.7869 127.461 36.4728 127.151 36.096C127.151 35.9703 127.151 35.9075 127.026 35.8447ZM131.752 33.3322C131.752 33.1437 131.752 32.8925 131.689 32.7041C131.627 32.0759 131.441 31.5106 131.068 31.0709C130.384 30.1915 129.264 30.0031 128.332 30.5056C127.461 31.0081 127.026 31.7619 126.964 32.7041C126.902 33.2066 126.964 33.7719 126.964 34.2744C126.964 34.4 126.964 34.5256 127.026 34.5884C127.275 35.6563 128.207 36.5357 129.451 36.4728C130.135 36.41 130.632 36.1588 131.068 35.6563C131.254 35.405 131.441 35.091 131.503 34.7769C131.689 34.2744 131.752 33.8347 131.752 33.3322Z" fill="white"/>
<path id="Vector_25" d="M222.961 26.2971H223.583C223.645 26.4227 223.645 26.4856 223.645 26.6112C223.645 27.9303 223.645 29.2493 223.645 30.5684C223.645 30.694 223.645 30.7569 223.645 30.8825C223.77 30.8197 223.77 30.7569 223.832 30.694C224.267 30.0659 224.827 29.689 225.573 29.5634C226.505 29.375 227.5 29.8147 227.998 30.694C228.184 31.0081 228.309 31.385 228.309 31.7619C228.371 32.0131 228.371 32.2644 228.371 32.5156C228.371 33.8975 228.371 35.2794 228.371 36.6613C228.371 36.7241 228.371 36.7869 228.371 36.8497C228.246 36.9125 228.122 36.9125 228.06 36.9125C227.935 36.9125 227.873 36.9125 227.749 36.9125C227.687 36.7869 227.687 36.6613 227.687 36.5985C227.687 35.3422 227.687 34.1488 227.687 32.8925C227.687 32.5156 227.687 32.1387 227.562 31.7619C227.5 31.5734 227.438 31.385 227.376 31.1965C227.065 30.5056 226.443 30.1915 225.635 30.2543C224.516 30.38 223.645 31.3222 223.645 32.4528C223.645 33.8347 223.645 35.1538 223.645 36.5357V36.9125C223.459 36.9754 223.21 36.9126 222.961 36.9754C222.961 36.8497 222.961 36.7869 222.961 36.7241C222.961 36.096 222.961 35.4678 222.961 34.9025V26.7368V26.2971Z" fill="white"/>
<path id="Vector_26" d="M202.889 33.395C202.889 32.7041 203.014 32.076 203.262 31.4478C203.697 30.5685 204.319 29.9403 205.314 29.6891C206.558 29.375 208.112 29.7519 208.858 31.2594C209.107 31.7619 209.231 32.2644 209.293 32.8297C209.355 33.5207 209.293 34.2116 209.045 34.9026C208.671 35.9704 207.925 36.6613 206.868 36.9754C205.563 37.3523 204.195 36.8498 203.449 35.6563C203.076 35.091 202.951 34.4001 202.889 33.7091C202.889 33.5835 202.889 33.4579 202.889 33.395ZM206.122 30.1916C205.252 30.1916 204.568 30.5685 204.133 31.2594C204.008 31.4478 203.884 31.6363 203.822 31.8875C203.573 32.6413 203.511 33.395 203.635 34.1488C203.76 34.7769 204.008 35.2794 204.444 35.7191C205.314 36.6613 206.682 36.6613 207.615 35.8448C207.988 35.5307 208.236 35.1538 208.361 34.7141C208.609 33.9604 208.671 33.2066 208.547 32.4528C208.423 31.9503 208.298 31.5107 207.988 31.1338C207.49 30.5056 206.868 30.1916 206.122 30.1916Z" fill="white"/>
<path id="Vector_27" d="M182.366 33.395C182.366 32.7668 182.428 32.1387 182.677 31.5106C183.112 30.5684 183.733 29.9403 184.728 29.689C185.972 29.3749 187.526 29.8146 188.272 31.2593C188.645 31.9503 188.708 32.704 188.708 33.5206C188.708 34.0231 188.583 34.5256 188.397 34.9653C187.961 36.0959 187.091 36.8497 185.91 37.0381C184.79 37.2266 183.858 36.8497 183.112 35.9703C182.739 35.4678 182.49 34.9025 182.366 34.3372C182.366 34.2115 182.303 34.0859 182.303 33.9603C182.366 33.7719 182.366 33.5834 182.366 33.395ZM188.086 33.2065C188.086 33.0809 188.086 32.9553 188.024 32.7668C187.961 32.1387 187.713 31.5734 187.34 31.0709C186.469 29.8774 184.666 29.9403 183.796 31.0081C183.547 31.2593 183.423 31.5734 183.298 31.8875C182.987 32.704 182.925 33.4578 183.112 34.2744C183.236 34.9025 183.547 35.5306 184.044 35.9703C184.79 36.5985 185.847 36.6613 186.656 36.1588C187.091 35.9075 187.402 35.4678 187.651 35.0281C187.961 34.4628 188.086 33.8975 188.086 33.2065Z" fill="white"/>
<path id="Vector_28" d="M161.664 33.2694C161.664 33.8975 161.602 34.5256 161.354 35.0909C160.856 36.1588 160.048 36.8497 158.867 37.0381C157.685 37.2266 156.69 36.7869 156.006 35.8447C155.633 35.3422 155.447 34.7769 155.323 34.1487C155.198 33.395 155.26 32.5784 155.509 31.8246C155.758 31.1337 156.131 30.5684 156.69 30.1287C158.058 29.0609 160.359 29.3121 161.291 31.2593C161.54 31.9503 161.664 32.5784 161.664 33.2694ZM160.981 33.3322C160.918 33.0181 160.918 32.7668 160.856 32.4528C160.732 31.9503 160.545 31.5106 160.234 31.0709C159.364 29.8774 157.561 29.9403 156.69 30.9453C156.504 31.1965 156.317 31.4478 156.193 31.7618C155.82 32.6412 155.82 33.5834 156.069 34.5256C156.255 35.0909 156.504 35.5306 157.001 35.9075C157.747 36.5356 158.804 36.5985 159.613 36.0959C159.986 35.8447 160.297 35.4678 160.545 35.0909C160.856 34.5256 160.981 33.9603 160.981 33.3322Z" fill="white"/>
<path id="Vector_29" d="M112.985 33.3322C112.985 33.8975 112.923 34.5256 112.612 35.091C112.115 36.1588 111.307 36.8497 110.125 37.0382C108.944 37.2266 108.011 36.7869 107.265 35.8447C106.892 35.3422 106.643 34.7769 106.581 34.1488C106.457 33.395 106.519 32.5784 106.768 31.8247C106.954 31.1965 107.327 30.694 107.825 30.2543C109.193 29.0609 111.617 29.3121 112.55 31.2594C112.861 31.8875 112.985 32.5156 112.985 33.3322ZM107.265 33.2694C107.265 33.5834 107.265 33.8975 107.327 34.2116C107.452 34.7769 107.7 35.3422 108.136 35.7819C109.006 36.7241 110.374 36.7241 111.244 35.9075C111.555 35.5935 111.804 35.2166 111.99 34.8397C112.239 34.2116 112.301 33.5206 112.239 32.8297C112.177 32.2016 111.928 31.6362 111.617 31.1337C110.747 29.8775 108.82 29.9403 107.949 31.0709C107.825 31.2594 107.7 31.4478 107.576 31.6362C107.327 32.1387 107.265 32.7041 107.265 33.2694Z" fill="white"/>
<path id="Vector_30" d="M134.304 33.2694C134.304 33.8976 134.366 34.4629 134.615 35.0282C135.05 35.9704 135.734 36.4101 136.729 36.4729C137.413 36.5357 138.035 36.4101 138.657 36.1588C138.657 36.1588 138.719 36.1588 138.781 36.1588C138.843 36.3473 138.905 36.4729 138.967 36.6613C138.843 36.7242 138.719 36.787 138.594 36.8498C137.786 37.1638 136.978 37.2267 136.107 37.101C135.299 36.9754 134.677 36.5357 134.18 35.7819C133.931 35.4051 133.745 34.9026 133.683 34.4629C133.496 33.5207 133.558 32.6413 133.869 31.7619C134.056 31.2594 134.304 30.8197 134.677 30.4428C135.423 29.6891 136.356 29.5006 137.413 29.7519C137.91 29.8775 138.346 30.1916 138.657 30.6313C138.967 31.071 139.154 31.5735 139.216 32.076C139.278 32.39 139.278 32.7669 139.278 33.081C139.278 33.1438 139.278 33.2066 139.278 33.2694C138.843 33.3322 138.408 33.2694 138.035 33.2694C137.6 33.2694 137.227 33.2694 136.791 33.2694H135.548H134.304ZM138.657 32.6413C138.657 32.2016 138.594 31.7619 138.47 31.385C138.097 30.38 137.164 30.0031 136.232 30.1916C135.734 30.2544 135.361 30.5685 135.05 30.9453C134.677 31.385 134.491 31.9503 134.429 32.5157C134.429 32.5785 134.429 32.5785 134.429 32.6413C134.677 32.7041 138.221 32.7041 138.657 32.6413Z" fill="white"/>
<path id="Vector_31" d="M105.394 36.0331C105.456 36.2215 105.518 36.41 105.58 36.5984C105.518 36.6612 105.456 36.6612 105.394 36.724C105.021 36.9125 104.586 36.9753 104.213 37.0381C103.715 37.1009 103.218 37.1637 102.72 37.1009C101.539 37.0381 100.482 36.5356 99.6738 35.6562C99.1764 35.0909 98.8655 34.3999 98.679 33.709C98.3681 32.5155 98.4303 31.3221 98.7412 30.1286C99.0521 29.1864 99.5495 28.3699 100.358 27.7417C101.104 27.1764 101.912 26.9252 102.783 26.7995C103.467 26.7367 104.15 26.7995 104.834 26.9252C105.083 26.988 105.332 27.0508 105.518 27.1764C105.518 27.3649 105.394 27.5533 105.332 27.7417C105.27 27.6789 105.207 27.6789 105.145 27.6789C104.523 27.4277 103.84 27.3021 103.218 27.3649C102.72 27.3649 102.223 27.4277 101.788 27.6161C100.669 28.0558 99.9225 28.8724 99.5494 30.003C99.3007 30.694 99.2386 31.3849 99.2386 32.1387C99.2386 32.7668 99.3007 33.3321 99.5494 33.9602C100.047 35.405 101.042 36.2843 102.534 36.4728C103.467 36.5984 104.399 36.5356 105.27 36.1587C105.27 36.0959 105.332 36.0331 105.394 36.0331Z" fill="white"/>
<path id="Vector_32" d="M210.965 29.7518C211.213 29.7518 211.4 29.7518 211.649 29.7518C211.649 29.8774 211.649 30.003 211.649 30.1287C211.649 31.3221 211.649 32.5156 211.649 33.709C211.649 34.1487 211.649 34.5884 211.773 35.0281C211.835 35.1537 211.835 35.2793 211.897 35.405C212.208 36.2215 212.892 36.5356 213.7 36.41C214.695 36.2843 215.441 35.4678 215.566 34.4628C215.566 34.2743 215.628 34.0859 215.628 33.8974C215.628 32.6412 215.628 31.3221 215.628 30.0658V29.7518C215.752 29.689 215.877 29.689 215.939 29.689C216.063 29.689 216.125 29.689 216.25 29.689C216.312 29.8146 216.312 29.9402 216.312 30.0658C216.312 31.6362 216.312 33.2065 216.312 34.7768C216.312 35.405 216.312 36.0959 216.374 36.724V36.7869C216.187 36.8497 216.001 36.7869 215.814 36.7869C215.752 36.6612 215.814 36.5356 215.752 36.3472C215.752 36.2215 215.752 36.0959 215.752 35.9703C215.752 35.8447 215.752 35.719 215.752 35.5934C215.628 35.5934 215.628 35.719 215.566 35.719C215.255 36.1587 214.882 36.5356 214.384 36.724C213.887 36.9125 213.327 36.9753 212.83 36.8497C212.27 36.724 211.835 36.3472 211.524 35.7818C211.276 35.2793 211.151 34.7768 211.089 34.2115C211.089 34.0859 211.089 33.9603 211.089 33.8346C211.089 32.5156 211.089 31.1965 211.089 29.8774C210.965 29.9402 210.965 29.8774 210.965 29.7518Z" fill="white"/>
<path id="Vector_33" d="M168.753 36.9126H168.069C168.069 36.7869 168.069 36.7241 168.069 36.5985C168.069 35.3422 168.069 34.0231 168.069 32.7669C168.069 32.39 168.069 32.0131 167.945 31.6363C167.882 31.4478 167.82 31.2594 167.758 31.0709C167.447 30.5056 167.012 30.2544 166.39 30.1915C165.395 30.1287 164.525 30.8197 164.214 31.7619C164.09 32.0759 164.09 32.39 164.09 32.6413C164.09 33.9603 164.09 35.2166 164.09 36.5357V36.8497C163.965 36.9126 163.841 36.8497 163.717 36.9126C163.592 36.9126 163.53 36.9126 163.406 36.9126C163.344 36.7869 163.344 36.6613 163.344 36.5357C163.344 34.9653 163.344 33.4578 163.344 31.8875C163.344 31.1966 163.344 30.5056 163.281 29.8147V29.7519C163.468 29.689 163.655 29.7519 163.903 29.7519C163.965 30.1287 163.903 30.5684 163.965 30.9453C164.09 30.9453 164.09 30.8825 164.09 30.8197C164.649 30.0031 165.395 29.6262 166.328 29.6262C167.261 29.6262 167.882 30.0659 168.318 30.8825C168.504 31.3222 168.629 31.7619 168.629 32.2016C168.629 32.3272 168.629 32.4528 168.629 32.5784C168.629 33.9603 168.629 35.2794 168.629 36.6613V36.9126H168.753Z" fill="white"/>
<path id="Vector_34" d="M196.229 26.8624C196.478 26.8624 196.727 26.8624 196.976 26.8624C197.846 28.5584 198.717 30.2543 199.649 32.0131C200.52 30.2543 201.452 28.5584 202.385 26.8624C202.634 26.8624 202.82 26.8624 203.007 26.8624C203.007 26.8624 203.069 26.8624 203.131 26.8624C203.069 26.9881 203.007 27.0509 202.944 27.1765C202.012 28.8724 201.017 30.5684 200.084 32.2644C199.96 32.4528 199.898 32.6412 199.898 32.8925C199.898 34.0859 199.898 35.3422 199.898 36.5357C199.898 36.6613 199.898 36.7869 199.836 36.9125H199.214C199.152 36.8497 199.152 36.7241 199.152 36.5985C199.152 35.3422 199.152 34.0859 199.152 32.8297C199.152 32.5784 199.09 32.39 199.027 32.2015C198.095 30.5056 197.224 28.8096 196.292 27.1137C196.292 27.1137 196.229 26.9881 196.229 26.8624Z" fill="white"/>
<path id="Vector_35" d="M180.193 29.7518C180.38 29.7518 180.566 29.7518 180.753 29.7518C180.939 29.7518 181.126 29.7518 181.313 29.7518C181.499 29.7518 181.686 29.7518 181.934 29.7518V30.3171C181.872 30.3171 181.81 30.3171 181.748 30.38C181.313 30.38 180.94 30.38 180.504 30.38H180.193C180.131 30.5056 180.131 30.6312 180.131 30.7568C180.131 32.704 180.131 34.6512 180.131 36.5985V36.9753C179.883 37.0382 179.696 36.9753 179.447 36.9753C179.385 36.7869 179.447 36.5356 179.447 36.3472C179.447 36.1588 179.447 35.9703 179.447 35.7819V35.1538V34.5884V33.9603V33.395V32.7668V32.2015V31.5734C179.447 31.385 179.447 31.1965 179.447 31.0081C179.447 30.8196 179.447 30.6312 179.447 30.38C179.136 30.38 178.826 30.38 178.515 30.38C178.515 30.1915 178.515 30.0031 178.515 29.8146C178.826 29.7518 179.136 29.8146 179.447 29.8146C179.509 29.689 179.447 29.5006 179.447 29.3749C179.447 28.9352 179.447 28.4956 179.572 28.0559C179.634 27.8674 179.696 27.679 179.758 27.4905C180.131 26.674 180.877 26.1715 181.748 26.2343C181.996 26.2343 182.307 26.2971 182.556 26.4227C182.618 26.4227 182.68 26.4855 182.743 26.4855C182.68 26.674 182.618 26.7996 182.556 26.988C182.307 26.9252 182.059 26.8624 181.872 26.8624C181.686 26.7996 181.437 26.8624 181.25 26.9252C180.877 26.988 180.629 27.2393 180.504 27.5534C180.38 27.8046 180.256 28.1187 180.256 28.3699C180.193 28.8096 180.193 29.3121 180.193 29.7518C180.193 29.689 180.193 29.689 180.193 29.7518Z" fill="white"/>
<path id="Vector_36" d="M170.494 36.5984C170.556 36.41 170.618 36.2215 170.742 36.0331C170.867 36.0331 170.929 36.0959 171.053 36.1587C171.551 36.41 172.048 36.5356 172.607 36.4728C172.856 36.4728 173.043 36.41 173.229 36.2843C173.602 36.0331 173.851 35.719 173.851 35.2793C173.913 34.714 173.664 34.2743 173.229 33.9603C172.981 33.7718 172.67 33.6462 172.421 33.5206C172.234 33.4577 172.11 33.3949 171.924 33.2693C171.737 33.1437 171.551 33.0181 171.364 32.8924C170.307 32.013 170.618 30.5683 171.551 29.9402C172.048 29.6261 172.545 29.5633 173.105 29.6261C173.54 29.6889 173.913 29.8146 174.286 30.0658C174.224 30.2543 174.162 30.4427 174.038 30.6312C173.975 30.5683 173.913 30.5683 173.851 30.5055C173.416 30.2543 172.981 30.1915 172.545 30.1915C171.737 30.2543 171.24 30.9452 171.426 31.7618C171.488 32.013 171.613 32.2015 171.799 32.3271C171.986 32.4527 172.11 32.5784 172.297 32.6412C172.483 32.7668 172.732 32.8296 172.918 32.9552C173.229 33.0809 173.478 33.2065 173.727 33.3949C174.535 34.0231 174.784 35.0281 174.286 35.9075C174.038 36.4728 173.54 36.7868 172.981 36.9125C172.11 37.1009 171.302 37.0381 170.556 36.5984C170.556 36.5984 170.556 36.5984 170.494 36.5984Z" fill="white"/>
<path id="Vector_37" d="M143.82 36.41C143.882 36.5985 143.882 36.7241 143.882 36.9125C143.758 37.0382 143.571 37.0382 143.447 37.0382C143.136 37.101 142.825 37.101 142.452 37.0382C142.017 36.9125 141.768 36.6613 141.582 36.2844C141.457 36.0331 141.395 35.7819 141.395 35.5306C141.395 35.2794 141.333 35.0281 141.333 34.8397C141.333 33.4578 141.333 32.1387 141.333 30.8197V30.4428C141.271 30.4428 141.147 30.4428 141.084 30.4428C140.774 30.4428 140.525 30.4428 140.214 30.4428C140.09 30.38 140.152 30.2543 140.152 30.1915C140.152 30.1287 140.152 30.0031 140.152 29.8775C140.214 29.8775 140.276 29.8146 140.338 29.8146C140.587 29.8146 140.836 29.8146 141.084 29.8146C141.147 29.8146 141.209 29.8146 141.271 29.8146V28.5584C141.52 28.4328 141.706 28.3699 141.955 28.3071C142.017 28.8096 141.955 29.3121 141.955 29.8775C142.577 29.8775 143.198 29.8775 143.882 29.8775C143.882 30.0031 143.882 30.0659 143.882 30.1287C143.882 30.1915 143.882 30.3172 143.882 30.38C143.82 30.4428 143.758 30.4428 143.696 30.4428C143.198 30.4428 142.701 30.4428 142.266 30.4428C142.204 30.4428 142.079 30.4428 142.017 30.4428C142.017 30.5684 142.017 30.6312 142.017 30.694C142.017 32.1387 142.017 33.5834 142.017 34.9653C142.017 35.2794 142.017 35.5306 142.079 35.7819C142.141 35.9075 142.141 35.9703 142.204 36.096C142.328 36.3472 142.577 36.4728 142.887 36.4728C143.136 36.4728 143.385 36.4728 143.634 36.41C143.696 36.41 143.758 36.41 143.82 36.41Z" fill="white"/>
<path id="Vector_38" d="M217.679 29.7518C218.052 29.7518 218.425 29.7518 218.798 29.7518C218.798 29.6262 218.798 29.5005 218.798 29.3121C218.798 29.1865 218.798 28.998 218.798 28.8724V28.4327C218.984 28.3071 219.233 28.2443 219.482 28.1187C219.544 28.6212 219.482 29.1865 219.544 29.689C220.166 29.689 220.788 29.689 221.409 29.689C221.471 29.7518 221.471 29.8774 221.471 29.9402C221.471 30.003 221.471 30.1287 221.471 30.2543C221.409 30.2543 221.347 30.2543 221.285 30.2543C220.788 30.2543 220.29 30.2543 219.855 30.2543C219.793 30.2543 219.668 30.2543 219.544 30.2543C219.544 30.3171 219.544 30.3799 219.544 30.4427C219.544 31.8874 219.544 33.395 219.544 34.8397C219.544 35.0909 219.544 35.405 219.606 35.6562C219.668 35.7819 219.668 35.8447 219.731 35.9075C219.855 36.1587 220.104 36.3472 220.414 36.3472C220.725 36.3472 220.974 36.3472 221.285 36.2844C221.347 36.3472 221.347 36.4728 221.347 36.5356C221.347 36.5984 221.347 36.6612 221.347 36.7869C221.223 36.9125 221.098 36.9125 220.912 36.9125C220.539 36.9753 220.228 36.9753 219.855 36.9125C219.482 36.7869 219.171 36.5356 218.984 36.2215C218.86 35.9703 218.798 35.719 218.798 35.4678C218.798 35.2165 218.736 34.9653 218.736 34.7769C218.736 33.395 218.736 32.0759 218.736 30.694C218.736 30.5684 218.736 30.4427 218.736 30.3171C218.363 30.3171 217.99 30.3171 217.617 30.3171C217.617 30.1915 217.617 30.1287 217.617 30.003C217.679 29.9402 217.679 29.8774 217.679 29.7518Z" fill="white"/>
<path id="Vector_39" d="M148.728 30.3171C148.355 30.3171 147.982 30.3171 147.609 30.3171C147.547 30.1287 147.609 29.9402 147.609 29.7518C147.982 29.689 148.355 29.7518 148.728 29.689C148.791 29.2493 148.728 28.8724 148.728 28.4327C148.791 28.3071 148.977 28.3071 149.039 28.2443C149.164 28.1815 149.226 28.1815 149.35 28.1187C149.412 28.6212 149.35 29.1237 149.35 29.689C149.599 29.689 149.785 29.689 149.972 29.689C150.158 29.689 150.345 29.689 150.594 29.689H151.215C151.278 29.8774 151.278 30.0659 151.215 30.2543C151.153 30.2543 151.091 30.2543 150.967 30.2543C150.531 30.2543 150.034 30.2543 149.599 30.2543H149.288C149.288 30.3171 149.288 30.3799 149.288 30.4427C149.288 31.9503 149.288 33.395 149.288 34.9025C149.288 35.1537 149.35 35.3422 149.35 35.5934C149.35 35.719 149.412 35.7819 149.474 35.9075C149.599 36.2215 149.847 36.41 150.221 36.41C150.531 36.41 150.78 36.41 151.091 36.3472C151.215 36.5356 151.153 36.6612 151.215 36.8497C151.091 36.9753 150.967 36.9753 150.78 37.0381C150.469 37.1009 150.096 37.1009 149.785 37.0381C149.35 36.9125 149.039 36.6612 148.853 36.2215C148.728 35.9703 148.666 35.6562 148.666 35.3422C148.666 35.1537 148.666 34.9653 148.666 34.7769C148.666 33.395 148.666 32.0131 148.666 30.6312C148.728 30.5684 148.728 30.4427 148.728 30.3171Z" fill="white"/>
<path id="Vector_40" d="M191.195 36.9126H190.573C190.511 36.787 190.511 36.6613 190.511 36.5985C190.511 35.2166 190.511 33.8348 190.511 32.39C190.511 31.5107 190.511 30.6941 190.449 29.8147V29.7519C190.636 29.6891 190.822 29.7519 191.071 29.7519C191.133 29.9403 191.071 30.066 191.071 30.1916C191.071 30.38 191.071 30.5057 191.071 30.6941C191.071 30.8197 191.071 30.9453 191.071 31.1966C191.133 31.0082 191.195 30.9453 191.257 30.8825C191.382 30.5685 191.63 30.3172 191.879 30.066C192.314 29.6891 192.812 29.5635 193.309 29.6263C193.371 29.8147 193.309 30.066 193.371 30.2544C193.309 30.2544 193.185 30.2544 193.123 30.2544C192.563 30.2544 192.128 30.5057 191.755 30.9453C191.444 31.385 191.257 31.8875 191.195 32.39C191.133 32.6413 191.133 32.8926 191.133 33.1438C191.133 34.2744 191.133 35.4051 191.133 36.5357V36.9126H191.195Z" fill="white"/>
<path id="Vector_41" d="M145.489 29.7518H146.111C146.111 29.8146 146.111 29.8774 146.111 29.9403C146.111 32.2015 146.111 34.4628 146.111 36.7241C146.111 36.7869 146.111 36.8497 146.111 36.9125C145.986 36.9753 145.862 36.9753 145.8 36.9753C145.675 36.9753 145.613 36.9753 145.551 36.9753C145.489 36.9753 145.489 36.9125 145.489 36.9125C145.489 36.9125 145.489 36.9125 145.489 36.8497C145.489 34.5884 145.489 32.2644 145.489 30.0031C145.489 29.9403 145.489 29.8146 145.489 29.7518Z" fill="white"/>
<path id="Vector_42" d="M152.833 29.7518C152.895 29.7518 152.957 29.7518 153.02 29.7518C153.206 29.7518 153.33 29.7518 153.517 29.7518C153.579 29.8775 153.579 30.0031 153.579 30.1287C153.579 32.1387 153.579 34.2116 153.579 36.2216V36.9125C153.393 36.9753 153.144 36.9125 152.957 36.9753C152.895 36.8497 152.895 36.7241 152.895 36.5985C152.895 34.5884 152.895 32.6412 152.895 30.6312V29.7518H152.833Z" fill="white"/>
</g>
<path id="Vector_43" d="M145.308 27.7418C145.308 27.4906 145.37 27.3021 145.557 27.1765C145.743 26.9881 146.054 27.0509 146.24 27.2393C146.489 27.4906 146.489 27.8675 146.303 28.1187C146.178 28.3072 145.992 28.3072 145.743 28.3072C145.557 28.2443 145.432 28.1187 145.37 27.9303C145.308 27.8675 145.308 27.7418 145.308 27.7418Z" fill="white"/>
<path id="Vector_44" d="M153.764 27.6161C153.764 28.0558 153.515 28.307 153.204 28.307C153.018 28.307 152.893 28.2442 152.769 28.0558C152.644 27.8045 152.644 27.4905 152.769 27.302C153.018 26.9252 153.453 26.988 153.639 27.3649C153.701 27.4905 153.701 27.5533 153.764 27.6161Z" fill="white"/>
</g>
<g id="Group_6">
<path id="Vector_45" d="M23.9995 29.3384L33.4281 38.6941L40.4995 37.5862L41.1198 37.7093L42.1122 36.9707L47.3227 35.6781L47.757 35.8012L47.6329 35.3088L49.5558 32.2928L43.9731 33.0314L40.4995 31.6158L51.3547 26.2609L51.4167 26.9379L51.5408 29.2769L54.022 29.3384L57.2475 24.599L62.0238 18.8133L51.8509 14.4432L48.0671 14.8125L48.5013 10.627L47.1987 10.6886L46.7645 9.51912L46.3923 10.8117L45.1517 11.0579L43.601 10.5039L43.2908 8.34966L42.9807 8.28811L38.6386 7.11865L31.3811 9.64223L27.3491 12.8429L24.3097 17.1514L20.4638 19.121L18.9131 28.292L23.9995 29.3384Z" fill="white"/>
<path id="Vector_46" d="M46.9525 10.0116C46.8904 9.82697 46.8284 9.70387 46.7664 9.58077C46.6424 9.76542 46.6424 9.95007 46.5183 10.0732C46.2702 10.0732 46.0221 10.1347 45.774 10.2578C45.588 10.3809 45.3399 10.4425 45.1538 10.5656C45.0918 10.6271 45.0918 10.7502 45.1538 10.8733C45.4639 11.058 45.774 11.3042 46.0842 11.5504C45.9601 11.9197 45.8361 12.289 45.712 12.7198C46.1462 12.4736 46.3943 12.1043 46.8284 12.0428C47.1385 12.289 47.4487 12.4736 47.8208 12.7198C47.8208 12.6583 47.8208 12.5967 47.8208 12.5967C47.6968 12.289 47.6347 11.9812 47.5107 11.6735C47.5107 11.6119 47.5107 11.6119 47.4487 11.5504C47.5727 11.3657 47.7588 11.3042 47.9448 11.1811C48.1309 11.058 48.255 10.9349 48.441 10.8118C48.317 10.8118 48.317 10.7502 48.255 10.7502C47.9448 10.7502 47.6347 10.7502 47.3246 10.7502C47.2006 10.7502 47.2006 10.7502 47.1385 10.5656C47.2626 10.5656 47.3246 10.5656 47.3866 10.5656C47.4487 10.5656 47.5107 10.5656 47.5107 10.504C47.5727 10.4425 47.5727 10.4425 47.6347 10.504C47.8828 10.5656 48.1929 10.5656 48.441 10.5656C48.8752 10.504 49.3094 10.6271 49.6815 10.8118C49.7435 10.8118 49.8055 10.8733 49.8055 10.8733C50.1157 10.9349 50.3017 11.1195 50.4878 11.3657C50.7359 11.6735 50.7979 11.9812 50.6739 12.3505C50.5498 12.6583 50.3637 12.966 50.1157 13.1507C49.9296 13.3354 49.6815 13.52 49.4954 13.7047C49.2473 13.8893 49.0613 14.074 48.8132 14.3202C48.7511 14.3817 48.7511 14.4433 48.6891 14.4433C48.6891 14.5048 48.7511 14.5048 48.8132 14.5048C49.1233 14.5048 49.3714 14.5048 49.6815 14.4433C49.9916 14.4433 50.2397 14.3817 50.5498 14.3817C50.8599 14.3817 51.2321 14.3202 51.5422 14.1971C51.9143 14.1355 52.3485 14.074 52.7206 13.9509C52.9067 13.8893 53.1548 13.8893 53.3409 13.8278C53.5889 13.7662 53.837 13.7047 54.0851 13.6431C54.1471 13.6431 54.2712 13.5816 54.3332 13.5816C54.7054 13.4585 55.1395 13.3354 55.5117 13.2738C56.0078 13.1507 56.504 13.0892 57.0002 12.9661C57.4964 12.843 57.9926 12.7198 58.4888 12.6583C58.9229 12.5967 59.4191 12.4736 59.8533 12.4121C61.4659 12.1043 63.0164 11.8581 64.6291 11.4888C65.3733 11.4273 66.0556 11.1811 66.7999 10.9964C67.11 10.9349 67.4201 10.8733 67.6682 10.8733C67.9163 10.8118 68.1023 10.8118 68.3504 10.7502C68.7226 10.6887 69.0327 10.6271 69.4048 10.5656C69.901 10.504 70.3972 10.3809 70.8934 10.3194C71.2035 10.2578 71.5136 10.2578 71.8237 10.2578C72.2579 10.2578 72.63 10.2578 73.0642 10.2578C73.4363 10.2578 73.7465 10.3194 74.0566 10.3809C74.1806 10.3809 74.2426 10.4425 74.3667 10.504C74.4907 10.5656 74.5527 10.6271 74.6148 10.6887C74.6768 10.7502 74.7388 10.8733 74.8629 10.9349C74.9249 10.9964 75.0489 11.058 75.111 11.058C75.111 11.1195 75.0489 11.1195 75.0489 11.1811C75.111 11.2426 75.235 11.3042 75.297 11.3657C75.297 11.4273 75.297 11.4888 75.297 11.6119C75.6071 11.7966 75.9793 11.9197 76.2894 12.0428C76.4134 12.1043 76.5995 12.1043 76.7235 12.1043C77.4678 12.1043 78.2121 12.1043 78.9564 12.1043C79.1425 12.1043 79.3285 12.1043 79.4526 12.1043C79.5146 12.1043 79.6386 12.1043 79.7007 12.1043C80.2589 12.0428 80.8791 11.9812 81.4373 11.9197C81.4993 11.9197 81.6234 11.9197 81.6854 11.9197C82.4297 11.9197 83.1119 11.8581 83.8562 11.7966C84.1663 11.7966 84.5385 11.735 84.8486 11.735C85.3448 11.6735 85.903 11.6735 86.3992 11.6735C86.7093 11.6735 87.0194 11.6735 87.3915 11.6119C87.5776 11.6119 87.7016 11.6735 87.8257 11.735C87.8877 11.735 87.8877 11.7966 87.9497 11.7966C88.1358 12.1043 88.1978 12.4121 88.2598 12.7814V12.8429C88.2598 13.0892 88.1358 13.2738 87.8877 13.3354C87.3915 13.4585 86.8953 13.7047 86.4612 13.8893C86.3992 13.9509 86.2751 13.9509 86.2131 14.0124C86.2131 14.1355 86.2131 14.1971 86.3371 14.1971C86.5232 14.3202 86.7713 14.3817 86.9574 14.3817C87.1434 14.3817 87.3295 14.3817 87.5156 14.2586C87.7016 14.074 87.9497 13.9509 88.1978 13.7662C88.3839 13.6431 88.57 13.6431 88.756 13.6431C88.8801 13.6431 89.0041 13.7047 89.0662 13.8278C89.1282 13.9509 89.2522 14.0124 89.3763 14.1355C89.5003 14.1971 89.6244 14.3202 89.6864 14.4433C89.7484 14.5048 89.8104 14.5664 89.8104 14.6279C89.8725 14.751 89.9345 14.8741 90.1205 14.9357C90.1205 15.0588 90.1826 15.2434 90.3066 15.305C90.3066 15.305 90.3686 15.3665 90.3686 15.4281C90.4307 15.6127 90.4927 15.8589 90.4927 16.0436C90.5547 16.4744 90.4307 16.9053 90.0585 17.213C89.9345 17.3361 89.8104 17.3977 89.6244 17.4592C88.9421 17.767 88.3219 18.0132 87.5776 18.0747C87.1434 18.1363 86.6472 18.1978 86.2131 18.3209C85.5929 18.4441 84.9726 18.5056 84.4144 18.6287C83.9803 18.6903 83.6081 18.8134 83.174 18.8749C82.6158 18.998 82.0575 19.0596 81.4993 19.1211C80.8791 19.1827 80.2589 19.2442 79.6386 19.3058C79.5766 19.3058 79.4526 19.3058 79.3905 19.3058C79.2665 19.3058 79.1425 19.3058 78.9564 19.3058C78.7083 19.3058 78.4602 19.3673 78.2121 19.3673C78.026 19.3673 77.84 19.4289 77.6539 19.4904C76.9096 19.6135 76.2274 19.7982 75.4831 19.9213C74.9869 19.9828 74.4287 20.0444 73.9325 20.1675C73.7464 20.229 73.4984 20.229 73.3123 20.2906C72.9401 20.4137 72.568 20.4752 72.1338 20.4752C71.4516 20.5368 70.7073 20.7214 70.0251 20.9061C69.4669 21.0907 68.8466 21.2754 68.2884 21.3985C67.6062 21.5831 66.9239 21.8293 66.2417 22.014C65.9936 22.0755 65.6834 22.1371 65.4354 22.1986C64.8151 22.3833 64.2569 22.5064 63.6367 22.691C63.3886 22.7526 63.1405 22.8757 62.8924 22.9988C61.5899 23.4912 60.2254 23.9221 58.9229 24.4145C58.4888 24.5376 58.0546 24.7222 57.6825 24.8453C57.4964 24.9069 57.3103 25.03 57.1243 25.2146C57.0622 25.2762 57.0002 25.3993 56.9382 25.4608C56.0699 26.7534 55.1395 28.0459 54.2712 29.4001C54.2092 29.4616 54.2092 29.5232 54.1472 29.5847C54.0231 29.5847 53.837 29.5847 53.713 29.5847C53.4029 29.5847 53.0928 29.5847 52.7206 29.6463C52.6586 29.6463 52.6586 29.6463 52.5966 29.6463C52.2244 29.6463 51.8523 29.6463 51.5422 29.6463H51.4802C51.4181 29.5847 51.4181 29.4616 51.4181 29.4001C51.4181 28.723 51.4181 27.9844 51.4181 27.3073C51.4181 27.1842 51.4181 27.1227 51.4181 26.9996C51.3561 26.9996 51.2941 26.9996 51.2321 27.0611C50.922 27.1842 50.5498 27.3073 50.2397 27.4304C49.8676 27.5535 49.4954 27.7382 49.1233 27.8613C48.9372 27.9228 48.8132 27.9844 48.6271 28.0459C48.1929 28.169 47.6968 28.3537 47.3246 28.5384C46.9525 28.723 46.6424 28.9076 46.2702 29.0923C45.9601 29.277 45.65 29.4001 45.3399 29.5847C44.9057 29.8309 44.4716 30.1387 44.0374 30.3849C43.5412 30.6926 43.045 31.1235 42.6109 31.4928C42.4248 31.6774 42.3628 31.8621 42.3628 32.1083C42.859 32.2929 43.2931 32.416 43.8513 32.2929C44.0994 32.2314 44.3475 32.2314 44.5956 32.2314C44.6576 32.2314 44.7196 32.2314 44.7196 32.1083C44.8437 32.1083 44.9677 32.1083 45.0918 32.1083C45.5259 32.1083 45.9601 31.9852 46.3322 31.9236C46.8284 31.8005 47.3866 31.739 47.8828 31.6774C48.1309 31.6774 48.317 31.6774 48.5651 31.5543H48.6271C49.0613 31.5543 49.4954 31.5543 49.8676 31.5543C50.0536 31.5543 50.2397 31.6159 50.3637 31.739C50.4258 31.8005 50.4258 31.8005 50.4878 31.8621C50.5498 31.9852 50.5498 32.1083 50.5498 32.2314C50.5498 32.2929 50.5498 32.3545 50.4878 32.416C50.3638 32.6622 50.2397 32.9084 50.1157 33.1546C50.0536 33.2777 49.9916 33.4008 49.9296 33.5239C49.9296 33.5855 49.9296 33.5855 49.9296 33.647H49.9916C50.3637 33.5855 50.7359 33.5855 51.17 33.647C51.3561 33.647 51.4802 33.647 51.6042 33.5855C51.6662 33.5855 51.6662 33.5855 51.7283 33.5239C52.4105 33.2777 53.1548 33.1546 53.8991 32.9084C54.2712 32.7853 54.6433 32.6622 54.9535 32.6007C55.2636 32.5391 55.6977 32.416 56.0699 32.3545C56.6901 32.2314 57.3103 32.0467 57.9306 31.9236C58.6128 31.739 59.2951 31.6159 60.0393 31.4312C60.2874 31.3697 60.5355 31.3697 60.7836 31.3081C61.2178 31.2466 61.5899 31.185 62.0241 31.0619C62.3342 31.0004 62.5823 30.8773 62.8924 30.8773C63.1405 30.8773 63.3886 30.8157 63.6367 30.7542C63.8228 30.6926 64.0709 30.6926 64.2569 30.8157C64.381 30.9388 64.381 31.0004 64.381 31.1235C64.381 31.3081 64.3189 31.4312 64.1329 31.4928C63.5747 31.739 63.0165 31.9852 62.3962 32.1698C62.0241 32.2314 61.714 32.2929 61.3418 32.3545C61.0317 32.416 60.7216 32.4776 60.4735 32.5391C59.7913 32.6622 59.171 32.7853 58.4888 32.8469C57.5584 32.97 56.6901 33.1546 55.7598 33.2777C55.0775 33.4008 54.3952 33.5855 53.775 33.8317C52.8447 34.201 51.9763 34.5088 50.984 34.755C50.6739 34.8165 50.3637 35.0012 49.9916 35.0627C49.8055 35.1243 49.5574 35.1858 49.3714 35.2474C49.1233 35.3089 48.8752 35.3705 48.5651 35.432C48.317 35.4936 48.0689 35.5551 47.7588 35.6782C47.7588 35.6167 47.7588 35.6167 47.6968 35.5551C47.6968 35.432 47.6968 35.3705 47.5727 35.3089L47.5107 35.2474C47.4487 35.0627 47.4487 34.9396 47.3866 34.755C47.6347 34.5088 47.9448 34.3241 48.255 34.0779C47.8208 34.0164 47.3866 34.1395 47.0145 34.0163C46.9525 33.7701 46.8284 33.5239 46.7664 33.2777C46.7664 33.2162 46.7044 33.1546 46.7044 33.1546C46.7044 33.0931 46.6424 33.0931 46.5803 33.0931C46.4563 33.2777 46.4563 33.4008 46.3943 33.5855C46.3322 33.7701 46.2702 33.8932 46.2702 34.0779C45.8981 34.201 45.4639 34.1394 45.0918 34.1394C45.0918 34.201 45.0918 34.201 45.1538 34.2625C45.3399 34.3856 45.5259 34.5703 45.774 34.6934C45.8361 34.755 45.8981 34.8165 46.0221 34.8781C45.9601 35.2474 45.774 35.6167 45.712 36.0475C45.8361 36.0475 45.8981 35.9244 45.9601 35.8629C46.0221 35.8013 46.1462 35.7398 46.2082 35.6782C46.2702 35.6167 46.3943 35.5551 46.4563 35.4936C46.5183 35.432 46.6424 35.3705 46.7044 35.3705C46.9525 35.4936 47.2626 35.7398 47.3866 35.8629C47.1385 35.986 46.8904 36.0475 46.6424 36.1091C46.3322 36.2322 46.0221 36.2937 45.712 36.4168C45.65 36.4168 45.65 36.4784 45.588 36.4784C45.4019 36.4784 45.2158 36.5399 45.0298 36.663C44.7196 36.7861 44.4095 36.8477 44.0994 36.9092C43.6653 36.9708 43.2931 37.0939 42.859 37.217C42.4248 37.4632 41.9286 37.5247 41.4324 37.7094C41.3704 37.7094 41.3704 37.7094 41.3084 37.7709C41.3084 37.8325 41.2464 37.894 41.2464 37.9556C41.1843 37.9556 41.1843 37.9556 41.1223 37.9556C40.9362 37.894 40.8122 37.9556 40.6261 38.0171C40.0679 38.2633 39.5097 38.5095 38.8895 38.6942C38.3933 38.8788 37.8351 39.125 37.3389 39.3097C36.8427 39.4944 36.3465 39.679 35.9124 39.8637C35.1681 40.1714 34.4238 40.4792 33.6795 40.7254C32.8112 41.0331 31.9429 41.3409 31.0746 41.7102C29.8341 42.2026 28.5936 42.695 27.2912 43.1874C26.919 43.3105 26.6089 43.4336 26.2368 43.5567C25.7406 43.7413 25.3064 43.926 24.8102 44.1106C24.6862 44.1722 24.5621 44.2338 24.5001 44.2338C24.128 44.3569 23.7558 44.5415 23.3837 44.6646C22.8875 44.8493 22.3913 44.9724 21.8952 45.0955C21.523 45.2186 21.1509 45.2801 20.7167 45.3417C20.0965 45.4648 19.4763 45.6494 18.856 45.6494C18.6079 45.6494 18.2978 45.711 18.0497 45.711C17.8016 45.711 17.6156 45.711 17.3675 45.6494C17.2434 45.6494 17.1194 45.6494 17.0573 45.6494C16.7472 45.711 16.4991 45.711 16.189 45.6494C16.065 45.6494 15.8789 45.6494 15.7549 45.5879C15.4448 45.5263 15.1346 45.5263 14.8245 45.4648C14.7005 45.4648 14.6385 45.4032 14.5144 45.4032C14.0182 45.2186 13.5841 45.0339 13.1499 44.7261C12.7778 44.4799 12.4676 44.2337 12.2196 43.8644C11.9715 43.4951 11.8474 43.0643 11.7854 42.6334C11.7854 42.3872 11.8474 42.2026 11.8474 41.9564C11.8474 41.8948 11.8474 41.7717 11.9094 41.6486C11.8474 41.6486 11.7854 41.6486 11.7854 41.7102C11.5993 41.7717 11.4133 41.8948 11.2272 41.9564C11.0411 42.0179 10.9171 42.0795 10.731 42.141C10.6069 42.141 10.5449 42.141 10.4209 42.0795C10.1728 41.8948 10.1728 41.8948 10.1108 41.5255C10.1108 41.4024 10.0487 41.3409 10.0487 41.2178C9.9247 40.8485 9.98672 40.5407 10.1728 40.233C10.2968 39.9868 10.4209 39.7406 10.607 39.4944C10.9791 38.9404 11.3512 38.3249 11.7854 37.7709C12.1575 37.3401 12.5297 36.9092 12.9638 36.4784C13.1499 36.2937 13.2739 36.1091 13.46 35.986C13.7701 35.6782 14.0802 35.432 14.3904 35.1858C14.8245 34.8781 15.1967 34.5088 15.6308 34.1394C15.8169 33.9548 16.065 33.8317 16.3131 33.647C16.4371 33.5855 16.5612 33.4624 16.6232 33.4008C16.6852 33.4008 16.6852 33.3393 16.6852 33.2162C16.5612 33.2162 16.4371 33.2777 16.3751 33.2777C16.3131 33.2777 16.189 33.2777 16.127 33.2777C15.8789 33.2777 15.5688 33.3393 15.3207 33.4008C15.1967 33.4624 15.0726 33.4624 14.9486 33.5239C14.4524 33.7086 13.9562 33.8932 13.46 34.0779C13.0258 34.201 12.5917 34.3857 12.1575 34.3857C11.8474 34.4472 11.5373 34.3857 11.2272 34.3241C11.1031 34.3241 10.9791 34.2626 10.9171 34.1394C10.855 34.0779 10.855 34.0779 10.793 34.0163C10.1728 33.4624 9.86267 32.7238 9.55256 31.9236C9.42851 31.4928 9.30446 31.0619 9.24244 30.6311C9.18042 30.2618 9.18042 29.8309 9.24244 29.4616C9.24244 29.277 9.30446 29.1539 9.30446 28.9692C9.36649 28.6614 9.49054 28.4152 9.6766 28.2306C9.73863 28.169 9.73863 28.169 9.80065 28.169C10.4829 27.6151 11.1652 26.9996 11.9094 26.4456C12.1575 26.261 12.3436 26.0763 12.5917 25.8917C12.6537 25.8301 12.6537 25.8301 12.7157 25.7686C12.5917 25.707 12.4676 25.6455 12.3436 25.6455C12.2195 25.5839 12.0955 25.4608 12.0335 25.3377C11.9715 25.2146 11.9715 25.0915 12.0335 24.9684C12.0955 24.9069 12.1575 24.8453 12.2196 24.7838C12.5917 24.476 12.9638 24.1683 13.398 23.9221C13.7081 23.7374 14.0802 23.4912 14.3904 23.3065C14.7625 23.0603 15.0106 22.691 15.1346 22.3217C15.1346 22.2602 15.1346 22.1986 15.1346 22.1371C15.1346 22.014 15.0726 21.8909 15.0726 21.7678C15.0106 21.5216 14.8245 21.3369 14.6385 21.2138C14.5144 21.1523 14.3904 21.0907 14.2663 20.9676C14.2043 20.9061 14.1423 20.8445 14.1423 20.7214C14.1423 20.4137 14.2043 20.1059 14.3283 19.8597C14.5144 19.552 14.7005 19.2442 15.0106 18.998C15.5068 18.5672 16.003 18.1979 16.5612 17.8901C16.9953 17.6439 17.4915 17.3977 17.9257 17.1515C17.9877 17.0899 18.0497 17.0899 18.1117 17.0284C18.1117 17.0284 18.1117 16.9668 18.1738 16.9668H17.7396C17.6156 16.8437 17.4915 16.7206 17.3675 16.536C17.3675 16.4744 17.3054 16.4744 17.3054 16.4129C17.2434 16.2282 17.2434 16.0436 17.1814 15.8589C17.1814 15.7974 17.1814 15.7974 17.1814 15.7358C17.1814 15.4281 17.2434 15.305 17.6156 15.2434H17.6776C17.9877 15.1203 18.1738 15.305 18.3598 15.4896C18.4219 15.5512 18.4219 15.6127 18.4219 15.6743C18.4839 15.9205 18.5459 16.2282 18.5459 16.536C18.5459 16.5975 18.5459 16.7206 18.5459 16.7822C18.6079 16.7822 18.67 16.7206 18.67 16.7206C18.918 16.5975 19.1041 16.4744 19.3522 16.3513C19.5383 16.2282 19.7243 16.1667 19.9724 16.0436C20.3446 15.8589 20.7167 15.6743 21.0888 15.4281C21.2749 15.305 21.523 15.1819 21.7091 15.0588C21.9572 14.9357 22.1432 14.751 22.3913 14.6279C22.4534 14.5664 22.5774 14.5048 22.6394 14.4433C22.6394 14.4433 22.7015 14.3817 22.7015 14.3202C22.6394 14.3202 22.5774 14.3202 22.5154 14.3202C22.1432 14.4433 21.7091 14.5048 21.3369 14.6279C21.1509 14.6895 20.9648 14.6279 20.7787 14.5664C20.7787 14.5664 20.7167 14.5664 20.7167 14.5048C20.6547 14.3202 20.5306 14.1971 20.5306 14.0124C20.5306 13.6431 20.5306 13.2738 20.7167 12.9045C20.8408 12.6583 20.9648 12.4736 21.2129 12.289C21.585 12.0428 21.9572 11.7966 22.3293 11.6119C22.8255 11.4273 23.2597 11.1811 23.6938 10.9349C23.8799 10.8118 24.066 10.7502 24.252 10.6887C24.5001 10.5656 24.7482 10.4425 24.9963 10.3194C26.2368 9.58077 27.4772 8.90371 28.7797 8.34976C29.0898 8.22666 29.3999 8.042 29.7721 7.9189C30.0202 7.7958 30.2683 7.6727 30.5784 7.61115C30.8885 7.48805 31.1986 7.36495 31.5087 7.24185C31.6328 7.1803 31.6948 7.1803 31.7568 7.11875C32.5011 6.87254 33.2454 6.50324 33.9897 6.31859C34.858 6.07239 35.7883 5.76463 36.6566 5.45688C37.4009 5.21068 38.0832 4.96447 38.8275 4.77982C39.5717 4.53362 40.378 4.34897 41.1223 4.10277C41.6805 3.91812 42.1767 3.79501 42.7349 3.61036C43.5412 3.30261 44.3475 3.11796 45.2158 2.93331C46.0221 2.74865 46.8284 2.50245 47.6347 2.25625C48.255 2.0716 48.9372 1.88695 49.5574 1.70229C50.2397 1.51764 50.922 1.39454 51.5422 1.20989C51.8523 1.14834 52.2244 1.02524 52.5345 0.963689C53.4029 0.779037 54.2712 0.532834 55.2015 0.409733C55.2636 0.409733 55.3256 0.409734 55.3876 0.348183C56.0078 0.163531 56.6901 0.101981 57.3103 0.0404301C57.7445 -0.0211205 58.1786 -0.0211214 58.6128 0.10198C58.7369 0.10198 58.8609 0.163528 58.985 0.225079C59.109 0.28663 59.2951 0.409732 59.4191 0.471282C59.6672 0.594383 59.8533 0.779036 59.9773 1.02524C60.2254 1.39454 60.4115 1.70229 60.6596 2.0716C60.9697 2.50245 61.2798 2.93331 61.5279 3.48726C61.6519 3.67191 61.714 3.85657 61.776 4.10277C61.838 4.22587 61.838 4.34897 61.9 4.47207C61.9621 4.53362 61.9621 4.59517 61.9621 4.71827C61.9621 5.21068 61.776 5.57998 61.4659 5.88774C61.4039 5.94929 61.3418 6.01083 61.2798 6.07238C60.8456 6.38014 60.4735 6.62634 59.9773 6.81099C58.9229 7.1803 57.8685 7.5496 56.8141 7.7958C56.2559 7.9189 55.6977 8.042 55.2015 8.1651C54.5193 8.28821 53.775 8.47286 53.0928 8.59596C52.7826 8.65751 52.4725 8.71906 52.1624 8.71906C52.1004 8.71906 52.0384 8.71906 51.9763 8.71906C51.4181 8.84216 50.8599 8.96526 50.3017 9.02681C49.7435 9.08836 49.1853 9.21146 48.6271 9.39612C48.1929 9.51922 47.8208 9.58077 47.3866 9.64232C47.1385 9.88852 47.0145 9.88852 46.9525 10.0116ZM37.9591 24.4145C37.8351 24.4145 37.7731 24.4145 37.711 24.4145C37.649 24.4145 37.587 24.4145 37.525 24.4145C37.3389 24.3529 37.3389 24.2914 37.2769 24.1683C37.2769 24.1067 37.2769 24.1067 37.2769 24.0452C37.2769 23.3065 37.2769 22.6295 37.2769 21.8909C37.2769 21.5216 37.2769 21.5216 37.525 21.2138C37.587 21.1523 37.587 21.0907 37.649 21.0907C37.711 21.0292 37.8351 20.9061 37.9591 20.9061C38.5794 20.5983 39.3857 20.9061 39.5097 21.7062C39.5717 21.8909 39.5717 22.0755 39.5717 22.2602C39.5717 22.4448 39.5717 22.6295 39.5717 22.7526C39.5717 22.8757 39.5717 22.9988 39.5717 23.1219C39.5717 23.3681 39.5717 23.6758 39.5717 23.9221C39.5717 24.0452 39.5717 24.1067 39.5717 24.2298C39.5717 24.7838 39.5717 25.3993 39.5717 25.9532C39.5717 26.1379 39.5717 26.3225 39.6338 26.5072C39.6338 26.5687 39.6958 26.6303 39.6958 26.6918C40.7502 26.6918 41.8046 26.6918 42.859 26.6918C42.859 26.6303 42.921 26.5687 42.921 26.5687C42.983 26.0763 42.983 25.6455 42.983 25.1531C42.983 24.9684 42.921 24.7838 42.921 24.5991C42.921 24.476 42.859 24.476 42.7969 24.476C42.7349 24.476 42.6729 24.476 42.6109 24.476C42.4868 24.476 42.3628 24.476 42.2387 24.3529C42.2387 24.1683 42.2387 23.9836 42.1767 23.799C42.1767 23.3065 42.1767 22.7526 42.1767 22.2602C42.1767 21.6447 42.1147 21.0292 41.9286 20.4137C41.8666 20.1675 41.7425 19.9828 41.6185 19.7982C40.8122 18.7518 39.7578 18.4441 38.5173 18.6287C37.8971 18.8134 37.3389 19.0596 36.9047 19.6135C36.8427 19.6751 36.7807 19.7366 36.7187 19.7982C36.6566 19.8597 36.5946 19.8597 36.5946 19.9213C36.4086 19.7982 36.2845 19.6751 36.1605 19.4904C35.7883 19.0596 35.2921 18.8134 34.7339 18.6903C34.4858 18.6287 34.2377 18.5672 33.9897 18.6287C33.3694 18.7518 32.7492 18.998 32.315 19.4904C32.315 19.4904 32.253 19.552 32.191 19.552C32.129 19.3058 32.129 19.1211 32.0669 18.9365C31.9429 18.9365 31.8188 18.8749 31.7568 18.8749C31.1986 18.8749 30.6404 18.8749 30.0202 18.8749C29.8341 18.8749 29.586 18.8749 29.3999 18.8749C29.1519 18.8749 28.9658 18.998 28.9658 19.3058V19.3673C28.9658 19.7982 29.0278 20.2906 29.0278 20.7214C29.0278 20.8445 29.0898 21.0292 29.2139 21.1523C29.3379 21.1523 29.524 21.1523 29.648 21.1523C29.7101 21.1523 29.7721 21.1523 29.8341 21.1523C29.8341 21.46 29.8961 21.7678 29.8961 22.014C29.8961 22.0755 29.8961 22.0755 29.8961 22.1371C29.8341 22.2602 29.8961 22.3217 29.8961 22.4448C29.9581 22.8141 29.9581 23.1834 29.8961 23.6143C29.8961 23.8605 29.8961 24.1067 29.8961 24.3529C29.8961 24.4145 29.8961 24.476 29.8961 24.5376C29.7721 24.5991 29.648 24.6607 29.524 24.6607C29.3999 24.6607 29.2759 24.6607 29.1518 24.7222C28.9658 25.2146 29.0278 26.5072 29.2139 26.938C29.2759 26.938 29.3379 26.938 29.3999 26.938C29.8341 26.938 30.2683 26.938 30.7024 26.938C30.7645 26.938 30.8885 26.938 30.9505 26.938C31.2606 26.938 31.6328 26.938 31.9429 26.938C32.253 26.938 32.6251 26.938 32.9353 26.938C32.9973 26.938 33.1213 26.938 33.1834 26.8765V26.8149C33.1834 26.261 33.1834 25.6455 33.1834 25.0915C33.1834 24.9069 33.1213 24.7838 32.9973 24.6607C32.8112 24.5991 32.6251 24.6607 32.4391 24.5991C32.3771 24.3529 32.377 24.1067 32.377 23.8605C32.377 23.5527 32.377 23.245 32.377 22.8757C32.377 22.6295 32.3771 22.4448 32.4391 22.1986C32.4391 21.9524 32.5631 21.7678 32.6251 21.5831C32.7492 21.3985 32.8732 21.2138 33.1213 21.1523C33.3074 21.0907 33.4935 21.0292 33.7416 21.0907C34.1137 21.1523 34.3618 21.3369 34.4858 21.6447C34.5479 21.8293 34.6099 22.0755 34.6099 22.2602C34.6099 22.5064 34.6099 22.7526 34.6099 22.9988C34.6099 24.1067 34.6099 25.1531 34.6719 26.261C34.6719 26.4456 34.7339 26.6303 34.7339 26.8149C34.7959 26.8149 34.7959 26.8149 34.858 26.8149C35.7883 26.8149 36.6566 26.8149 37.587 26.8149C37.649 26.8149 37.7731 26.8149 37.8351 26.7534C37.8971 26.7534 37.9591 26.6918 37.9591 26.6303C37.9591 26.5072 38.0211 26.4456 37.9591 26.3225C37.8971 25.8301 37.8971 25.2762 37.8971 24.7838C37.9591 24.5376 37.9591 24.476 37.9591 24.4145ZM53.775 29.2154C53.9611 29.0923 54.0231 28.9076 54.1472 28.7845C54.3332 28.5383 54.5193 28.2306 54.7054 27.9844C55.3876 26.938 56.1319 25.9532 56.7521 24.9069C56.8141 24.8453 56.8762 24.7222 56.9382 24.6607C57.0002 24.5991 57.0002 24.5376 57.0622 24.5376C57.2483 24.4145 57.3103 24.2298 57.4344 24.0452C57.4964 23.9221 57.5584 23.7374 57.6825 23.6143C57.9926 23.1834 58.3027 22.691 58.6128 22.2602C58.9229 21.8293 59.233 21.3369 59.5432 20.8445C59.6672 20.7214 59.7292 20.6599 59.9153 20.5983C59.9773 20.5983 60.1014 20.5983 60.1634 20.5983C60.4115 20.5368 60.4735 20.4752 60.4735 20.229C60.4735 19.6135 60.4115 19.0596 60.4115 18.444C60.4115 18.444 60.4115 18.444 60.3495 18.3825C59.9773 18.3209 59.6672 18.3209 59.2951 18.3209C58.1166 18.3209 56.6901 18.3209 56.38 18.3825C56.38 18.5056 56.318 18.6287 56.318 18.7518C56.318 18.8749 56.2559 18.998 56.318 19.1211C56.318 19.1827 56.318 19.2442 56.318 19.3058C56.318 19.6135 56.318 19.9828 56.318 20.2906C56.318 20.3521 56.318 20.4137 56.38 20.4752C56.504 20.5368 56.6281 20.5368 56.7521 20.5983C56.6901 20.783 56.5661 20.9676 56.504 21.1523C56.2559 21.5216 56.0699 21.8909 55.8218 22.1986C55.6977 22.3833 55.6357 22.5064 55.5117 22.6295C55.4496 22.691 55.4496 22.7526 55.3876 22.8141C55.3876 22.8141 55.3256 22.8141 55.2636 22.8757C55.2636 22.691 55.2636 22.5064 55.2636 22.3217C55.2636 22.1371 55.2636 21.9524 55.2636 21.7678C55.2636 21.5831 55.2636 21.3985 55.2636 21.2138C55.2636 21.0292 55.2636 20.8445 55.2636 20.6599C55.3256 20.5983 55.3876 20.5983 55.4496 20.5983C55.6357 20.5368 55.6977 20.3521 55.6977 20.1675C55.6357 19.8597 55.6357 19.552 55.6357 19.2442C55.6357 19.0596 55.6357 18.8134 55.6357 18.6287C55.6357 18.5672 55.6357 18.5056 55.5737 18.444C55.4496 18.444 55.3256 18.444 55.2015 18.444C54.3952 18.444 53.5889 18.444 52.7826 18.444C52.6586 18.444 52.4725 18.444 52.3485 18.444C52.1624 18.444 52.0384 18.4441 51.8523 18.5672C51.8523 18.8134 51.8523 19.0596 51.8523 19.2442C51.8523 19.4904 51.8523 19.6751 51.8523 19.9213C51.8523 20.1675 51.8523 20.4137 51.9143 20.6599C52.1004 20.6599 52.2865 20.7214 52.4725 20.7214C52.5346 20.7214 52.5966 20.7214 52.6586 20.7214C52.6586 20.783 52.6586 20.8445 52.6586 20.9061C52.6586 21.7062 52.6586 22.4448 52.7206 23.245C52.7206 23.4296 52.7206 23.6143 52.7206 23.799C52.7206 24.7222 52.7206 25.6455 52.7206 26.5687C52.7206 26.6303 52.7206 26.7534 52.6586 26.8149C52.5346 26.8149 52.3485 26.8765 52.2244 26.8765C52.1004 26.8765 51.9143 26.8765 51.7903 26.938C51.7903 26.9996 51.7903 26.9996 51.7903 26.9996C51.7903 27.3073 51.7283 27.5535 51.7283 27.8613C51.7283 27.9228 51.7283 27.9844 51.7283 27.9844C51.7903 28.1075 51.7903 28.2921 51.7903 28.4152C51.7903 28.5999 51.7903 28.723 51.7903 28.9076C51.7903 28.9692 51.8523 29.0307 51.9143 29.0307C51.9763 29.0307 52.0384 29.0307 52.1004 29.0307C52.6586 29.2154 53.2168 29.2154 53.775 29.2154ZM23.8799 24.476C24.5001 24.1067 25.1824 23.7374 25.8026 23.4297C26.6709 22.9372 27.5393 22.4448 28.4696 21.9524C28.6557 21.8293 28.7177 21.7062 28.6557 21.5216C28.5316 21.0907 28.3456 20.7214 28.0975 20.4137C27.7253 19.9213 27.2912 19.4904 26.733 19.1827C26.3608 18.998 26.0507 18.8134 25.6165 18.7518C25.4925 18.7518 25.3684 18.6903 25.1824 18.6903C24.9343 18.6287 24.6242 18.5672 24.3761 18.6287C24.19 18.6287 24.0039 18.6903 23.7558 18.6903C22.9495 18.8134 22.2053 19.1827 21.585 19.7366C21.523 19.7982 21.461 19.7982 21.461 19.8597C20.7787 20.5368 20.3446 21.3369 20.2825 22.2602C20.2205 22.5679 20.2205 22.9372 20.2825 23.245C20.3446 23.4912 20.3446 23.6758 20.4066 23.9221C20.4066 23.9836 20.4686 24.0452 20.4686 24.1067C20.5927 24.476 20.7787 24.8453 21.0268 25.1531C21.2129 25.4608 21.461 25.707 21.7711 25.9532C22.2673 26.3841 22.8875 26.6303 23.5698 26.8765C23.6318 26.8765 23.7558 26.938 23.8179 26.938C24.5001 26.9996 25.2444 27.0611 25.9267 26.8149C26.2988 26.6918 26.6089 26.5687 26.981 26.3841C27.1051 26.3225 27.1671 26.261 27.2912 26.1994C27.4152 26.0763 27.5393 25.9532 27.5393 25.707C27.5393 25.2762 27.5393 24.7838 27.5393 24.3529C27.5393 24.1683 27.5392 23.9836 27.4152 23.7374C27.3532 23.799 27.2291 23.8605 27.1671 23.9221C26.6709 24.3529 26.1127 24.6607 25.4925 24.7838C25.0583 24.8453 24.6242 24.8453 24.19 24.6607C23.8179 24.6607 23.8179 24.5991 23.8799 24.476ZM51.4181 23.4912C51.3561 23.4912 51.3561 23.4912 51.2941 23.4912C51.046 23.4912 50.7979 23.4912 50.5498 23.4912C50.0536 23.4912 49.5574 23.4912 49.0613 23.5527C48.9372 23.5527 48.7512 23.6143 48.6271 23.6758C48.5651 23.7374 48.5031 23.799 48.441 23.8605C48.0689 24.2298 47.5727 24.3529 47.0765 24.2298C46.3943 24.1067 45.8981 23.7374 45.65 23.0603C45.588 22.8757 45.588 22.691 45.588 22.5064C45.588 22.3217 45.65 22.1371 45.712 21.9524C45.774 21.7678 45.8361 21.6447 45.8981 21.46C46.2702 21.0292 46.7664 20.7214 47.3246 20.7214C47.3866 20.7214 47.4487 20.7214 47.5107 20.7214C47.6968 20.7214 47.8828 20.783 48.0689 20.8445C48.1929 20.9061 48.317 20.9676 48.441 21.0907C48.5651 21.1523 48.6271 21.2754 48.7511 21.3369C48.8132 21.3985 48.8752 21.3985 48.9372 21.3985C49.4954 21.3985 50.1157 21.3985 50.6739 21.3369C50.7359 21.3369 50.8599 21.3369 50.922 21.2754C50.984 21.2754 51.046 21.2138 51.046 21.0907V21.0292C51.046 20.4752 51.046 19.9828 51.046 19.4289C51.046 19.1211 51.046 18.8749 50.984 18.5672C50.984 18.5056 50.984 18.444 50.922 18.3825C50.2397 18.3209 49.6195 18.3825 48.9992 18.3825C48.9372 18.5056 48.8752 18.5672 48.7511 18.6903C48.6271 18.6287 48.5651 18.6287 48.441 18.5672C47.8828 18.2594 47.2626 18.1979 46.6424 18.2594C46.0221 18.321 45.4639 18.5672 44.9677 18.8749C44.0994 19.4289 43.4792 20.1675 43.107 21.2138C43.045 21.46 42.983 21.7678 42.921 22.0755C42.859 22.5679 42.859 23.0603 43.045 23.5527C43.3551 24.4145 43.7893 25.2146 44.5336 25.7686C45.0298 26.1379 45.588 26.4456 46.1462 26.5687C46.7044 26.6918 47.3246 26.6918 47.8828 26.6303C48.1309 26.5687 48.379 26.5687 48.5651 26.5072C49.3714 26.1994 50.1157 25.707 50.6118 25.03C50.8599 24.6607 51.108 24.2914 51.2321 23.8605C51.4802 23.7374 51.4802 23.6143 51.4181 23.4912ZM32.253 35.986C32.315 35.9244 32.3771 35.9244 32.4391 35.8629C32.6251 35.7398 32.7492 35.6167 32.9353 35.4936C33.0593 35.432 33.1833 35.3089 33.3074 35.3089C33.6795 35.4936 33.9276 35.8013 34.2998 35.986C34.1757 35.5551 33.9896 35.1858 33.9276 34.755C34.2377 34.5088 34.5479 34.3241 34.858 34.0779C34.6099 34.0164 34.4238 34.0779 34.2377 34.0163C34.0517 34.0163 33.8036 34.0163 33.6175 33.8932C33.4935 33.5239 33.3694 33.1546 33.2454 32.7853C33.0593 33.1546 32.9973 33.5855 32.8732 33.8932C32.4391 34.0163 32.0669 33.9548 31.6328 34.0163C31.9429 34.2626 32.315 34.4472 32.5631 34.755C32.5011 35.2474 32.315 35.5551 32.253 35.986ZM39.3857 9.82697C39.2616 10.1963 39.0756 10.5656 39.0135 10.9964C39.3857 10.7502 39.6958 10.504 40.0679 10.3194C40.378 10.5656 40.6881 10.8118 41.1223 10.9964C41.0603 10.7502 40.9983 10.5656 40.9362 10.3809C40.8742 10.1963 40.8122 10.0116 40.7502 9.76542C41.0603 9.51922 41.3704 9.33457 41.7425 9.02681C41.6805 9.02681 41.6185 9.02681 41.6185 9.02681C41.3704 9.02681 41.1223 9.02681 40.8742 9.02681C40.6261 9.02681 40.5021 8.96526 40.378 8.71906C40.316 8.47286 40.254 8.28821 40.1299 8.04201C40.1299 7.98046 40.0679 7.98045 40.0679 7.85735C39.8198 8.22666 39.8198 8.65751 39.6338 9.02681C39.4477 9.02681 39.2616 9.02681 39.0755 9.02681C38.8895 9.02681 38.7034 9.02681 38.4553 9.08836C38.7654 9.33457 39.1376 9.51922 39.3857 9.82697ZM40.4401 35.6167C40.378 35.432 40.316 35.2474 40.254 35.0627C40.192 34.8781 40.1299 34.6934 40.0679 34.5088C39.8818 34.8781 39.8198 35.3089 39.6338 35.6782C39.2616 35.7398 38.8275 35.6782 38.3933 35.7398C38.5173 35.8013 38.5794 35.8629 38.6414 35.9244C38.8275 36.0475 39.0755 36.2322 39.2616 36.3553C39.3236 36.4168 39.3236 36.4168 39.3857 36.4784C39.3236 36.663 39.2616 36.8477 39.1996 37.0323C39.1376 37.217 39.0756 37.4016 39.0135 37.5863C39.0756 37.5247 39.1376 37.5247 39.1996 37.4632C39.3857 37.3401 39.5717 37.1554 39.7578 37.0323C39.9439 36.9092 40.1299 36.9092 40.254 37.0323C40.4401 37.217 40.6261 37.3401 40.8742 37.4632C40.9362 37.4632 40.9983 37.5247 41.0603 37.5247C41.0603 37.3401 40.9983 37.217 40.9362 37.0939C40.8742 36.9092 40.8122 36.7246 40.7502 36.5399C40.6881 36.4168 40.7502 36.3553 40.8122 36.2937C40.9362 36.2322 40.9983 36.1091 41.1223 36.0475C41.2464 35.9244 41.4324 35.8629 41.5565 35.7398C41.6185 35.7398 41.6185 35.6782 41.6185 35.6167C41.2464 35.6782 40.8742 35.7398 40.4401 35.6167ZM29.0898 16.5975C29.1519 16.536 29.2759 16.4744 29.3379 16.4129C29.3999 16.3513 29.524 16.2898 29.586 16.2282C29.648 16.1667 29.7721 16.1051 29.8341 16.0436C29.8961 15.982 30.0202 15.9205 30.0822 15.8589C29.8341 15.8589 29.648 15.8589 29.462 15.8589C29.2759 15.8589 29.0898 15.8589 28.8417 15.7974C28.7797 15.6743 28.7797 15.6127 28.7177 15.4896C28.6557 15.2434 28.5936 14.9972 28.4696 14.8126C28.4696 14.751 28.4076 14.751 28.4076 14.6895C28.2215 15.0588 28.2215 15.4896 27.9734 15.7974C27.6013 15.8589 27.1671 15.7974 26.733 15.8589C26.919 15.982 27.1051 16.1051 27.2291 16.2282C27.4152 16.3513 27.5392 16.4744 27.7253 16.5975C27.6633 17.0284 27.4772 17.3361 27.3532 17.767C27.7253 17.5823 27.9734 17.213 28.4076 17.0899C28.7797 17.2746 29.0898 17.5208 29.462 17.767C29.3999 17.5208 29.3379 17.3361 29.2759 17.1515C29.2139 17.0284 29.1519 16.8437 29.0898 16.5975ZM52.4105 16.4129C52.7206 16.1667 53.0307 15.982 53.2788 15.7358C53.2788 15.7358 53.2788 15.7358 53.2788 15.6743H52.1624C52.1004 15.5512 52.1004 15.4896 52.0384 15.3665C51.9763 15.1203 51.9143 14.8741 51.7903 14.6279C51.7903 14.5664 51.7283 14.5664 51.7283 14.5048C51.6042 14.8741 51.4802 15.2434 51.3561 15.6127C51.2321 15.6127 51.17 15.6743 51.046 15.6743C50.922 15.6743 50.8599 15.6743 50.7359 15.6743C50.6118 15.6743 50.4878 15.6743 50.4258 15.6743C50.3017 15.6743 50.2397 15.6743 50.1157 15.7358C50.2397 15.8589 50.3017 15.9205 50.4258 15.982C50.5498 16.0436 50.6739 16.1667 50.7359 16.2282C50.8599 16.2898 50.984 16.3513 51.046 16.4744C50.984 16.8437 50.7979 17.213 50.6739 17.6439C50.8599 17.5208 51.046 17.3977 51.17 17.2746C51.3561 17.1515 51.4802 17.0284 51.6662 16.9053C51.8523 16.9668 51.9763 17.0899 52.1624 17.213C52.2865 17.3361 52.4725 17.4592 52.5966 17.5823C52.6586 17.5823 52.6586 17.6439 52.7206 17.5823C52.5966 17.213 52.4725 16.7822 52.4105 16.4129ZM34.1137 12.8429C33.9897 12.4121 33.8656 12.0428 33.7416 11.6735C33.8036 11.6119 33.8656 11.5504 33.9276 11.5504C34.1757 11.3657 34.3618 11.2426 34.6099 11.058C34.6719 11.058 34.6719 10.9964 34.6719 10.9349C34.2998 10.9349 33.8656 10.9349 33.4935 10.8733C33.3694 10.504 33.2454 10.1347 33.1213 9.76542C32.9353 10.1347 32.8732 10.5656 32.6872 10.9349C32.5011 10.9349 32.315 10.9964 32.0669 10.9964C31.8809 10.9964 31.6948 10.9964 31.4467 10.9964C31.7568 11.3042 32.129 11.4888 32.4391 11.735C32.3771 11.8581 32.377 11.9197 32.377 12.0428C32.377 12.1659 32.315 12.2274 32.315 12.3505C32.253 12.4736 32.253 12.5352 32.191 12.6583C32.191 12.7198 32.129 12.843 32.129 12.9661C32.5011 12.7198 32.8112 12.4121 33.1834 12.289C33.4314 12.3505 33.7416 12.5352 34.1137 12.8429ZM29.0898 29.954C29.1519 29.8925 29.2139 29.8309 29.3379 29.7694C29.3999 29.7078 29.524 29.6463 29.586 29.5847C29.648 29.5232 29.7721 29.4616 29.8341 29.4001C29.8961 29.3385 30.0202 29.277 30.0822 29.2154C29.8961 29.2154 29.7721 29.2154 29.648 29.2154C29.524 29.2154 29.3999 29.2154 29.2759 29.2154C29.1518 29.2154 29.0278 29.2154 28.8417 29.1539C28.7797 29.0308 28.7797 28.9076 28.7177 28.7845C28.6557 28.5383 28.5936 28.3537 28.4696 28.1075C28.4696 28.0459 28.4696 28.0459 28.4076 28.0459C28.3456 28.2921 28.2215 28.5383 28.1595 28.7845C28.0975 29.0923 28.0354 29.0923 27.7873 29.0923C27.6633 29.0923 27.6013 29.0923 27.4772 29.0923C27.2912 29.0923 27.1671 29.0923 26.981 29.0923C26.919 29.0923 26.919 29.0923 26.857 29.0923V29.1539C27.1051 29.4616 27.4772 29.5847 27.7873 29.8925C27.7873 29.954 27.7873 29.954 27.7253 30.0156C27.6013 30.3233 27.5392 30.6311 27.4152 30.9388C27.4152 31.0004 27.3532 31.0004 27.4152 31.0619C27.7873 30.8773 28.0354 30.5695 28.4076 30.3849C28.5316 30.4464 28.6557 30.508 28.7797 30.6311C28.9038 30.6926 28.9658 30.7542 29.0898 30.8773C29.2139 30.9388 29.2759 31.0619 29.462 31.1235C29.3379 30.6926 29.2139 30.3233 29.0898 29.954Z" fill="#016AB1"/>
<path id="Vector_47" d="M57.8768 36.1706C58.0008 36.5399 58.0008 36.9093 58.0008 37.2786C58.0008 37.4017 57.9388 37.5248 57.8768 37.6479C57.7527 37.7094 57.6907 37.8325 57.6286 37.8941C57.5046 38.0172 57.3805 38.0787 57.1944 38.2018C56.3881 38.5711 55.5817 38.8789 54.7133 39.1251C54.031 39.3097 53.2867 39.5559 52.6044 39.7406C52.1702 39.8637 51.736 39.9868 51.3018 40.1099C51.0536 40.1714 50.8055 40.233 50.5574 40.3561C50.0612 40.5407 49.5029 40.6638 49.0067 40.8485C48.0763 41.0947 47.2079 41.4024 46.2775 41.7102C46.2155 41.7102 46.1534 41.7718 46.0914 41.7718C45.4091 41.9564 44.7888 42.2026 44.1065 42.3873C43.4242 42.5719 42.7419 42.8181 41.9975 43.0028C41.8115 43.0643 41.6874 43.1259 41.5013 43.1259C41.2532 43.1874 41.0051 43.1874 40.695 43.1259C40.3848 43.0643 40.1987 42.8797 40.0747 42.5719C40.0747 42.5103 40.0126 42.4488 40.0126 42.3873C40.2607 42.2026 40.5089 42.0179 40.757 41.8333C41.0051 41.6486 41.2532 41.5255 41.5013 41.3409C41.7494 41.1562 41.9975 41.0331 42.2457 40.7869C41.9975 40.8485 41.7494 40.91 41.5013 40.9716C41.0051 41.0947 40.5089 41.2178 40.0126 41.3409C39.8886 41.4024 39.7645 41.4024 39.6405 41.2793C39.6405 41.2793 39.5784 41.2793 39.5784 41.2178C39.5784 41.2793 39.5784 41.3409 39.6405 41.4024C39.5784 41.4024 39.5784 41.464 39.5164 41.464C38.71 41.7102 37.9037 41.9564 37.0973 42.2026C36.6631 42.3257 36.1669 42.5104 35.7327 42.695C35.2365 42.8797 34.6782 43.0643 34.12 43.1874C33.9339 43.249 33.7478 43.249 33.5617 43.249C33.4377 43.249 33.3136 43.249 33.1895 43.1259C33.0655 43.0643 32.9414 42.9412 32.8174 42.8181C32.6933 42.6335 32.6933 42.4488 32.7553 42.2641C32.8794 42.0179 33.0655 41.7717 33.2516 41.5871C33.2516 41.5255 33.3136 41.5255 33.3756 41.5255C33.5617 41.3409 33.8098 41.2178 33.9959 41.0331C34.3681 40.7869 34.7402 40.5407 35.1124 40.4176C35.9188 40.1099 36.6631 39.8021 37.4695 39.4944C37.9037 39.3097 38.3999 39.1866 38.8341 39.002C39.0202 38.9404 39.2063 38.8789 39.3924 38.8789C39.6405 38.8173 39.8886 38.7558 40.1367 38.6327C40.4468 38.5096 40.757 38.448 41.0671 38.3865C41.5633 38.2634 41.9975 38.2018 42.4938 38.0787C42.6798 38.0172 42.8659 38.0172 43.052 37.9556C43.7343 37.7094 44.4787 37.5248 45.161 37.4017C45.4711 37.3401 45.7813 37.217 46.0294 37.1555C46.2775 37.0939 46.4636 37.0324 46.7117 36.9708C47.2699 36.8477 47.8902 36.7246 48.4485 36.6015C48.5105 36.6015 48.6346 36.54 48.6966 36.54C49.5029 36.2322 50.3713 36.1091 51.2397 35.8629C51.6739 35.7398 52.0461 35.6167 52.4803 35.4936C53.0386 35.3705 53.6588 35.1858 54.2171 35.0627C54.7133 34.9396 55.1475 34.755 55.6437 34.6319C56.326 34.4472 56.9463 34.3241 57.6286 34.1395C58.0008 34.0779 58.311 33.9548 58.6831 33.8317C58.9933 33.7702 59.3654 33.7086 59.7376 33.6471C59.8617 33.6471 59.9857 33.5855 60.1098 33.5855C60.4199 33.4624 60.7921 33.7702 60.8541 34.0164C60.8541 34.0779 60.8541 34.1395 60.8541 34.201C60.7921 34.3857 60.668 34.5703 60.4819 34.6319C60.2958 34.755 60.0477 34.8781 59.8617 35.0012C59.6135 35.1243 59.3034 35.2474 59.0553 35.3705C58.8072 35.4936 58.5591 35.6167 58.3109 35.8629C58.1249 35.986 58.0008 36.1091 57.8768 36.1706Z" fill="#016AB1"/>
<path id="Vector_48" d="M6.5741 14.3202C6.63612 14.1355 6.76018 13.9509 6.88424 13.7662C7.00829 13.5816 7.13235 13.4585 7.31843 13.3354C7.6906 13.1507 8.00074 12.9045 8.37291 12.7199C8.55899 12.5968 8.80711 12.5352 8.99319 12.4121C9.11725 12.3506 9.24131 12.289 9.36536 12.1659C9.30334 12.0428 9.30333 11.9812 9.24131 11.8581C9.17928 11.6735 9.11725 11.4888 9.11725 11.3042C9.11725 11.2426 9.11725 11.1811 9.11725 11.058C9.11725 10.8733 9.17928 10.7502 9.36536 10.6887C9.61348 10.5656 9.86159 10.504 10.1097 10.504C10.668 10.4425 11.1642 10.3809 11.7224 10.1963C12.3427 10.0116 13.025 9.88853 13.6453 9.70388C13.8314 9.64233 14.2036 9.64233 14.5137 9.70388C14.6378 9.82698 14.6998 9.95008 14.8238 10.0732C14.8238 10.2578 14.7618 10.4425 14.6378 10.6271C14.5137 10.7502 14.4517 10.9349 14.3276 11.058C14.1415 11.3042 13.9554 11.4888 13.7694 11.6119C13.5833 11.735 13.3972 11.9197 13.2111 12.0428C12.6529 12.4737 12.0326 12.7814 11.4123 13.0892C10.9781 13.3354 10.4819 13.52 10.0477 13.8278C9.42739 14.1971 8.80711 14.4433 8.1248 14.751C7.81466 14.8741 7.56655 14.8741 7.25641 14.8126C7.13235 14.8126 7.07032 14.751 6.94626 14.751C6.82221 14.751 6.76018 14.6895 6.69815 14.5664C6.69815 14.5664 6.63612 14.4433 6.5741 14.3202Z" fill="#016AB1"/>
<path id="Vector_49" d="M8.43584 18.0133C8.43584 18.1979 8.43584 18.321 8.43584 18.5057C8.31178 18.6288 8.18772 18.6903 8.06366 18.8134C7.50541 19.1827 7.07122 19.6751 6.57499 20.106C5.64457 20.9677 4.77617 21.8294 3.72169 22.568C3.41155 22.8142 3.03938 23.0604 2.72924 23.2451C2.60518 23.3682 2.4191 23.4297 2.23302 23.4913C2.04693 23.6144 1.79882 23.7375 1.61274 23.8606C1.42665 23.9837 1.17854 24.0452 0.992455 24.1068C0.868398 24.1068 0.744342 24.1683 0.682314 24.1068C0.496229 24.0452 0.372171 23.9837 0.186086 23.8606C0.124058 23.8606 0.124059 23.799 0.124059 23.7375C0.062031 23.6144 0.0620282 23.5528 0 23.4297C0 23.3682 0 23.3682 0 23.3066C0.0620282 23.122 0.124057 22.9373 0.248114 22.8142C0.310142 22.6911 0.434199 22.6296 0.496227 22.5065C0.620284 22.3218 0.744338 22.1987 0.930423 22.0756C1.42665 21.6448 1.98491 21.2139 2.54316 20.783C3.16344 20.2906 3.78372 19.9213 4.46603 19.552C5.2724 19.0596 6.14079 18.5672 7.07121 18.1364C7.31933 18.0133 7.62947 17.8902 7.93961 17.8286C8.06367 17.8902 8.24975 17.8902 8.43584 18.0133Z" fill="#016AB1"/>
<path id="Vector_50" d="M8.50342 45.5264C8.50342 45.0955 8.56544 44.7262 8.62747 44.3569C8.6895 43.9876 8.75153 43.6799 8.87559 43.3105C8.93761 43.1259 8.99964 42.9412 9.1237 42.8181C9.37181 42.4488 9.74398 42.2642 10.1782 42.2026C10.3643 42.2026 10.5503 42.2642 10.7364 42.3873C10.7985 42.4488 10.8605 42.4488 10.9225 42.5104C11.2327 42.7566 11.2327 42.7566 11.2327 43.1259C11.1706 43.4336 11.1706 43.7414 11.1086 44.0492C10.9845 44.7878 10.9845 45.5264 11.2327 46.265C11.3567 46.6958 11.2947 47.0651 11.1706 47.496C11.0466 47.8037 10.7985 47.9884 10.4263 47.9884C9.93007 48.0499 9.55789 47.8653 9.30978 47.496C9.24775 47.3729 9.1237 47.2498 9.06167 47.0651C8.62748 46.5727 8.50342 46.0803 8.50342 45.5264Z" fill="#016AB1"/>
<path id="Vector_51" d="M16.688 11.1811C16.812 11.058 16.8741 10.9349 16.9981 10.8734C17.3083 10.5656 17.6184 10.381 18.0526 10.1963C18.6729 9.95012 19.2932 9.76547 19.9135 9.64237C20.4717 9.51927 21.03 9.39617 21.5882 9.21151C21.7743 9.14996 21.8984 9.08841 22.0844 9.08841C22.2705 9.02686 22.5186 8.96531 22.7047 8.90376C22.8288 8.90376 22.8908 8.84221 23.0149 8.84221C23.263 8.78066 23.5731 8.65756 23.8212 8.59601C24.0693 8.53446 24.3795 8.47291 24.6276 8.41136C24.8137 8.34981 25.0618 8.28826 25.2479 8.2267C25.3719 8.16515 25.558 8.16515 25.6821 8.2267C25.7441 8.34981 25.8061 8.53446 25.8061 8.65756C25.6821 8.78066 25.558 8.90376 25.3719 8.96531C25.0618 9.02687 24.7516 9.21152 24.5035 9.39617C23.8833 9.82702 23.2009 10.0732 22.5186 10.2579C22.2705 10.3194 22.0224 10.4425 21.8363 10.5656C21.5882 10.6887 21.3401 10.8118 21.092 10.8734C20.7818 10.9349 20.4717 10.9965 20.1616 11.1811C19.4793 11.4889 18.7969 11.7351 18.1146 12.0428C18.0526 12.1044 17.9285 12.1044 17.8665 12.1044C17.6184 12.1044 17.4323 12.1044 17.1842 12.1044C17.0601 12.1044 16.9981 12.0428 16.9361 11.9197C16.8741 11.8582 16.8741 11.7351 16.8741 11.612C16.688 11.4889 16.688 11.3042 16.688 11.1811Z" fill="#016AB1"/>
<path id="Vector_52" d="M90.1279 8.71908C89.9418 9.02683 89.6937 9.21148 89.3835 9.27303C89.1354 9.33459 88.8873 9.39613 88.5772 9.39613C87.7708 9.51924 86.9024 9.64234 86.096 9.76544C85.972 9.76544 85.8479 9.76544 85.6618 9.76544C85.5378 9.76544 85.4757 9.70389 85.4137 9.64234C85.2276 9.45769 85.2276 9.21148 85.2897 8.96528C85.2897 8.90373 85.3517 8.84218 85.4137 8.78063C85.5378 8.71908 85.7239 8.65753 85.8479 8.59597C86.034 8.53442 86.2821 8.47288 86.4682 8.41133C86.6543 8.34978 86.9024 8.28822 87.0885 8.22667C87.3366 8.16512 87.6467 8.10357 87.8948 8.04202C88.267 8.04202 88.7012 7.98047 89.0734 7.98047C89.1974 7.98047 89.3215 7.98047 89.4455 7.98047C89.6937 7.98047 89.9418 8.10357 90.0038 8.34978C90.0658 8.53443 90.1279 8.59598 90.1279 8.71908Z" fill="#016AB1"/>
<path id="Vector_53" d="M16.133 11.8582C16.195 11.9813 16.2571 12.0428 16.3191 12.1659C16.2571 12.3506 16.195 12.5352 16.071 12.7199C15.8229 13.2123 15.4507 13.5816 15.0165 13.8893C14.7684 14.074 14.5203 14.1971 14.2101 14.3202C14.0241 14.4433 13.838 14.4433 13.6519 14.4433C13.3417 14.4433 13.2177 14.1971 13.0936 13.9509C13.1557 13.7662 13.0936 13.52 13.2797 13.3969C13.5278 13.1507 13.838 12.9045 14.0861 12.6583C14.1481 12.5968 14.1481 12.5968 14.2101 12.5968C14.6443 12.3506 15.0785 12.1044 15.5748 11.9197C15.6988 11.8582 15.8849 11.8582 16.133 11.8582Z" fill="#016AB1"/>
<path id="Vector_54" d="M37.3401 44.8493C37.03 44.8493 36.7198 44.7878 36.4717 44.6031C36.3477 44.5416 36.2856 44.4185 36.2856 44.2953C36.2856 44.1107 36.3477 43.926 36.4717 43.8029C36.7198 43.6183 36.9059 43.4336 37.154 43.3105C37.4642 43.1259 37.7123 42.8797 38.0224 42.695C38.2705 42.5104 38.5807 42.4488 38.8908 42.5104C39.1389 42.5719 39.263 42.695 39.325 42.9412C39.3871 43.1259 39.325 43.3105 39.325 43.4952C39.325 43.5567 39.263 43.6183 39.263 43.6183C39.1389 43.803 38.9529 43.9876 38.7668 44.1722C38.5807 44.3569 38.3326 44.48 38.0845 44.6647C37.8364 44.7878 37.5882 44.8493 37.3401 44.8493Z" fill="#016AB1"/>
<path id="Vector_55" d="M54.4549 10.2579C54.3309 10.381 54.2689 10.4425 54.1448 10.5041C54.0828 10.5656 53.9587 10.6272 53.8347 10.6272C53.3384 10.6272 52.9042 10.8118 52.47 10.8734C52.0358 10.9349 51.6637 10.9965 51.2295 11.058C51.1054 11.058 50.9814 11.058 50.7953 11.1196C50.4851 10.8118 50.5472 10.4425 50.6712 10.1347C51.0434 10.0116 51.4156 9.88855 51.8498 9.88855C52.5321 9.88855 53.2144 9.88855 53.9587 9.88855C54.0207 9.88855 54.0207 9.88855 54.0828 9.88855C54.2689 9.88855 54.3309 9.9501 54.3929 10.0732C54.4549 10.1347 54.4549 10.1963 54.4549 10.2579Z" fill="#016AB1"/>
<path id="Vector_56" d="M20.0895 15.7358C19.8414 15.9204 19.5932 16.0435 19.4072 16.2282C19.2831 16.2897 19.2831 16.2897 19.035 16.2897C18.7248 15.982 18.5388 15.5511 18.3527 15.1818C18.2907 15.0587 18.2906 14.9356 18.2906 14.8125C18.2906 14.6279 18.3527 14.5048 18.4767 14.4432C18.6628 14.3201 18.8489 14.197 19.035 14.0739C19.3451 13.8893 19.4072 13.9508 19.5932 14.197C19.7793 14.5048 19.9034 14.8741 20.0274 15.2434C20.0895 15.3665 20.0895 15.5511 20.0895 15.7358Z" fill="#016AB1"/>
<path id="Vector_57" d="M6.89216 14.8741C6.95419 15.0588 6.95418 15.1819 7.01621 15.3665C7.07824 15.6128 6.95418 15.859 6.70607 15.9205C6.58202 15.9821 6.45796 15.9821 6.3339 16.0436C6.08579 16.0436 5.89971 16.1052 5.65159 16.1667C5.46551 16.1052 5.34145 16.0436 5.15537 15.9821C4.84523 15.859 4.59711 15.6743 4.349 15.4281C4.41103 15.2435 4.53508 15.1203 4.65914 15.0588C4.7832 14.9972 4.90726 14.9357 5.03131 14.8741C5.15537 14.8126 5.34145 14.751 5.52754 14.6895C5.77565 14.5664 6.02376 14.5664 6.3339 14.6895C6.51999 14.751 6.70607 14.8126 6.89216 14.8741Z" fill="#016AB1"/>
<path id="Vector_58" d="M12.5893 15.3665C12.5273 15.5512 12.4032 15.6743 12.2792 15.7359C11.969 15.9205 11.5969 16.1052 11.2247 16.1052C10.9766 16.1052 10.7905 16.1052 10.5424 15.9821C10.4804 15.6743 10.6044 15.4896 10.7905 15.305C11.0386 15.0588 11.3487 14.8741 11.7209 14.8741C11.907 14.8741 12.0931 14.8741 12.2792 14.8741C12.4653 15.0588 12.5273 15.1819 12.5893 15.3665Z" fill="#016AB1"/>
<path id="Vector_59" d="M92.2344 8.719C92.1723 8.78055 92.1103 8.78054 92.1103 8.84209C91.9242 9.0883 91.6761 9.14985 91.366 9.14985C91.3039 9.14985 91.1799 9.14985 91.1179 9.14985C91.0558 9.02675 90.9938 8.9652 90.9318 8.84209C90.8697 8.78054 90.8697 8.65744 90.9318 8.59589C90.9938 8.47279 91.0558 8.41124 91.1179 8.34969C91.3039 8.28814 91.428 8.22659 91.5521 8.22659C91.6761 8.22659 91.7381 8.16504 91.8622 8.16504C92.0483 8.16504 92.1723 8.22659 92.1723 8.41124C92.2344 8.53434 92.2344 8.59589 92.2344 8.719Z" fill="#016AB1"/>
<path id="Vector_60" d="M22.6954 22.8757C22.6334 22.8142 22.6334 22.7526 22.6334 22.6911C22.5714 22.0756 22.8195 21.5832 23.3157 21.2139C23.5638 21.0292 23.874 20.9677 24.2461 20.9061C24.6803 20.9061 25.0525 20.9677 25.3626 21.2139V21.2754V21.337C25.3626 21.337 25.3626 21.3985 25.3006 21.3985C25.0525 21.5832 24.8044 21.7063 24.4942 21.8909C24.1221 22.0756 23.8119 22.2602 23.5018 22.4449C23.3157 22.568 23.1916 22.6295 23.0056 22.6911C22.9435 22.8142 22.8195 22.8142 22.6954 22.8757Z" fill="#016AB1"/>
</g>
</g>
</svg>
