<svg width="250" height="48" viewBox="0 0 250 48" fill="none" xmlns="http://www.w3.org/2000/svg">
<path d="M217.492 11.8502H218.269C218.269 11.913 218.334 11.9758 218.334 12.0386C219.175 14.3627 220.082 16.6868 220.924 19.0737C221.118 19.639 221.313 20.2043 221.442 20.7068C221.442 20.7696 221.507 20.8325 221.507 20.8953L221.572 20.8325C221.96 19.3878 222.543 18.0059 223.061 16.624C223.644 15.1165 224.227 13.6717 224.745 12.1642C224.81 12.0386 224.81 11.913 224.875 11.7874H225.652C225.717 12.1014 226.3 20.8325 226.364 21.8375C226.235 21.9003 226.17 21.9003 226.041 21.9003C225.911 21.9003 225.846 21.9003 225.717 21.9003C225.652 21.3978 225.652 20.8953 225.587 20.3928C225.523 19.8903 225.523 19.3878 225.458 18.8852C225.458 18.3827 225.393 17.8802 225.393 17.3777C225.393 16.8752 225.328 16.3727 225.328 15.8702C225.328 15.3677 225.263 14.8652 225.263 14.3627C225.263 13.8602 225.263 13.3577 225.199 12.918C225.004 13.1692 224.94 13.4833 224.81 13.7974C224.681 14.1114 224.616 14.4255 224.486 14.6768C224.357 14.9908 224.292 15.3049 224.162 15.619C224.033 15.933 223.968 16.2471 223.839 16.4983C223.709 16.8124 223.58 17.0637 223.515 17.3777C223.385 17.6918 223.256 17.943 223.191 18.2571C223.061 18.5712 222.932 18.8224 222.867 19.1365C222.738 19.4506 222.608 19.7646 222.543 20.0787C222.414 20.3928 222.284 20.644 222.219 20.9581C222.09 21.2721 221.96 21.5234 221.896 21.8375C221.701 21.9003 221.572 21.8375 221.378 21.8375C220.276 18.8224 219.111 15.8702 218.139 12.7924C218.01 12.9808 218.074 13.1064 218.074 13.2321C218.074 13.4205 218.074 13.5461 218.074 13.7346C218.074 13.8602 218.074 14.0486 218.074 14.1743C218.074 14.2999 218.074 14.4883 218.074 14.6139C218.074 14.7396 218.074 14.928 218.074 15.0536C218.074 15.2421 218.074 15.3677 218.074 15.5561C218.074 15.6818 218.074 15.8702 218.01 15.9958C218.01 16.1215 218.01 16.3099 218.01 16.4355C218.01 16.5612 218.01 16.7496 218.01 16.8752C218.01 17.0637 218.01 17.1893 217.945 17.3777C217.945 17.5034 217.945 17.6918 217.945 17.8174C217.945 17.943 217.945 18.1315 217.88 18.2571C217.88 18.3827 217.88 18.5712 217.88 18.6968C217.88 18.8852 217.88 19.0109 217.815 19.1993C217.815 19.3249 217.815 19.5134 217.815 19.639C217.815 19.7646 217.815 19.9531 217.815 20.0787C217.815 20.2043 217.815 20.3928 217.751 20.5184C217.751 20.7068 217.751 20.8325 217.751 21.0209C217.751 21.1465 217.751 21.335 217.686 21.4606C217.686 21.5862 217.686 21.7746 217.686 21.9003C217.492 21.9631 217.233 21.9003 217.038 21.9631C217.038 21.9003 217.038 21.8375 217.038 21.7747C217.103 21.0209 217.168 20.2671 217.233 19.5134C217.297 19.0737 217.297 18.634 217.362 18.1943C217.492 16.7496 217.556 15.2421 217.686 13.7974C217.751 13.2321 217.751 12.6039 217.815 12.0386C217.427 11.9758 217.492 11.913 217.492 11.8502Z" fill="white"/>
<path d="M130.057 20.8325C130.057 21.0837 130.057 21.2721 130.057 21.4606C130.057 21.649 130.057 21.8375 130.057 22.0259V22.5912V23.1565V23.7219V24.2872V24.8525C129.798 24.9153 129.603 24.8525 129.409 24.9153C129.344 24.7897 129.344 24.6641 129.344 24.5384C129.344 22.34 129.344 20.1415 129.344 17.8802C129.344 16.938 129.28 15.9958 129.28 15.0536C129.28 14.9908 129.28 14.8652 129.28 14.8024C129.474 14.7396 129.733 14.8024 129.927 14.8024C129.992 14.928 129.927 15.1165 129.992 15.2421C129.992 15.3677 129.992 15.5561 129.992 15.6818C129.992 15.8074 129.992 15.933 129.992 16.0587C130.057 16.1215 130.122 16.0587 130.122 16.0587C130.186 15.9958 130.251 15.933 130.251 15.8074C130.705 15.1793 131.417 14.8024 132.194 14.6768C132.583 14.6139 132.971 14.6139 133.295 14.7396C133.943 14.8652 134.461 15.2421 134.914 15.7446C135.303 16.2471 135.497 16.8124 135.627 17.4405C135.756 18.2571 135.691 19.1365 135.432 19.9531C135.303 20.2671 135.173 20.5812 134.979 20.8953C134.331 21.7118 133.489 22.1515 132.453 22.1515C131.482 22.1515 130.705 21.7746 130.186 21.0209C130.186 20.8953 130.122 20.8953 130.057 20.8325ZM130.057 18.5084C130.057 18.7596 130.057 19.0109 130.057 19.1993C130.057 19.3249 130.057 19.4506 130.057 19.5134C130.251 20.5812 131.093 21.3978 132.324 21.4606C133.166 21.4606 133.878 21.1465 134.331 20.5184C134.526 20.2671 134.655 20.0159 134.72 19.7646C134.979 18.9481 135.044 18.0687 134.85 17.2521C134.72 16.7496 134.526 16.3099 134.202 15.933C133.684 15.3677 133.036 15.1165 132.259 15.1793C131.546 15.2421 131.028 15.5561 130.575 16.1215C130.186 16.624 129.992 17.1893 129.992 17.7546C130.057 18.0059 130.057 18.2571 130.057 18.5084Z" fill="white"/>
<path d="M168.789 11.8501H169.501C169.501 11.9129 169.501 12.0385 169.501 12.1014C169.501 14.0486 169.501 15.9958 169.501 17.943C169.501 18.5711 169.436 19.2621 169.177 19.8274C169.112 20.0158 169.048 20.2043 168.918 20.3927C168.335 21.3977 167.493 21.963 166.327 22.0258C165.874 22.0886 165.356 22.0258 164.903 21.9002C164.19 21.7118 163.672 21.2721 163.283 20.7068C162.96 20.2671 162.83 19.7646 162.701 19.1992C162.636 18.8224 162.571 18.3827 162.571 18.0058C162.571 16.0586 162.571 14.0486 162.571 12.1014V11.9129C162.701 11.8501 162.83 11.8501 162.96 11.8501C163.089 11.8501 163.154 11.8501 163.283 11.8501C163.348 11.9757 163.348 12.1013 163.348 12.227C163.348 14.1114 163.348 15.9958 163.348 17.8802C163.348 18.257 163.348 18.6967 163.413 19.0736C163.478 19.3877 163.543 19.7646 163.737 20.0786C164.19 21.0208 164.903 21.4605 166.004 21.4605C166.263 21.4605 166.522 21.4605 166.781 21.3977C167.428 21.2093 167.882 20.8952 168.206 20.3927C168.465 19.953 168.594 19.5133 168.724 19.0108C168.789 18.6339 168.789 18.3199 168.789 17.943C168.789 16.0586 168.789 14.1742 168.789 12.2898C168.789 12.1642 168.789 12.0385 168.789 11.8501Z" fill="white"/>
<path d="M107.709 21.3349C107.774 21.5233 107.709 21.7118 107.709 21.9002C107.709 21.9002 107.709 21.963 107.645 21.963C107.645 21.963 107.645 21.963 107.58 21.963C105.961 21.963 104.277 21.963 102.658 21.963C102.593 21.963 102.593 21.963 102.593 21.963C102.593 21.963 102.593 21.963 102.593 21.9002C102.593 21.9002 102.593 21.9002 102.593 21.8374C102.593 18.5083 102.593 15.242 102.593 11.9129V11.8501C102.593 11.8501 102.593 11.8501 102.658 11.8501C104.147 11.8501 105.702 11.8501 107.191 11.8501C107.256 11.8501 107.321 11.8501 107.386 11.8501C107.386 11.8501 107.386 11.8501 107.45 11.9129C107.45 12.0385 107.45 12.227 107.45 12.4154C107.386 12.4782 107.256 12.4782 107.127 12.4782C105.961 12.4782 104.795 12.4782 103.629 12.4782H103.305L103.241 12.541C103.241 13.7973 103.241 14.9908 103.241 16.247C103.241 16.3098 103.241 16.3098 103.241 16.3727C103.694 16.3727 104.083 16.3727 104.536 16.3727C104.989 16.3727 105.443 16.3727 105.896 16.3727C106.349 16.3727 106.738 16.3727 107.191 16.3727C107.256 16.5611 107.191 16.7495 107.256 16.938C107.127 17.0636 107.062 17.0008 106.932 17.0008C105.831 17.0008 104.73 17.0008 103.694 17.0008H103.305C103.305 17.0636 103.305 17.1264 103.305 17.1892C103.305 18.5711 103.305 19.8902 103.305 21.2721C103.305 21.3349 103.305 21.3349 103.305 21.3349C103.305 21.3349 103.305 21.3349 103.305 21.3977C104.795 21.3349 106.22 21.3349 107.709 21.3349Z" fill="white"/>
<path d="M142.296 21.1465C142.36 21.3349 142.425 21.4605 142.49 21.649C142.425 21.7118 142.36 21.7118 142.296 21.7746C141.389 22.1515 140.482 22.2143 139.575 22.0259C138.604 21.8374 137.956 21.3349 137.438 20.4555C137.179 19.953 137.05 19.4505 136.985 18.948C136.92 18.1315 136.985 17.3149 137.309 16.5611C137.503 16.1214 137.762 15.6817 138.151 15.3677C138.798 14.8024 139.575 14.5511 140.482 14.6139C141.454 14.6767 142.101 15.1792 142.555 16.0586C142.879 16.7496 143.008 17.5033 142.943 18.2571C142.814 18.3199 142.684 18.3199 142.555 18.3199C141.065 18.3199 139.575 18.3199 138.151 18.3199H137.762C137.762 18.3827 137.697 18.4455 137.697 18.5083C137.697 19.0736 137.827 19.5762 138.021 20.0787C138.41 20.958 139.187 21.4606 140.158 21.5234C140.871 21.5862 141.583 21.4606 142.231 21.2093C142.231 21.1465 142.296 21.1465 142.296 21.1465ZM142.166 17.6918C142.166 17.1893 142.101 16.6867 141.842 16.2471C141.648 15.8074 141.324 15.4933 140.871 15.3677C140.029 15.0536 138.993 15.242 138.345 15.9958C138.086 16.3099 137.892 16.6239 137.827 17.0008C137.762 17.2521 137.697 17.4405 137.697 17.6918C138.021 17.7546 141.778 17.7546 142.166 17.6918Z" fill="white"/>
<path d="M188.995 18.3826C188.995 19.0107 188.866 19.5761 188.607 20.2042C188.153 21.2092 187.376 21.8373 186.211 22.0886C184.85 22.3398 183.685 21.8373 182.972 20.8323C182.648 20.3926 182.454 19.8901 182.389 19.3876C182.195 18.5082 182.26 17.6917 182.584 16.8751C182.907 15.9329 183.555 15.242 184.462 14.8651C185.887 14.2998 187.7 14.7394 188.542 16.3726C188.866 16.9379 188.995 17.566 188.995 18.3826ZM188.283 18.3198C188.283 17.566 188.024 16.8123 187.7 16.247C186.729 14.8023 184.591 14.8651 183.685 16.247C183.555 16.4354 183.49 16.6238 183.361 16.8123C182.972 17.6917 182.972 18.571 183.167 19.4504C183.296 20.0158 183.62 20.5183 184.008 20.8951C184.786 21.5861 185.951 21.7117 186.858 21.1464C187.247 20.8951 187.571 20.5183 187.83 20.1414C188.153 19.5761 188.283 18.9479 188.283 18.3198Z" fill="white"/>
<path d="M127.53 18.3199C127.53 18.8852 127.466 19.4505 127.271 19.9531C126.818 21.0209 126.041 21.7746 124.875 22.0259C123.515 22.2771 122.349 21.7746 121.637 20.7696C121.313 20.3299 121.119 19.8274 121.054 19.3249C120.924 18.5083 120.924 17.629 121.248 16.8124C121.507 16.1214 121.896 15.5561 122.479 15.1793C123.904 14.1742 126.17 14.4255 127.142 16.2471C127.336 16.8124 127.53 17.5033 127.53 18.3199ZM126.818 18.3199C126.818 17.5662 126.624 16.8752 126.17 16.1843C125.199 14.8024 123.126 14.8652 122.22 16.1214C122.09 16.3099 121.961 16.4983 121.896 16.6868C121.507 17.629 121.442 18.5712 121.766 19.5134C121.896 20.0159 122.22 20.4556 122.608 20.8324C123.385 21.5234 124.486 21.5862 125.393 21.0837C125.782 20.8324 126.106 20.5184 126.3 20.1415C126.688 19.639 126.818 19.0109 126.818 18.3199Z" fill="white"/>
<path d="M201.357 18.3827C201.357 17.8174 201.422 17.2521 201.681 16.6867C202.069 15.7445 202.717 15.0536 203.753 14.7395C205.113 14.2998 206.862 14.7395 207.639 16.3099C207.898 16.8124 208.028 17.3149 208.028 17.8174C208.093 18.5083 208.028 19.1365 207.833 19.8274C207.445 20.8952 206.732 21.649 205.631 21.963C204.271 22.3399 202.782 21.9002 202.005 20.644C201.681 20.1415 201.551 19.639 201.486 19.0736C201.422 18.8224 201.422 18.5711 201.357 18.3827ZM202.134 18.3199C202.134 18.6968 202.134 18.948 202.199 19.2621C202.328 19.8274 202.523 20.2671 202.911 20.7068C203.883 21.7746 205.372 21.7118 206.279 20.8324C206.603 20.5183 206.862 20.2043 206.992 19.8274C207.251 19.1993 207.315 18.5083 207.251 17.8174C207.186 17.2521 206.992 16.7495 206.668 16.247C206.344 15.8073 205.955 15.4933 205.502 15.3677C204.53 15.0536 203.365 15.3048 202.717 16.3099C202.587 16.4983 202.523 16.6867 202.393 16.8752C202.199 17.3149 202.069 17.8174 202.134 18.3199Z" fill="white"/>
<path d="M144.627 15.242C144.756 15.1164 144.951 14.9908 145.145 14.928C145.793 14.6767 146.505 14.5511 147.218 14.6139C148.06 14.7395 148.642 15.1792 148.901 15.933C149.096 16.4355 149.161 16.8752 149.161 17.3777C149.161 18.2571 149.161 19.1993 149.161 20.0787C149.161 20.3299 149.161 20.5812 149.161 20.8324C149.161 21.0837 149.225 21.3349 149.225 21.5862C149.225 21.649 149.225 21.7746 149.225 21.9002C149.031 21.9002 148.837 21.9002 148.578 21.9002C148.513 21.5862 148.513 21.2721 148.448 20.958C148.319 20.958 148.319 21.0209 148.254 21.0837C147.93 21.4605 147.477 21.7746 147.023 21.9002C146.505 22.0887 145.987 22.0887 145.534 21.963C144.692 21.7746 144.174 21.0837 144.109 20.3299C144.044 19.3249 144.433 18.5711 145.339 18.0686C145.858 17.8174 146.44 17.6289 147.023 17.5661C147.412 17.5033 147.8 17.5033 148.189 17.5033C148.254 17.5033 148.319 17.5033 148.383 17.5033C148.383 17.4405 148.383 17.3777 148.383 17.3149C148.383 17.0636 148.319 16.7496 148.254 16.4983C148.06 15.7445 147.541 15.3049 146.699 15.242C146.052 15.242 145.469 15.3677 144.951 15.6817C144.886 15.6817 144.821 15.7445 144.757 15.8074C144.692 15.7445 144.692 15.6189 144.627 15.5561C144.692 15.4305 144.627 15.3049 144.627 15.242ZM148.383 18.1314C147.8 18.1314 147.153 18.1314 146.57 18.2571C146.246 18.3199 145.987 18.3827 145.728 18.5711C145.145 18.8852 144.821 19.3249 144.821 19.953C144.821 20.2043 144.821 20.4555 144.886 20.644C145.08 21.1465 145.469 21.4605 145.987 21.5234C146.311 21.5862 146.699 21.5234 147.023 21.3977C147.93 21.0837 148.448 20.2043 148.383 19.5133C148.383 19.1365 148.383 18.7596 148.383 18.3827C148.448 18.3199 148.448 18.1943 148.383 18.1314Z" fill="white"/>
<path d="M228.564 14.8022C228.823 14.8022 229.018 14.8022 229.277 14.8022V15.1163C229.277 16.3726 229.277 17.566 229.277 18.8223C229.277 19.262 229.277 19.7017 229.406 20.1414C229.471 20.3298 229.536 20.4554 229.6 20.6439C229.859 21.0836 230.248 21.3976 230.766 21.4604C231.025 21.5233 231.349 21.5233 231.608 21.4604C232.385 21.3348 233.357 20.4554 233.357 19.3876C233.357 19.262 233.357 19.1364 233.357 19.0735C233.357 17.8173 233.357 16.4982 233.357 15.2419V14.9279C233.616 14.8651 233.81 14.9279 234.004 14.8651C234.069 14.9907 234.069 15.1163 234.069 15.1791C234.069 16.6866 234.069 18.1942 234.069 19.7645C234.069 20.4554 234.069 21.1464 234.134 21.8373C234.134 21.9001 234.134 21.9629 234.134 22.0258C234.004 22.0886 233.94 22.0258 233.81 22.0258C233.681 22.0258 233.616 22.0258 233.486 22.0258C233.486 21.6489 233.422 21.2092 233.422 20.7695C233.292 20.8323 233.292 20.9579 233.227 21.0207C232.839 21.5861 232.256 21.9629 231.608 22.0886C231.155 22.1514 230.701 22.1514 230.313 22.0258C229.795 21.9001 229.406 21.5861 229.147 21.1464C228.953 20.8323 228.758 20.4554 228.694 20.0157C228.629 19.7017 228.629 19.3876 228.629 19.0735C228.629 17.6916 228.629 16.2469 228.629 14.8651C228.499 14.8651 228.499 14.8651 228.564 14.8022Z" fill="white"/>
<path d="M177.468 21.963H176.756C176.756 21.8374 176.756 21.7746 176.756 21.649C176.756 20.3299 176.756 19.0108 176.756 17.7545C176.756 17.3777 176.756 17.0008 176.626 16.6239C176.626 16.5611 176.626 16.5611 176.562 16.4983C176.173 15.4933 175.202 14.9908 174.165 15.3676C173.259 15.6817 172.741 16.3726 172.611 17.252C172.611 17.3777 172.611 17.5661 172.611 17.7545C172.611 19.0736 172.611 20.3299 172.611 21.649V22.0258C172.481 22.0258 172.352 22.0258 172.222 22.0258C172.093 22.0258 172.028 22.0258 171.899 22.0258C171.834 21.9002 171.834 21.7746 171.834 21.7118C171.834 20.2043 171.834 18.6967 171.834 17.1892C171.834 16.4983 171.834 15.8073 171.769 15.1792C171.769 15.1164 171.769 14.9908 171.769 14.9279C171.963 14.8651 172.158 14.9279 172.352 14.9279C172.417 15.1164 172.417 15.3048 172.417 15.5561C172.417 15.7445 172.417 15.933 172.481 16.1214C172.611 16.1214 172.611 16.0586 172.611 15.9958C173.129 15.1792 173.906 14.8023 174.878 14.7395C175.785 14.7395 176.497 15.1164 177.015 15.8701C177.274 16.3098 177.404 16.7495 177.468 17.252C177.468 17.4405 177.468 17.6289 177.468 17.8173C177.468 19.1364 177.468 20.5183 177.468 21.8374V21.963Z" fill="white"/>
<path d="M196.44 21.9631H195.792C195.728 21.9003 195.728 21.7746 195.728 21.649C195.728 20.3928 195.728 19.1365 195.728 17.8174C195.728 17.4405 195.728 17.0637 195.598 16.7496C195.533 16.5612 195.468 16.3727 195.404 16.2471C195.015 15.3677 194.108 15.1165 193.396 15.2421C192.36 15.4305 191.518 16.3727 191.518 17.3777C191.518 17.5034 191.518 17.629 191.518 17.6918C191.518 19.0109 191.518 20.2671 191.518 21.5862V21.9003C191.388 21.9631 191.259 21.9631 191.194 21.9631C191.064 21.9631 191 21.9631 190.87 21.9631C190.805 21.8375 190.805 21.7746 190.805 21.649C190.805 20.0787 190.805 18.5084 190.805 16.938C190.805 16.3099 190.805 15.7446 190.741 15.1165C190.741 14.9908 190.741 14.928 190.741 14.8024C190.935 14.7396 191.129 14.8024 191.388 14.8024C191.453 15.2421 191.453 15.619 191.453 15.9958C191.583 15.9958 191.583 15.933 191.583 15.8702C192.101 15.0536 192.878 14.6768 193.849 14.6768C194.821 14.6768 195.533 15.1165 195.987 15.933C196.181 16.2471 196.246 16.624 196.31 17.0008C196.375 17.2521 196.375 17.5034 196.375 17.7546C196.375 19.0737 196.375 20.3928 196.375 21.7118V21.9631H196.44Z" fill="white"/>
<path d="M157.054 21.963H156.342C156.342 21.8374 156.342 21.7746 156.342 21.7118C156.342 20.3927 156.342 19.0736 156.342 17.7545C156.342 17.3777 156.277 17.0008 156.212 16.6239C156.148 16.4983 156.148 16.3726 156.083 16.247C155.694 15.3676 154.852 15.1164 154.14 15.242C153.168 15.3676 152.391 16.1842 152.262 17.1264C152.262 17.3148 152.197 17.5033 152.197 17.6917C152.197 19.0108 152.197 20.2671 152.197 21.5861V21.963C151.938 21.963 151.744 21.963 151.549 21.963C151.485 21.8374 151.485 21.7746 151.485 21.6489C151.485 20.0158 151.485 18.3827 151.485 16.6867C151.485 16.0586 151.485 15.4933 151.42 14.8651C151.42 14.8023 151.42 14.8023 151.42 14.7395C151.614 14.7395 151.808 14.7395 152.067 14.7395C152.132 15.1164 152.067 15.4933 152.132 15.8701C152.262 15.8701 152.262 15.8073 152.262 15.7445C152.65 15.1792 153.168 14.8023 153.881 14.6139C154.334 14.4882 154.788 14.4882 155.241 14.6139C155.889 14.8023 156.407 15.1792 156.731 15.8073C156.925 16.247 157.054 16.6867 157.054 17.1264C157.054 17.252 157.054 17.3777 157.054 17.5033C157.054 18.8852 157.054 20.2671 157.054 21.6489V21.963Z" fill="white"/>
<path d="M114.185 14.8022H114.897C114.897 14.9279 114.897 15.0535 114.897 15.1163C114.897 16.561 114.897 18.0057 114.897 19.4504C114.897 20.267 114.897 21.0836 114.962 21.9001C114.768 21.9629 114.509 21.9001 114.314 21.9629C114.25 21.5233 114.314 21.1464 114.25 20.7695C114.12 20.7695 114.12 20.8951 114.055 20.9579C113.731 21.3976 113.343 21.7745 112.825 21.9629C112.307 22.1514 111.789 22.2142 111.206 22.0886C110.558 21.9629 110.169 21.5861 109.846 21.0836C109.651 20.7067 109.522 20.3298 109.457 19.9529C109.392 19.7017 109.392 19.3876 109.392 19.1364C109.392 17.8173 109.392 16.4354 109.392 15.1163C109.392 15.0535 109.392 14.9907 109.392 14.9279C109.651 14.8651 109.846 14.9279 110.105 14.9279C110.105 15.0535 110.105 15.1791 110.105 15.3047C110.105 16.4982 110.105 17.7545 110.105 18.9479C110.105 19.3876 110.169 19.7645 110.234 20.1414C110.299 20.3926 110.364 20.6439 110.493 20.8951C110.752 21.3348 111.141 21.5861 111.659 21.6489C112.242 21.7117 112.825 21.5861 113.278 21.2092C113.861 20.7695 114.185 20.1414 114.185 19.3876C114.185 18.0057 114.185 16.6866 114.185 15.3676V14.8022Z" fill="white"/>
<path d="M210.687 14.7395C211.27 14.7395 211.918 14.7395 212.501 14.7395C212.566 14.928 212.501 15.1164 212.501 15.3048C212.371 15.3677 212.177 15.3048 212.047 15.3048C211.853 15.3048 211.724 15.3048 211.529 15.3048C211.4 15.3048 211.206 15.3048 211.076 15.3048C210.946 15.3048 210.752 15.3048 210.623 15.3048C210.623 15.8702 210.623 16.4355 210.623 16.938C210.623 17.5033 210.623 18.0058 210.623 18.5711V20.2043V21.8374C210.364 21.9002 210.169 21.8374 209.91 21.9002C209.91 21.5862 209.91 21.3349 209.91 21.0837C209.91 20.8324 209.91 20.5183 209.91 20.2671V19.4505V18.6339V17.8174V17.0008V16.1842V15.3677C209.586 15.3048 209.263 15.3677 208.939 15.3048C208.874 15.1164 208.939 14.928 208.939 14.7395C209.263 14.6767 209.586 14.7395 209.91 14.6767C209.975 14.5511 209.975 14.4255 209.975 14.2998C209.975 13.8601 210.04 13.3576 210.104 12.918C210.169 12.6039 210.299 12.3526 210.493 12.1014C210.882 11.4732 211.465 11.1592 212.242 11.1592C212.566 11.1592 212.889 11.1592 213.213 11.2848C213.278 11.2848 213.343 11.3476 213.408 11.4104C213.408 11.5989 213.278 11.7873 213.213 11.9129C213.148 11.9129 213.084 11.9129 213.084 11.8501C212.76 11.7245 212.501 11.7245 212.177 11.7245C211.724 11.7245 211.335 11.9758 211.141 12.3526C211.011 12.6039 210.882 12.9179 210.882 13.1692C210.817 13.6717 210.817 14.1114 210.817 14.6139C210.623 14.6767 210.623 14.7395 210.687 14.7395Z" fill="white"/>
<path d="M250 15.0536C249.935 15.242 249.806 15.4305 249.741 15.6189C249.676 15.5561 249.547 15.5561 249.482 15.4933C248.769 15.1792 247.992 15.1164 247.28 15.3048C246.567 15.4933 246.049 15.8702 245.661 16.4983C245.402 16.938 245.272 17.3777 245.207 17.8174C245.143 18.4455 245.143 19.0736 245.402 19.7018C245.725 20.644 246.438 21.2721 247.409 21.4605C247.992 21.5862 248.64 21.5233 249.223 21.3349C249.417 21.2721 249.547 21.2093 249.676 21.1465C249.806 21.2093 249.806 21.3349 249.806 21.3977C249.87 21.4605 249.87 21.5861 249.87 21.649C249.676 21.7746 249.417 21.8374 249.158 21.9002C248.51 22.0887 247.798 22.1515 247.086 22.0258C245.92 21.8374 245.078 21.1465 244.624 20.0786C244.171 18.948 244.171 17.8174 244.689 16.6867C245.207 15.4933 246.179 14.8023 247.539 14.6139C248.187 14.5511 248.769 14.6139 249.417 14.8023C249.676 14.928 249.806 14.9908 250 15.0536Z" fill="white"/>
<path d="M239.823 15.0536C239.758 15.242 239.629 15.4305 239.564 15.6189C239.434 15.5561 239.369 15.4933 239.305 15.4933C238.916 15.3048 238.528 15.242 238.139 15.242C238.074 15.242 237.945 15.242 237.88 15.242C237.167 15.3676 236.714 15.933 236.844 16.7495C236.908 17.0008 237.038 17.1892 237.232 17.3777C237.362 17.5033 237.556 17.6289 237.75 17.6917C238.009 17.8174 238.204 17.943 238.463 18.0058C238.787 18.1314 239.046 18.2571 239.305 18.4455C240.147 19.0736 240.406 20.0786 239.888 20.958C239.629 21.4605 239.175 21.7746 238.657 21.963C237.75 22.2143 236.844 22.1515 236.002 21.649C236.002 21.649 236.002 21.5862 235.937 21.5862C236.002 21.3977 236.066 21.2093 236.196 21.0208C236.325 21.0836 236.39 21.1465 236.52 21.2093C237.038 21.4605 237.621 21.5862 238.204 21.4605C238.333 21.4605 238.463 21.3977 238.592 21.3977C239.24 21.1465 239.499 20.644 239.499 20.0786C239.499 19.6389 239.305 19.3249 238.981 19.0736C238.722 18.8852 238.463 18.7596 238.204 18.6339C238.009 18.5711 237.815 18.4455 237.621 18.3827C237.362 18.2571 237.103 18.0686 236.844 17.8802C235.807 17.0636 236.131 15.6817 236.973 15.0536C237.362 14.8023 237.815 14.6767 238.268 14.6139C238.787 14.6139 239.305 14.6767 239.758 14.928C239.693 14.9908 239.758 14.9908 239.823 15.0536Z" fill="white"/>
<path d="M117.949 21.963H117.237C117.237 21.9002 117.237 21.7746 117.237 21.7118C117.237 20.3299 117.237 19.0108 117.237 17.6289C117.237 16.8124 117.237 15.9958 117.172 15.1792C117.172 15.0536 117.172 14.928 117.172 14.8023C117.366 14.7395 117.561 14.8023 117.755 14.8023C117.82 15.0536 117.755 15.242 117.82 15.4933C117.82 15.7445 117.82 15.933 117.82 16.1842C117.949 16.1842 117.949 16.0586 117.949 15.9958C118.079 15.6817 118.338 15.3677 118.597 15.1164C118.921 14.8023 119.309 14.6767 119.763 14.6139C119.892 14.6139 120.022 14.6139 120.151 14.6139C120.216 14.8651 120.151 15.0536 120.151 15.3048H119.828C119.245 15.3048 118.856 15.5561 118.467 15.933C118.144 16.3098 118.014 16.7495 117.885 17.1892C117.82 17.4405 117.82 17.7546 117.82 18.0058C117.82 19.1993 117.82 20.3927 117.82 21.5862V21.963H117.949Z" fill="white"/>
<path d="M179.861 14.8022H180.509C180.509 14.8022 180.574 14.8022 180.574 14.8651C180.574 14.8651 180.574 14.8651 180.574 14.9279C180.574 17.252 180.574 19.576 180.574 21.9629C180.574 21.9629 180.574 22.0258 180.509 22.0258C180.315 22.0258 180.056 22.0258 179.861 22.0258C179.861 22.0258 179.861 22.0258 179.861 21.9629C179.861 19.6389 179.861 17.3148 179.861 14.9907C179.797 14.8651 179.861 14.8651 179.861 14.8022Z" fill="white"/>
<path d="M241.974 14.8023C242.169 14.7395 242.428 14.8023 242.622 14.8023L242.687 14.8651C242.687 14.8651 242.687 14.8651 242.687 14.928C242.687 17.252 242.687 19.5761 242.687 21.963V22.0258C242.492 22.0258 242.233 22.0258 242.039 22.0258C242.039 22.0258 242.039 22.0258 242.039 21.963C242.039 21.963 242.039 21.963 242.039 21.9002C242.039 19.5761 242.039 17.252 242.039 14.8651C241.974 14.8651 241.974 14.8023 241.974 14.8023Z" fill="white"/>
<path d="M180.761 12.6666C180.761 13.1691 180.373 13.4204 179.984 13.2947C179.79 13.2319 179.596 12.9807 179.596 12.7294C179.596 12.541 179.66 12.4154 179.725 12.2897C179.984 11.9757 180.438 12.0385 180.632 12.3525C180.697 12.4782 180.697 12.6038 180.761 12.6666Z" fill="white"/>
<path d="M242.873 12.7295C242.873 13.0435 242.679 13.2948 242.355 13.3576C242.161 13.3576 242.031 13.3576 241.902 13.232C241.578 12.9807 241.643 12.4154 241.966 12.227C242.225 12.1013 242.485 12.1013 242.679 12.2898C242.873 12.4154 242.873 12.541 242.873 12.7295Z" fill="white"/>
<path d="M124.744 36.9125H124.096C124.032 36.8497 124.032 36.7241 124.032 36.5985C124.032 35.2166 124.032 33.8975 124.032 32.5156C124.032 32.1387 124.032 31.7619 123.902 31.4478C123.837 31.3222 123.772 31.1965 123.708 31.0081C123.319 30.2543 122.477 29.9403 121.635 30.2543C121.376 30.38 121.182 30.5056 120.988 30.694C120.469 31.1965 120.21 31.8247 120.21 32.5156C120.21 33.0809 120.21 33.7091 120.21 34.2744C120.21 35.0281 120.21 35.7191 120.21 36.4729V36.8497C119.951 36.8497 119.757 36.8497 119.498 36.8497C119.433 36.7241 119.498 36.5985 119.433 36.4729C119.433 34.9025 119.433 33.3322 119.433 31.7619C119.433 31.1337 119.433 30.4428 119.368 29.8146C119.368 29.7518 119.368 29.7518 119.368 29.689C119.498 29.689 119.563 29.689 119.692 29.689C119.822 29.689 119.887 29.689 120.016 29.689C120.016 30.0659 120.081 30.4428 120.081 30.8825C120.146 30.8197 120.21 30.8197 120.21 30.7568C120.34 30.5684 120.469 30.4428 120.599 30.2543C121.247 29.6262 122.024 29.375 122.866 29.5634C123.384 29.689 123.772 29.9403 124.096 30.38C124.226 30.5056 124.291 30.694 124.42 30.8825C124.42 30.9453 124.485 31.0081 124.485 31.0709C124.55 30.9453 124.614 30.8197 124.679 30.7568C125.003 30.2543 125.456 29.8775 126.104 29.689C126.493 29.5634 126.881 29.5634 127.335 29.6262C127.982 29.7518 128.436 30.1287 128.824 30.6312C129.018 31.0081 129.148 31.385 129.213 31.8247C129.278 32.1387 129.278 32.4528 129.278 32.7669C129.278 34.0231 129.278 35.2794 129.278 36.5985C129.278 36.7241 129.278 36.8497 129.278 36.9754C129.148 36.9754 129.018 36.9754 128.889 36.9754C128.759 36.9754 128.695 36.9754 128.565 36.9754C128.565 36.8497 128.565 36.7241 128.565 36.5985C128.565 35.405 128.565 34.2116 128.565 33.0181C128.565 32.6412 128.565 32.2015 128.436 31.8247C128.371 31.6362 128.306 31.4478 128.241 31.2594C127.788 30.1915 126.622 30.1287 125.91 30.5056C125.327 30.8197 124.938 31.3222 124.744 31.9503C124.679 32.1387 124.679 32.39 124.679 32.6412C124.679 34.0231 124.679 35.3422 124.679 36.7241C124.744 36.6613 124.744 36.7869 124.744 36.9125Z" fill="white"/>
<path d="M132.318 35.8447V39.8019C132.059 39.8648 131.865 39.8019 131.605 39.8648C131.541 39.7391 131.541 39.6135 131.541 39.4879C131.541 37.3522 131.541 35.1538 131.541 33.0181C131.541 32.0131 131.476 31.0081 131.476 30.0031C131.476 29.9403 131.476 29.8146 131.476 29.7518C131.67 29.689 131.865 29.7518 132.124 29.7518C132.124 29.8146 132.188 29.8775 132.188 29.9403C132.188 30.2543 132.188 30.5684 132.188 30.8825C132.188 30.9453 132.188 31.0081 132.253 31.0709C132.318 31.0081 132.383 30.8825 132.447 30.8197C132.836 30.2543 133.354 29.9403 134.002 29.7518C135.297 29.4378 136.592 29.8775 137.37 31.0709C137.629 31.5106 137.758 31.9503 137.823 32.39C137.953 33.2694 137.888 34.0859 137.629 34.9653C137.434 35.4678 137.175 35.9703 136.787 36.2844C135.88 37.101 134.779 37.2894 133.613 36.9125C133.16 36.7869 132.771 36.4728 132.447 36.096C132.447 35.9703 132.447 35.9075 132.318 35.8447ZM137.24 33.3322C137.24 33.1437 137.24 32.8925 137.175 32.7041C137.111 32.0759 136.916 31.5106 136.528 31.0709C135.815 30.1915 134.649 30.0031 133.678 30.5056C132.771 31.0081 132.318 31.7619 132.253 32.7041C132.188 33.2066 132.253 33.7719 132.253 34.2744C132.253 34.4 132.253 34.5256 132.318 34.5884C132.577 35.6563 133.548 36.5357 134.844 36.4728C135.556 36.41 136.074 36.1588 136.528 35.6563C136.722 35.405 136.916 35.091 136.981 34.7769C137.175 34.2744 137.24 33.8347 137.24 33.3322Z" fill="white"/>
<path d="M232.25 26.2971H232.897C232.962 26.4227 232.962 26.4856 232.962 26.6112C232.962 27.9303 232.962 29.2493 232.962 30.5684C232.962 30.694 232.962 30.7569 232.962 30.8825C233.092 30.8197 233.092 30.7569 233.156 30.694C233.61 30.0659 234.193 29.689 234.97 29.5634C235.941 29.375 236.978 29.8147 237.496 30.694C237.69 31.0081 237.82 31.385 237.82 31.7619C237.884 32.0131 237.884 32.2644 237.884 32.5156C237.884 33.8975 237.884 35.2794 237.884 36.6613C237.884 36.7241 237.884 36.7869 237.884 36.8497C237.755 36.9125 237.625 36.9125 237.561 36.9125C237.431 36.9125 237.366 36.9125 237.237 36.9125C237.172 36.7869 237.172 36.6613 237.172 36.5985C237.172 35.3422 237.172 34.1488 237.172 32.8925C237.172 32.5156 237.172 32.1387 237.042 31.7619C236.978 31.5734 236.913 31.385 236.848 31.1965C236.524 30.5056 235.877 30.1915 235.035 30.2543C233.869 30.38 232.962 31.3222 232.962 32.4528C232.962 33.8347 232.962 35.1538 232.962 36.5357V36.9125C232.768 36.9754 232.509 36.9126 232.25 36.9754C232.25 36.8497 232.25 36.7869 232.25 36.7241C232.25 36.096 232.25 35.4678 232.25 34.9025V26.7368V26.2971Z" fill="white"/>
<path d="M211.341 33.395C211.341 32.7041 211.471 32.076 211.73 31.4478C212.183 30.5685 212.831 29.9403 213.867 29.6891C215.162 29.375 216.782 29.7519 217.559 31.2594C217.818 31.7619 217.947 32.2644 218.012 32.8297C218.077 33.5207 218.012 34.2116 217.753 34.9026C217.365 35.9704 216.587 36.6613 215.486 36.9754C214.126 37.3523 212.701 36.8498 211.924 35.6563C211.536 35.091 211.406 34.4001 211.341 33.7091C211.341 33.5835 211.341 33.4579 211.341 33.395ZM214.709 30.1916C213.802 30.1916 213.09 30.5685 212.637 31.2594C212.507 31.4478 212.378 31.6363 212.313 31.8875C212.054 32.6413 211.989 33.395 212.119 34.1488C212.248 34.7769 212.507 35.2794 212.96 35.7191C213.867 36.6613 215.292 36.6613 216.264 35.8448C216.652 35.5307 216.911 35.1538 217.041 34.7141C217.3 33.9604 217.365 33.2066 217.235 32.4528C217.105 31.9503 216.976 31.5107 216.652 31.1338C216.134 30.5056 215.486 30.1916 214.709 30.1916Z" fill="white"/>
<path d="M189.963 33.395C189.963 32.7668 190.027 32.1387 190.287 31.5106C190.74 30.5684 191.388 29.9403 192.424 29.689C193.719 29.3749 195.338 29.8146 196.115 31.2593C196.504 31.9503 196.569 32.704 196.569 33.5206C196.569 34.0231 196.439 34.5256 196.245 34.9653C195.792 36.0959 194.885 36.8497 193.654 37.0381C192.489 37.2266 191.517 36.8497 190.74 35.9703C190.351 35.4678 190.092 34.9025 189.963 34.3372C189.963 34.2115 189.898 34.0859 189.898 33.9603C189.963 33.7719 189.963 33.5834 189.963 33.395ZM195.921 33.2065C195.921 33.0809 195.921 32.9553 195.856 32.7668C195.792 32.1387 195.533 31.5734 195.144 31.0709C194.237 29.8774 192.359 29.9403 191.452 31.0081C191.193 31.2593 191.064 31.5734 190.934 31.8875C190.61 32.704 190.546 33.4578 190.74 34.2744C190.869 34.9025 191.193 35.5306 191.711 35.9703C192.489 36.5985 193.59 36.6613 194.432 36.1588C194.885 35.9075 195.209 35.4678 195.468 35.0281C195.792 34.4628 195.921 33.8975 195.921 33.2065Z" fill="white"/>
<path d="M168.399 33.2694C168.399 33.8975 168.334 34.5256 168.075 35.0909C167.557 36.1588 166.715 36.8497 165.485 37.0381C164.254 37.2266 163.218 36.7869 162.505 35.8447C162.117 35.3422 161.923 34.7769 161.793 34.1487C161.664 33.395 161.728 32.5784 161.987 31.8246C162.246 31.1337 162.635 30.5684 163.218 30.1287C164.643 29.0609 167.039 29.3121 168.011 31.2593C168.27 31.9503 168.399 32.5784 168.399 33.2694ZM167.687 33.3322C167.622 33.0181 167.622 32.7668 167.557 32.4528C167.428 31.9503 167.233 31.5106 166.91 31.0709C166.003 29.8774 164.125 29.9403 163.218 30.9453C163.024 31.1965 162.829 31.4478 162.7 31.7618C162.311 32.6412 162.311 33.5834 162.57 34.5256C162.765 35.0909 163.024 35.5306 163.542 35.9075C164.319 36.5356 165.42 36.5985 166.262 36.0959C166.65 35.8447 166.974 35.4678 167.233 35.0909C167.557 34.5256 167.687 33.9603 167.687 33.3322Z" fill="white"/>
<path d="M117.692 33.3322C117.692 33.8975 117.627 34.5256 117.304 35.091C116.785 36.1588 115.943 36.8497 114.713 37.0382C113.482 37.2266 112.511 36.7869 111.734 35.8447C111.345 35.3422 111.086 34.7769 111.021 34.1488C110.892 33.395 110.957 32.5784 111.216 31.8247C111.41 31.1965 111.798 30.694 112.317 30.2543C113.741 29.0609 116.267 29.3121 117.239 31.2594C117.563 31.8875 117.692 32.5156 117.692 33.3322ZM111.734 33.2694C111.734 33.5834 111.734 33.8975 111.798 34.2116C111.928 34.7769 112.187 35.3422 112.64 35.7819C113.547 36.7241 114.972 36.7241 115.879 35.9075C116.203 35.5935 116.462 35.2166 116.656 34.8397C116.915 34.2116 116.98 33.5206 116.915 32.8297C116.85 32.2016 116.591 31.6362 116.267 31.1337C115.361 29.8775 113.353 29.9403 112.446 31.0709C112.317 31.2594 112.187 31.4478 112.058 31.6362C111.799 32.1387 111.734 32.7041 111.734 33.2694Z" fill="white"/>
<path d="M139.899 33.2694C139.899 33.8976 139.964 34.4629 140.223 35.0282C140.676 35.9704 141.389 36.4101 142.425 36.4729C143.138 36.5357 143.785 36.4101 144.433 36.1588C144.433 36.1588 144.498 36.1588 144.562 36.1588C144.627 36.3473 144.692 36.4729 144.757 36.6613C144.627 36.7242 144.498 36.787 144.368 36.8498C143.526 37.1638 142.684 37.2267 141.777 37.101C140.936 36.9754 140.288 36.5357 139.77 35.7819C139.511 35.4051 139.316 34.9026 139.252 34.4629C139.057 33.5207 139.122 32.6413 139.446 31.7619C139.64 31.2594 139.899 30.8197 140.288 30.4428C141.065 29.6891 142.037 29.5006 143.138 29.7519C143.656 29.8775 144.109 30.1916 144.433 30.6313C144.757 31.071 144.951 31.5735 145.016 32.076C145.081 32.39 145.081 32.7669 145.081 33.081C145.081 33.1438 145.081 33.2066 145.081 33.2694C144.627 33.3322 144.174 33.2694 143.785 33.2694C143.332 33.2694 142.943 33.2694 142.49 33.2694H141.195H139.899ZM144.433 32.6413C144.433 32.2016 144.368 31.7619 144.239 31.385C143.85 30.38 142.878 30.0031 141.907 30.1916C141.389 30.2544 141 30.5685 140.676 30.9453C140.288 31.385 140.094 31.9503 140.029 32.5157C140.029 32.5785 140.029 32.5785 140.029 32.6413C140.288 32.7041 143.98 32.7041 144.433 32.6413Z" fill="white"/>
<path d="M109.785 36.0331C109.849 36.2215 109.914 36.41 109.979 36.5984C109.914 36.6612 109.849 36.6612 109.785 36.724C109.396 36.9125 108.943 36.9753 108.554 37.0381C108.036 37.1009 107.518 37.1637 107 37.1009C105.769 37.0381 104.668 36.5356 103.826 35.6562C103.308 35.0909 102.984 34.3999 102.79 33.709C102.466 32.5155 102.531 31.3221 102.855 30.1286C103.178 29.1864 103.697 28.3699 104.538 27.7417C105.316 27.1764 106.158 26.9252 107.064 26.7995C107.777 26.7367 108.489 26.7995 109.202 26.9252C109.461 26.988 109.72 27.0508 109.914 27.1764C109.914 27.3649 109.785 27.5533 109.72 27.7417C109.655 27.6789 109.59 27.6789 109.525 27.6789C108.878 27.4277 108.165 27.3021 107.518 27.3649C107 27.3649 106.481 27.4277 106.028 27.6161C104.862 28.0558 104.085 28.8724 103.697 30.003C103.437 30.694 103.373 31.3849 103.373 32.1387C103.373 32.7668 103.437 33.3321 103.697 33.9602C104.215 35.405 105.251 36.2843 106.805 36.4728C107.777 36.5984 108.748 36.5356 109.655 36.1587C109.655 36.0959 109.72 36.0331 109.785 36.0331Z" fill="white"/>
<path d="M219.753 29.7518C220.012 29.7518 220.207 29.7518 220.466 29.7518C220.466 29.8774 220.466 30.003 220.466 30.1287C220.466 31.3221 220.466 32.5156 220.466 33.709C220.466 34.1487 220.466 34.5884 220.595 35.0281C220.66 35.1537 220.66 35.2793 220.725 35.405C221.049 36.2215 221.761 36.5356 222.603 36.41C223.639 36.2843 224.416 35.4678 224.546 34.4628C224.546 34.2743 224.611 34.0859 224.611 33.8974C224.611 32.6412 224.611 31.3221 224.611 30.0658V29.7518C224.74 29.689 224.87 29.689 224.935 29.689C225.064 29.689 225.129 29.689 225.258 29.689C225.323 29.8146 225.323 29.9402 225.323 30.0658C225.323 31.6362 225.323 33.2065 225.323 34.7768C225.323 35.405 225.323 36.0959 225.388 36.724V36.7869C225.194 36.8497 224.999 36.7869 224.805 36.7869C224.74 36.6612 224.805 36.5356 224.74 36.3472C224.74 36.2215 224.74 36.0959 224.74 35.9703C224.74 35.8447 224.74 35.719 224.74 35.5934C224.611 35.5934 224.611 35.719 224.546 35.719C224.222 36.1587 223.834 36.5356 223.315 36.724C222.797 36.9125 222.214 36.9753 221.696 36.8497C221.113 36.724 220.66 36.3472 220.336 35.7818C220.077 35.2793 219.948 34.7768 219.883 34.2115C219.883 34.0859 219.883 33.9603 219.883 33.8346C219.883 32.5156 219.883 31.1965 219.883 29.8774C219.753 29.9402 219.753 29.8774 219.753 29.7518Z" fill="white"/>
<path d="M175.783 36.9126H175.071C175.071 36.7869 175.071 36.7241 175.071 36.5985C175.071 35.3422 175.071 34.0231 175.071 32.7669C175.071 32.39 175.071 32.0131 174.941 31.6363C174.876 31.4478 174.812 31.2594 174.747 31.0709C174.423 30.5056 173.97 30.2544 173.322 30.1915C172.286 30.1287 171.379 30.8197 171.055 31.7619C170.926 32.0759 170.926 32.39 170.926 32.6413C170.926 33.9603 170.926 35.2166 170.926 36.5357V36.8497C170.796 36.9126 170.667 36.8497 170.537 36.9126C170.407 36.9126 170.343 36.9126 170.213 36.9126C170.148 36.7869 170.148 36.6613 170.148 36.5357C170.148 34.9653 170.148 33.4578 170.148 31.8875C170.148 31.1966 170.148 30.5056 170.084 29.8147V29.7519C170.278 29.689 170.472 29.7519 170.731 29.7519C170.796 30.1287 170.731 30.5684 170.796 30.9453C170.926 30.9453 170.926 30.8825 170.926 30.8197C171.508 30.0031 172.286 29.6262 173.257 29.6262C174.229 29.6262 174.876 30.0659 175.33 30.8825C175.524 31.3222 175.653 31.7619 175.653 32.2016C175.653 32.3272 175.653 32.4528 175.653 32.5784C175.653 33.9603 175.653 35.2794 175.653 36.6613V36.9126H175.783Z" fill="white"/>
<path d="M204.404 26.8624C204.663 26.8624 204.922 26.8624 205.181 26.8624C206.088 28.5584 206.995 30.2543 207.966 32.0131C208.873 30.2543 209.845 28.5584 210.816 26.8624C211.075 26.8624 211.269 26.8624 211.464 26.8624C211.464 26.8624 211.528 26.8624 211.593 26.8624C211.528 26.9881 211.464 27.0509 211.399 27.1765C210.427 28.8724 209.391 30.5684 208.42 32.2644C208.29 32.4528 208.225 32.6412 208.225 32.8925C208.225 34.0859 208.225 35.3422 208.225 36.5357C208.225 36.6613 208.225 36.7869 208.161 36.9125H207.513C207.448 36.8497 207.448 36.7241 207.448 36.5985C207.448 35.3422 207.448 34.0859 207.448 32.8297C207.448 32.5784 207.383 32.39 207.319 32.2015C206.347 30.5056 205.44 28.8096 204.469 27.1137C204.469 27.1137 204.404 26.9881 204.404 26.8624Z" fill="white"/>
<path d="M187.7 29.7518C187.894 29.7518 188.089 29.7518 188.283 29.7518C188.477 29.7518 188.671 29.7518 188.866 29.7518C189.06 29.7518 189.254 29.7518 189.513 29.7518V30.3171C189.449 30.3171 189.384 30.3171 189.319 30.38C188.866 30.38 188.477 30.38 188.024 30.38H187.7C187.635 30.5056 187.635 30.6312 187.635 30.7568C187.635 32.704 187.635 34.6512 187.635 36.5985V36.9753C187.376 37.0382 187.182 36.9753 186.923 36.9753C186.858 36.7869 186.923 36.5356 186.923 36.3472C186.923 36.1588 186.923 35.9703 186.923 35.7819V35.1538V34.5884V33.9603V33.395V32.7668V32.2015V31.5734C186.923 31.385 186.923 31.1965 186.923 31.0081C186.923 30.8196 186.923 30.6312 186.923 30.38C186.599 30.38 186.275 30.38 185.951 30.38C185.951 30.1915 185.951 30.0031 185.951 29.8146C186.275 29.7518 186.599 29.8146 186.923 29.8146C186.988 29.689 186.923 29.5006 186.923 29.3749C186.923 28.9352 186.923 28.4956 187.052 28.0559C187.117 27.8674 187.182 27.679 187.247 27.4905C187.635 26.674 188.412 26.1715 189.319 26.2343C189.578 26.2343 189.902 26.2971 190.161 26.4227C190.226 26.4227 190.291 26.4855 190.355 26.4855C190.291 26.674 190.226 26.7996 190.161 26.988C189.902 26.9252 189.643 26.8624 189.449 26.8624C189.254 26.7996 188.995 26.8624 188.801 26.9252C188.412 26.988 188.153 27.2393 188.024 27.5534C187.894 27.8046 187.765 28.1187 187.765 28.3699C187.7 28.8096 187.7 29.3121 187.7 29.7518C187.7 29.689 187.7 29.689 187.7 29.7518Z" fill="white"/>
<path d="M177.596 36.5984C177.661 36.41 177.726 36.2215 177.855 36.0331C177.985 36.0331 178.049 36.0959 178.179 36.1587C178.697 36.41 179.215 36.5356 179.798 36.4728C180.057 36.4728 180.251 36.41 180.446 36.2843C180.834 36.0331 181.093 35.719 181.093 35.2793C181.158 34.714 180.899 34.2743 180.446 33.9603C180.187 33.7718 179.863 33.6462 179.604 33.5206C179.41 33.4577 179.28 33.3949 179.086 33.2693C178.891 33.1437 178.697 33.0181 178.503 32.8924C177.402 32.013 177.726 30.5683 178.697 29.9402C179.215 29.6261 179.733 29.5633 180.316 29.6261C180.77 29.6889 181.158 29.8146 181.547 30.0658C181.482 30.2543 181.417 30.4427 181.288 30.6312C181.223 30.5683 181.158 30.5683 181.093 30.5055C180.64 30.2543 180.187 30.1915 179.733 30.1915C178.891 30.2543 178.373 30.9452 178.568 31.7618C178.632 32.013 178.762 32.2015 178.956 32.3271C179.15 32.4527 179.28 32.5784 179.474 32.6412C179.669 32.7668 179.928 32.8296 180.122 32.9552C180.446 33.0809 180.705 33.2065 180.964 33.3949C181.806 34.0231 182.065 35.0281 181.547 35.9075C181.288 36.4728 180.77 36.7868 180.187 36.9125C179.28 37.1009 178.438 37.0381 177.661 36.5984C177.661 36.5984 177.661 36.5984 177.596 36.5984Z" fill="white"/>
<path d="M149.811 36.41C149.876 36.5985 149.876 36.7241 149.876 36.9125C149.747 37.0382 149.552 37.0382 149.423 37.0382C149.099 37.101 148.775 37.101 148.387 37.0382C147.933 36.9125 147.674 36.6613 147.48 36.2844C147.35 36.0331 147.286 35.7819 147.286 35.5306C147.286 35.2794 147.221 35.0281 147.221 34.8397C147.221 33.4578 147.221 32.1387 147.221 30.8197V30.4428C147.156 30.4428 147.027 30.4428 146.962 30.4428C146.638 30.4428 146.379 30.4428 146.055 30.4428C145.926 30.38 145.99 30.2543 145.99 30.1915C145.99 30.1287 145.99 30.0031 145.99 29.8775C146.055 29.8775 146.12 29.8146 146.185 29.8146C146.444 29.8146 146.703 29.8146 146.962 29.8146C147.027 29.8146 147.091 29.8146 147.156 29.8146V28.5584C147.415 28.4328 147.609 28.3699 147.869 28.3071C147.933 28.8096 147.869 29.3121 147.869 29.8775C148.516 29.8775 149.164 29.8775 149.876 29.8775C149.876 30.0031 149.876 30.0659 149.876 30.1287C149.876 30.1915 149.876 30.3172 149.876 30.38C149.811 30.4428 149.747 30.4428 149.682 30.4428C149.164 30.4428 148.646 30.4428 148.192 30.4428C148.128 30.4428 147.998 30.4428 147.933 30.4428C147.933 30.5684 147.933 30.6312 147.933 30.694C147.933 32.1387 147.933 33.5834 147.933 34.9653C147.933 35.2794 147.933 35.5306 147.998 35.7819C148.063 35.9075 148.063 35.9703 148.128 36.096C148.257 36.3472 148.516 36.4728 148.84 36.4728C149.099 36.4728 149.358 36.4728 149.617 36.41C149.682 36.41 149.747 36.41 149.811 36.41Z" fill="white"/>
<path d="M226.747 29.7518C227.136 29.7518 227.524 29.7518 227.913 29.7518C227.913 29.6262 227.913 29.5005 227.913 29.3121C227.913 29.1865 227.913 28.998 227.913 28.8724V28.4327C228.107 28.3071 228.366 28.2443 228.625 28.1187C228.69 28.6212 228.625 29.1865 228.69 29.689C229.338 29.689 229.985 29.689 230.633 29.689C230.698 29.7518 230.698 29.8774 230.698 29.9402C230.698 30.003 230.698 30.1287 230.698 30.2543C230.633 30.2543 230.568 30.2543 230.503 30.2543C229.985 30.2543 229.467 30.2543 229.014 30.2543C228.949 30.2543 228.82 30.2543 228.69 30.2543C228.69 30.3171 228.69 30.3799 228.69 30.4427C228.69 31.8874 228.69 33.395 228.69 34.8397C228.69 35.0909 228.69 35.405 228.755 35.6562C228.82 35.7819 228.82 35.8447 228.884 35.9075C229.014 36.1587 229.273 36.3472 229.597 36.3472C229.921 36.3472 230.18 36.3472 230.503 36.2844C230.568 36.3472 230.568 36.4728 230.568 36.5356C230.568 36.5984 230.568 36.6612 230.568 36.7869C230.439 36.9125 230.309 36.9125 230.115 36.9125C229.726 36.9753 229.402 36.9753 229.014 36.9125C228.625 36.7869 228.301 36.5356 228.107 36.2215C227.978 35.9703 227.913 35.719 227.913 35.4678C227.913 35.2165 227.848 34.9653 227.848 34.7769C227.848 33.395 227.848 32.0759 227.848 30.694C227.848 30.5684 227.848 30.4427 227.848 30.3171C227.459 30.3171 227.071 30.3171 226.682 30.3171C226.682 30.1915 226.682 30.1287 226.682 30.003C226.747 29.9402 226.747 29.8774 226.747 29.7518Z" fill="white"/>
<path d="M154.924 30.3171C154.536 30.3171 154.147 30.3171 153.758 30.3171C153.694 30.1287 153.758 29.9402 153.758 29.7518C154.147 29.689 154.536 29.7518 154.924 29.689C154.989 29.2493 154.924 28.8724 154.924 28.4327C154.989 28.3071 155.183 28.3071 155.248 28.2443C155.378 28.1815 155.442 28.1815 155.572 28.1187C155.637 28.6212 155.572 29.1237 155.572 29.689C155.831 29.689 156.025 29.689 156.219 29.689C156.414 29.689 156.608 29.689 156.867 29.689H157.515C157.58 29.8774 157.58 30.0659 157.515 30.2543C157.45 30.2543 157.385 30.2543 157.256 30.2543C156.802 30.2543 156.284 30.2543 155.831 30.2543H155.507C155.507 30.3171 155.507 30.3799 155.507 30.4427C155.507 31.9503 155.507 33.395 155.507 34.9025C155.507 35.1537 155.572 35.3422 155.572 35.5934C155.572 35.719 155.637 35.7819 155.701 35.9075C155.831 36.2215 156.09 36.41 156.479 36.41C156.802 36.41 157.061 36.41 157.385 36.3472C157.515 36.5356 157.45 36.6612 157.515 36.8497C157.385 36.9753 157.256 36.9753 157.061 37.0381C156.738 37.1009 156.349 37.1009 156.025 37.0381C155.572 36.9125 155.248 36.6612 155.054 36.2215C154.924 35.9703 154.859 35.6562 154.859 35.3422C154.859 35.1537 154.859 34.9653 154.859 34.7769C154.859 33.395 154.859 32.0131 154.859 30.6312C154.924 30.5684 154.924 30.4427 154.924 30.3171Z" fill="white"/>
<path d="M199.16 36.9126H198.512C198.448 36.787 198.448 36.6613 198.448 36.5985C198.448 35.2166 198.448 33.8348 198.448 32.39C198.448 31.5107 198.448 30.6941 198.383 29.8147V29.7519C198.577 29.6891 198.772 29.7519 199.031 29.7519C199.095 29.9403 199.031 30.066 199.031 30.1916C199.031 30.38 199.031 30.5057 199.031 30.6941C199.031 30.8197 199.031 30.9453 199.031 31.1966C199.095 31.0082 199.16 30.9453 199.225 30.8825C199.354 30.5685 199.613 30.3172 199.873 30.066C200.326 29.6891 200.844 29.5635 201.362 29.6263C201.427 29.8147 201.362 30.066 201.427 30.2544C201.362 30.2544 201.233 30.2544 201.168 30.2544C200.585 30.2544 200.132 30.5057 199.743 30.9453C199.419 31.385 199.225 31.8875 199.16 32.39C199.095 32.6413 199.095 32.8926 199.095 33.1438C199.095 34.2744 199.095 35.4051 199.095 36.5357V36.9126H199.16Z" fill="white"/>
<path d="M151.55 29.7518H152.197C152.197 29.8146 152.197 29.8774 152.197 29.9403C152.197 32.2015 152.197 34.4628 152.197 36.7241C152.197 36.7869 152.197 36.8497 152.197 36.9125C152.068 36.9753 151.938 36.9753 151.874 36.9753C151.744 36.9753 151.679 36.9753 151.614 36.9753C151.55 36.9753 151.55 36.9125 151.55 36.9125C151.55 36.9125 151.55 36.9125 151.55 36.8497C151.55 34.5884 151.55 32.2644 151.55 30.0031C151.55 29.9403 151.55 29.8146 151.55 29.7518Z" fill="white"/>
<path d="M159.2 29.7518C159.265 29.7518 159.329 29.7518 159.394 29.7518C159.588 29.7518 159.718 29.7518 159.912 29.7518C159.977 29.8775 159.977 30.0031 159.977 30.1287C159.977 32.1387 159.977 34.2116 159.977 36.2216V36.9125C159.783 36.9753 159.524 36.9125 159.329 36.9753C159.265 36.8497 159.265 36.7241 159.265 36.5985C159.265 34.5884 159.265 32.6412 159.265 30.6312V29.7518H159.2Z" fill="white"/>
<path d="M151.361 27.7418C151.361 27.4906 151.426 27.3021 151.62 27.1765C151.815 26.9881 152.138 27.0509 152.333 27.2393C152.592 27.4906 152.592 27.8675 152.397 28.1187C152.268 28.3072 152.074 28.3072 151.815 28.3072C151.62 28.2443 151.491 28.1187 151.426 27.9303C151.361 27.8675 151.361 27.7418 151.361 27.7418Z" fill="white"/>
<path d="M160.169 27.6161C160.169 28.0558 159.91 28.307 159.586 28.307C159.392 28.307 159.262 28.2442 159.133 28.0558C159.003 27.8045 159.003 27.4905 159.133 27.302C159.392 26.9252 159.845 26.988 160.04 27.3649C160.104 27.4905 160.104 27.5533 160.169 27.6161Z" fill="white"/>
<path d="M24.9993 29.3384L34.8206 38.6941L42.1866 37.5862L42.8327 37.7093L43.8665 36.9707L49.2941 35.6781L49.7464 35.8012L49.6172 35.3088L51.6202 32.2928L45.805 33.0314L42.1866 31.6158L53.494 26.2609L53.5586 26.9379L53.6878 29.2769L56.2724 29.3384L59.6323 24.599L64.6076 18.8133L54.0109 14.4432L50.0695 14.8125L50.5218 10.627L49.1649 10.6886L48.7126 9.51912L48.3249 10.8117L47.0326 11.0579L45.4173 10.5039L45.0942 8.34966L44.7711 8.28811L40.2482 7.11865L32.6883 9.64223L28.4884 12.8429L25.3223 17.1514L21.3163 19.121L19.7009 28.292L24.9993 29.3384Z" fill="white"/>
<path d="M48.9084 10.0116C48.8438 9.82697 48.7792 9.70387 48.7146 9.58077C48.5854 9.76542 48.5854 9.95007 48.4562 10.0732C48.1977 10.0732 47.9393 10.1347 47.6809 10.2578C47.4871 10.3809 47.2286 10.4425 47.0348 10.5656C46.9702 10.6271 46.9702 10.7502 47.0348 10.8733C47.3579 11.058 47.6809 11.3042 48.0039 11.5504C47.8747 11.9197 47.7455 12.289 47.6163 12.7198C48.0685 12.4736 48.327 12.1043 48.7792 12.0428C49.1022 12.289 49.4253 12.4736 49.8129 12.7198C49.8129 12.6583 49.8129 12.5967 49.8129 12.5967C49.6837 12.289 49.6191 11.9812 49.4899 11.6735C49.4899 11.6119 49.4899 11.6119 49.4253 11.5504C49.5545 11.3657 49.7483 11.3042 49.9421 11.1811C50.136 11.058 50.2652 10.9349 50.459 10.8118C50.3298 10.8118 50.3298 10.7502 50.2652 10.7502C49.9421 10.7502 49.6191 10.7502 49.2961 10.7502C49.1669 10.7502 49.1668 10.7502 49.1022 10.5656C49.2315 10.5656 49.2961 10.5656 49.3607 10.5656C49.4253 10.5656 49.4899 10.5656 49.4899 10.504C49.5545 10.4425 49.5545 10.4425 49.6191 10.504C49.8775 10.5656 50.2006 10.5656 50.459 10.5656C50.9112 10.504 51.3635 10.6271 51.7511 10.8118C51.8157 10.8118 51.8803 10.8733 51.8803 10.8733C52.2034 10.9349 52.3972 11.1195 52.591 11.3657C52.8494 11.6735 52.914 11.9812 52.7848 12.3505C52.6556 12.6583 52.4618 12.966 52.2034 13.1507C52.0096 13.3354 51.7511 13.52 51.5573 13.7047C51.2989 13.8893 51.1051 14.074 50.8466 14.3202C50.782 14.3817 50.782 14.4433 50.7174 14.4433C50.7174 14.5048 50.782 14.5048 50.8466 14.5048C51.1697 14.5048 51.4281 14.5048 51.7511 14.4433C52.0742 14.4433 52.3326 14.3817 52.6556 14.3817C52.9787 14.3817 53.3663 14.3202 53.6893 14.1971C54.077 14.1355 54.5292 14.074 54.9169 13.9509C55.1107 13.8893 55.3691 13.8893 55.5629 13.8278C55.8214 13.7662 56.0798 13.7047 56.3382 13.6431C56.4028 13.6431 56.532 13.5816 56.5966 13.5816C56.9843 13.4585 57.4365 13.3354 57.8242 13.2738C58.341 13.1507 58.8579 13.0892 59.3747 12.9661C59.8916 12.843 60.4084 12.7198 60.9253 12.6583C61.3776 12.5967 61.8944 12.4736 62.3467 12.4121C64.0264 12.1043 65.6416 11.8581 67.3214 11.4888C68.0967 11.4273 68.8073 11.1811 69.5826 10.9964C69.9057 10.9349 70.2287 10.8733 70.4871 10.8733C70.7456 10.8118 70.9394 10.8118 71.1978 10.7502C71.5854 10.6887 71.9085 10.6271 72.2961 10.5656C72.813 10.504 73.3298 10.3809 73.8467 10.3194C74.1697 10.2578 74.4928 10.2578 74.8158 10.2578C75.268 10.2578 75.6557 10.2578 76.1079 10.2578C76.4956 10.2578 76.8186 10.3194 77.1416 10.3809C77.2709 10.3809 77.3355 10.4425 77.4647 10.504C77.5939 10.5656 77.6585 10.6271 77.7231 10.6887C77.7877 10.7502 77.8523 10.8733 77.9815 10.9349C78.0461 10.9964 78.1753 11.058 78.24 11.058C78.24 11.1195 78.1753 11.1195 78.1753 11.1811C78.2399 11.2426 78.3692 11.3042 78.4338 11.3657C78.4338 11.4273 78.4338 11.4888 78.4338 11.6119C78.7568 11.7966 79.1444 11.9197 79.4675 12.0428C79.5967 12.1043 79.7905 12.1043 79.9197 12.1043C80.695 12.1043 81.4703 12.1043 82.2456 12.1043C82.4394 12.1043 82.6332 12.1043 82.7624 12.1043C82.827 12.1043 82.9562 12.1043 83.0209 12.1043C83.6023 12.0428 84.2484 11.9812 84.8298 11.9197C84.8945 11.9197 85.0237 11.9197 85.0883 11.9197C85.8636 11.9197 86.5742 11.8581 87.3495 11.7966C87.6725 11.7966 88.0602 11.735 88.3832 11.735C88.9001 11.6735 89.4815 11.6735 89.9984 11.6735C90.3214 11.6735 90.6445 11.6735 91.0321 11.6119C91.2259 11.6119 91.3551 11.6735 91.4844 11.735C91.549 11.735 91.549 11.7966 91.6136 11.7966C91.8074 12.1043 91.872 12.4121 91.9366 12.7814V12.8429C91.9366 13.0892 91.8074 13.2738 91.549 13.3354C91.0321 13.4585 90.5153 13.7047 90.063 13.8893C89.9984 13.9509 89.8692 13.9509 89.8046 14.0124C89.8046 14.1355 89.8046 14.1971 89.9338 14.1971C90.1276 14.3202 90.386 14.3817 90.5799 14.3817C90.7737 14.3817 90.9675 14.3817 91.1613 14.2586C91.3551 14.074 91.6136 13.9509 91.872 13.7662C92.0658 13.6431 92.2597 13.6431 92.4535 13.6431C92.5827 13.6431 92.7119 13.7047 92.7765 13.8278C92.8411 13.9509 92.9703 14.0124 93.0995 14.1355C93.2288 14.1971 93.358 14.3202 93.4226 14.4433C93.4872 14.5048 93.5518 14.5664 93.5518 14.6279C93.6164 14.751 93.681 14.8741 93.8748 14.9357C93.8748 15.0588 93.9394 15.2434 94.0686 15.305C94.0686 15.305 94.1332 15.3665 94.1332 15.4281C94.1979 15.6127 94.2625 15.8589 94.2625 16.0436C94.3271 16.4744 94.1979 16.9053 93.8102 17.213C93.681 17.3361 93.5518 17.3977 93.358 17.4592C92.6473 17.767 92.0012 18.0132 91.2259 18.0747C90.7737 18.1363 90.2568 18.1978 89.8046 18.3209C89.1585 18.4441 88.5124 18.5056 87.931 18.6287C87.4787 18.6903 87.0911 18.8134 86.6388 18.8749C86.0574 18.998 85.4759 19.0596 84.8945 19.1211C84.2484 19.1827 83.6023 19.2442 82.9563 19.3058C82.8916 19.3058 82.7624 19.3058 82.6978 19.3058C82.5686 19.3058 82.4394 19.3058 82.2456 19.3058C81.9871 19.3058 81.7287 19.3673 81.4703 19.3673C81.2765 19.3673 81.0826 19.4289 80.8888 19.4904C80.1135 19.6135 79.4029 19.7982 78.6276 19.9213C78.1107 19.9828 77.5293 20.0444 77.0124 20.1675C76.8186 20.229 76.5602 20.229 76.3663 20.2906C75.9787 20.4137 75.5911 20.4752 75.1388 20.4752C74.4281 20.5368 73.6529 20.7214 72.9422 20.9061C72.3607 21.0907 71.7147 21.2754 71.1332 21.3985C70.4225 21.5831 69.7118 21.8293 69.0012 22.014C68.7427 22.0755 68.4197 22.1371 68.1613 22.1986C67.5152 22.3833 66.9337 22.5064 66.2877 22.691C66.0292 22.7526 65.7708 22.8757 65.5124 22.9988C64.1557 23.4912 62.7343 23.9221 61.3775 24.4145C60.9253 24.5376 60.4731 24.7222 60.0854 24.8453C59.8916 24.9069 59.6978 25.03 59.504 25.2146C59.4393 25.2762 59.3747 25.3993 59.3101 25.4608C58.4056 26.7534 57.4365 28.0459 56.532 29.4001C56.4674 29.4616 56.4674 29.5232 56.4028 29.5847C56.2736 29.5847 56.0798 29.5847 55.9506 29.5847C55.6275 29.5847 55.3045 29.5847 54.9169 29.6463C54.8523 29.6463 54.8523 29.6463 54.7876 29.6463C54.4 29.6463 54.0124 29.6463 53.6893 29.6463H53.6247C53.5601 29.5847 53.5601 29.4616 53.5601 29.4001C53.5601 28.723 53.5601 27.9844 53.5601 27.3073C53.5601 27.1842 53.5601 27.1227 53.5601 26.9996C53.4955 26.9996 53.4309 26.9996 53.3663 27.0611C53.0433 27.1842 52.6556 27.3073 52.3326 27.4304C51.9449 27.5535 51.5573 27.7382 51.1697 27.8613C50.9758 27.9228 50.8466 27.9844 50.6528 28.0459C50.2006 28.169 49.6837 28.3537 49.2961 28.5384C48.9084 28.723 48.5854 28.9076 48.1978 29.0923C47.8747 29.277 47.5517 29.4001 47.2286 29.5847C46.7764 29.8309 46.3241 30.1387 45.8719 30.3849C45.355 30.6926 44.8382 31.1235 44.3859 31.4928C44.1921 31.6774 44.1275 31.8621 44.1275 32.1083C44.6444 32.2929 45.0966 32.416 45.6781 32.2929C45.9365 32.2314 46.1949 32.2314 46.4534 32.2314C46.518 32.2314 46.5826 32.2314 46.5826 32.1083C46.7118 32.1083 46.841 32.1083 46.9702 32.1083C47.4225 32.1083 47.8747 31.9852 48.2624 31.9236C48.7792 31.8005 49.3607 31.739 49.8775 31.6774C50.136 31.6774 50.3298 31.6774 50.5882 31.5543H50.6528C51.1051 31.5543 51.5573 31.5543 51.945 31.5543C52.1388 31.5543 52.3326 31.6159 52.4618 31.739C52.5264 31.8005 52.5264 31.8005 52.591 31.8621C52.6556 31.9852 52.6556 32.1083 52.6556 32.2314C52.6556 32.2929 52.6556 32.3545 52.591 32.416C52.4618 32.6622 52.3326 32.9084 52.2034 33.1546C52.1388 33.2777 52.0742 33.4008 52.0095 33.5239C52.0095 33.5855 52.0095 33.5855 52.0095 33.647H52.0742C52.4618 33.5855 52.8494 33.5855 53.3017 33.647C53.4955 33.647 53.6247 33.647 53.7539 33.5855C53.8185 33.5855 53.8186 33.5855 53.8832 33.5239C54.5938 33.2777 55.3691 33.1546 56.1444 32.9084C56.532 32.7853 56.9197 32.6622 57.2427 32.6007C57.5657 32.5391 58.018 32.416 58.4056 32.3545C59.0517 32.2314 59.6978 32.0467 60.3438 31.9236C61.0545 31.739 61.7652 31.6159 62.5405 31.4312C62.7989 31.3697 63.0573 31.3697 63.3158 31.3081C63.768 31.2466 64.1556 31.185 64.6079 31.0619C64.9309 31.0004 65.1894 30.8773 65.5124 30.8773C65.7708 30.8773 66.0292 30.8157 66.2877 30.7542C66.4815 30.6926 66.7399 30.6926 66.9337 30.8157C67.063 30.9388 67.063 31.0004 67.063 31.1235C67.063 31.3081 66.9984 31.4312 66.8045 31.4928C66.2231 31.739 65.6416 31.9852 64.9955 32.1698C64.6079 32.2314 64.2849 32.2929 63.8972 32.3545C63.5742 32.416 63.2511 32.4776 62.9927 32.5391C62.282 32.6622 61.636 32.7853 60.9253 32.8469C59.9562 32.97 59.0517 33.1546 58.0826 33.2777C57.3719 33.4008 56.6612 33.5855 56.0152 33.8317C55.0461 34.201 54.1416 34.5088 53.1079 34.755C52.7848 34.8165 52.4618 35.0012 52.0742 35.0627C51.8803 35.1243 51.6219 35.1858 51.4281 35.2474C51.1697 35.3089 50.9112 35.3705 50.5882 35.432C50.3298 35.4936 50.0713 35.5551 49.7483 35.6782C49.7483 35.6167 49.7483 35.6167 49.6837 35.5551C49.6837 35.432 49.6837 35.3705 49.5545 35.3089L49.4899 35.2474C49.4253 35.0627 49.4253 34.9396 49.3607 34.755C49.6191 34.5088 49.9421 34.3241 50.2652 34.0779C49.8129 34.0164 49.3607 34.1395 48.973 34.0163C48.9084 33.7701 48.7792 33.5239 48.7146 33.2777C48.7146 33.2162 48.65 33.1546 48.65 33.1546C48.65 33.0931 48.5854 33.0931 48.5208 33.0931C48.3916 33.2777 48.3916 33.4008 48.327 33.5855C48.2624 33.7701 48.1978 33.8932 48.1978 34.0779C47.8101 34.201 47.3579 34.1394 46.9702 34.1394C46.9702 34.201 46.9702 34.201 47.0348 34.2625C47.2286 34.3856 47.4225 34.5703 47.6809 34.6934C47.7455 34.755 47.8101 34.8165 47.9393 34.8781C47.8747 35.2474 47.6809 35.6167 47.6163 36.0475C47.7455 36.0475 47.8101 35.9244 47.8747 35.8629C47.9393 35.8013 48.0685 35.7398 48.1331 35.6782C48.1977 35.6167 48.327 35.5551 48.3916 35.4936C48.4562 35.432 48.5854 35.3705 48.65 35.3705C48.9084 35.4936 49.2315 35.7398 49.3607 35.8629C49.1022 35.986 48.8438 36.0475 48.5854 36.1091C48.2624 36.2322 47.9393 36.2937 47.6163 36.4168C47.5517 36.4168 47.5517 36.4784 47.4871 36.4784C47.2933 36.4784 47.0994 36.5399 46.9056 36.663C46.5826 36.7861 46.2595 36.8477 45.9365 36.9092C45.4843 36.9708 45.0966 37.0939 44.6444 37.217C44.1921 37.4632 43.6753 37.5247 43.1584 37.7094C43.0938 37.7094 43.0938 37.7094 43.0292 37.7709C43.0292 37.8325 42.9646 37.894 42.9646 37.9556C42.9 37.9556 42.9 37.9556 42.8354 37.9556C42.6416 37.894 42.5123 37.9556 42.3185 38.0171C41.7371 38.2633 41.1556 38.5095 40.5095 38.6942C39.9927 38.8788 39.4112 39.125 38.8944 39.3097C38.3775 39.4944 37.8606 39.679 37.4084 39.8637C36.6331 40.1714 35.8578 40.4792 35.0826 40.7254C34.1781 41.0331 33.2736 41.3409 32.3691 41.7102C31.0769 42.2026 29.7848 42.695 28.428 43.1874C28.0404 43.3105 27.7174 43.4336 27.3297 43.5567C26.8129 43.7413 26.3606 43.926 25.8438 44.1106C25.7145 44.1722 25.5853 44.2338 25.5207 44.2338C25.1331 44.3569 24.7454 44.5415 24.3578 44.6646C23.8409 44.8493 23.3241 44.9724 22.8072 45.0955C22.4196 45.2186 22.032 45.2801 21.5797 45.3417C20.9336 45.4648 20.2876 45.6494 19.6415 45.6494C19.3831 45.6494 19.06 45.711 18.8016 45.711C18.5432 45.711 18.3494 45.711 18.0909 45.6494C17.9617 45.6494 17.8325 45.6494 17.7679 45.6494C17.4449 45.711 17.1864 45.711 16.8634 45.6494C16.7342 45.6494 16.5404 45.6494 16.4112 45.5879C16.0881 45.5263 15.7651 45.5263 15.4421 45.4648C15.3128 45.4648 15.2482 45.4032 15.119 45.4032C14.6022 45.2186 14.1499 45.0339 13.6977 44.7261C13.31 44.4799 12.987 44.2337 12.7286 43.8644C12.4701 43.4951 12.3409 43.0643 12.2763 42.6334C12.2763 42.3872 12.3409 42.2026 12.3409 41.9564C12.3409 41.8948 12.3409 41.7717 12.4055 41.6486C12.3409 41.6486 12.2763 41.6486 12.2763 41.7102C12.0825 41.7717 11.8887 41.8948 11.6949 41.9564C11.501 42.0179 11.3718 42.0795 11.178 42.141C11.0488 42.141 10.9842 42.141 10.855 42.0795C10.5965 41.8948 10.5965 41.8948 10.5319 41.5255C10.5319 41.4024 10.4673 41.3409 10.4673 41.2178C10.3381 40.8485 10.4027 40.5407 10.5965 40.233C10.7258 39.9868 10.855 39.7406 11.0488 39.4944C11.4364 38.9404 11.8241 38.3249 12.2763 37.7709C12.664 37.3401 13.0516 36.9092 13.5039 36.4784C13.6977 36.2937 13.8269 36.1091 14.0207 35.986C14.3437 35.6782 14.6668 35.432 14.9898 35.1858C15.4421 34.8781 15.8297 34.5088 16.2819 34.1394C16.4758 33.9548 16.7342 33.8317 16.9926 33.647C17.1218 33.5855 17.251 33.4624 17.3157 33.4008C17.3803 33.4008 17.3803 33.3393 17.3803 33.2162C17.2511 33.2162 17.1218 33.2777 17.0572 33.2777C16.9926 33.2777 16.8634 33.2777 16.7988 33.2777C16.5404 33.2777 16.2173 33.3393 15.9589 33.4008C15.8297 33.4624 15.7005 33.4624 15.5713 33.5239C15.0544 33.7086 14.5376 33.8932 14.0207 34.0779C13.5685 34.201 13.1162 34.3857 12.664 34.3857C12.3409 34.4472 12.0179 34.3857 11.6949 34.3241C11.5656 34.3241 11.4364 34.2626 11.3718 34.1394C11.3072 34.0779 11.3072 34.0779 11.2426 34.0163C10.5965 33.4624 10.2735 32.7238 9.95047 31.9236C9.82126 31.4928 9.69204 31.0619 9.62743 30.6311C9.56283 30.2618 9.56283 29.8309 9.62743 29.4616C9.62743 29.277 9.69204 29.1539 9.69204 28.9692C9.75665 28.6614 9.88587 28.4152 10.0797 28.2306C10.1443 28.169 10.1443 28.169 10.2089 28.169C10.9196 27.6151 11.6302 26.9996 12.4055 26.4456C12.664 26.261 12.8578 26.0763 13.1162 25.8917C13.1808 25.8301 13.1808 25.8301 13.2454 25.7686C13.1162 25.707 12.987 25.6455 12.8578 25.6455C12.7286 25.5839 12.5994 25.4608 12.5347 25.3377C12.4701 25.2146 12.4701 25.0915 12.5347 24.9684C12.5994 24.9069 12.664 24.8453 12.7286 24.7838C13.1162 24.476 13.5039 24.1683 13.9561 23.9221C14.2791 23.7374 14.6668 23.4912 14.9898 23.3065C15.3774 23.0603 15.6359 22.691 15.7651 22.3217C15.7651 22.2602 15.7651 22.1986 15.7651 22.1371C15.7651 22.014 15.7005 21.8909 15.7005 21.7678C15.6359 21.5216 15.4421 21.3369 15.2482 21.2138C15.119 21.1523 14.9898 21.0907 14.8606 20.9676C14.796 20.9061 14.7314 20.8445 14.7314 20.7214C14.7314 20.4137 14.796 20.1059 14.9252 19.8597C15.119 19.552 15.3128 19.2442 15.6359 18.998C16.1527 18.5672 16.6696 18.1979 17.251 17.8901C17.7033 17.6439 18.2202 17.3977 18.6724 17.1515C18.737 17.0899 18.8016 17.0899 18.8662 17.0284C18.8662 17.0284 18.8662 16.9668 18.9308 16.9668H18.4786C18.3494 16.8437 18.2201 16.7206 18.0909 16.536C18.0909 16.4744 18.0263 16.4744 18.0263 16.4129C17.9617 16.2282 17.9617 16.0436 17.8971 15.8589C17.8971 15.7974 17.8971 15.7974 17.8971 15.7358C17.8971 15.4281 17.9617 15.305 18.3494 15.2434H18.414C18.737 15.1203 18.9308 15.305 19.1247 15.4896C19.1893 15.5512 19.1893 15.6127 19.1893 15.6743C19.2539 15.9205 19.3185 16.2282 19.3185 16.536C19.3185 16.5975 19.3185 16.7206 19.3185 16.7822C19.3831 16.7822 19.4477 16.7206 19.4477 16.7206C19.7061 16.5975 19.8999 16.4744 20.1584 16.3513C20.3522 16.2282 20.546 16.1667 20.8044 16.0436C21.1921 15.8589 21.5797 15.6743 21.9674 15.4281C22.1612 15.305 22.4196 15.1819 22.6134 15.0588C22.8718 14.9357 23.0657 14.751 23.3241 14.6279C23.3887 14.5664 23.5179 14.5048 23.5825 14.4433C23.5825 14.4433 23.6471 14.3817 23.6471 14.3202C23.5825 14.3202 23.5179 14.3202 23.4533 14.3202C23.0657 14.4433 22.6134 14.5048 22.2258 14.6279C22.032 14.6895 21.8381 14.6279 21.6443 14.5664C21.6443 14.5664 21.5797 14.5664 21.5797 14.5048C21.5151 14.3202 21.3859 14.1971 21.3859 14.0124C21.3859 13.6431 21.3859 13.2738 21.5797 12.9045C21.7089 12.6583 21.8381 12.4736 22.0966 12.289C22.4842 12.0428 22.8718 11.7966 23.2595 11.6119C23.7763 11.4273 24.2286 11.1811 24.6808 10.9349C24.8747 10.8118 25.0685 10.7502 25.2623 10.6887C25.5207 10.5656 25.7792 10.4425 26.0376 10.3194C27.3297 9.58077 28.6219 8.90371 29.9786 8.34976C30.3016 8.22666 30.6247 8.042 31.0123 7.9189C31.2707 7.7958 31.5292 7.6727 31.8522 7.61115C32.1752 7.48805 32.4983 7.36495 32.8213 7.24185C32.9505 7.1803 33.0151 7.1803 33.0797 7.11875C33.855 6.87254 34.6303 6.50324 35.4056 6.31859C36.3101 6.07239 37.2792 5.76463 38.1837 5.45688C38.959 5.21068 39.6696 4.96447 40.4449 4.77982C41.2202 4.53362 42.0601 4.34897 42.8354 4.10277C43.4168 3.91812 43.9337 3.79501 44.5152 3.61036C45.355 3.30261 46.1949 3.11796 47.0994 2.93331C47.9393 2.74865 48.7792 2.50245 49.6191 2.25625C50.2652 2.0716 50.9758 1.88695 51.6219 1.70229C52.3326 1.51764 53.0433 1.39454 53.6893 1.20989C54.0124 1.14834 54.4 1.02524 54.723 0.963689C55.6275 0.779037 56.532 0.532834 57.5011 0.409733C57.5657 0.409733 57.6304 0.409734 57.695 0.348183C58.341 0.163531 59.0517 0.101981 59.6978 0.0404301C60.15 -0.0211205 60.6023 -0.0211214 61.0545 0.10198C61.1837 0.10198 61.3129 0.163528 61.4422 0.225079C61.5714 0.28663 61.7652 0.409732 61.8944 0.471282C62.1528 0.594383 62.3466 0.779036 62.4759 1.02524C62.7343 1.39454 62.9281 1.70229 63.1865 2.0716C63.5096 2.50245 63.8326 2.93331 64.091 3.48726C64.2202 3.67191 64.2849 3.85657 64.3495 4.10277C64.4141 4.22587 64.4141 4.34897 64.4787 4.47207C64.5433 4.53362 64.5433 4.59517 64.5433 4.71827C64.5433 5.21068 64.3495 5.57998 64.0264 5.88774C63.9618 5.94929 63.8972 6.01083 63.8326 6.07238C63.3804 6.38014 62.9927 6.62634 62.4759 6.81099C61.3775 7.1803 60.2792 7.5496 59.1809 7.7958C58.5995 7.9189 58.018 8.042 57.5011 8.1651C56.7905 8.28821 56.0152 8.47286 55.3045 8.59596C54.9815 8.65751 54.6584 8.71906 54.3354 8.71906C54.2708 8.71906 54.2062 8.71906 54.1416 8.71906C53.5601 8.84216 52.9787 8.96526 52.3972 9.02681C51.8157 9.08836 51.2343 9.21146 50.6528 9.39612C50.2006 9.51922 49.8129 9.58077 49.3607 9.64232C49.1022 9.88852 48.973 9.88852 48.9084 10.0116ZM39.5404 24.4145C39.4112 24.4145 39.3466 24.4145 39.282 24.4145C39.2174 24.4145 39.1528 24.4145 39.0882 24.4145C38.8944 24.3529 38.8944 24.2914 38.8298 24.1683C38.8298 24.1067 38.8298 24.1067 38.8298 24.0452C38.8298 23.3065 38.8298 22.6295 38.8298 21.8909C38.8298 21.5216 38.8297 21.5216 39.0882 21.2138C39.1528 21.1523 39.1528 21.0907 39.2174 21.0907C39.282 21.0292 39.4112 20.9061 39.5404 20.9061C40.1865 20.5983 41.0264 20.9061 41.1556 21.7062C41.2202 21.8909 41.2202 22.0755 41.2202 22.2602C41.2202 22.4448 41.2202 22.6295 41.2202 22.7526C41.2202 22.8757 41.2202 22.9988 41.2202 23.1219C41.2202 23.3681 41.2202 23.6758 41.2202 23.9221C41.2202 24.0452 41.2202 24.1067 41.2202 24.2298C41.2202 24.7838 41.2202 25.3993 41.2202 25.9532C41.2202 26.1379 41.2202 26.3225 41.2848 26.5072C41.2848 26.5687 41.3494 26.6303 41.3494 26.6918C42.4477 26.6918 43.5461 26.6918 44.6444 26.6918C44.6444 26.6303 44.709 26.5687 44.709 26.5687C44.7736 26.0763 44.7736 25.6455 44.7736 25.1531C44.7736 24.9684 44.709 24.7838 44.709 24.5991C44.709 24.476 44.6444 24.476 44.5798 24.476C44.5152 24.476 44.4505 24.476 44.3859 24.476C44.2567 24.476 44.1275 24.476 43.9983 24.3529C43.9983 24.1683 43.9983 23.9836 43.9337 23.799C43.9337 23.3065 43.9337 22.7526 43.9337 22.2602C43.9337 21.6447 43.8691 21.0292 43.6753 20.4137C43.6107 20.1675 43.4814 19.9828 43.3522 19.7982C42.5123 18.7518 41.414 18.4441 40.1219 18.6287C39.4758 18.8134 38.8944 19.0596 38.4421 19.6135C38.3775 19.6751 38.3129 19.7366 38.2483 19.7982C38.1837 19.8597 38.1191 19.8597 38.1191 19.9213C37.9253 19.7982 37.796 19.6751 37.6668 19.4904C37.2792 19.0596 36.7623 18.8134 36.1809 18.6903C35.9224 18.6287 35.664 18.5672 35.4056 18.6287C34.7595 18.7518 34.1134 18.998 33.6612 19.4904C33.6612 19.4904 33.5966 19.552 33.532 19.552C33.4674 19.3058 33.4674 19.1211 33.4028 18.9365C33.2736 18.9365 33.1443 18.8749 33.0797 18.8749C32.4983 18.8749 31.9168 18.8749 31.2707 18.8749C31.0769 18.8749 30.8185 18.8749 30.6247 18.8749C30.3663 18.8749 30.1724 18.998 30.1724 19.3058V19.3673C30.1724 19.7982 30.237 20.2906 30.237 20.7214C30.237 20.8445 30.3016 21.0292 30.4309 21.1523C30.5601 21.1523 30.7539 21.1523 30.8831 21.1523C30.9477 21.1523 31.0123 21.1523 31.0769 21.1523C31.0769 21.46 31.1415 21.7678 31.1415 22.014C31.1415 22.0755 31.1415 22.0755 31.1415 22.1371C31.0769 22.2602 31.1415 22.3217 31.1415 22.4448C31.2061 22.8141 31.2061 23.1834 31.1415 23.6143C31.1415 23.8605 31.1415 24.1067 31.1415 24.3529C31.1415 24.4145 31.1415 24.476 31.1415 24.5376C31.0123 24.5991 30.8831 24.6607 30.7539 24.6607C30.6247 24.6607 30.4955 24.6607 30.3662 24.7222C30.1724 25.2146 30.237 26.5072 30.4309 26.938C30.4955 26.938 30.5601 26.938 30.6247 26.938C31.0769 26.938 31.5292 26.938 31.9814 26.938C32.046 26.938 32.1752 26.938 32.2399 26.938C32.5629 26.938 32.9505 26.938 33.2736 26.938C33.5966 26.938 33.9842 26.938 34.3073 26.938C34.3719 26.938 34.5011 26.938 34.5657 26.8765V26.8149C34.5657 26.261 34.5657 25.6455 34.5657 25.0915C34.5657 24.9069 34.5011 24.7838 34.3719 24.6607C34.178 24.5991 33.9842 24.6607 33.7904 24.5991C33.7258 24.3529 33.7258 24.1067 33.7258 23.8605C33.7258 23.5527 33.7258 23.245 33.7258 22.8757C33.7258 22.6295 33.7258 22.4448 33.7904 22.1986C33.7904 21.9524 33.9196 21.7678 33.9842 21.5831C34.1134 21.3985 34.2427 21.2138 34.5011 21.1523C34.6949 21.0907 34.8887 21.0292 35.1472 21.0907C35.5348 21.1523 35.7932 21.3369 35.9224 21.6447C35.987 21.8293 36.0517 22.0755 36.0517 22.2602C36.0517 22.5064 36.0517 22.7526 36.0517 22.9988C36.0517 24.1067 36.0517 25.1531 36.1163 26.261C36.1163 26.4456 36.1809 26.6303 36.1809 26.8149C36.2455 26.8149 36.2455 26.8149 36.3101 26.8149C37.2792 26.8149 38.1837 26.8149 39.1528 26.8149C39.2174 26.8149 39.3466 26.8149 39.4112 26.7534C39.4758 26.7534 39.5404 26.6918 39.5404 26.6303C39.5404 26.5072 39.605 26.4456 39.5404 26.3225C39.4758 25.8301 39.4758 25.2762 39.4758 24.7838C39.5404 24.5376 39.5404 24.476 39.5404 24.4145ZM56.0152 29.2154C56.209 29.0923 56.2736 28.9076 56.4028 28.7845C56.5966 28.5383 56.7905 28.2306 56.9843 27.9844C57.695 26.938 58.4702 25.9532 59.1163 24.9069C59.1809 24.8453 59.2455 24.7222 59.3101 24.6607C59.3747 24.5991 59.3747 24.5376 59.4393 24.5376C59.6332 24.4145 59.6978 24.2298 59.827 24.0452C59.8916 23.9221 59.9562 23.7374 60.0854 23.6143C60.4084 23.1834 60.7315 22.691 61.0545 22.2602C61.3775 21.8293 61.7006 21.3369 62.0236 20.8445C62.1528 20.7214 62.2174 20.6599 62.4113 20.5983C62.4759 20.5983 62.6051 20.5983 62.6697 20.5983C62.9281 20.5368 62.9927 20.4752 62.9927 20.229C62.9927 19.6135 62.9281 19.0596 62.9281 18.444C62.9281 18.444 62.9281 18.444 62.8635 18.3825C62.4759 18.3209 62.1528 18.3209 61.7652 18.3209C60.5377 18.3209 59.0517 18.3209 58.7287 18.3825C58.7287 18.5056 58.6641 18.6287 58.6641 18.7518C58.6641 18.8749 58.5995 18.998 58.6641 19.1211C58.6641 19.1827 58.6641 19.2442 58.6641 19.3058C58.6641 19.6135 58.6641 19.9828 58.6641 20.2906C58.6641 20.3521 58.6641 20.4137 58.7287 20.4752C58.8579 20.5368 58.9871 20.5368 59.1163 20.5983C59.0517 20.783 58.9225 20.9676 58.8579 21.1523C58.5995 21.5216 58.4056 21.8909 58.1472 22.1986C58.018 22.3833 57.9534 22.5064 57.8242 22.6295C57.7596 22.691 57.7596 22.7526 57.695 22.8141C57.695 22.8141 57.6304 22.8141 57.5657 22.8757C57.5657 22.691 57.5657 22.5064 57.5657 22.3217C57.5657 22.1371 57.5657 21.9524 57.5657 21.7678C57.5657 21.5831 57.5657 21.3985 57.5657 21.2138C57.5657 21.0292 57.5657 20.8445 57.5657 20.6599C57.6304 20.5983 57.695 20.5983 57.7596 20.5983C57.9534 20.5368 58.018 20.3521 58.018 20.1675C57.9534 19.8597 57.9534 19.552 57.9534 19.2442C57.9534 19.0596 57.9534 18.8134 57.9534 18.6287C57.9534 18.5672 57.9534 18.5056 57.8888 18.444C57.7596 18.444 57.6303 18.444 57.5011 18.444C56.6612 18.444 55.8214 18.444 54.9815 18.444C54.8523 18.444 54.6584 18.444 54.5292 18.444C54.3354 18.444 54.2062 18.4441 54.0124 18.5672C54.0124 18.8134 54.0124 19.0596 54.0124 19.2442C54.0124 19.4904 54.0124 19.6751 54.0124 19.9213C54.0124 20.1675 54.0124 20.4137 54.077 20.6599C54.2708 20.6599 54.4646 20.7214 54.6584 20.7214C54.723 20.7214 54.7877 20.7214 54.8523 20.7214C54.8523 20.783 54.8523 20.8445 54.8523 20.9061C54.8523 21.7062 54.8523 22.4448 54.9169 23.245C54.9169 23.4296 54.9169 23.6143 54.9169 23.799C54.9169 24.7222 54.9169 25.6455 54.9169 26.5687C54.9169 26.6303 54.9169 26.7534 54.8523 26.8149C54.723 26.8149 54.5292 26.8765 54.4 26.8765C54.2708 26.8765 54.077 26.8765 53.9478 26.938C53.9478 26.9996 53.9478 26.9996 53.9478 26.9996C53.9478 27.3073 53.8832 27.5535 53.8832 27.8613C53.8832 27.9228 53.8832 27.9844 53.8832 27.9844C53.9478 28.1075 53.9478 28.2921 53.9478 28.4152C53.9478 28.5999 53.9478 28.723 53.9478 28.9076C53.9478 28.9692 54.0124 29.0307 54.077 29.0307C54.1416 29.0307 54.2062 29.0307 54.2708 29.0307C54.8523 29.2154 55.4337 29.2154 56.0152 29.2154ZM24.8747 24.476C25.5207 24.1067 26.2314 23.7374 26.8775 23.4297C27.782 22.9372 28.6865 22.4448 29.6556 21.9524C29.8494 21.8293 29.914 21.7062 29.8494 21.5216C29.7202 21.0907 29.5264 20.7214 29.2679 20.4137C28.8803 19.9213 28.428 19.4904 27.8466 19.1827C27.4589 18.998 27.1359 18.8134 26.6837 18.7518C26.5544 18.7518 26.4252 18.6903 26.2314 18.6903C25.973 18.6287 25.6499 18.5672 25.3915 18.6287C25.1977 18.6287 25.0039 18.6903 24.7454 18.6903C23.9056 18.8134 23.1303 19.1827 22.4842 19.7366C22.4196 19.7982 22.355 19.7982 22.355 19.8597C21.6443 20.5368 21.1921 21.3369 21.1275 22.2602C21.0629 22.5679 21.0629 22.9372 21.1275 23.245C21.1921 23.4912 21.1921 23.6758 21.2567 23.9221C21.2567 23.9836 21.3213 24.0452 21.3213 24.1067C21.4505 24.476 21.6443 24.8453 21.9027 25.1531C22.0966 25.4608 22.355 25.707 22.678 25.9532C23.1949 26.3841 23.8409 26.6303 24.5516 26.8765C24.6162 26.8765 24.7455 26.938 24.8101 26.938C25.5207 26.9996 26.296 27.0611 27.0067 26.8149C27.3943 26.6918 27.7174 26.5687 28.105 26.3841C28.2342 26.3225 28.2988 26.261 28.428 26.1994C28.5573 26.0763 28.6865 25.9532 28.6865 25.707C28.6865 25.2762 28.6865 24.7838 28.6865 24.3529C28.6865 24.1683 28.6865 23.9836 28.5573 23.7374C28.4926 23.799 28.3634 23.8605 28.2988 23.9221C27.782 24.3529 27.2005 24.6607 26.5544 24.7838C26.1022 24.8453 25.6499 24.8453 25.1977 24.6607C24.8101 24.6607 24.8101 24.5991 24.8747 24.476ZM53.5601 23.4912C53.4955 23.4912 53.4955 23.4912 53.4309 23.4912C53.1725 23.4912 52.914 23.4912 52.6556 23.4912C52.1388 23.4912 51.6219 23.4912 51.1051 23.5527C50.9758 23.5527 50.782 23.6143 50.6528 23.6758C50.5882 23.7374 50.5236 23.799 50.459 23.8605C50.0714 24.2298 49.5545 24.3529 49.0376 24.2298C48.327 24.1067 47.8101 23.7374 47.5517 23.0603C47.4871 22.8757 47.4871 22.691 47.4871 22.5064C47.4871 22.3217 47.5517 22.1371 47.6163 21.9524C47.6809 21.7678 47.7455 21.6447 47.8101 21.46C48.1977 21.0292 48.7146 20.7214 49.2961 20.7214C49.3607 20.7214 49.4253 20.7214 49.4899 20.7214C49.6837 20.7214 49.8775 20.783 50.0713 20.8445C50.2006 20.9061 50.3298 20.9676 50.459 21.0907C50.5882 21.1523 50.6528 21.2754 50.782 21.3369C50.8466 21.3985 50.9112 21.3985 50.9758 21.3985C51.5573 21.3985 52.2034 21.3985 52.7848 21.3369C52.8494 21.3369 52.9787 21.3369 53.0433 21.2754C53.1079 21.2754 53.1725 21.2138 53.1725 21.0907V21.0292C53.1725 20.4752 53.1725 19.9828 53.1725 19.4289C53.1725 19.1211 53.1725 18.8749 53.1079 18.5672C53.1079 18.5056 53.1079 18.444 53.0433 18.3825C52.3326 18.3209 51.6865 18.3825 51.0404 18.3825C50.9758 18.5056 50.9112 18.5672 50.782 18.6903C50.6528 18.6287 50.5882 18.6287 50.459 18.5672C49.8775 18.2594 49.2315 18.1979 48.5854 18.2594C47.9393 18.321 47.3579 18.5672 46.841 18.8749C45.9365 19.4289 45.2904 20.1675 44.9028 21.2138C44.8382 21.46 44.7736 21.7678 44.709 22.0755C44.6444 22.5679 44.6444 23.0603 44.8382 23.5527C45.1612 24.4145 45.6135 25.2146 46.3888 25.7686C46.9056 26.1379 47.4871 26.4456 48.0685 26.5687C48.65 26.6918 49.2961 26.6918 49.8775 26.6303C50.136 26.5687 50.3944 26.5687 50.5882 26.5072C51.4281 26.1994 52.2034 25.707 52.7202 25.03C52.9787 24.6607 53.2371 24.2914 53.3663 23.8605C53.6247 23.7374 53.6247 23.6143 53.5601 23.4912ZM33.5966 35.986C33.6612 35.9244 33.7258 35.9244 33.7904 35.8629C33.9842 35.7398 34.1134 35.6167 34.3073 35.4936C34.4365 35.432 34.5657 35.3089 34.6949 35.3089C35.0825 35.4936 35.341 35.8013 35.7286 35.986C35.5994 35.5551 35.4056 35.1858 35.341 34.755C35.664 34.5088 35.987 34.3241 36.3101 34.0779C36.0516 34.0164 35.8578 34.0779 35.664 34.0163C35.4702 34.0163 35.2118 34.0163 35.0179 33.8932C34.8887 33.5239 34.7595 33.1546 34.6303 32.7853C34.4365 33.1546 34.3719 33.5855 34.2427 33.8932C33.7904 34.0163 33.4028 33.9548 32.9505 34.0163C33.2736 34.2626 33.6612 34.4472 33.9196 34.755C33.855 35.2474 33.6612 35.5551 33.5966 35.986ZM41.0264 9.82697C40.8972 10.1963 40.7034 10.5656 40.6387 10.9964C41.0264 10.7502 41.3494 10.504 41.7371 10.3194C42.0601 10.5656 42.3831 10.8118 42.8354 10.9964C42.7708 10.7502 42.7062 10.5656 42.6416 10.3809C42.5769 10.1963 42.5123 10.0116 42.4477 9.76542C42.7708 9.51922 43.0938 9.33457 43.4814 9.02681C43.4168 9.02681 43.3522 9.02681 43.3522 9.02681C43.0938 9.02681 42.8354 9.02681 42.577 9.02681C42.3185 9.02681 42.1893 8.96526 42.0601 8.71906C41.9955 8.47286 41.9309 8.28821 41.8017 8.04201C41.8017 7.98046 41.7371 7.98045 41.7371 7.85735C41.4786 8.22666 41.4786 8.65751 41.2848 9.02681C41.091 9.02681 40.8972 9.02681 40.7033 9.02681C40.5095 9.02681 40.3157 9.02681 40.0573 9.08836C40.3803 9.33457 40.768 9.51922 41.0264 9.82697ZM42.1247 35.6167C42.0601 35.432 41.9955 35.2474 41.9309 35.0627C41.8663 34.8781 41.8017 34.6934 41.7371 34.5088C41.5432 34.8781 41.4786 35.3089 41.2848 35.6782C40.8972 35.7398 40.4449 35.6782 39.9927 35.7398C40.1219 35.8013 40.1865 35.8629 40.2511 35.9244C40.4449 36.0475 40.7033 36.2322 40.8972 36.3553C40.9618 36.4168 40.9618 36.4168 41.0264 36.4784C40.9618 36.663 40.8972 36.8477 40.8326 37.0323C40.768 37.217 40.7034 37.4016 40.6387 37.5863C40.7034 37.5247 40.768 37.5247 40.8326 37.4632C41.0264 37.3401 41.2202 37.1554 41.414 37.0323C41.6078 36.9092 41.8017 36.9092 41.9309 37.0323C42.1247 37.217 42.3185 37.3401 42.577 37.4632C42.6416 37.4632 42.7062 37.5247 42.7708 37.5247C42.7708 37.3401 42.7062 37.217 42.6416 37.0939C42.5769 36.9092 42.5123 36.7246 42.4477 36.5399C42.3831 36.4168 42.4477 36.3553 42.5123 36.2937C42.6416 36.2322 42.7062 36.1091 42.8354 36.0475C42.9646 35.9244 43.1584 35.8629 43.2876 35.7398C43.3522 35.7398 43.3522 35.6782 43.3522 35.6167C42.9646 35.6782 42.5769 35.7398 42.1247 35.6167ZM30.3016 16.5975C30.3663 16.536 30.4955 16.4744 30.5601 16.4129C30.6247 16.3513 30.7539 16.2898 30.8185 16.2282C30.8831 16.1667 31.0123 16.1051 31.0769 16.0436C31.1415 15.982 31.2707 15.9205 31.3353 15.8589C31.0769 15.8589 30.8831 15.8589 30.6893 15.8589C30.4955 15.8589 30.3016 15.8589 30.0432 15.7974C29.9786 15.6743 29.9786 15.6127 29.914 15.4896C29.8494 15.2434 29.7848 14.9972 29.6556 14.8126C29.6556 14.751 29.591 14.751 29.591 14.6895C29.3971 15.0588 29.3971 15.4896 29.1387 15.7974C28.7511 15.8589 28.2988 15.7974 27.8466 15.8589C28.0404 15.982 28.2342 16.1051 28.3634 16.2282C28.5573 16.3513 28.6865 16.4744 28.8803 16.5975C28.8157 17.0284 28.6219 17.3361 28.4926 17.767C28.8803 17.5823 29.1387 17.213 29.591 17.0899C29.9786 17.2746 30.3016 17.5208 30.6893 17.767C30.6247 17.5208 30.5601 17.3361 30.4955 17.1515C30.4308 17.0284 30.3663 16.8437 30.3016 16.5975ZM54.5938 16.4129C54.9169 16.1667 55.2399 15.982 55.4983 15.7358C55.4983 15.7358 55.4983 15.7358 55.4983 15.6743H54.3354C54.2708 15.5512 54.2708 15.4896 54.2062 15.3665C54.1416 15.1203 54.077 14.8741 53.9478 14.6279C53.9478 14.5664 53.8832 14.5664 53.8832 14.5048C53.7539 14.8741 53.6247 15.2434 53.4955 15.6127C53.3663 15.6127 53.3017 15.6743 53.1725 15.6743C53.0433 15.6743 52.9787 15.6743 52.8494 15.6743C52.7202 15.6743 52.591 15.6743 52.5264 15.6743C52.3972 15.6743 52.3326 15.6743 52.2034 15.7358C52.3326 15.8589 52.3972 15.9205 52.5264 15.982C52.6556 16.0436 52.7848 16.1667 52.8494 16.2282C52.9787 16.2898 53.1079 16.3513 53.1725 16.4744C53.1079 16.8437 52.914 17.213 52.7848 17.6439C52.9786 17.5208 53.1725 17.3977 53.3017 17.2746C53.4955 17.1515 53.6247 17.0284 53.8185 16.9053C54.0124 16.9668 54.1416 17.0899 54.3354 17.213C54.4646 17.3361 54.6584 17.4592 54.7876 17.5823C54.8523 17.5823 54.8523 17.6439 54.9169 17.5823C54.7876 17.213 54.6584 16.7822 54.5938 16.4129ZM35.5348 12.8429C35.4056 12.4121 35.2764 12.0428 35.1472 11.6735C35.2118 11.6119 35.2764 11.5504 35.341 11.5504C35.5994 11.3657 35.7932 11.2426 36.0517 11.058C36.1163 11.058 36.1163 10.9964 36.1163 10.9349C35.7286 10.9349 35.2764 10.9349 34.8887 10.8733C34.7595 10.504 34.6303 10.1347 34.5011 9.76542C34.3073 10.1347 34.2427 10.5656 34.0488 10.9349C33.855 10.9349 33.6612 10.9964 33.4028 10.9964C33.2089 10.9964 33.0151 10.9964 32.7567 10.9964C33.0797 11.3042 33.4674 11.4888 33.7904 11.735C33.7258 11.8581 33.7258 11.9197 33.7258 12.0428C33.7258 12.1659 33.6612 12.2274 33.6612 12.3505C33.5966 12.4736 33.5966 12.5352 33.532 12.6583C33.532 12.7198 33.4674 12.843 33.4674 12.9661C33.855 12.7198 34.1781 12.4121 34.5657 12.289C34.8241 12.3505 35.1472 12.5352 35.5348 12.8429ZM30.3016 29.954C30.3663 29.8925 30.4309 29.8309 30.5601 29.7694C30.6247 29.7078 30.7539 29.6463 30.8185 29.5847C30.8831 29.5232 31.0123 29.4616 31.0769 29.4001C31.1415 29.3385 31.2707 29.277 31.3353 29.2154C31.1415 29.2154 31.0123 29.2154 30.8831 29.2154C30.7539 29.2154 30.6247 29.2154 30.4955 29.2154C30.3662 29.2154 30.237 29.2154 30.0432 29.1539C29.9786 29.0308 29.9786 28.9076 29.914 28.7845C29.8494 28.5383 29.7848 28.3537 29.6556 28.1075C29.6556 28.0459 29.6556 28.0459 29.591 28.0459C29.5264 28.2921 29.3971 28.5383 29.3325 28.7845C29.2679 29.0923 29.2033 29.0923 28.9449 29.0923C28.8157 29.0923 28.7511 29.0923 28.6219 29.0923C28.428 29.0923 28.2988 29.0923 28.105 29.0923C28.0404 29.0923 28.0404 29.0923 27.9758 29.0923V29.1539C28.2342 29.4616 28.6219 29.5847 28.9449 29.8925C28.9449 29.954 28.9449 29.954 28.8803 30.0156C28.7511 30.3233 28.6865 30.6311 28.5573 30.9388C28.5573 31.0004 28.4926 31.0004 28.5573 31.0619C28.9449 30.8773 29.2033 30.5695 29.591 30.3849C29.7202 30.4464 29.8494 30.508 29.9786 30.6311C30.1078 30.6926 30.1724 30.7542 30.3016 30.8773C30.4309 30.9388 30.4955 31.0619 30.6893 31.1235C30.5601 30.6926 30.4309 30.3233 30.3016 29.954Z" fill="#016AB1"/>
<path d="M60.2878 36.1706C60.417 36.5399 60.417 36.9093 60.417 37.2786C60.417 37.4017 60.3524 37.5248 60.2878 37.6479C60.1585 37.7094 60.0939 37.8325 60.0293 37.8941C59.9001 38.0172 59.7709 38.0787 59.577 38.2018C58.7371 38.5711 57.8971 38.8789 56.9925 39.1251C56.2818 39.3097 55.5065 39.5559 54.7957 39.7406C54.3434 39.8637 53.8912 39.9868 53.4389 40.1099C53.1804 40.1714 52.922 40.233 52.6635 40.3561C52.1466 40.5407 51.5651 40.6638 51.0482 40.8485C50.079 41.0947 49.1745 41.4024 48.2053 41.7102C48.1407 41.7102 48.0761 41.7718 48.0115 41.7718C47.3007 41.9564 46.6546 42.2026 45.9439 42.3873C45.2331 42.5719 44.5224 42.8181 43.747 43.0028C43.5532 43.0643 43.424 43.1259 43.2302 43.1259C42.9717 43.1874 42.7133 43.1874 42.3902 43.1259C42.0671 43.0643 41.8733 42.8797 41.7441 42.5719C41.7441 42.5103 41.6795 42.4488 41.6795 42.3873C41.9379 42.2026 42.1964 42.0179 42.4548 41.8333C42.7132 41.6486 42.9717 41.5255 43.2302 41.3409C43.4886 41.1562 43.7471 41.0331 44.0055 40.7869C43.7471 40.8485 43.4886 40.91 43.2302 40.9716C42.7133 41.0947 42.1964 41.2178 41.6795 41.3409C41.5502 41.4024 41.421 41.4024 41.2918 41.2793C41.2918 41.2793 41.2272 41.2793 41.2272 41.2178C41.2272 41.2793 41.2272 41.3409 41.2918 41.4024C41.2272 41.4024 41.2272 41.464 41.1626 41.464C40.3226 41.7102 39.4826 41.9564 38.6427 42.2026C38.1904 42.3257 37.6735 42.5104 37.2212 42.695C36.7043 42.8797 36.1228 43.0643 35.5413 43.1874C35.3475 43.249 35.1536 43.249 34.9598 43.249C34.8306 43.249 34.7013 43.249 34.5721 43.1259C34.4429 43.0643 34.3137 42.9412 34.1844 42.8181C34.0552 42.6335 34.0552 42.4488 34.1198 42.2641C34.2491 42.0179 34.4429 41.7717 34.6367 41.5871C34.6367 41.5255 34.7013 41.5255 34.766 41.5255C34.9598 41.3409 35.2182 41.2178 35.4121 41.0331C35.7997 40.7869 36.1874 40.5407 36.5751 40.4176C37.4151 40.1099 38.1904 39.8021 39.0304 39.4944C39.4826 39.3097 39.9995 39.1866 40.4518 39.002C40.6457 38.9404 40.8395 38.8789 41.0333 38.8789C41.2918 38.8173 41.5502 38.7558 41.8087 38.6327C42.1317 38.5096 42.4548 38.448 42.7779 38.3865C43.2948 38.2634 43.747 38.2018 44.2639 38.0787C44.4578 38.0172 44.6516 38.0172 44.8455 37.9556C45.5562 37.7094 46.3315 37.5248 47.0423 37.4017C47.3653 37.3401 47.6884 37.217 47.9468 37.1555C48.2053 37.0939 48.3991 37.0324 48.6576 36.9708C49.2391 36.8477 49.8852 36.7246 50.4667 36.6015C50.5313 36.6015 50.6606 36.54 50.7252 36.54C51.5651 36.2322 52.4697 36.1091 53.3743 35.8629C53.8266 35.7398 54.2142 35.6167 54.6665 35.4936C55.248 35.3705 55.8941 35.1858 56.4757 35.0627C56.9925 34.9396 57.4448 34.755 57.9617 34.6319C58.6725 34.4472 59.3186 34.3241 60.0293 34.1395C60.417 34.0779 60.7401 33.9548 61.1277 33.8317C61.4508 33.7702 61.8385 33.7086 62.2261 33.6471C62.3554 33.6471 62.4846 33.5855 62.6138 33.5855C62.9369 33.4624 63.3245 33.7702 63.3892 34.0164C63.3892 34.0779 63.3892 34.1395 63.3892 34.201C63.3245 34.3857 63.1953 34.5703 63.0015 34.6319C62.8076 34.755 62.5492 34.8781 62.3554 35.0012C62.0969 35.1243 61.7738 35.2474 61.5154 35.3705C61.2569 35.4936 60.9985 35.6167 60.7401 35.8629C60.5462 35.986 60.417 36.1091 60.2878 36.1706Z" fill="#016AB1"/>
<path d="M6.84802 14.3202C6.91263 14.1355 7.04186 13.9509 7.17108 13.7662C7.30031 13.5816 7.42953 13.4585 7.62337 13.3354C8.01104 13.1507 8.3341 12.9045 8.72177 12.7199C8.91561 12.5968 9.17406 12.5352 9.36789 12.4121C9.49712 12.3506 9.62635 12.289 9.75557 12.1659C9.69096 12.0428 9.69096 11.9812 9.62634 11.8581C9.56173 11.6735 9.49712 11.4888 9.49712 11.3042C9.49712 11.2426 9.49712 11.1811 9.49712 11.058C9.49712 10.8733 9.56173 10.7502 9.75557 10.6887C10.014 10.5656 10.2725 10.504 10.5309 10.504C11.1124 10.4425 11.6293 10.3809 12.2108 10.1963C12.857 10.0116 13.5677 9.88853 14.2138 9.70388C14.4076 9.64233 14.7953 9.64233 15.1184 9.70388C15.2476 9.82698 15.3122 9.95008 15.4414 10.0732C15.4414 10.2578 15.3768 10.4425 15.2476 10.6271C15.1184 10.7502 15.0538 10.9349 14.9245 11.058C14.7307 11.3042 14.5369 11.4888 14.343 11.6119C14.1492 11.735 13.9554 11.9197 13.7615 12.0428C13.18 12.4737 12.5339 12.7814 11.8878 13.0892C11.4355 13.3354 10.9186 13.52 10.4663 13.8278C9.82018 14.1971 9.17406 14.4433 8.46333 14.751C8.14027 14.8741 7.88182 14.8741 7.55876 14.8126C7.42953 14.8126 7.36492 14.751 7.23569 14.751C7.10647 14.751 7.04186 14.6895 6.97724 14.5664C6.97724 14.5664 6.91263 14.4433 6.84802 14.3202Z" fill="#016AB1"/>
<path d="M8.78726 18.0133C8.78726 18.1979 8.78726 18.321 8.78726 18.5057C8.65804 18.6288 8.52881 18.6903 8.39959 18.8134C7.81808 19.1827 7.36579 19.6751 6.8489 20.106C5.87971 20.9677 4.97514 21.8294 3.87673 22.568C3.55367 22.8142 3.166 23.0604 2.84294 23.2451C2.71371 23.3682 2.51988 23.4297 2.32604 23.4913C2.13221 23.6144 1.87376 23.7375 1.67992 23.8606C1.48608 23.9837 1.22764 24.0452 1.0338 24.1068C0.904575 24.1068 0.77535 24.1683 0.710738 24.1068C0.516901 24.0452 0.387675 23.9837 0.193839 23.8606C0.129226 23.8606 0.129227 23.799 0.129227 23.7375C0.0646152 23.6144 0.0646122 23.5528 0 23.4297C0 23.3682 0 23.3682 0 23.3066C0.0646122 23.122 0.129225 22.9373 0.25845 22.8142C0.323062 22.6911 0.452287 22.6296 0.5169 22.5065C0.646124 22.3218 0.775346 22.1987 0.969183 22.0756C1.48608 21.6448 2.06759 21.2139 2.6491 20.783C3.29523 20.2906 3.94135 19.9213 4.65208 19.552C5.49204 19.0596 6.39661 18.5672 7.36579 18.1364C7.62424 18.0133 7.9473 17.8902 8.27036 17.8286C8.39959 17.8902 8.59343 17.8902 8.78726 18.0133Z" fill="#016AB1"/>
<path d="M8.85767 45.5264C8.85767 45.0955 8.92228 44.7262 8.98689 44.3569C9.0515 43.9876 9.11611 43.6799 9.24534 43.3105C9.30995 43.1259 9.37456 42.9412 9.50379 42.8181C9.76224 42.4488 10.1499 42.2642 10.6022 42.2026C10.796 42.2026 10.9899 42.2642 11.1837 42.3873C11.2483 42.4488 11.3129 42.4488 11.3775 42.5104C11.7006 42.7566 11.7006 42.7566 11.7006 43.1259C11.636 43.4336 11.636 43.7414 11.5714 44.0492C11.4422 44.7878 11.4422 45.5264 11.7006 46.265C11.8298 46.6958 11.7652 47.0651 11.636 47.496C11.5068 47.8037 11.2483 47.9884 10.8606 47.9884C10.3437 48.0499 9.95607 47.8653 9.69762 47.496C9.63301 47.3729 9.50379 47.2498 9.43918 47.0651C8.98689 46.5727 8.85767 46.0803 8.85767 45.5264Z" fill="#016AB1"/>
<path d="M17.3832 11.1811C17.5124 11.058 17.577 10.9349 17.7062 10.8734C18.0293 10.5656 18.3524 10.381 18.8046 10.1963C19.4508 9.95012 20.0969 9.76547 20.743 9.64237C21.3245 9.51927 21.906 9.39617 22.4875 9.21151C22.6814 9.14996 22.8106 9.08841 23.0044 9.08841C23.1983 9.02686 23.4567 8.96531 23.6506 8.90376C23.7798 8.90376 23.8444 8.84221 23.9736 8.84221C24.2321 8.78066 24.5551 8.65756 24.8136 8.59601C25.072 8.53446 25.3951 8.47291 25.6535 8.41136C25.8474 8.34981 26.1058 8.28826 26.2997 8.2267C26.4289 8.16515 26.6227 8.16515 26.7519 8.2267C26.8166 8.34981 26.8812 8.53446 26.8812 8.65756C26.7519 8.78066 26.6227 8.90376 26.4289 8.96531C26.1058 9.02687 25.7828 9.21152 25.5243 9.39617C24.8782 9.82702 24.1675 10.0732 23.4567 10.2579C23.1983 10.3194 22.9398 10.4425 22.746 10.5656C22.4875 10.6887 22.2291 10.8118 21.9706 10.8734C21.6476 10.9349 21.3245 10.9965 21.0015 11.1811C20.2907 11.4889 19.58 11.7351 18.8693 12.0428C18.8046 12.1044 18.6754 12.1044 18.6108 12.1044C18.3524 12.1044 18.1585 12.1044 17.9001 12.1044C17.7708 12.1044 17.7062 12.0428 17.6416 11.9197C17.577 11.8582 17.577 11.7351 17.577 11.612C17.3832 11.4889 17.3832 11.3042 17.3832 11.1811Z" fill="#016AB1"/>
<path d="M93.8825 8.71908C93.6886 9.02683 93.4302 9.21148 93.1071 9.27303C92.8487 9.33459 92.5902 9.39613 92.2672 9.39613C91.4272 9.51924 90.5226 9.64234 89.6827 9.76544C89.5535 9.76544 89.4242 9.76544 89.2304 9.76544C89.1012 9.76544 89.0366 9.70389 88.9719 9.64234C88.7781 9.45769 88.7781 9.21148 88.8427 8.96528C88.8427 8.90373 88.9073 8.84218 88.9719 8.78063C89.1012 8.71908 89.295 8.65753 89.4242 8.59597C89.6181 8.53442 89.8765 8.47288 90.0704 8.41133C90.2642 8.34978 90.5226 8.28822 90.7165 8.22667C90.9749 8.16512 91.298 8.10357 91.5564 8.04202C91.9441 8.04202 92.3964 7.98047 92.7841 7.98047C92.9133 7.98047 93.0425 7.98047 93.1717 7.98047C93.4302 7.98047 93.6886 8.10357 93.7533 8.34978C93.8179 8.53443 93.8825 8.59598 93.8825 8.71908Z" fill="#016AB1"/>
<path d="M16.805 11.8582C16.8696 11.9813 16.9343 12.0428 16.9989 12.1659C16.9343 12.3506 16.8696 12.5352 16.7404 12.7199C16.482 13.2123 16.0943 13.5816 15.642 13.8893C15.3836 14.074 15.1251 14.1971 14.8021 14.3202C14.6082 14.4433 14.4144 14.4433 14.2205 14.4433C13.8975 14.4433 13.7683 14.1971 13.639 13.9509C13.7037 13.7662 13.639 13.52 13.8329 13.3969C14.0913 13.1507 14.4144 12.9045 14.6728 12.6583C14.7374 12.5968 14.7374 12.5968 14.8021 12.5968C15.2543 12.3506 15.7066 12.1044 16.2235 11.9197C16.3528 11.8582 16.5466 11.8582 16.805 11.8582Z" fill="#016AB1"/>
<path d="M38.8956 44.8493C38.5726 44.8493 38.2495 44.7878 37.9911 44.6031C37.8619 44.5416 37.7972 44.4185 37.7972 44.2953C37.7972 44.1107 37.8619 43.926 37.9911 43.8029C38.2495 43.6183 38.4434 43.4336 38.7018 43.3105C39.0249 43.1259 39.2833 42.8797 39.6064 42.695C39.8648 42.5104 40.1879 42.4488 40.511 42.5104C40.7694 42.5719 40.8986 42.695 40.9632 42.9412C41.0279 43.1259 40.9632 43.3105 40.9632 43.4952C40.9632 43.5567 40.8986 43.6183 40.8986 43.6183C40.7694 43.803 40.5756 43.9876 40.3817 44.1722C40.1879 44.3569 39.9294 44.48 39.671 44.6647C39.4126 44.7878 39.1541 44.8493 38.8956 44.8493Z" fill="#016AB1"/>
<path d="M56.7235 10.2579C56.5943 10.381 56.5297 10.4425 56.4004 10.5041C56.3358 10.5656 56.2066 10.6272 56.0774 10.6272C55.5605 10.6272 55.1082 10.8118 54.6559 10.8734C54.2036 10.9349 53.8159 10.9965 53.3637 11.058C53.2344 11.058 53.1052 11.058 52.9114 11.1196C52.5883 10.8118 52.6529 10.4425 52.7821 10.1347C53.1698 10.0116 53.5575 9.88855 54.0098 9.88855C54.7205 9.88855 55.4312 9.88855 56.2066 9.88855C56.2712 9.88855 56.2712 9.88855 56.3358 9.88855C56.5296 9.88855 56.5943 9.9501 56.6589 10.0732C56.7235 10.1347 56.7235 10.1963 56.7235 10.2579Z" fill="#016AB1"/>
<path d="M20.9264 15.7358C20.6679 15.9204 20.4095 16.0435 20.2156 16.2282C20.0864 16.2897 20.0864 16.2897 19.828 16.2897C19.5049 15.982 19.3111 15.5511 19.1172 15.1818C19.0526 15.0587 19.0526 14.9356 19.0526 14.8125C19.0526 14.6279 19.1172 14.5048 19.2465 14.4432C19.4403 14.3201 19.6341 14.197 19.828 14.0739C20.151 13.8893 20.2156 13.9508 20.4095 14.197C20.6033 14.5048 20.7325 14.8741 20.8618 15.2434C20.9264 15.3665 20.9264 15.5511 20.9264 15.7358Z" fill="#016AB1"/>
<path d="M7.17926 14.8741C7.24387 15.0588 7.24387 15.1819 7.30848 15.3665C7.37309 15.6128 7.24387 15.859 6.98542 15.9205C6.85619 15.9821 6.72697 15.9821 6.59774 16.0436C6.3393 16.0436 6.14546 16.1052 5.88701 16.1667C5.69317 16.1052 5.56395 16.0436 5.37011 15.9821C5.04705 15.859 4.7886 15.6743 4.53015 15.4281C4.59476 15.2435 4.72399 15.1203 4.85321 15.0588C4.98244 14.9972 5.11167 14.9357 5.24089 14.8741C5.37011 14.8126 5.56395 14.751 5.75778 14.6895C6.01623 14.5664 6.27468 14.5664 6.59774 14.6895C6.79158 14.751 6.98542 14.8126 7.17926 14.8741Z" fill="#016AB1"/>
<path d="M13.1137 15.3665C13.0491 15.5512 12.9199 15.6743 12.7907 15.7359C12.4676 15.9205 12.0799 16.1052 11.6923 16.1052C11.4338 16.1052 11.24 16.1052 10.9815 15.9821C10.9169 15.6743 11.0461 15.4896 11.24 15.305C11.4984 15.0588 11.8215 14.8741 12.2092 14.8741C12.403 14.8741 12.5968 14.8741 12.7907 14.8741C12.9845 15.0588 13.0491 15.1819 13.1137 15.3665Z" fill="#016AB1"/>
<path d="M96.0767 8.719C96.0121 8.78055 95.9475 8.78054 95.9475 8.84209C95.7536 9.0883 95.4952 9.14985 95.1721 9.14985C95.1075 9.14985 94.9783 9.14985 94.9137 9.14985C94.8491 9.02675 94.7845 8.9652 94.7198 8.84209C94.6552 8.78054 94.6552 8.65744 94.7198 8.59589C94.7845 8.47279 94.8491 8.41124 94.9137 8.34969C95.1075 8.28814 95.2367 8.22659 95.366 8.22659C95.4952 8.22659 95.5598 8.16504 95.689 8.16504C95.8829 8.16504 96.0121 8.22659 96.0121 8.41124C96.0767 8.53434 96.0767 8.59589 96.0767 8.719Z" fill="#016AB1"/>
<path d="M23.6409 22.8757C23.5763 22.8142 23.5763 22.7526 23.5763 22.6911C23.5117 22.0756 23.7701 21.5832 24.287 21.2139C24.5455 21.0292 24.8685 20.9677 25.2562 20.9061C25.7085 20.9061 26.0962 20.9677 26.4192 21.2139V21.2754V21.337C26.4192 21.337 26.4192 21.3985 26.3546 21.3985C26.0962 21.5832 25.8377 21.7063 25.5147 21.8909C25.127 22.0756 24.8039 22.2602 24.4809 22.4449C24.287 22.568 24.1578 22.6295 23.964 22.6911C23.8994 22.8142 23.7701 22.8142 23.6409 22.8757Z" fill="#016AB1"/>
</svg>
