<svg width="249" height="48" viewBox="0 0 249 48" fill="none" xmlns="http://www.w3.org/2000/svg">
<path id="Vector" d="M198.668 3.6994C198.668 7.22961 198.668 10.829 198.668 14.3592C198.668 14.4285 198.668 14.4977 198.668 14.5669H199.423V3.49175H198.668C198.736 3.63019 198.668 3.63018 198.668 3.6994ZM193.309 14.0824C193.309 10.8983 193.309 7.71415 193.309 4.53004C193.309 4.3916 193.309 4.32238 193.309 4.18395C193.309 3.97629 193.378 3.90707 193.584 3.90707C193.721 3.90707 193.79 3.90707 193.928 3.90707C194.614 3.90707 195.37 3.90707 196.057 3.90707C196.332 3.90707 196.332 3.90707 196.332 3.56097H189.256C189.256 3.90707 189.256 3.90707 189.531 3.90707C190.287 3.90707 190.974 3.90707 191.729 3.90707C192.348 3.90707 192.416 3.90707 192.416 4.59926C192.416 7.78337 192.416 10.9675 192.416 14.1516C192.416 14.29 192.416 14.4977 192.416 14.6361H193.241V14.0824H193.309ZM116.095 14.6361C116.164 14.6361 116.233 14.6361 116.302 14.6361C118.019 14.6361 119.736 14.6361 121.454 14.6361C121.522 14.6361 121.522 14.6361 121.591 14.6361C121.729 14.6361 121.866 14.5669 121.797 14.4285C121.797 14.3592 121.66 14.29 121.591 14.2208C121.454 14.2208 121.316 14.2208 121.179 14.2208C119.942 14.2208 118.706 14.2208 117.469 14.2208C117.263 14.2208 117.126 14.2208 116.851 14.1516V3.56097H116.027C116.027 4.11472 116.027 14.29 116.095 14.6361ZM138.147 14.6361H138.902C138.902 13.7363 138.902 12.9056 138.902 12.075C138.902 11.2444 138.834 10.3445 138.902 9.51386H139.452C140.345 9.51386 141.238 9.51386 142.131 9.51386C142.268 9.51386 142.337 9.51386 142.475 9.51386C142.681 9.51386 142.749 9.37542 142.612 9.16776C142.475 9.16776 142.337 9.16776 142.131 9.16776C141.169 9.16776 140.208 9.16776 139.246 9.16776C139.108 9.16776 138.971 9.16776 138.834 9.16776C138.765 8.33712 138.765 4.3916 138.902 3.97628C139.04 3.97628 139.177 3.97628 139.383 3.97628C140.688 3.97628 142.062 3.97628 143.368 3.97628C143.505 3.97628 143.574 3.97628 143.711 3.97628C143.917 3.97628 143.986 3.83784 143.848 3.63019C141.925 3.63019 139.933 3.63019 138.009 3.63019C138.078 4.0455 138.078 14.29 138.147 14.6361ZM147.008 9.09854H147.489C148.451 9.09854 149.482 9.09854 150.443 9.09854C150.581 9.09854 150.649 9.09854 150.787 9.09854C150.855 9.09854 150.924 8.9601 150.924 8.9601C150.924 8.89088 150.855 8.82166 150.787 8.82166C150.649 8.82166 150.512 8.75244 150.375 8.75244C149.413 8.75244 148.382 8.75244 147.421 8.75244C146.94 8.75244 146.94 8.75245 146.94 8.26791C146.94 7.02195 146.94 5.70678 146.94 4.46083C146.94 3.97629 146.94 3.97628 147.421 3.97628C148.795 3.97628 150.168 3.97628 151.474 3.97628C151.611 3.97628 151.748 3.97628 151.886 3.97628C152.092 3.97628 152.092 3.83784 152.023 3.6994C151.68 3.63018 146.596 3.56097 146.115 3.6994C146.047 4.25316 146.047 14.4285 146.115 14.7746H152.023C152.092 14.5669 152.092 14.4285 151.817 14.4285C151.68 14.4285 151.542 14.4285 151.405 14.4285C150.1 14.4285 148.726 14.4285 147.421 14.4285C147.215 14.4285 147.077 14.3592 146.871 14.3592V9.09854H147.008ZM165.9 9.09854C166.861 9.09854 167.892 9.09854 168.854 9.09854C168.991 9.09854 169.06 9.09854 169.197 9.09854C169.266 9.09854 169.335 9.02932 169.335 8.9601C169.335 8.89088 169.266 8.82166 169.197 8.75244C169.06 8.75244 168.922 8.75244 168.785 8.75244C167.755 8.75244 166.793 8.75244 165.831 8.75244C165.35 8.75244 165.35 8.75245 165.35 8.26791C165.35 6.95273 165.35 5.70678 165.35 4.3916C165.35 4.32238 165.35 4.25317 165.35 4.18395C165.35 4.04551 165.419 3.90707 165.625 3.90707C165.762 3.90707 165.831 3.90707 165.968 3.90707C167.274 3.90707 168.579 3.90707 169.953 3.90707C170.09 3.90707 170.159 3.90707 170.296 3.90707C170.571 3.90707 170.571 3.76863 170.502 3.56097H164.595V14.6361H170.571C170.64 14.4285 170.64 14.29 170.434 14.29C170.296 14.29 170.159 14.29 170.021 14.29C168.648 14.29 167.342 14.29 165.968 14.29C165.762 14.29 165.625 14.2208 165.419 14.2208V9.09854C165.625 9.09854 165.762 9.09854 165.9 9.09854ZM107.646 28.6877C107.646 25.2959 107.646 21.9042 107.646 18.5124C107.646 18.374 107.646 18.2355 107.577 18.0971C107.028 18.0279 106.478 18.0279 106.203 18.0971V29.103H107.577C107.577 28.8954 107.646 28.8262 107.646 28.6877ZM175.998 18.0971H174.624V29.103H175.998C176.135 27.7879 176.067 18.374 175.998 18.0971ZM187.195 10.6906C186.852 10.829 183.555 10.829 182.936 10.7598C183.142 10.0676 183.417 9.44464 183.623 8.82166C183.829 8.19868 184.104 7.57571 184.31 6.88351C184.516 6.19132 184.722 5.56834 184.997 4.94536C185.066 4.94536 185.066 4.94536 185.135 4.94536C185.821 6.81429 186.508 8.75245 187.195 10.6906ZM185.478 3.56097H185.066C184.379 5.4299 183.692 7.22961 183.074 9.09854C182.387 10.9675 181.768 12.7672 181.081 14.6361C181.562 14.7053 181.562 14.7053 181.7 14.3592C182.043 13.3209 182.387 12.3519 182.799 11.3136C183.005 11.3136 183.142 11.3136 183.28 11.3136C184.516 11.3136 185.753 11.3136 186.989 11.3136C187.058 11.3136 187.127 11.3136 187.195 11.3136C187.401 11.3136 187.539 11.3828 187.608 11.5905C187.882 12.4903 188.226 13.4594 188.569 14.3592C188.638 14.4977 188.775 14.6361 188.844 14.7053C189.05 14.7746 189.256 14.7053 189.531 14.7053C188.157 10.8983 186.852 7.22961 185.478 3.56097ZM165.35 18.0971C165.35 18.2355 165.35 18.374 165.419 18.5124H168.441V20.3121V22.1118V23.8423V25.642C168.441 26.265 168.441 26.8188 168.441 27.4418C168.441 27.9955 168.441 28.6185 168.441 29.1723H169.815C169.815 28.9646 169.815 28.7569 169.815 28.5493C169.815 25.4344 169.815 22.3195 169.815 19.2046C169.815 18.997 169.815 18.7893 169.884 18.5816H172.769V18.1663H165.35V18.0971ZM212.201 18.0971H210.758C210.689 18.7893 210.689 28.8261 210.758 29.103H216.872V28.6877H212.132V18.0971H212.201ZM123.102 29.103H124.545V18.5124H127.43C127.43 18.374 127.43 18.3048 127.43 18.2355C127.43 18.1663 127.362 18.1663 127.362 18.0971H120.08V18.5124H123.102V29.103ZM95.5555 29.103C95.5555 27.4418 95.5555 25.7805 95.5555 24.1192H99.059V23.6347H95.6242C95.5555 23.0809 95.5555 18.9277 95.6242 18.5816C96.3798 18.5816 97.2042 18.5816 97.9599 18.5816C98.7842 18.5816 99.5399 18.5816 100.364 18.5816C100.364 18.374 100.364 18.3048 100.364 18.1663H94.1129V29.1723C94.5938 29.103 95.0746 29.1722 95.5555 29.103ZM124.751 13.667V4.46083C124.751 4.39161 124.751 4.32238 124.751 4.25316C124.751 3.90707 124.82 3.90707 125.095 3.83785C125.782 3.76863 126.469 3.83784 127.155 3.97628C128.529 4.32238 129.491 5.0838 130.109 6.39897C130.59 7.57571 130.728 8.75245 130.59 9.9984C130.522 10.829 130.315 11.6597 129.766 12.3519C129.216 13.1133 128.529 13.667 127.636 13.8747C126.881 14.0824 126.056 14.1516 125.232 14.1516C125.095 14.1516 124.957 14.0824 124.751 14.0824V13.667ZM123.995 14.6361C124.545 14.6361 125.095 14.6361 125.644 14.6361C126.675 14.6361 127.636 14.4977 128.529 14.0824C129.422 13.7363 130.109 13.1825 130.659 12.3519C131.277 11.3828 131.552 10.2753 131.552 9.16776C131.552 8.33712 131.415 7.43727 131.071 6.60663C130.728 5.776 130.247 5.15302 129.628 4.59926C128.804 3.90707 127.774 3.63019 126.743 3.49175C125.85 3.42253 124.889 3.49175 123.927 3.49175C123.858 4.18395 123.927 14.29 123.995 14.6361ZM155.183 4.53004C155.183 4.3916 155.183 4.32238 155.183 4.18395C155.183 3.97629 155.252 3.90707 155.458 3.90707C156.351 3.90707 157.175 3.90707 158.068 4.18395C158.618 4.32238 159.099 4.59926 159.58 5.01458C160.129 5.49912 160.473 6.12209 160.748 6.81429C161.228 7.9218 161.16 9.02932 161.091 10.1368C161.022 10.8983 160.748 11.6597 160.335 12.4211C159.855 13.1133 159.236 13.667 158.481 13.9439C157.862 14.1516 157.244 14.2208 156.626 14.29C156.351 14.29 156.008 14.29 155.733 14.29C155.321 14.29 155.252 14.2208 155.252 13.8055C155.252 12.698 155.252 11.5904 155.252 10.5522C155.252 10.0676 155.252 9.58308 155.252 9.16776C155.183 7.57571 155.183 6.05288 155.183 4.53004ZM157.588 14.4977C158.549 14.29 159.511 13.9439 160.267 13.3209C161.16 12.5595 161.641 11.5905 161.847 10.4829C162.053 9.23698 162.053 7.92181 161.572 6.67585C161.228 5.776 160.61 5.01458 159.855 4.46083C159.03 3.90707 158.068 3.63019 157.107 3.56097C156.282 3.49175 155.389 3.56097 154.496 3.56097C154.428 3.56097 154.359 3.56097 154.359 3.63019V14.7053C155.458 14.6361 156.557 14.7053 157.588 14.4977ZM220.719 3.49175C220.581 3.49175 220.444 3.49175 220.307 3.49175C220.307 3.56097 220.238 3.56097 220.238 3.56097V3.63019C220.238 6.60663 220.238 9.6523 220.238 12.6287C220.238 12.698 220.238 12.698 220.238 12.7672V12.8364C220.238 12.8364 220.238 12.8364 220.169 12.8364C220.101 12.7672 219.963 12.698 219.963 12.5595C219.757 11.9365 219.345 11.452 219.07 10.8983C218.589 9.9984 218.04 9.16776 217.559 8.26791C217.147 7.50649 216.666 6.74507 216.254 6.05287C215.773 5.22224 215.223 4.32238 214.674 3.49175C214.605 3.42253 214.536 3.35331 214.467 3.35331C214.261 3.35331 213.987 3.35331 213.781 3.35331C213.712 4.11472 213.712 14.1516 213.849 14.4977C213.987 14.4977 214.124 14.4977 214.33 14.4977V14.0131V12.2134C214.33 9.85996 214.33 7.57571 214.33 5.22224C214.33 5.0838 214.33 4.87614 214.33 4.7377C214.468 4.80692 214.467 4.80692 214.467 4.87614C214.811 5.56834 215.223 6.26054 215.635 6.95273C216.185 7.92181 216.803 8.89088 217.353 9.85996C217.902 10.829 218.521 11.7981 219.07 12.7672C219.414 13.3209 219.757 13.8055 220.032 14.3592C220.169 14.6361 220.444 14.7053 220.719 14.6361V3.49175ZM209.934 11.3136C209.659 12.2826 209.315 13.1825 208.491 13.8055C208.148 14.0824 207.667 14.29 207.254 14.3592C206.774 14.4285 206.361 14.4285 205.881 14.3592C204.781 14.1516 204.026 13.5286 203.545 12.5595C203.27 12.075 203.201 11.5212 203.064 10.9675C202.789 9.9984 202.858 9.02932 202.927 7.99103C202.995 6.88351 203.201 5.84522 203.888 4.94536C204.369 4.32238 204.988 3.97629 205.743 3.76863C206.705 3.49175 207.529 3.76863 208.285 4.25316C208.766 4.53004 209.109 5.01458 209.384 5.56834C209.865 6.67585 210.14 7.85259 210.071 9.02932C210.14 9.85996 210.14 10.5522 209.934 11.3136ZM208.903 14.1516C209.453 13.8055 209.934 13.3209 210.277 12.698C210.827 11.6597 211.101 10.4829 211.101 9.3062C211.101 8.54479 211.033 7.85259 210.895 7.16039C210.827 6.67585 210.621 6.19131 210.414 5.77599C209.934 4.59926 209.041 3.90707 207.873 3.56097C206.842 3.28409 205.743 3.28409 204.713 3.6994C204.232 3.90706 203.82 4.18395 203.476 4.53004C202.652 5.36068 202.24 6.39897 202.102 7.50649C202.034 8.2679 201.896 9.02932 202.034 9.79074C202.171 10.4137 202.24 11.1059 202.446 11.7289C202.789 12.9056 203.476 13.8055 204.575 14.3592C205.194 14.7053 205.949 14.7746 206.705 14.7746C207.392 14.7746 208.148 14.5669 208.903 14.1516ZM103.181 11.8673C102.837 13.0441 102.082 13.9439 100.914 14.29C99.4025 14.7053 97.7538 14.1516 96.9981 12.6287C96.5859 11.7289 96.3799 10.7598 96.3799 9.72152C96.3799 8.89088 96.3799 8.06025 96.5173 7.22961C96.6546 6.26054 96.9981 5.36068 97.7538 4.66848C98.2346 4.25316 98.7842 4.04551 99.3338 3.83785C99.952 3.63019 100.57 3.83784 101.12 3.97628C102.082 4.25316 102.7 5.01458 103.043 5.91444C103.455 6.81429 103.593 7.71415 103.593 9.23698C103.524 9.9984 103.455 10.9675 103.181 11.8673ZM104.349 7.71415C104.28 7.02195 104.074 6.39897 103.799 5.77599C103.387 4.94536 102.769 4.25317 101.944 3.76863C101.12 3.35331 100.295 3.28409 99.4712 3.35331C98.3033 3.42253 97.3416 3.97629 96.586 4.87614C96.1051 5.49912 95.8303 6.19132 95.6242 6.88351C95.4181 7.64493 95.3494 8.47557 95.3494 9.3062C95.3494 10.1368 95.4868 11.0367 95.8303 11.8673C96.1051 12.5595 96.4485 13.2517 96.9981 13.7363C98.372 14.913 99.8833 15.0514 101.532 14.4977C102.769 14.0824 103.524 13.1825 104.005 12.0058C104.349 11.1059 104.555 10.0676 104.555 9.09854C104.486 8.614 104.417 8.19869 104.349 7.71415ZM108.127 3.90707C108.814 3.97629 109.501 3.83784 110.188 3.97628C110.462 4.0455 110.806 4.11472 111.081 4.25316C111.63 4.46082 111.905 4.87614 112.18 5.4299C112.455 6.05287 112.455 6.74507 112.317 7.36805C112.18 8.12947 111.768 8.68323 111.012 8.9601C110.6 9.09854 110.188 9.16776 109.775 9.23698C109.226 9.3062 108.745 9.23698 108.195 9.23698C108.127 9.23698 108.058 9.23698 107.989 9.16776C107.989 8.47556 107.989 4.25316 108.127 3.90707ZM107.165 14.6361H107.989V9.58308C108.539 9.58308 109.02 9.58308 109.569 9.58308C109.638 9.58308 109.775 9.72152 109.844 9.79074C110.05 10.1368 110.256 10.4829 110.462 10.7598C110.943 11.5212 111.355 12.2134 111.836 12.9748C112.18 13.5286 112.592 14.0824 112.935 14.6361H113.897C112.798 12.9056 111.699 11.2443 110.6 9.58308C110.943 9.44464 111.287 9.37542 111.493 9.3062C111.974 9.09854 112.523 8.82166 112.798 8.26791C113.348 7.29883 113.348 6.32975 113.004 5.36068C112.867 5.01458 112.661 4.59926 112.317 4.3916C111.699 3.97628 111.012 3.69941 110.325 3.63019C109.295 3.56097 108.264 3.63019 107.165 3.63019V14.6361ZM173.8 3.97628C173.937 3.97628 174.006 3.90707 174.075 3.90707C174.83 3.90707 175.586 3.90706 176.273 4.0455C177.166 4.25316 177.99 5.01458 178.059 5.98366C178.128 6.60663 178.128 7.16039 177.921 7.78337C177.647 8.54478 177.028 8.9601 176.273 9.09854C175.517 9.23698 174.761 9.23698 174.075 9.23698C174.006 9.23698 173.868 9.16776 173.8 9.16776V3.97628ZM177.303 9.23698C177.784 9.02932 178.196 8.82166 178.471 8.40634C179.227 7.36805 179.158 6.26054 178.746 5.15302C178.608 4.80692 178.402 4.53004 178.128 4.32238C177.509 3.83784 176.685 3.56097 175.929 3.49175C174.968 3.42253 174.006 3.49175 173.044 3.49175C172.975 3.49175 172.975 3.49175 172.907 3.56097V14.6361H173.731V13.3902V12.075C173.731 11.6597 173.731 11.2444 173.731 10.829C173.731 10.4137 173.731 9.9984 173.731 9.51386C174.281 9.51386 174.693 9.51386 175.174 9.51386C175.311 9.51386 175.448 9.58308 175.517 9.72152C175.998 10.4137 176.41 11.1751 176.891 11.8673C177.028 12.1442 177.235 12.3519 177.372 12.5595C177.784 13.2517 178.196 13.9439 178.608 14.5669H179.57C178.471 12.8364 177.372 11.2444 176.273 9.51386C176.754 9.44464 177.028 9.37542 177.303 9.23698ZM129.766 29.103C131.002 29.103 132.17 29.103 133.407 29.103C134.094 29.103 134.781 29.103 135.399 29.103C135.742 29.103 135.742 29.0338 135.605 28.6185H130.728C130.728 26.888 130.728 25.2267 130.728 23.4962H134.575C134.575 23.2886 134.575 23.2194 134.506 23.0117H130.728C130.728 21.4889 130.728 19.966 130.728 18.4432H131.277C132.582 18.4432 133.888 18.4432 135.193 18.4432C135.536 18.4432 135.605 18.4432 135.468 18.0279C134.987 17.9587 129.56 17.9587 129.216 18.0279V29.0338H129.766V29.103ZM158.755 25.1575C158.618 24.7422 158.824 24.5345 158.893 24.2577C158.962 23.9116 159.168 23.5655 159.305 23.2194C159.511 22.5964 159.786 21.9734 159.992 21.3504C160.198 20.7967 160.404 20.2429 160.541 19.6892C160.61 19.5507 160.61 19.4123 160.816 19.4123C161.435 21.2812 162.121 23.1501 162.74 25.0191C162.74 25.0883 162.74 25.1575 162.74 25.2267C161.366 25.2267 160.061 25.1575 158.755 25.1575ZM156.626 29.103H157.175C157.656 27.9955 157.931 26.8188 158.412 25.7805C159.511 25.7805 160.61 25.7805 161.709 25.7805C162.053 25.7805 162.328 25.7805 162.671 25.7805C162.877 25.7805 162.946 25.8497 163.015 25.9881C163.221 26.5419 163.427 27.1649 163.633 27.7186C163.77 28.2032 163.976 28.6185 164.114 29.103H165.556C165.556 29.0338 165.556 28.9646 165.556 28.8954C165.419 28.3416 165.213 27.8571 165.007 27.3033C164.732 26.5419 164.457 25.7805 164.182 25.0191C163.976 24.3269 163.701 23.6347 163.495 22.9425C163.221 22.2503 162.946 21.4889 162.74 20.7967C162.465 19.966 162.19 19.1354 161.915 18.2355C161.847 18.0971 161.778 17.9587 161.572 18.0279C161.228 18.0279 160.885 18.0279 160.541 18.0279C159.236 21.6965 157.931 25.3652 156.626 29.103ZM202.034 25.1575C202.034 25.0191 202.034 24.8806 202.102 24.7422C202.308 24.1884 202.514 23.6347 202.721 23.0809C203.064 22.1811 203.339 21.2812 203.682 20.3814C203.751 20.1737 203.82 19.8968 203.888 19.6892C203.957 19.6199 204.026 19.4815 204.094 19.4123C204.301 19.8276 206.087 24.8806 206.018 25.2267C205.674 25.2267 202.583 25.2267 202.034 25.1575ZM203.064 20.3814C202.789 21.0735 202.583 21.7657 202.308 22.4579C201.965 23.427 201.553 24.3961 201.209 25.4344C200.866 26.3342 200.522 27.2341 200.248 28.134C200.179 28.4108 199.904 28.7569 199.973 29.103H200.522C200.934 27.9955 201.347 26.888 201.759 25.7805H202.102C203.339 25.7805 204.644 25.7805 205.881 25.7805C205.949 25.7805 206.087 25.7805 206.155 25.7805C206.224 25.8497 206.361 25.9189 206.43 25.9881C206.568 26.3342 206.705 26.6803 206.842 27.0264C207.048 27.7186 207.323 28.4108 207.529 29.103C207.804 29.103 208.01 29.103 208.285 29.103C208.491 29.103 208.766 29.103 209.041 29.103C207.735 25.3652 206.499 21.6965 205.262 18.0971C205.125 18.0971 205.056 18.0971 204.988 18.0971C204.713 18.0971 204.369 18.0971 204.026 18.0971C203.614 18.8585 203.339 19.6199 203.064 20.3814ZM202.171 32.4948H199.767C199.698 33.0486 199.698 43.2239 199.767 43.5699H202.171V32.4948ZM215.91 32.4948H213.506C213.437 33.0486 213.437 43.2239 213.506 43.5699H215.91V32.4948ZM116.714 32.4948V43.5699H119.187V32.4948C118.362 32.4948 117.538 32.4948 116.714 32.4948ZM84.9764 13.3902C84.0147 10.1368 83.3277 6.81429 82.4347 3.49175C82.2286 3.49175 82.0225 3.49175 81.8164 3.49175C81.7477 3.49175 81.679 3.49175 81.5416 3.49175C82.5034 7.22961 83.3964 10.8983 84.3581 14.5669H85.1825C86.0755 11.3136 86.8999 8.12947 87.7929 4.87614C87.8616 5.01458 87.999 5.0838 87.999 5.15302C88.0677 5.4299 88.1364 5.70678 88.2051 5.98366C88.3425 6.53741 88.4112 7.02195 88.5486 7.57571C88.7546 8.40635 89.0294 9.3062 89.2355 10.1368C89.3729 10.5522 89.4416 10.9675 89.5103 11.3136C89.6477 11.8673 89.8538 12.4903 89.9912 13.0441C90.1286 13.5286 90.266 14.0824 90.4034 14.6361C90.6781 14.6361 90.9529 14.6361 91.159 14.5669C91.2964 14.4977 91.2964 14.2208 91.3651 14.0824C91.3651 14.0824 91.3651 14.0824 91.3651 14.0131C91.5025 13.3902 91.7086 12.8364 91.846 12.2134C91.9834 11.6597 92.1207 11.1059 92.2581 10.5522C92.3955 9.92918 92.6016 9.3062 92.739 8.61401C92.8077 8.40635 92.8077 8.12947 92.8764 7.92181C93.0138 7.36805 93.2199 6.88351 93.3572 6.39897C93.5633 5.70678 93.7007 5.01458 93.8381 4.32238C93.9068 4.0455 93.9755 3.76863 94.0442 3.49175H93.4947C92.6016 6.81429 91.9146 10.1368 91.0216 13.4594C90.9529 13.4594 90.9529 13.4594 90.8842 13.4594C90.0599 10.1368 89.1668 6.81429 88.3425 3.49175H87.5868C86.6938 6.81429 85.9381 10.1368 84.9764 13.3902ZM191.386 19.7584C191.454 19.8968 191.523 19.966 191.592 20.1045C192.004 20.7275 192.348 21.4196 192.691 22.0426C193.103 22.7348 193.584 23.4962 193.996 24.1884C194.614 25.2267 195.301 26.1958 195.988 27.2341C196.332 27.7879 196.675 28.3416 197.019 28.8262C197.088 28.8954 197.225 29.0338 197.294 29.0338C197.568 29.0338 197.912 29.0338 198.187 29.0338C198.255 28.4108 198.255 18.3048 198.187 17.9587H197.637V18.5124C197.637 21.0735 197.637 23.7039 197.637 26.265C197.637 26.4727 197.637 26.6803 197.637 26.8188C197.637 26.888 197.568 26.9572 197.568 27.0264C197.294 26.5419 197.088 26.0574 196.813 25.642C196.401 24.8806 195.92 24.1884 195.439 23.427C195.027 22.7348 194.546 22.1118 194.134 21.4196C193.447 20.3121 192.76 19.2046 192.073 18.0971C192.004 18.0279 191.867 17.8894 191.798 17.8894C191.454 17.8894 191.042 17.8894 190.63 17.8894V28.9646H191.18V27.3725V25.8497V24.3269V22.804C191.18 22.3195 191.18 21.7657 191.18 21.2812C191.18 20.7967 191.111 20.2429 191.18 19.7584C191.386 19.7584 191.386 19.7584 191.386 19.7584ZM110.394 29.103H110.943C110.943 28.8954 110.943 28.7569 110.943 28.5493C110.943 27.0264 110.943 25.5728 110.943 24.05C110.943 22.804 110.943 21.5581 110.943 20.3121C110.943 20.1737 110.875 19.966 111.081 19.8276C111.355 20.3814 111.63 20.8659 111.905 21.2812C112.592 22.3887 113.279 23.427 113.966 24.5345C114.515 25.4344 115.065 26.3342 115.683 27.2341C116.027 27.7879 116.37 28.3416 116.782 28.8954C116.851 28.9646 116.989 29.103 117.057 29.103C117.332 29.103 117.675 29.103 117.95 29.103C117.95 28.8954 117.95 28.7569 117.95 28.6185C117.95 25.2267 117.95 21.835 117.95 18.4432C117.95 18.3048 117.95 18.1663 117.882 18.0279H117.263V19.5507V21.0735V22.5964V24.1192C117.263 24.6038 117.263 25.0883 117.263 25.642C117.263 26.1266 117.263 26.6111 117.263 27.1649C115.409 23.9808 113.485 21.0043 111.63 18.0279H110.325V29.103H110.394ZM148.108 19.8276C148.176 19.8968 148.245 20.0353 148.314 20.1045C148.588 20.6582 148.863 21.1428 149.207 21.6965C149.619 22.3887 150.1 23.0809 150.581 23.7731C150.993 24.3961 151.405 25.0883 151.748 25.7113C152.161 26.4035 152.642 27.0264 153.054 27.6494C153.328 28.0647 153.535 28.4108 153.809 28.8262C153.878 28.8954 154.015 29.0338 154.084 29.0338C154.359 29.0338 154.702 29.0338 154.977 29.0338V18.0279H154.428V18.5816C154.428 21.212 154.428 23.8423 154.428 26.4727C154.428 26.6111 154.428 26.7496 154.428 26.888C154.428 26.9572 154.359 27.0264 154.359 27.0957C154.084 26.6111 153.809 26.1266 153.535 25.7113C153.122 25.0191 152.642 24.2577 152.229 23.5655C151.817 22.8733 151.336 22.2503 150.924 21.5581C150.237 20.4506 149.55 19.3431 148.863 18.2355C148.795 18.0971 148.657 18.0279 148.52 17.9587C148.176 17.9587 147.764 17.9587 147.352 17.9587V29.0338H147.97V25.9189C147.97 24.8806 147.97 23.9116 147.97 22.8733C147.97 21.835 147.97 20.7967 147.97 19.7584C148.039 19.8276 148.039 19.8276 148.108 19.8276ZM196.057 33.187C196.675 33.187 197.225 33.187 197.843 33.187C198.118 33.187 198.187 33.0485 198.187 32.7717C198.187 32.4948 198.118 32.4948 197.774 32.4948C195.37 32.4948 192.966 32.4948 190.493 32.4948C190.424 32.4948 190.287 32.4948 190.218 32.4948V33.1178H190.699C191.317 33.1178 191.867 33.1178 192.485 33.1178C193.034 33.1178 193.035 33.1178 193.035 33.6715C193.035 33.81 193.035 33.8792 193.035 34.0176C193.035 36.9941 193.035 39.9705 193.035 42.947C193.035 43.0854 193.035 43.2931 193.035 43.5007H195.508V33.1178C195.782 33.187 195.92 33.187 196.057 33.187ZM209.247 43.0162C209.247 39.9013 209.247 36.8556 209.247 33.7408C209.247 33.5331 209.247 33.3947 209.247 33.187C209.796 33.187 210.208 33.187 210.689 33.187C210.964 33.187 211.308 33.187 211.582 33.187C211.788 33.187 211.857 33.1178 211.857 32.9101C211.857 32.564 211.788 32.4948 211.445 32.4948C209.041 32.4948 206.568 32.4948 204.163 32.4948C204.094 32.4948 203.957 32.4948 203.888 32.564V33.187C204.026 33.187 204.163 33.187 204.369 33.187C204.919 33.187 205.537 33.187 206.087 33.187C206.774 33.187 206.774 33.187 206.774 33.8792C206.774 36.9249 206.774 40.0397 206.774 43.0854C206.774 43.2239 206.774 43.4315 206.774 43.6392H209.247V43.0162ZM83.7399 20.9351C83.946 20.1737 84.2207 19.4815 84.9077 18.997C85.732 18.374 86.6251 18.1663 87.6555 18.4432C88.2738 18.6509 88.7547 18.9277 89.0981 19.4123C89.6477 20.1737 89.9225 21.0043 90.0599 21.9042C90.1973 22.804 90.1973 23.6347 90.1286 24.5345C90.0599 25.2959 89.9912 25.9881 89.6477 26.6803C89.3042 27.4418 88.8234 28.134 88.0677 28.4801C87.8616 28.5493 87.6555 28.6185 87.4494 28.6877C86.6938 28.7569 86.0068 28.8262 85.3199 28.4801C84.7703 28.134 84.2894 27.7186 84.0147 27.0957C83.4651 25.9881 83.3277 24.8114 83.3277 23.5655C83.3964 22.6656 83.4651 21.7657 83.7399 20.9351ZM82.0912 25.1575C82.2286 25.7113 82.366 26.265 82.6407 26.7496C83.1216 27.6494 83.8086 28.4108 84.839 28.8262C85.3199 29.0338 85.8007 29.1723 86.3503 29.2415C86.8999 29.3107 87.4494 29.2415 88.0677 29.103C89.2355 28.8261 90.1286 28.2724 90.8155 27.3033C91.4338 26.4035 91.7086 25.2959 91.846 24.1884C91.9834 22.9425 91.7773 21.7657 91.2964 20.589C90.8842 19.5507 90.1286 18.7893 89.1668 18.3048C88.4799 17.9587 87.7242 17.751 86.8999 17.8202C86.4877 17.8202 86.0068 17.8894 85.5947 18.0279C85.1825 18.1663 84.7703 18.2355 84.4268 18.4432C83.6712 18.8585 83.1216 19.4123 82.7094 20.1737C82.1599 21.212 81.9538 22.3887 81.8851 23.8423C81.9538 24.1192 81.9538 24.673 82.0912 25.1575ZM180.12 21.5581C180.257 20.7967 180.532 20.0353 181.013 19.4123C181.356 18.9277 181.837 18.5816 182.455 18.4432C182.73 18.374 183.005 18.3048 183.28 18.3048C184.654 18.2355 185.821 19.1354 186.234 20.4506C186.715 21.7657 186.852 23.1501 186.714 24.5345C186.646 25.5036 186.44 26.4727 185.959 27.3725C185.547 28.0647 184.928 28.6185 184.104 28.7569C183.486 28.8261 182.868 28.8954 182.318 28.6877C181.7 28.4801 181.219 28.134 180.875 27.511C180.532 26.9572 180.257 26.3342 180.12 25.7113C179.982 25.0883 179.982 24.4653 179.914 23.8423C179.914 23.7731 179.914 23.6347 179.914 23.5655C179.914 23.5655 179.914 23.5655 179.845 23.5655C179.982 22.8733 180.051 22.2503 180.12 21.5581ZM179.021 26.4035C179.295 27.1649 179.776 27.7879 180.395 28.2724C181.219 28.9646 182.181 29.2415 183.211 29.2415C183.692 29.2415 184.173 29.2415 184.654 29.103C185.135 28.9646 185.615 28.8262 185.959 28.6185C186.714 28.134 187.264 27.4418 187.676 26.6803C188.02 25.9189 188.157 25.0883 188.295 24.3269C188.432 23.4962 188.294 22.6656 188.157 21.835C188.088 21.4196 187.882 21.0043 187.745 20.6582C187.539 20.1737 187.264 19.7584 186.852 19.3431C186.44 18.9277 186.028 18.5124 185.478 18.3048C185.135 18.2355 184.86 18.1663 184.516 18.0279C183.623 17.751 182.73 17.8894 181.906 18.0971C181.631 18.1663 181.288 18.2355 181.081 18.4432C180.257 18.997 179.57 19.6199 179.158 20.5198C178.746 21.4889 178.54 22.5272 178.471 23.5655C178.402 24.5345 178.677 25.5036 179.021 26.4035ZM248.128 33.2562C247.373 32.7024 246.48 32.2871 245.518 32.3564C245.174 32.3564 244.762 32.4256 244.419 32.4948C243.388 32.7025 242.564 33.1178 242.152 34.0869C242.083 34.2253 242.014 34.4329 241.946 34.6406C241.671 35.2636 241.877 35.8866 242.083 36.5095C242.358 37.2017 242.839 37.6863 243.457 38.0324C244.075 38.4477 244.762 38.7938 245.449 39.1399C246.067 39.486 246.686 39.9013 246.961 40.6627C247.235 41.3549 247.029 42.2548 246.342 42.6701C245.724 43.0854 244.968 43.2238 244.281 43.0162C243.457 42.8085 242.633 42.6009 241.946 41.9779C241.74 41.7702 241.671 41.8395 241.465 42.1163C242.427 43.1546 243.594 43.6392 244.968 43.7084C245.381 43.7084 245.793 43.6392 246.205 43.5699C247.579 43.3623 248.747 42.324 248.953 40.8012C249.159 39.5552 248.678 38.5169 247.785 37.6863C247.373 37.271 246.823 37.0633 246.342 36.7864C245.655 36.4403 244.968 36.0942 244.35 35.6097C243.938 35.1944 243.732 34.7098 243.869 34.1561C244.007 33.6023 244.35 33.2562 244.9 33.1178C245.999 32.8409 247.029 33.0486 247.991 33.7408C248.197 33.8792 248.197 33.8792 248.403 33.6023C248.334 33.4639 248.266 33.3254 248.128 33.2562ZM107.646 42.5317C108.539 43.3623 109.707 43.7776 110.943 43.7776C111.355 43.7776 111.699 43.6392 112.111 43.6392C112.661 43.5699 113.073 43.3623 113.485 43.0854C113.829 42.8778 114.172 42.5317 114.378 42.1856C114.859 41.3549 114.996 40.5243 114.79 39.5552C114.515 38.5861 113.966 37.8939 113.21 37.4094C112.661 36.9941 111.974 36.7864 111.355 36.4403C110.943 36.2327 110.531 36.025 110.256 35.6789C109.295 34.7098 109.844 33.5331 110.737 33.2562C111.836 32.9101 112.935 33.0485 113.897 33.81C114.172 34.0176 114.172 34.0176 114.378 33.6715C113.829 33.1178 113.21 32.7025 112.386 32.4948C111.287 32.2179 110.188 32.4256 109.226 32.9101C108.402 33.3254 107.989 34.0176 107.852 34.9175C107.715 35.8866 107.989 36.7172 108.676 37.4786C109.226 38.1016 109.982 38.4477 110.669 38.863C111.287 39.2091 111.905 39.486 112.386 39.9705C112.935 40.5243 113.073 41.1473 112.935 41.8395C112.867 42.1163 112.798 42.3932 112.523 42.6009C111.836 43.1546 111.081 43.3623 110.256 43.1546C109.432 43.0162 108.608 42.7393 107.852 42.1163C107.646 41.9779 107.646 41.9779 107.371 42.2548C107.44 42.324 107.577 42.4624 107.646 42.5317ZM142.887 42.324C142.2 42.7393 141.444 42.947 140.688 42.947C139.452 42.8777 138.559 42.3932 137.941 41.3549C137.46 40.5935 137.254 39.7629 137.185 38.9322C137.116 38.1016 137.116 37.2017 137.322 36.3711C137.528 35.6789 137.735 35.0559 138.147 34.433C139.04 33.187 140.895 32.7717 142.268 33.4639C142.475 33.6023 142.681 33.6715 142.887 33.81C142.955 33.81 143.093 33.81 143.162 33.81C143.23 33.7407 143.23 33.6023 143.162 33.5331C143.093 33.3947 142.955 33.2562 142.818 33.187C141.925 32.564 140.963 32.2871 139.933 32.2871C139.589 32.2871 139.177 32.3564 138.834 32.4256C137.872 32.564 137.048 32.9793 136.361 33.5331C135.124 34.6406 134.643 36.0942 134.506 37.6863C134.437 38.7938 134.712 39.9013 135.193 40.9396C135.605 41.9087 136.361 42.5317 137.185 43.0854C137.941 43.57 138.834 43.6392 139.727 43.7776C140.208 43.8468 140.688 43.7084 141.238 43.6392C142.062 43.5007 142.749 43.0854 143.436 42.4624C143.162 42.2548 143.093 42.1856 142.887 42.324ZM129.422 42.3932C128.461 42.947 127.43 43.1546 126.331 42.8085C125.507 42.6009 124.957 42.0471 124.545 41.4241C123.995 40.6627 123.858 39.7629 123.789 38.863C123.652 37.6863 123.721 36.5095 124.202 35.3328C124.545 34.5714 125.026 33.9484 125.782 33.5331C125.988 33.3947 126.194 33.3254 126.4 33.2562C127.018 33.0485 127.568 33.1178 128.186 33.2562C128.598 33.3254 129.01 33.5331 129.354 33.81C129.56 33.9484 129.628 33.9484 129.766 33.6023C128.942 32.7717 127.98 32.4256 126.881 32.3564C126.125 32.2871 125.369 32.4256 124.614 32.7025C123.515 33.0486 122.69 33.6715 122.003 34.6406C121.316 35.6789 121.11 36.7864 121.042 37.8939C121.042 38.3785 121.11 38.863 121.179 39.4168C121.385 40.7319 121.935 41.8395 122.965 42.6701C123.927 43.5007 125.026 43.7084 126.262 43.8468C126.675 43.8468 127.155 43.7776 127.568 43.7084C128.461 43.5699 129.216 43.1546 129.903 42.5317C129.697 42.2548 129.697 42.2548 129.422 42.3932ZM139.383 18.5124C140.139 18.5124 140.963 18.374 141.719 18.7201C142.268 18.9277 142.749 19.2738 142.955 19.8968C143.162 20.4506 143.162 21.0735 143.162 21.6965C143.093 22.5964 142.406 23.3578 141.513 23.4962C141.307 23.5655 141.101 23.5655 140.895 23.5655C140.414 23.5655 139.933 23.5655 139.383 23.5655C139.246 23.0117 139.246 18.8585 139.383 18.5124ZM137.872 29.103C138.078 29.103 138.353 29.103 138.559 29.103C138.765 29.103 139.04 29.103 139.315 29.103V28.5493C139.315 27.2341 139.315 25.9881 139.315 24.673C139.315 24.4653 139.315 24.3269 139.315 24.05C139.589 24.05 139.864 24.05 140.139 24.05C140.414 24.05 140.551 24.1192 140.688 24.3269C141.032 24.9499 141.444 25.5036 141.788 26.1266C142.406 27.0957 143.024 28.134 143.642 29.103C144.192 29.103 144.742 29.103 145.291 29.103C145.016 28.6877 144.81 28.3416 144.604 27.9955C143.78 26.7496 142.955 25.5728 142.131 24.3269C142.062 24.2577 142.062 24.1192 141.994 23.9808C142.268 23.9116 142.543 23.8423 142.749 23.7039C143.093 23.5655 143.436 23.427 143.711 23.1501C144.398 22.5964 144.673 21.7657 144.604 20.8659C144.604 19.5507 143.642 18.4432 142.406 18.2355C141.719 18.0971 141.032 17.9587 140.345 17.9587C139.933 17.9587 139.452 17.9587 139.04 17.9587H137.735C137.735 18.7893 137.735 28.7569 137.872 29.103ZM181.837 43.5699H188.775V42.8778H184.379V38.1708H188.02C188.02 37.8939 188.02 37.6863 187.951 37.4786H184.379C184.31 36.9249 184.31 33.5331 184.379 33.1178H188.638V32.4948H181.837V43.5699ZM104.829 32.9793C104.829 35.1944 104.829 37.4094 104.829 39.5552C104.829 39.9705 104.829 40.4551 104.623 40.8704C104.28 41.8394 103.662 42.5316 102.494 42.6009C102.013 42.6009 101.532 42.6009 101.12 42.4624C100.295 42.1856 99.8146 41.5626 99.6772 40.6627C99.6086 40.3166 99.6086 39.9013 99.6086 39.5552C99.6086 37.4094 99.6086 35.1944 99.6086 33.0486C99.6086 32.9101 99.6086 32.7024 99.6086 32.564H97.1355V33.0486C97.1355 35.1251 97.1355 37.271 97.1355 39.3475C97.1355 39.8321 97.2042 40.3166 97.2729 40.8704C97.479 41.9779 98.0972 42.8085 99.059 43.2931C99.6772 43.6392 100.364 43.7084 101.051 43.7776C101.669 43.8468 102.288 43.7084 102.906 43.5699C103.662 43.4315 104.349 43.0162 104.829 42.3932C105.379 41.701 105.654 40.8704 105.654 39.9013C105.654 37.5478 105.654 35.1944 105.654 32.8409C105.654 32.7025 105.654 32.564 105.585 32.4256C105.448 32.4256 105.31 32.4256 105.173 32.4256C105.104 32.4256 104.967 32.4256 104.829 32.4256V32.9793ZM174.418 33.187C174.83 33.1178 175.242 33.1178 175.655 33.187C176.135 33.2562 176.548 33.4639 176.891 33.81C177.235 34.1561 177.372 34.5022 177.509 34.9175C177.647 35.5405 177.647 36.2327 177.509 36.8556C177.303 37.6171 176.891 38.1708 176.067 38.4477C175.517 38.5861 175.036 38.5861 174.487 38.5861V33.187H174.418ZM174.418 43.5007V39.2091C174.624 39.2091 174.83 39.2091 175.036 39.2091C175.929 39.2091 176.891 39.2091 177.784 38.9322C178.334 38.7938 178.883 38.5861 179.295 38.1708C180.188 37.3402 180.463 36.3019 180.188 35.1251C179.982 34.0869 179.295 33.5331 178.402 33.1178C177.578 32.7717 176.754 32.564 175.861 32.564C174.624 32.4948 173.319 32.564 172.014 32.564C172.014 32.564 171.945 32.564 171.945 32.6332V43.6392C172.632 43.6392 174.075 43.6392 174.418 43.5007ZM231.161 32.564V43.6392H231.916C231.916 43.4315 231.916 43.2238 231.916 43.0162C231.916 40.6627 231.916 38.3785 231.916 36.025C231.916 35.8173 231.916 35.6097 231.916 35.402C232.122 35.4712 232.191 35.6097 232.26 35.7481C233.015 36.8556 233.771 37.9632 234.527 39.0707C235.214 40.109 235.901 41.078 236.656 42.0471C236.931 42.4624 237.274 42.947 237.618 43.3623C237.687 43.5007 237.824 43.5699 237.961 43.5699C238.58 43.5699 239.129 43.5699 239.747 43.5699C239.816 42.8778 239.816 32.7717 239.679 32.4256C239.473 32.4256 239.267 32.4256 238.992 32.4948V33.9484V35.3328V36.7172V38.1016C238.992 38.5861 238.992 39.0014 238.992 39.486C238.992 39.9013 239.061 40.3858 238.923 40.9396C237 38.1016 235.076 35.3328 233.221 32.564H231.161ZM152.161 40.4551C152.023 41.1473 151.748 41.7702 151.336 42.2548C150.993 42.6701 150.581 42.8777 150.1 43.0162C149.001 43.2238 147.764 42.947 147.146 41.7702C146.871 41.2165 146.734 40.6627 146.596 40.109C146.39 39.0707 146.39 37.9632 146.459 36.9249C146.528 35.9558 146.734 34.9867 147.215 34.1561C147.627 33.4639 148.176 33.1178 149.001 32.9793C149.482 32.9101 150.031 32.9101 150.443 33.1178C150.649 33.187 150.787 33.3254 150.993 33.4639C151.542 33.8792 151.748 34.4329 151.955 35.0559C152.298 36.025 152.367 37.0633 152.367 38.0324C152.367 38.9322 152.298 39.6936 152.161 40.4551ZM154.771 36.0942C154.428 35.1251 153.947 34.2253 153.122 33.6023C152.161 32.7717 150.924 32.4256 149.688 32.3564C148.726 32.2871 147.833 32.4948 146.94 32.9101C146.253 33.187 145.566 33.6715 145.085 34.2945C144.261 35.3328 143.917 36.5095 143.848 37.8247C143.78 38.6553 143.917 39.4168 144.192 40.1782C144.398 40.7319 144.673 41.2857 145.016 41.7702C145.428 42.3932 146.047 42.8085 146.665 43.1546C147.489 43.6392 148.314 43.7776 149.207 43.7776C149.688 43.7776 150.168 43.7084 150.718 43.6392C152.573 43.3623 153.878 42.324 154.634 40.5935C154.977 39.7629 155.046 38.9322 155.115 37.9632C154.977 37.4094 154.977 36.7172 154.771 36.0942ZM220.787 35.8866C220.925 35.1251 221.2 34.3637 221.749 33.7408C222.093 33.3254 222.574 33.1178 223.192 33.0486C223.673 32.9793 224.222 33.0486 224.634 33.187C224.841 33.2562 224.978 33.3947 225.115 33.5331C225.665 33.9484 225.94 34.5022 226.146 35.1251C226.627 36.5788 226.558 38.0324 226.489 39.5552C226.421 40.3166 226.214 41.078 225.871 41.7702C225.459 42.6009 224.703 43.0854 223.81 43.1546C223.123 43.2238 222.505 43.0162 221.955 42.6009C221.543 42.324 221.337 41.9087 221.2 41.4934C220.719 40.4551 220.787 39.3475 220.719 38.1708C220.65 37.4094 220.65 36.5788 220.787 35.8866ZM218.246 40.109C218.452 40.6627 218.658 41.2165 219.001 41.6318C220.032 43.0854 221.474 43.6392 223.192 43.7776C224.222 43.8468 225.184 43.7084 226.077 43.2239C226.627 42.947 227.107 42.6701 227.52 42.2548C228.55 41.2857 228.962 40.0397 229.1 38.6553C229.237 37.4094 228.962 36.2327 228.481 35.1251C228.001 34.1561 227.314 33.4639 226.352 32.9793C225.802 32.7025 225.184 32.4948 224.566 32.3564C223.673 32.1487 222.78 32.2179 221.887 32.4948C221.062 32.7025 220.307 33.1178 219.62 33.7408C219.001 34.2945 218.589 35.0559 218.314 35.7481C218.04 36.4403 217.971 37.2017 217.971 38.0324C217.971 38.7938 218.04 39.4168 218.246 40.109ZM169.06 40.5243C168.991 39.4168 168.922 38.3785 168.854 37.271C168.785 36.025 168.648 34.7098 168.579 33.4639C168.579 33.2562 168.579 33.0485 168.579 32.9101C168.51 32.564 168.51 32.564 168.167 32.564C167.48 32.564 166.793 32.564 166.037 32.564C165.968 32.564 165.9 32.564 165.762 32.6332C165.488 33.7407 165.213 34.779 164.869 35.8866C164.595 36.9941 164.32 38.1016 163.976 39.1399C163.633 40.1782 163.495 41.2857 163.083 42.3932C163.015 42.1163 162.877 41.9087 162.808 41.701C162.602 41.0088 162.465 40.3858 162.259 39.6936C161.915 38.5861 161.641 37.5478 161.297 36.4403C161.16 35.9558 161.022 35.4712 160.885 34.9867C160.679 34.2945 160.473 33.6023 160.267 32.9101C160.198 32.564 160.129 32.564 159.855 32.564C159.168 32.564 158.481 32.564 157.725 32.564C157.656 32.564 157.588 32.564 157.519 32.564C157.45 33.1178 157.382 33.6715 157.382 34.2253C157.313 35.402 157.244 36.5788 157.175 37.8247C157.107 38.7246 157.038 39.6244 156.969 40.5243C156.969 41.0088 156.901 41.4241 156.832 41.9087C156.763 42.4624 156.763 43.0854 156.763 43.6392H157.382C157.588 40.5935 157.794 37.5478 158.137 34.5022C158.206 34.5714 158.206 34.6406 158.275 34.7098C158.343 34.9867 158.412 35.2636 158.481 35.5405C158.618 36.025 158.755 36.5095 158.893 36.9941C159.03 37.4786 159.099 37.8939 159.236 38.3785C159.442 39.0014 159.648 39.6936 159.855 40.3166C160.129 41.3549 160.404 42.324 160.679 43.3623C160.748 43.6392 160.816 43.7084 161.16 43.7084C161.778 43.7084 162.396 43.7084 163.015 43.7084C163.083 43.7084 163.221 43.7084 163.289 43.7084C164.114 40.8012 164.869 37.8939 165.694 34.9867C165.9 35.3328 165.9 35.3328 165.968 35.6789C166.037 37.0633 166.175 38.3785 166.243 39.7629C166.312 40.8704 166.449 41.9779 166.518 43.0854C166.518 43.3623 166.518 43.57 166.724 43.7776H169.128C169.266 42.5317 169.197 41.5626 169.06 40.5243ZM94.8686 43.5699C94.8686 43.4315 94.8686 43.3623 94.8686 43.3623C94.7999 42.324 94.6625 41.2165 94.5938 40.1782C94.5251 39.0014 94.3877 37.7555 94.319 36.5788C94.2503 35.5405 94.1816 34.433 94.1129 33.3947C94.1129 33.2562 94.1129 33.1178 94.1129 32.9793C94.0442 32.6332 94.0442 32.6332 93.7007 32.6332C93.0138 32.6332 92.3268 32.6332 91.5712 32.6332C91.5025 32.6332 91.3651 32.7025 91.2964 32.7025C90.8842 34.3637 90.472 35.9558 89.9912 37.5478C89.5103 39.1399 89.2355 40.8012 88.6173 42.324C88.4799 41.9779 88.4112 41.6318 88.2738 41.2857C88.1364 40.8012 87.999 40.3166 87.8616 39.8321C87.7242 39.4168 87.6555 39.0014 87.5181 38.5861C87.312 37.8939 87.106 37.1325 86.8312 36.4403C86.6938 35.9558 86.5564 35.4712 86.4877 35.0559C86.2816 34.3637 86.0755 33.7408 85.9381 33.0486C85.8007 32.6332 85.8007 32.6332 85.3886 32.6332C84.7016 32.6332 84.0147 32.6332 83.3964 32.6332C83.3277 32.6332 83.1903 32.6332 83.1216 32.6332C83.0529 33.2562 82.9842 33.81 82.9155 34.3637C82.8468 35.2636 82.7781 36.1634 82.7094 37.0633C82.6407 37.9631 82.5721 38.863 82.5034 39.7629C82.4347 40.8704 82.4347 42.0471 82.366 43.1546C82.366 43.2931 82.366 43.5007 82.366 43.7084C82.5721 43.7084 82.7781 43.7084 82.9155 43.7084C82.9842 42.8777 83.0529 42.1163 83.1216 41.3549C83.1216 41.0088 83.1216 40.6627 83.1903 40.3166C83.259 39.2783 83.3964 38.24 83.4651 37.2017C83.5338 36.4403 83.6025 35.6097 83.6712 34.8483C83.6712 34.779 83.7399 34.7098 83.7399 34.5714C83.946 34.9867 84.0147 35.402 84.1521 35.8173C84.2207 36.0942 84.2894 36.3711 84.4268 36.648C84.5642 37.1325 84.7703 37.6171 84.9077 38.1708C85.1138 38.863 85.3199 39.5552 85.526 40.2474C85.6634 40.7319 85.8007 41.1473 85.9381 41.6318C86.0755 42.2548 86.2816 42.8778 86.419 43.4315C86.4877 43.6392 86.6251 43.7776 86.8312 43.7776C87.4494 43.7776 88.0677 43.7776 88.686 43.7776C88.8233 43.7776 88.892 43.7776 89.0294 43.7776C89.8538 40.8704 90.6781 37.9632 91.4338 35.0559C91.5712 35.2636 91.6399 35.402 91.6399 35.6097C91.7086 36.5788 91.7773 37.5478 91.846 38.4477C91.846 38.7246 91.8459 38.9322 91.9146 39.2091C91.9833 40.5243 92.1207 41.7702 92.2581 43.0854C92.2581 43.2931 92.3268 43.57 92.3955 43.7776C93.2886 43.6392 94.0442 43.6392 94.8686 43.5699ZM26.9287 48C39.6373 37.4786 51.5217 26.1266 62.4443 13.7363C62.4443 13.7363 62.4443 13.5978 62.513 13.5978C49.8043 23.5655 38.126 34.7098 27.6156 47.0309C27.3408 47.3078 27.1347 47.6539 26.86 47.9308C26.86 47.9308 26.9287 47.9308 26.9287 48ZM49.3234 6.74507C36.4086 16.9204 24.593 28.3416 13.9452 40.9396C13.8765 41.0088 13.8765 41.078 13.8078 41.1473C26.6539 30.6259 38.6069 19.2738 49.5295 6.74507C49.3921 6.74507 49.3234 6.67585 49.3234 6.74507ZM35.7217 0.0307643C35.5843 0.169204 35.4469 0.307642 35.3782 0.446081C26.5852 10.4829 17.0365 19.8276 7.00695 28.6877C4.74 30.6951 2.40434 32.6332 0.0686945 34.5714L0 34.5022C0 34.4329 0.0686945 34.3637 0.0686945 34.3637C0.75565 33.6023 1.37391 32.8409 2.06087 32.0795C2.40434 31.6642 2.74782 31.2488 3.0913 30.8335C3.43478 30.4874 3.70956 30.0721 4.05304 29.726C4.87739 28.8262 5.70174 27.9263 6.52608 26.9572C7.28173 26.1266 8.03738 25.2959 8.79303 24.5345C9.82346 23.4962 10.7852 22.4579 11.8156 21.3504C12.2965 20.8659 12.7774 20.4506 13.1895 19.966C13.4643 19.6892 13.8078 19.3431 14.0826 19.0662C14.8382 18.3048 15.5939 17.6126 16.3495 16.8511C17.1052 16.1589 17.7922 15.3975 18.5478 14.7053C19.5095 13.8055 20.54 12.9056 21.5017 12.0058C22.2574 11.3136 23.013 10.5522 23.7687 9.85996C24.5243 9.23698 25.2113 8.61401 25.9669 7.92181C26.9287 7.09117 27.8904 6.26053 28.9208 5.36068C29.4017 4.94536 29.8826 4.59926 30.2947 4.25316C30.7756 3.83785 31.3252 3.35331 31.806 2.93799C32.5617 2.31501 33.3173 1.62282 34.1417 0.999841C34.5539 0.653742 34.966 0.376863 35.3782 0.0307643C35.5156 0.0307643 35.5843 0.0307643 35.7217 0.0307643Z" fill="white"/>
</svg>
