<svg xmlns="http://www.w3.org/2000/svg" width="250" height="48" viewBox="0 0 250 48" fill="none">
  <path d="M199.465 3.6994C199.465 7.22961 199.465 10.829 199.465 14.3592C199.465 14.4285 199.465 14.4977 199.465 14.5669H200.224V3.49175H199.465C199.534 3.63019 199.465 3.63018 199.465 3.6994ZM194.086 14.0824C194.086 10.8983 194.086 7.71415 194.086 4.53004C194.086 4.3916 194.086 4.32238 194.086 4.18395C194.086 3.97629 194.155 3.90707 194.361 3.90707C194.499 3.90707 194.568 3.90707 194.706 3.90707C195.396 3.90707 196.155 3.90707 196.844 3.90707C197.12 3.90707 197.12 3.90707 197.12 3.56097H190.016C190.016 3.90707 190.016 3.90707 190.292 3.90707C191.051 3.90707 191.741 3.90707 192.499 3.90707C193.12 3.90707 193.189 3.90707 193.189 4.59926C193.189 7.78337 193.189 10.9675 193.189 14.1516C193.189 14.29 193.189 14.4977 193.189 14.6361H194.017V14.0824H194.086ZM116.562 14.6361C116.631 14.6361 116.7 14.6361 116.769 14.6361C118.493 14.6361 120.217 14.6361 121.941 14.6361C122.01 14.6361 122.01 14.6361 122.079 14.6361C122.217 14.6361 122.355 14.5669 122.286 14.4285C122.286 14.3592 122.148 14.29 122.079 14.2208C121.941 14.2208 121.804 14.2208 121.666 14.2208C120.424 14.2208 119.183 14.2208 117.941 14.2208C117.734 14.2208 117.596 14.2208 117.32 14.1516V3.56097H116.493C116.493 4.11472 116.493 14.29 116.562 14.6361ZM138.702 14.6361H139.46C139.46 13.7363 139.46 12.9056 139.46 12.075C139.46 11.2444 139.391 10.3445 139.46 9.51386H140.012C140.909 9.51386 141.805 9.51386 142.702 9.51386C142.84 9.51386 142.909 9.51386 143.047 9.51386C143.254 9.51386 143.323 9.37542 143.185 9.16776C143.047 9.16776 142.909 9.16776 142.702 9.16776C141.736 9.16776 140.771 9.16776 139.805 9.16776C139.667 9.16776 139.529 9.16776 139.391 9.16776C139.322 8.33712 139.322 4.3916 139.46 3.97628C139.598 3.97628 139.736 3.97628 139.943 3.97628C141.253 3.97628 142.633 3.97628 143.943 3.97628C144.081 3.97628 144.15 3.97628 144.288 3.97628C144.495 3.97628 144.564 3.83784 144.426 3.63019C142.495 3.63019 140.495 3.63019 138.564 3.63019C138.633 4.0455 138.633 14.29 138.702 14.6361ZM147.599 9.09854H148.082C149.047 9.09854 150.082 9.09854 151.047 9.09854C151.185 9.09854 151.254 9.09854 151.392 9.09854C151.461 9.09854 151.53 8.9601 151.53 8.9601C151.53 8.89088 151.461 8.82166 151.392 8.82166C151.254 8.82166 151.116 8.75244 150.978 8.75244C150.013 8.75244 148.978 8.75244 148.013 8.75244C147.53 8.75244 147.53 8.75245 147.53 8.26791C147.53 7.02195 147.53 5.70678 147.53 4.46083C147.53 3.97629 147.53 3.97628 148.013 3.97628C149.392 3.97628 150.772 3.97628 152.082 3.97628C152.22 3.97628 152.358 3.97628 152.496 3.97628C152.703 3.97628 152.703 3.83784 152.634 3.6994C152.289 3.63018 147.185 3.56097 146.702 3.6994C146.633 4.25316 146.633 14.4285 146.702 14.7746H152.634C152.703 14.5669 152.703 14.4285 152.427 14.4285C152.289 14.4285 152.151 14.4285 152.013 14.4285C150.703 14.4285 149.323 14.4285 148.013 14.4285C147.806 14.4285 147.668 14.3592 147.461 14.3592V9.09854H147.599ZM166.566 9.09854C167.532 9.09854 168.566 9.09854 169.532 9.09854C169.67 9.09854 169.739 9.09854 169.877 9.09854C169.946 9.09854 170.015 9.02932 170.015 8.9601C170.015 8.89088 169.946 8.82166 169.877 8.75244C169.739 8.75244 169.601 8.75244 169.463 8.75244C168.428 8.75244 167.463 8.75244 166.497 8.75244C166.014 8.75244 166.014 8.75245 166.014 8.26791C166.014 6.95273 166.014 5.70678 166.014 4.3916C166.014 4.32238 166.014 4.25317 166.014 4.18395C166.014 4.04551 166.083 3.90707 166.29 3.90707C166.428 3.90707 166.497 3.90707 166.635 3.90707C167.945 3.90707 169.256 3.90707 170.635 3.90707C170.773 3.90707 170.842 3.90707 170.98 3.90707C171.256 3.90707 171.256 3.76863 171.187 3.56097H165.256V14.6361H171.256C171.325 14.4285 171.325 14.29 171.118 14.29C170.98 14.29 170.842 14.29 170.704 14.29C169.325 14.29 168.014 14.29 166.635 14.29C166.428 14.29 166.29 14.2208 166.083 14.2208V9.09854C166.29 9.09854 166.428 9.09854 166.566 9.09854ZM108.078 28.6877C108.078 25.2959 108.078 21.9042 108.078 18.5124C108.078 18.374 108.078 18.2355 108.009 18.0971C107.457 18.0279 106.906 18.0279 106.63 18.0971V29.103H108.009C108.009 28.8954 108.078 28.8262 108.078 28.6877ZM176.705 18.0971H175.325V29.103H176.705C176.843 27.7879 176.774 18.374 176.705 18.0971ZM187.947 10.6906C187.602 10.829 184.292 10.829 183.671 10.7598C183.878 10.0676 184.154 9.44464 184.361 8.82166C184.568 8.19868 184.843 7.57571 185.05 6.88351C185.257 6.19132 185.464 5.56834 185.74 4.94536C185.809 4.94536 185.809 4.94536 185.878 4.94536C186.568 6.81429 187.257 8.75245 187.947 10.6906ZM186.223 3.56097H185.809C185.119 5.4299 184.43 7.22961 183.809 9.09854C183.119 10.9675 182.498 12.7672 181.809 14.6361C182.292 14.7053 182.291 14.7053 182.429 14.3592C182.774 13.3209 183.119 12.3519 183.533 11.3136C183.74 11.3136 183.878 11.3136 184.016 11.3136C185.257 11.3136 186.499 11.3136 187.74 11.3136C187.809 11.3136 187.878 11.3136 187.947 11.3136C188.154 11.3136 188.292 11.3828 188.361 11.5905C188.637 12.4903 188.982 13.4594 189.327 14.3592C189.396 14.4977 189.533 14.6361 189.602 14.7053C189.809 14.7746 190.016 14.7053 190.292 14.7053C188.913 10.8983 187.602 7.22961 186.223 3.56097ZM166.014 18.0971C166.014 18.2355 166.014 18.374 166.083 18.5124H169.118V20.3121V22.1118V23.8423V25.642C169.118 26.265 169.118 26.8188 169.118 27.4418C169.118 27.9955 169.118 28.6185 169.118 29.1723H170.497C170.497 28.9646 170.497 28.7569 170.497 28.5493C170.497 25.4344 170.497 22.3195 170.497 19.2046C170.497 18.997 170.497 18.7893 170.566 18.5816H173.463V18.1663H166.014V18.0971ZM213.053 18.0971H211.604C211.535 18.7893 211.535 28.8261 211.604 29.103H217.743V28.6877H212.984V18.0971H213.053ZM123.597 29.103H125.045V18.5124H127.942C127.942 18.374 127.942 18.3048 127.942 18.2355C127.942 18.1663 127.873 18.1663 127.873 18.0971H120.562V18.5124H123.597V29.103ZM95.9393 29.103C95.9393 27.4418 95.9393 25.7805 95.9393 24.1192H99.4568V23.6347H96.0082C95.9392 23.0809 95.9392 18.9277 96.0082 18.5816C96.7669 18.5816 97.5946 18.5816 98.3533 18.5816C99.1809 18.5816 99.9396 18.5816 100.767 18.5816C100.767 18.374 100.767 18.3048 100.767 18.1663H94.4909V29.1723C94.9737 29.103 95.4565 29.1722 95.9393 29.103ZM125.252 13.667V4.46083C125.252 4.39161 125.252 4.32238 125.252 4.25316C125.252 3.90707 125.321 3.90707 125.597 3.83785C126.287 3.76863 126.976 3.83784 127.666 3.97628C129.046 4.32238 130.011 5.0838 130.632 6.39897C131.115 7.57571 131.253 8.75245 131.115 9.9984C131.046 10.829 130.839 11.6597 130.287 12.3519C129.735 13.1133 129.046 13.667 128.149 13.8747C127.39 14.0824 126.563 14.1516 125.735 14.1516C125.597 14.1516 125.459 14.0824 125.252 14.0824V13.667ZM124.493 14.6361C125.045 14.6361 125.597 14.6361 126.149 14.6361C127.183 14.6361 128.149 14.4977 129.046 14.0824C129.942 13.7363 130.632 13.1825 131.184 12.3519C131.804 11.3828 132.08 10.2753 132.08 9.16776C132.08 8.33712 131.942 7.43727 131.597 6.60663C131.253 5.776 130.77 5.15302 130.149 4.59926C129.321 3.90707 128.287 3.63019 127.252 3.49175C126.356 3.42253 125.39 3.49175 124.424 3.49175C124.355 4.18395 124.424 14.29 124.493 14.6361ZM155.806 4.53004C155.806 4.3916 155.806 4.32238 155.806 4.18395C155.806 3.97629 155.875 3.90707 156.082 3.90707C156.979 3.90707 157.807 3.90707 158.703 4.18395C159.255 4.32238 159.738 4.59926 160.221 5.01458C160.772 5.49912 161.117 6.12209 161.393 6.81429C161.876 7.9218 161.807 9.02932 161.738 10.1368C161.669 10.8983 161.393 11.6597 160.979 12.4211C160.497 13.1133 159.876 13.667 159.117 13.9439C158.496 14.1516 157.876 14.2208 157.255 14.29C156.979 14.29 156.634 14.29 156.358 14.29C155.944 14.29 155.875 14.2208 155.875 13.8055C155.875 12.698 155.875 11.5904 155.875 10.5522C155.875 10.0676 155.875 9.58308 155.875 9.16776C155.806 7.57571 155.806 6.05288 155.806 4.53004ZM158.22 14.4977C159.186 14.29 160.152 13.9439 160.91 13.3209C161.807 12.5595 162.29 11.5905 162.497 10.4829C162.704 9.23698 162.704 7.92181 162.221 6.67585C161.876 5.776 161.255 5.01458 160.497 4.46083C159.669 3.90707 158.703 3.63019 157.738 3.56097C156.91 3.49175 156.013 3.56097 155.117 3.56097C155.048 3.56097 154.979 3.56097 154.979 3.63019V14.7053C156.082 14.6361 157.186 14.7053 158.22 14.4977ZM221.605 3.49175C221.467 3.49175 221.329 3.49175 221.191 3.49175C221.191 3.56097 221.122 3.56097 221.122 3.56097V3.63019C221.122 6.60663 221.122 9.6523 221.122 12.6287C221.122 12.698 221.122 12.698 221.122 12.7672V12.8364C221.122 12.8364 221.122 12.8364 221.053 12.8364C220.984 12.7672 220.847 12.698 220.847 12.5595C220.64 11.9365 220.226 11.452 219.95 10.8983C219.467 9.9984 218.915 9.16776 218.433 8.26791C218.019 7.50649 217.536 6.74507 217.122 6.05287C216.639 5.22224 216.087 4.32238 215.536 3.49175C215.467 3.42253 215.398 3.35331 215.329 3.35331C215.122 3.35331 214.846 3.35331 214.639 3.35331C214.57 4.11472 214.57 14.1516 214.708 14.4977C214.846 14.4977 214.984 14.4977 215.191 14.4977V14.0131V12.2134C215.191 9.85996 215.191 7.57571 215.191 5.22224C215.191 5.0838 215.191 4.87614 215.191 4.7377C215.329 4.80692 215.329 4.80692 215.329 4.87614C215.674 5.56834 216.087 6.26054 216.501 6.95273C217.053 7.92181 217.674 8.89088 218.226 9.85996C218.777 10.829 219.398 11.7981 219.95 12.7672C220.295 13.3209 220.64 13.8055 220.915 14.3592C221.053 14.6361 221.329 14.7053 221.605 14.6361V3.49175ZM210.777 11.3136C210.501 12.2826 210.156 13.1825 209.328 13.8055C208.983 14.0824 208.501 14.29 208.087 14.3592C207.604 14.4285 207.19 14.4285 206.707 14.3592C205.604 14.1516 204.845 13.5286 204.362 12.5595C204.086 12.075 204.018 11.5212 203.88 10.9675C203.604 9.9984 203.673 9.02932 203.742 7.99103C203.811 6.88351 204.017 5.84522 204.707 4.94536C205.19 4.32238 205.811 3.97629 206.569 3.76863C207.535 3.49175 208.363 3.76863 209.121 4.25316C209.604 4.53004 209.949 5.01458 210.225 5.56834C210.708 6.67585 210.984 7.85259 210.915 9.02932C210.984 9.85996 210.984 10.5522 210.777 11.3136ZM209.742 14.1516C210.294 13.8055 210.777 13.3209 211.122 12.698C211.673 11.6597 211.949 10.4829 211.949 9.3062C211.949 8.54479 211.88 7.85259 211.742 7.16039C211.673 6.67585 211.466 6.19131 211.259 5.77599C210.777 4.59926 209.88 3.90707 208.708 3.56097C207.673 3.28409 206.569 3.28409 205.535 3.6994C205.052 3.90706 204.638 4.18395 204.293 4.53004C203.466 5.36068 203.052 6.39897 202.914 7.50649C202.845 8.2679 202.707 9.02932 202.845 9.79074C202.983 10.4137 203.052 11.1059 203.259 11.7289C203.604 12.9056 204.293 13.8055 205.397 14.3592C206.018 14.7053 206.776 14.7746 207.535 14.7746C208.225 14.7746 208.983 14.5669 209.742 14.1516ZM103.595 11.8673C103.25 13.0441 102.492 13.9439 101.319 14.29C99.8017 14.7053 98.1463 14.1516 97.3876 12.6287C96.9738 11.7289 96.7669 10.7598 96.7669 9.72152C96.7669 8.89088 96.7669 8.06025 96.9049 7.22961C97.0428 6.26054 97.3876 5.36068 98.1463 4.66848C98.6291 4.25316 99.1809 4.04551 99.7327 3.83785C100.353 3.63019 100.974 3.83784 101.526 3.97628C102.492 4.25316 103.112 5.01458 103.457 5.91444C103.871 6.81429 104.009 7.71415 104.009 9.23698C103.94 9.9984 103.871 10.9675 103.595 11.8673ZM104.768 7.71415C104.699 7.02195 104.492 6.39897 104.216 5.77599C103.802 4.94536 103.181 4.25317 102.354 3.76863C101.526 3.35331 100.698 3.28409 99.8706 3.35331C98.6981 3.42253 97.7325 3.97629 96.9738 4.87614C96.491 5.49912 96.2151 6.19132 96.0082 6.88351C95.8013 7.64493 95.7323 8.47557 95.7323 9.3062C95.7323 10.1368 95.8703 11.0367 96.2151 11.8673C96.491 12.5595 96.8359 13.2517 97.3876 13.7363C98.7671 14.913 100.284 15.0514 101.94 14.4977C103.181 14.0824 103.94 13.1825 104.423 12.0058C104.768 11.1059 104.975 10.0676 104.975 9.09854C104.906 8.614 104.837 8.19869 104.768 7.71415ZM108.561 3.90707C109.251 3.97629 109.94 3.83784 110.63 3.97628C110.906 4.0455 111.251 4.11472 111.527 4.25316C112.079 4.46082 112.354 4.87614 112.63 5.4299C112.906 6.05287 112.906 6.74507 112.768 7.36805C112.63 8.12947 112.217 8.68323 111.458 8.9601C111.044 9.09854 110.63 9.16776 110.216 9.23698C109.665 9.3062 109.182 9.23698 108.63 9.23698C108.561 9.23698 108.492 9.23698 108.423 9.16776C108.423 8.47556 108.423 4.25316 108.561 3.90707ZM107.595 14.6361H108.423V9.58308C108.975 9.58308 109.458 9.58308 110.009 9.58308C110.078 9.58308 110.216 9.72152 110.285 9.79074C110.492 10.1368 110.699 10.4829 110.906 10.7598C111.389 11.5212 111.803 12.2134 112.285 12.9748C112.63 13.5286 113.044 14.0824 113.389 14.6361H114.355C113.251 12.9056 112.148 11.2443 111.044 9.58308C111.389 9.44464 111.734 9.37542 111.941 9.3062C112.423 9.09854 112.975 8.82166 113.251 8.26791C113.803 7.29883 113.803 6.32975 113.458 5.36068C113.32 5.01458 113.113 4.59926 112.768 4.3916C112.148 3.97628 111.458 3.69941 110.768 3.63019C109.734 3.56097 108.699 3.63019 107.595 3.63019V14.6361ZM174.498 3.97628C174.636 3.97628 174.705 3.90707 174.774 3.90707C175.532 3.90707 176.291 3.90706 176.981 4.0455C177.877 4.25316 178.705 5.01458 178.774 5.98366C178.843 6.60663 178.843 7.16039 178.636 7.78337C178.36 8.54478 177.739 8.9601 176.981 9.09854C176.222 9.23698 175.463 9.23698 174.774 9.23698C174.705 9.23698 174.567 9.16776 174.498 9.16776V3.97628ZM178.015 9.23698C178.498 9.02932 178.912 8.82166 179.188 8.40634C179.946 7.36805 179.877 6.26054 179.464 5.15302C179.326 4.80692 179.119 4.53004 178.843 4.32238C178.222 3.83784 177.395 3.56097 176.636 3.49175C175.67 3.42253 174.705 3.49175 173.739 3.49175C173.67 3.49175 173.67 3.49175 173.601 3.56097V14.6361H174.429V13.3902V12.075C174.429 11.6597 174.429 11.2444 174.429 10.829C174.429 10.4137 174.429 9.9984 174.429 9.51386C174.981 9.51386 175.394 9.51386 175.877 9.51386C176.015 9.51386 176.153 9.58308 176.222 9.72152C176.705 10.4137 177.119 11.1751 177.601 11.8673C177.739 12.1442 177.946 12.3519 178.084 12.5595C178.498 13.2517 178.912 13.9439 179.326 14.5669H180.291C179.188 12.8364 178.084 11.2444 176.981 9.51386C177.464 9.44464 177.739 9.37542 178.015 9.23698ZM130.287 29.103C131.529 29.103 132.701 29.103 133.943 29.103C134.632 29.103 135.322 29.103 135.943 29.103C136.288 29.103 136.288 29.0338 136.15 28.6185H131.253C131.253 26.888 131.253 25.2267 131.253 23.4962H135.115C135.115 23.2886 135.115 23.2194 135.046 23.0117H131.253C131.253 21.4889 131.253 19.966 131.253 18.4432H131.804C133.115 18.4432 134.425 18.4432 135.736 18.4432C136.081 18.4432 136.15 18.4432 136.012 18.0279C135.529 17.9587 130.08 17.9587 129.735 18.0279V29.0338H130.287V29.103ZM159.393 25.1575C159.255 24.7422 159.462 24.5345 159.531 24.2577C159.6 23.9116 159.807 23.5655 159.945 23.2194C160.152 22.5964 160.428 21.9734 160.634 21.3504C160.841 20.7967 161.048 20.2429 161.186 19.6892C161.255 19.5507 161.255 19.4123 161.462 19.4123C162.083 21.2812 162.773 23.1501 163.393 25.0191C163.393 25.0883 163.393 25.1575 163.393 25.2267C162.014 25.2267 160.703 25.1575 159.393 25.1575ZM157.255 29.103H157.807C158.289 27.9955 158.565 26.8188 159.048 25.7805C160.152 25.7805 161.255 25.7805 162.359 25.7805C162.704 25.7805 162.979 25.7805 163.324 25.7805C163.531 25.7805 163.6 25.8497 163.669 25.9881C163.876 26.5419 164.083 27.1649 164.29 27.7186C164.428 28.2032 164.635 28.6185 164.773 29.103H166.221C166.221 29.0338 166.221 28.9646 166.221 28.8954C166.083 28.3416 165.876 27.8571 165.669 27.3033C165.393 26.5419 165.118 25.7805 164.842 25.0191C164.635 24.3269 164.359 23.6347 164.152 22.9425C163.876 22.2503 163.6 21.4889 163.393 20.7967C163.117 19.966 162.842 19.1354 162.566 18.2355C162.497 18.0971 162.428 17.9587 162.221 18.0279C161.876 18.0279 161.531 18.0279 161.186 18.0279C159.876 21.6965 158.565 25.3652 157.255 29.103ZM202.845 25.1575C202.845 25.0191 202.845 24.8806 202.914 24.7422C203.121 24.1884 203.328 23.6347 203.535 23.0809C203.88 22.1811 204.155 21.2812 204.5 20.3814C204.569 20.1737 204.638 19.8968 204.707 19.6892C204.776 19.6199 204.845 19.4815 204.914 19.4123C205.121 19.8276 206.914 24.8806 206.845 25.2267C206.5 25.2267 203.397 25.2267 202.845 25.1575ZM203.88 20.3814C203.604 21.0735 203.397 21.7657 203.121 22.4579C202.776 23.427 202.362 24.3961 202.017 25.4344C201.672 26.3342 201.328 27.2341 201.052 28.134C200.983 28.4108 200.707 28.7569 200.776 29.103H201.328C201.741 27.9955 202.155 26.888 202.569 25.7805H202.914C204.155 25.7805 205.466 25.7805 206.707 25.7805C206.776 25.7805 206.914 25.7805 206.983 25.7805C207.052 25.8497 207.19 25.9189 207.259 25.9881C207.397 26.3342 207.535 26.6803 207.673 27.0264C207.88 27.7186 208.156 28.4108 208.363 29.103C208.639 29.103 208.845 29.103 209.121 29.103C209.328 29.103 209.604 29.103 209.88 29.103C208.57 25.3652 207.328 21.6965 206.087 18.0971C205.949 18.0971 205.88 18.0971 205.811 18.0971C205.535 18.0971 205.19 18.0971 204.845 18.0971C204.431 18.8585 204.155 19.6199 203.88 20.3814ZM202.983 32.4948H200.569C200.5 33.0486 200.5 43.2239 200.569 43.5699H202.983V32.4948ZM216.777 32.4948H214.363C214.294 33.0486 214.294 43.2239 214.363 43.5699H216.777V32.4948ZM117.182 32.4948V43.5699H119.665V32.4948C118.838 32.4948 118.01 32.4948 117.182 32.4948ZM85.3177 13.3902C84.3521 10.1368 83.6624 6.81429 82.7657 3.49175C82.5588 3.49175 82.3519 3.49175 82.145 3.49175C82.076 3.49175 82.007 3.49175 81.8691 3.49175C82.8347 7.22961 83.7313 10.8983 84.6969 14.5669H85.5246C86.4212 11.3136 87.2489 8.12947 88.1455 4.87614C88.2145 5.01458 88.3524 5.0838 88.3524 5.15302C88.4214 5.4299 88.4903 5.70678 88.5593 5.98366C88.6973 6.53741 88.7662 7.02195 88.9042 7.57571C89.1111 8.40635 89.387 9.3062 89.5939 10.1368C89.7318 10.5522 89.8008 10.9675 89.8698 11.3136C90.0077 11.8673 90.2146 12.4903 90.3526 13.0441C90.4905 13.5286 90.6285 14.0824 90.7664 14.6361C91.0423 14.6361 91.3182 14.6361 91.5251 14.5669C91.663 14.4977 91.663 14.2208 91.732 14.0824C91.732 14.0824 91.732 14.0824 91.732 14.0131C91.8699 13.3902 92.0769 12.8364 92.2148 12.2134C92.3528 11.6597 92.4907 11.1059 92.6286 10.5522C92.7666 9.92918 92.9735 9.3062 93.1114 8.61401C93.1804 8.40635 93.1804 8.12947 93.2494 7.92181C93.3873 7.36805 93.5942 6.88351 93.7322 6.39897C93.9391 5.70678 94.077 5.01458 94.215 4.32238C94.284 4.0455 94.3529 3.76863 94.4219 3.49175H93.8701C92.9735 6.81429 92.2838 10.1368 91.3871 13.4594C91.3182 13.4594 91.3182 13.4594 91.2492 13.4594C90.4215 10.1368 89.5249 6.81429 88.6973 3.49175H87.9386C87.042 6.81429 86.2833 10.1368 85.3177 13.3902ZM192.154 19.7584C192.223 19.8968 192.292 19.966 192.361 20.1045C192.775 20.7275 193.12 21.4196 193.465 22.0426C193.879 22.7348 194.361 23.4962 194.775 24.1884C195.396 25.2267 196.086 26.1958 196.775 27.2341C197.12 27.7879 197.465 28.3416 197.81 28.8262C197.879 28.8954 198.017 29.0338 198.086 29.0338C198.362 29.0338 198.707 29.0338 198.983 29.0338C199.052 28.4108 199.052 18.3048 198.983 17.9587H198.431V18.5124C198.431 21.0735 198.431 23.7039 198.431 26.265C198.431 26.4727 198.431 26.6803 198.431 26.8188C198.431 26.888 198.362 26.9572 198.362 27.0264C198.086 26.5419 197.879 26.0574 197.603 25.642C197.189 24.8806 196.707 24.1884 196.224 23.427C195.81 22.7348 195.327 22.1118 194.913 21.4196C194.224 20.3121 193.534 19.2046 192.844 18.0971C192.775 18.0279 192.637 17.8894 192.568 17.8894C192.223 17.8894 191.81 17.8894 191.396 17.8894V28.9646H191.947V27.3725V25.8497V24.3269V22.804C191.947 22.3195 191.947 21.7657 191.947 21.2812C191.947 20.7967 191.879 20.2429 191.947 19.7584C192.154 19.7584 192.154 19.7584 192.154 19.7584ZM110.837 29.103H111.389C111.389 28.8954 111.389 28.7569 111.389 28.5493C111.389 27.0264 111.389 25.5728 111.389 24.05C111.389 22.804 111.389 21.5581 111.389 20.3121C111.389 20.1737 111.32 19.966 111.527 19.8276C111.803 20.3814 112.079 20.8659 112.354 21.2812C113.044 22.3887 113.734 23.427 114.424 24.5345C114.975 25.4344 115.527 26.3342 116.148 27.2341C116.493 27.7879 116.838 28.3416 117.251 28.8954C117.32 28.9646 117.458 29.103 117.527 29.103C117.803 29.103 118.148 29.103 118.424 29.103C118.424 28.8954 118.424 28.7569 118.424 28.6185C118.424 25.2267 118.424 21.835 118.424 18.4432C118.424 18.3048 118.424 18.1663 118.355 18.0279H117.734V19.5507V21.0735V22.5964V24.1192C117.734 24.6038 117.734 25.0883 117.734 25.642C117.734 26.1266 117.734 26.6111 117.734 27.1649C115.872 23.9808 113.941 21.0043 112.079 18.0279H110.768V29.103H110.837ZM148.702 19.8276C148.771 19.8968 148.84 20.0353 148.909 20.1045C149.185 20.6582 149.461 21.1428 149.806 21.6965C150.22 22.3887 150.703 23.0809 151.185 23.7731C151.599 24.3961 152.013 25.0883 152.358 25.7113C152.772 26.4035 153.255 27.0264 153.668 27.6494C153.944 28.0647 154.151 28.4108 154.427 28.8262C154.496 28.8954 154.634 29.0338 154.703 29.0338C154.979 29.0338 155.324 29.0338 155.6 29.0338V18.0279H155.048V18.5816C155.048 21.212 155.048 23.8423 155.048 26.4727C155.048 26.6111 155.048 26.7496 155.048 26.888C155.048 26.9572 154.979 27.0264 154.979 27.0957C154.703 26.6111 154.427 26.1266 154.151 25.7113C153.737 25.0191 153.255 24.2577 152.841 23.5655C152.427 22.8733 151.944 22.2503 151.53 21.5581C150.841 20.4506 150.151 19.3431 149.461 18.2355C149.392 18.0971 149.254 18.0279 149.116 17.9587C148.771 17.9587 148.358 17.9587 147.944 17.9587V29.0338H148.564V25.9189C148.564 24.8806 148.564 23.9116 148.564 22.8733C148.564 21.835 148.564 20.7967 148.564 19.7584C148.633 19.8276 148.633 19.8276 148.702 19.8276ZM196.844 33.187C197.465 33.187 198.017 33.187 198.638 33.187C198.914 33.187 198.983 33.0485 198.983 32.7717C198.983 32.4948 198.914 32.4948 198.569 32.4948C196.155 32.4948 193.741 32.4948 191.258 32.4948C191.189 32.4948 191.051 32.4948 190.982 32.4948V33.1178H191.465C192.085 33.1178 192.637 33.1178 193.258 33.1178C193.81 33.1178 193.81 33.1178 193.81 33.6715C193.81 33.81 193.81 33.8792 193.81 34.0176C193.81 36.9941 193.81 39.9705 193.81 42.947C193.81 43.0854 193.81 43.2931 193.81 43.5007H196.293V33.1178C196.569 33.187 196.707 33.187 196.844 33.187ZM210.087 43.0162C210.087 39.9013 210.087 36.8556 210.087 33.7408C210.087 33.5331 210.087 33.3947 210.087 33.187C210.639 33.187 211.053 33.187 211.535 33.187C211.811 33.187 212.156 33.187 212.432 33.187C212.639 33.187 212.708 33.1178 212.708 32.9101C212.708 32.564 212.639 32.4948 212.294 32.4948C209.88 32.4948 207.397 32.4948 204.983 32.4948C204.914 32.4948 204.776 32.4948 204.707 32.564V33.187C204.845 33.187 204.983 33.187 205.19 33.187C205.742 33.187 206.363 33.187 206.914 33.187C207.604 33.187 207.604 33.187 207.604 33.8792C207.604 36.9249 207.604 40.0397 207.604 43.0854C207.604 43.2239 207.604 43.4315 207.604 43.6392H210.087V43.0162ZM84.0762 20.9351C84.2831 20.1737 84.559 19.4815 85.2487 18.997C86.0763 18.374 86.973 18.1663 88.0075 18.4432C88.6283 18.6509 89.1111 18.9277 89.456 19.4123C90.0077 20.1737 90.2836 21.0043 90.4215 21.9042C90.5595 22.804 90.5595 23.6347 90.4905 24.5345C90.4216 25.2959 90.3526 25.9881 90.0077 26.6803C89.6629 27.4418 89.1801 28.134 88.4214 28.4801C88.2145 28.5493 88.0075 28.6185 87.8006 28.6877C87.0419 28.7569 86.3522 28.8262 85.6625 28.4801C85.1107 28.134 84.6279 27.7186 84.3521 27.0957C83.8003 25.9881 83.6623 24.8114 83.6623 23.5655C83.7313 22.6656 83.8003 21.7657 84.0762 20.9351ZM82.4209 25.1575C82.5588 25.7113 82.6967 26.265 82.9726 26.7496C83.4554 27.6494 84.1451 28.4108 85.1797 28.8262C85.6625 29.0338 86.1453 29.1723 86.6971 29.2415C87.2489 29.3107 87.8006 29.2415 88.4214 29.103C89.5939 28.8261 90.4905 28.2724 91.1802 27.3033C91.801 26.4035 92.0769 25.2959 92.2148 24.1884C92.3528 22.9425 92.1458 21.7657 91.663 20.589C91.2492 19.5507 90.4905 18.7893 89.5249 18.3048C88.8352 17.9587 88.0765 17.751 87.2489 17.8202C86.835 17.8202 86.3522 17.8894 85.9384 18.0279C85.5246 18.1663 85.1107 18.2355 84.7659 18.4432C84.0072 18.8585 83.4554 19.4123 83.0416 20.1737C82.4898 21.212 82.2829 22.3887 82.214 23.8423C82.2829 24.1192 82.2829 24.673 82.4209 25.1575ZM180.843 21.5581C180.981 20.7967 181.257 20.0353 181.74 19.4123C182.085 18.9277 182.567 18.5816 183.188 18.4432C183.464 18.374 183.74 18.3048 184.016 18.3048C185.395 18.2355 186.568 19.1354 186.982 20.4506C187.464 21.7657 187.602 23.1501 187.464 24.5345C187.395 25.5036 187.188 26.4727 186.706 27.3725C186.292 28.0647 185.671 28.6185 184.843 28.7569C184.223 28.8261 183.602 28.8954 183.05 28.6877C182.429 28.4801 181.947 28.134 181.602 27.511C181.257 26.9572 180.981 26.3342 180.843 25.7113C180.705 25.0883 180.705 24.4653 180.636 23.8423C180.636 23.7731 180.636 23.6347 180.636 23.5655C180.636 23.5655 180.636 23.5655 180.567 23.5655C180.705 22.8733 180.774 22.2503 180.843 21.5581ZM179.74 26.4035C180.015 27.1649 180.498 27.7879 181.119 28.2724C181.947 28.9646 182.912 29.2415 183.947 29.2415C184.43 29.2415 184.912 29.2415 185.395 29.103C185.878 28.9646 186.361 28.8262 186.706 28.6185C187.464 28.134 188.016 27.4418 188.43 26.6803C188.775 25.9189 188.913 25.0883 189.051 24.3269C189.189 23.4962 189.051 22.6656 188.913 21.835C188.844 21.4196 188.637 21.0043 188.499 20.6582C188.292 20.1737 188.016 19.7584 187.602 19.3431C187.188 18.9277 186.775 18.5124 186.223 18.3048C185.878 18.2355 185.602 18.1663 185.257 18.0279C184.361 17.751 183.464 17.8894 182.636 18.0971C182.36 18.1663 182.016 18.2355 181.809 18.4432C180.981 18.997 180.291 19.6199 179.877 20.5198C179.464 21.4889 179.257 22.5272 179.188 23.5655C179.119 24.5345 179.395 25.5036 179.74 26.4035ZM249.125 33.2562C248.366 32.7024 247.469 32.2871 246.504 32.3564C246.159 32.3564 245.745 32.4256 245.4 32.4948C244.366 32.7025 243.538 33.1178 243.124 34.0869C243.055 34.2253 242.986 34.4329 242.917 34.6406C242.641 35.2636 242.848 35.8866 243.055 36.5095C243.331 37.2017 243.814 37.6863 244.435 38.0324C245.055 38.4477 245.745 38.7938 246.435 39.1399C247.056 39.486 247.676 39.9013 247.952 40.6627C248.228 41.3549 248.021 42.2548 247.332 42.6701C246.711 43.0854 245.952 43.2238 245.262 43.0162C244.435 42.8085 243.607 42.6009 242.917 41.9779C242.71 41.7702 242.641 41.8395 242.435 42.1163C243.4 43.1546 244.573 43.6392 245.952 43.7084C246.366 43.7084 246.78 43.6392 247.194 43.5699C248.573 43.3623 249.746 42.324 249.952 40.8012C250.159 39.5552 249.677 38.5169 248.78 37.6863C248.366 37.271 247.814 37.0633 247.332 36.7864C246.642 36.4403 245.952 36.0942 245.331 35.6097C244.918 35.1944 244.711 34.7098 244.849 34.1561C244.987 33.6023 245.331 33.2562 245.883 33.1178C246.987 32.8409 248.021 33.0486 248.987 33.7408C249.194 33.8792 249.194 33.8792 249.401 33.6023C249.332 33.4639 249.263 33.3254 249.125 33.2562ZM108.078 42.5317C108.975 43.3623 110.147 43.7776 111.389 43.7776C111.803 43.7776 112.148 43.6392 112.561 43.6392C113.113 43.5699 113.527 43.3623 113.941 43.0854C114.286 42.8778 114.631 42.5317 114.837 42.1856C115.32 41.3549 115.458 40.5243 115.251 39.5552C114.975 38.5861 114.424 37.8939 113.665 37.4094C113.113 36.9941 112.423 36.7864 111.803 36.4403C111.389 36.2327 110.975 36.025 110.699 35.6789C109.734 34.7098 110.285 33.5331 111.182 33.2562C112.285 32.9101 113.389 33.0485 114.355 33.81C114.631 34.0176 114.631 34.0176 114.837 33.6715C114.286 33.1178 113.665 32.7025 112.837 32.4948C111.734 32.2179 110.63 32.4256 109.665 32.9101C108.837 33.3254 108.423 34.0176 108.285 34.9175C108.147 35.8866 108.423 36.7172 109.113 37.4786C109.665 38.1016 110.423 38.4477 111.113 38.863C111.734 39.2091 112.354 39.486 112.837 39.9705C113.389 40.5243 113.527 41.1473 113.389 41.8395C113.32 42.1163 113.251 42.3932 112.975 42.6009C112.285 43.1546 111.527 43.3623 110.699 43.1546C109.871 43.0162 109.044 42.7393 108.285 42.1163C108.078 41.9779 108.078 41.9779 107.802 42.2548C107.871 42.324 108.009 42.4624 108.078 42.5317ZM143.461 42.324C142.771 42.7393 142.012 42.947 141.253 42.947C140.012 42.8777 139.115 42.3932 138.495 41.3549C138.012 40.5935 137.805 39.7629 137.736 38.9322C137.667 38.1016 137.667 37.2017 137.874 36.3711C138.081 35.6789 138.288 35.0559 138.702 34.433C139.598 33.187 141.46 32.7717 142.84 33.4639C143.047 33.6023 143.254 33.6715 143.461 33.81C143.53 33.81 143.667 33.81 143.736 33.81C143.805 33.7407 143.805 33.6023 143.736 33.5331C143.667 33.3947 143.53 33.2562 143.392 33.187C142.495 32.564 141.529 32.2871 140.495 32.2871C140.15 32.2871 139.736 32.3564 139.391 32.4256C138.426 32.564 137.598 32.9793 136.908 33.5331C135.667 34.6406 135.184 36.0942 135.046 37.6863C134.977 38.7938 135.253 39.9013 135.736 40.9396C136.15 41.9087 136.908 42.5317 137.736 43.0854C138.495 43.57 139.391 43.6392 140.288 43.7776C140.771 43.8468 141.253 43.7084 141.805 43.6392C142.633 43.5007 143.323 43.0854 144.012 42.4624C143.736 42.2548 143.667 42.1856 143.461 42.324ZM129.942 42.3932C128.977 42.947 127.942 43.1546 126.838 42.8085C126.011 42.6009 125.459 42.0471 125.045 41.4241C124.493 40.6627 124.355 39.7629 124.287 38.863C124.149 37.6863 124.218 36.5095 124.7 35.3328C125.045 34.5714 125.528 33.9484 126.287 33.5331C126.494 33.3947 126.701 33.3254 126.907 33.2562C127.528 33.0485 128.08 33.1178 128.701 33.2562C129.115 33.3254 129.528 33.5331 129.873 33.81C130.08 33.9484 130.149 33.9484 130.287 33.6023C129.459 32.7717 128.494 32.4256 127.39 32.3564C126.632 32.2871 125.873 32.4256 125.114 32.7025C124.011 33.0486 123.183 33.6715 122.493 34.6406C121.804 35.6789 121.597 36.7864 121.528 37.8939C121.528 38.3785 121.597 38.863 121.666 39.4168C121.873 40.7319 122.424 41.8395 123.459 42.6701C124.424 43.5007 125.528 43.7084 126.769 43.8468C127.183 43.8468 127.666 43.7776 128.08 43.7084C128.977 43.5699 129.735 43.1546 130.425 42.5317C130.218 42.2548 130.218 42.2548 129.942 42.3932ZM139.943 18.5124C140.702 18.5124 141.529 18.374 142.288 18.7201C142.84 18.9277 143.323 19.2738 143.53 19.8968C143.736 20.4506 143.736 21.0735 143.736 21.6965C143.667 22.5964 142.978 23.3578 142.081 23.4962C141.874 23.5655 141.667 23.5655 141.46 23.5655C140.978 23.5655 140.495 23.5655 139.943 23.5655C139.805 23.0117 139.805 18.8585 139.943 18.5124ZM138.426 29.103C138.633 29.103 138.908 29.103 139.115 29.103C139.322 29.103 139.598 29.103 139.874 29.103V28.5493C139.874 27.2341 139.874 25.9881 139.874 24.673C139.874 24.4653 139.874 24.3269 139.874 24.05C140.15 24.05 140.426 24.05 140.702 24.05C140.978 24.05 141.116 24.1192 141.253 24.3269C141.598 24.9499 142.012 25.5036 142.357 26.1266C142.978 27.0957 143.599 28.134 144.219 29.103C144.771 29.103 145.323 29.103 145.875 29.103C145.599 28.6877 145.392 28.3416 145.185 27.9955C144.357 26.7496 143.53 25.5728 142.702 24.3269C142.633 24.2577 142.633 24.1192 142.564 23.9808C142.84 23.9116 143.116 23.8423 143.323 23.7039C143.667 23.5655 144.012 23.427 144.288 23.1501C144.978 22.5964 145.254 21.7657 145.185 20.8659C145.185 19.5507 144.219 18.4432 142.978 18.2355C142.288 18.0971 141.598 17.9587 140.909 17.9587C140.495 17.9587 140.012 17.9587 139.598 17.9587H138.288C138.288 18.7893 138.288 28.7569 138.426 29.103ZM182.567 43.5699H189.533V42.8778H185.119V38.1708H188.775C188.775 37.8939 188.775 37.6863 188.706 37.4786H185.119C185.05 36.9249 185.05 33.5331 185.119 33.1178H189.396V32.4948H182.567V43.5699ZM105.25 32.9793C105.25 35.1944 105.25 37.4094 105.25 39.5552C105.25 39.9705 105.25 40.4551 105.043 40.8704C104.699 41.8394 104.078 42.5316 102.905 42.6009C102.423 42.6009 101.94 42.6009 101.526 42.4624C100.698 42.1856 100.215 41.5626 100.078 40.6627C100.009 40.3166 100.009 39.9013 100.009 39.5552C100.009 37.4094 100.009 35.1944 100.009 33.0486C100.009 32.9101 100.009 32.7024 100.009 32.564H97.5256V33.0486C97.5256 35.1251 97.5256 37.271 97.5256 39.3475C97.5256 39.8321 97.5946 40.3166 97.6636 40.8704C97.8705 41.9779 98.4912 42.8085 99.4568 43.2931C100.078 43.6392 100.767 43.7084 101.457 43.7776C102.078 43.8468 102.698 43.7084 103.319 43.5699C104.078 43.4315 104.768 43.0162 105.25 42.3932C105.802 41.701 106.078 40.8704 106.078 39.9013C106.078 37.5478 106.078 35.1944 106.078 32.8409C106.078 32.7025 106.078 32.564 106.009 32.4256C105.871 32.4256 105.733 32.4256 105.595 32.4256C105.526 32.4256 105.388 32.4256 105.25 32.4256V32.9793ZM175.118 33.187C175.532 33.1178 175.946 33.1178 176.36 33.187C176.843 33.2562 177.257 33.4639 177.601 33.81C177.946 34.1561 178.084 34.5022 178.222 34.9175C178.36 35.5405 178.36 36.2327 178.222 36.8556C178.015 37.6171 177.601 38.1708 176.774 38.4477C176.222 38.5861 175.739 38.5861 175.187 38.5861V33.187H175.118ZM175.118 43.5007V39.2091C175.325 39.2091 175.532 39.2091 175.739 39.2091C176.636 39.2091 177.601 39.2091 178.498 38.9322C179.05 38.7938 179.602 38.5861 180.015 38.1708C180.912 37.3402 181.188 36.3019 180.912 35.1251C180.705 34.0869 180.015 33.5331 179.119 33.1178C178.291 32.7717 177.463 32.564 176.567 32.564C175.325 32.4948 174.015 32.564 172.704 32.564C172.704 32.564 172.635 32.564 172.635 32.6332V43.6392C173.325 43.6392 174.774 43.6392 175.118 43.5007ZM232.089 32.564V43.6392H232.848C232.848 43.4315 232.848 43.2238 232.848 43.0162C232.848 40.6627 232.848 38.3785 232.848 36.025C232.848 35.8173 232.848 35.6097 232.848 35.402C233.054 35.4712 233.123 35.6097 233.192 35.7481C233.951 36.8556 234.71 37.9632 235.468 39.0707C236.158 40.109 236.848 41.078 237.607 42.0471C237.882 42.4624 238.227 42.947 238.572 43.3623C238.641 43.5007 238.779 43.5699 238.917 43.5699C239.538 43.5699 240.09 43.5699 240.71 43.5699C240.779 42.8778 240.779 32.7717 240.641 32.4256C240.434 32.4256 240.227 32.4256 239.952 32.4948V33.9484V35.3328V36.7172V38.1016C239.952 38.5861 239.952 39.0014 239.952 39.486C239.952 39.9013 240.021 40.3858 239.883 40.9396C237.951 38.1016 236.02 35.3328 234.158 32.564H232.089ZM152.772 40.4551C152.634 41.1473 152.358 41.7702 151.944 42.2548C151.599 42.6701 151.185 42.8777 150.703 43.0162C149.599 43.2238 148.358 42.947 147.737 41.7702C147.461 41.2165 147.323 40.6627 147.185 40.109C146.978 39.0707 146.978 37.9632 147.047 36.9249C147.116 35.9558 147.323 34.9867 147.806 34.1561C148.22 33.4639 148.771 33.1178 149.599 32.9793C150.082 32.9101 150.634 32.9101 151.047 33.1178C151.254 33.187 151.392 33.3254 151.599 33.4639C152.151 33.8792 152.358 34.4329 152.565 35.0559C152.91 36.025 152.979 37.0633 152.979 38.0324C152.979 38.9322 152.91 39.6936 152.772 40.4551ZM155.393 36.0942C155.048 35.1251 154.565 34.2253 153.737 33.6023C152.772 32.7717 151.53 32.4256 150.289 32.3564C149.323 32.2871 148.427 32.4948 147.53 32.9101C146.84 33.187 146.15 33.6715 145.668 34.2945C144.84 35.3328 144.495 36.5095 144.426 37.8247C144.357 38.6553 144.495 39.4168 144.771 40.1782C144.978 40.7319 145.254 41.2857 145.599 41.7702C146.013 42.3932 146.633 42.8085 147.254 43.1546C148.082 43.6392 148.909 43.7776 149.806 43.7776C150.289 43.7776 150.772 43.7084 151.323 43.6392C153.186 43.3623 154.496 42.324 155.255 40.5935C155.6 39.7629 155.669 38.9322 155.737 37.9632C155.6 37.4094 155.6 36.7172 155.393 36.0942ZM221.674 35.8866C221.812 35.1251 222.088 34.3637 222.64 33.7408C222.985 33.3254 223.467 33.1178 224.088 33.0486C224.571 32.9793 225.123 33.0486 225.537 33.187C225.743 33.2562 225.881 33.3947 226.019 33.5331C226.571 33.9484 226.847 34.5022 227.054 35.1251C227.537 36.5788 227.468 38.0324 227.399 39.5552C227.33 40.3166 227.123 41.078 226.778 41.7702C226.364 42.6009 225.606 43.0854 224.709 43.1546C224.019 43.2238 223.398 43.0162 222.847 42.6009C222.433 42.324 222.226 41.9087 222.088 41.4934C221.605 40.4551 221.674 39.3475 221.605 38.1708C221.536 37.4094 221.536 36.5788 221.674 35.8866ZM219.122 40.109C219.329 40.6627 219.536 41.2165 219.881 41.6318C220.915 43.0854 222.364 43.6392 224.088 43.7776C225.123 43.8468 226.088 43.7084 226.985 43.2239C227.537 42.947 228.02 42.6701 228.433 42.2548C229.468 41.2857 229.882 40.0397 230.02 38.6553C230.158 37.4094 229.882 36.2327 229.399 35.1251C228.916 34.1561 228.226 33.4639 227.261 32.9793C226.709 32.7025 226.088 32.4948 225.468 32.3564C224.571 32.1487 223.674 32.2179 222.778 32.4948C221.95 32.7025 221.191 33.1178 220.502 33.7408C219.881 34.2945 219.467 35.0559 219.191 35.7481C218.915 36.4403 218.846 37.2017 218.846 38.0324C218.846 38.7938 218.915 39.4168 219.122 40.109ZM169.739 40.5243C169.67 39.4168 169.601 38.3785 169.532 37.271C169.463 36.025 169.325 34.7098 169.256 33.4639C169.256 33.2562 169.256 33.0485 169.256 32.9101C169.187 32.564 169.187 32.564 168.842 32.564C168.152 32.564 167.463 32.564 166.704 32.564C166.635 32.564 166.566 32.564 166.428 32.6332C166.152 33.7407 165.876 34.779 165.531 35.8866C165.256 36.9941 164.98 38.1016 164.635 39.1399C164.29 40.1782 164.152 41.2857 163.738 42.3932C163.669 42.1163 163.531 41.9087 163.462 41.701C163.255 41.0088 163.117 40.3858 162.911 39.6936C162.566 38.5861 162.29 37.5478 161.945 36.4403C161.807 35.9558 161.669 35.4712 161.531 34.9867C161.324 34.2945 161.117 33.6023 160.91 32.9101C160.841 32.564 160.772 32.564 160.497 32.564C159.807 32.564 159.117 32.564 158.358 32.564C158.289 32.564 158.22 32.564 158.151 32.564C158.083 33.1178 158.014 33.6715 158.014 34.2253C157.945 35.402 157.876 36.5788 157.807 37.8247C157.738 38.7246 157.669 39.6244 157.6 40.5243C157.6 41.0088 157.531 41.4241 157.462 41.9087C157.393 42.4624 157.393 43.0854 157.393 43.6392H158.014C158.22 40.5935 158.427 37.5478 158.772 34.5022C158.841 34.5714 158.841 34.6406 158.91 34.7098C158.979 34.9867 159.048 35.2636 159.117 35.5405C159.255 36.025 159.393 36.5095 159.531 36.9941C159.669 37.4786 159.738 37.8939 159.876 38.3785C160.083 39.0014 160.29 39.6936 160.497 40.3166C160.772 41.3549 161.048 42.324 161.324 43.3623C161.393 43.6392 161.462 43.7084 161.807 43.7084C162.428 43.7084 163.048 43.7084 163.669 43.7084C163.738 43.7084 163.876 43.7084 163.945 43.7084C164.773 40.8012 165.531 37.8939 166.359 34.9867C166.566 35.3328 166.566 35.3328 166.635 35.6789C166.704 37.0633 166.842 38.3785 166.911 39.7629C166.98 40.8704 167.118 41.9779 167.187 43.0854C167.187 43.3623 167.187 43.57 167.394 43.7776H169.808C169.946 42.5317 169.877 41.5626 169.739 40.5243ZM95.2495 43.5699C95.2495 43.4315 95.2495 43.3623 95.2495 43.3623C95.1806 42.324 95.0426 41.2165 94.9736 40.1782C94.9047 39.0014 94.7667 37.7555 94.6978 36.5788C94.6288 35.5405 94.5598 34.433 94.4909 33.3947C94.4909 33.2562 94.4909 33.1178 94.4909 32.9793C94.4219 32.6332 94.4219 32.6332 94.077 32.6332C93.3873 32.6332 92.6976 32.6332 91.9389 32.6332C91.8699 32.6332 91.732 32.7025 91.663 32.7025C91.2492 34.3637 90.8354 35.9558 90.3526 37.5478C89.8698 39.1399 89.5939 40.8012 88.9731 42.324C88.8352 41.9779 88.7662 41.6318 88.6283 41.2857C88.4903 40.8012 88.3524 40.3166 88.2145 39.8321C88.0765 39.4168 88.0075 39.0014 87.8696 38.5861C87.6627 37.8939 87.4558 37.1325 87.1799 36.4403C87.0419 35.9558 86.904 35.4712 86.835 35.0559C86.6281 34.3637 86.4212 33.7408 86.2833 33.0486C86.1453 32.6332 86.1453 32.6332 85.7315 32.6332C85.0418 32.6332 84.3521 32.6332 83.7313 32.6332C83.6623 32.6332 83.5244 32.6332 83.4554 32.6332C83.3865 33.2562 83.3175 33.81 83.2485 34.3637C83.1796 35.2636 83.1106 36.1634 83.0416 37.0633C82.9726 37.9631 82.9037 38.863 82.8347 39.7629C82.7657 40.8704 82.7657 42.0471 82.6967 43.1546C82.6967 43.2931 82.6967 43.5007 82.6967 43.7084C82.9037 43.7084 83.1106 43.7084 83.2485 43.7084C83.3175 42.8777 83.3865 42.1163 83.4554 41.3549C83.4554 41.0088 83.4554 40.6627 83.5244 40.3166C83.5934 39.2783 83.7313 38.24 83.8003 37.2017C83.8693 36.4403 83.9382 35.6097 84.0072 34.8483C84.0072 34.779 84.0762 34.7098 84.0762 34.5714C84.2831 34.9867 84.3521 35.402 84.49 35.8173C84.559 36.0942 84.6279 36.3711 84.7659 36.648C84.9038 37.1325 85.1107 37.6171 85.2487 38.1708C85.4556 38.863 85.6625 39.5552 85.8694 40.2474C86.0074 40.7319 86.1453 41.1473 86.2833 41.6318C86.4212 42.2548 86.6281 42.8778 86.7661 43.4315C86.835 43.6392 86.973 43.7776 87.1799 43.7776C87.8006 43.7776 88.4214 43.7776 89.0421 43.7776C89.1801 43.7776 89.249 43.7776 89.387 43.7776C90.2146 40.8704 91.0423 37.9632 91.801 35.0559C91.9389 35.2636 92.0079 35.402 92.0079 35.6097C92.0769 36.5788 92.1458 37.5478 92.2148 38.4477C92.2148 38.7246 92.2148 38.9322 92.2838 39.2091C92.3527 40.5243 92.4907 41.7702 92.6286 43.0854C92.6286 43.2931 92.6976 43.57 92.7666 43.7776C93.6632 43.6392 94.4219 43.6392 95.2495 43.5699ZM27.0368 48C39.7965 37.4786 51.7286 26.1266 62.695 13.7363C62.695 13.7363 62.695 13.5978 62.764 13.5978C50.0043 23.5655 38.2791 34.7098 27.7265 47.0309C27.4506 47.3078 27.2437 47.6539 26.9678 47.9308C26.9678 47.9308 27.0368 47.9308 27.0368 48ZM49.5215 6.74507C36.5549 16.9204 24.6918 28.3416 14.0012 40.9396C13.9322 41.0088 13.9322 41.078 13.8633 41.1473C26.7609 30.6259 38.7619 19.2738 49.7284 6.74507C49.5905 6.74507 49.5215 6.67585 49.5215 6.74507ZM35.8652 0.0307643C35.7272 0.169204 35.5893 0.307642 35.5203 0.446081C26.6919 10.4829 17.1049 19.8276 7.03509 28.6877C4.75903 30.6951 2.414 32.6332 0.0689704 34.5714L0 34.5022C0 34.4329 0.0689704 34.3637 0.0689704 34.3637C0.758685 33.6023 1.37943 32.8409 2.06914 32.0795C2.414 31.6642 2.75886 31.2488 3.10371 30.8335C3.44857 30.4874 3.72446 30.0721 4.06932 29.726C4.89697 28.8262 5.72463 27.9263 6.55229 26.9572C7.31098 26.1266 8.06965 25.2959 8.82834 24.5345C9.86291 23.4962 10.8285 22.4579 11.8631 21.3504C12.3459 20.8659 12.8287 20.4506 13.2425 19.966C13.5184 19.6892 13.8633 19.3431 14.1391 19.0662C14.8978 18.3048 15.6565 17.6126 16.4152 16.8511C17.1739 16.1589 17.8636 15.3975 18.6223 14.7053C19.5879 13.8055 20.6225 12.9056 21.5881 12.0058C22.3467 11.3136 23.1054 10.5522 23.8641 9.85996C24.6228 9.23698 25.3125 8.61401 26.0712 7.92181C27.0368 7.09117 28.0024 6.26053 29.037 5.36068C29.5198 4.94536 30.0026 4.59926 30.4164 4.25316C30.8992 3.83785 31.451 3.35331 31.9338 2.93799C32.6925 2.31501 33.4511 1.62282 34.2788 0.999841C34.6926 0.653742 35.1065 0.376863 35.5203 0.0307643C35.6582 0.0307643 35.7272 0.0307643 35.8652 0.0307643Z" fill="white"/>
</svg>