<svg width="84" height="102" viewBox="0 0 84 102" fill="none" xmlns="http://www.w3.org/2000/svg">
<g id="logo">
<path id="Vector" fill-rule="evenodd" clip-rule="evenodd" d="M49.3474 81.5599C49.1949 86.4602 50.9236 89.4638 53.809 91.3032C54.0751 90.7539 54.281 90.1435 55.093 90.1446C54.9954 89.5394 55.0298 88.8002 55.0252 88.1008C56.2132 87.3667 57.264 86.4954 58.2028 85.5108C58.5675 85.4704 58.6769 85.4544 59.1489 85.443C60.1509 85.9198 59.2798 87.5639 59.6897 88.5097C61.7477 88.2209 61.2705 85.3778 63.7461 85.5108C64.5766 84.1685 66.2165 83.641 67.125 82.3778C67.0095 81.0179 66.0085 80.5494 65.0301 80.0612C63.63 81.7825 62.5597 83.8377 60.2978 84.6939C58.8864 84.5262 58.0513 83.7787 57.1885 83.0586C55.9471 83.0472 54.9903 83.1497 53.809 83.0586C52.7248 82.8241 52.0551 81.8027 51.3078 81.2865C50.0115 80.392 48.7465 79.6848 49.0095 77.744C49.5611 77.0959 50.2888 76.6264 50.6992 75.8359C49.9807 74.0157 46.3891 75.092 45.1554 73.7921C46.1847 76.7522 48.1934 78.725 49.3474 81.5599ZM45.0887 73.6549C45.0789 73.4364 45.1544 73.1341 44.8858 73.1786C44.7985 73.3764 44.8211 73.6399 45.0887 73.6549ZM42.6552 65.8886C42.6439 65.9663 42.5484 65.9621 42.4524 65.9559C42.5412 67.5695 42.6922 68.8399 43.5335 69.7718C43.5083 71.0458 44.0081 71.7917 44.6829 72.3607C45.2294 71.7534 45.4097 70.7771 45.8996 70.1129C45.3434 68.1747 43.7025 67.3314 42.6552 65.8886ZM51.3078 49.1256C50.9354 48.8429 50.7752 48.3454 50.1594 48.3092C49.6771 49.2126 50.1024 50.5207 50.767 50.8981C51.0094 50.9375 51.0941 50.8194 51.2405 50.762C51.3889 50.3447 51.2688 49.6552 51.3078 49.1256ZM61.0415 47.3546C59.5798 47.5793 58.2193 48.7829 56.6477 47.8997C56.112 48.2005 55.3452 48.2683 55.2964 49.0583C56.0278 49.9104 56.5865 50.9364 56.5794 52.5335C57.1572 52.2969 57.3503 51.6731 57.3919 50.8981C58.0832 50.251 59.1078 49.7794 60.4334 50.1485C60.6763 50.0533 60.817 49.854 61.0415 49.739C60.9768 48.2212 62.5725 48.3765 63.4076 47.7641C63.5227 46.8985 63.0394 46.6376 62.5972 46.3337C61.7379 46.3306 61.666 47.1211 61.0415 47.3546ZM65.2324 46.5367C65.3485 46.853 65.6433 46.9865 65.9088 47.1511C66.557 46.7137 66.7506 45.8197 67.125 45.1058C67.9832 44.3583 68.8266 43.5962 69.4917 42.6535C69.3643 42.2135 68.9858 42.0271 68.8153 41.6311C65.9407 41.306 66.4594 44.9758 65.2324 46.5367ZM49.955 38.3609V39.8601C50.7012 40.5398 50.8743 41.7957 51.6452 42.449C52.8157 42.6546 52.9585 43.896 53.7407 44.4939C54.9959 44.4504 55.5778 45.3087 56.7827 45.1058C57.1387 44.4649 57.7534 44.0865 58.6081 43.9482C58.6548 43.4497 59.0955 43.3493 59.1489 42.8585C58.9768 42.4635 58.8161 42.0566 58.5403 41.7683C57.8577 42.2829 57.6574 43.2846 56.5131 43.3343C55.7617 43.2292 55.472 42.6577 54.8229 42.449C54.3478 42.7773 53.4233 42.8616 52.7941 42.6535C52.2189 41.9764 51.5456 40.8059 52.0515 39.6562C52.5409 39.1504 53.7561 39.3751 54.2815 38.906C54.8306 39.0044 55.0221 38.744 55.3637 38.6332H56.1068C56.2563 38.3982 56.4643 38.2206 56.5794 37.9525C56.3806 37.7671 56.2784 37.4834 55.9723 37.4073C54.9225 38.1958 52.3489 38.8356 51.5779 37.3385C50.6365 37.2764 50.428 37.9514 49.955 38.3609ZM55.3637 28.5486C52.5394 28.1743 51.2174 30.443 50.0228 32.1596C49.9694 32.3879 49.9894 32.6007 49.955 32.9781C50.5595 33.9798 52.5153 34.0424 53.809 33.9322C55.2368 33.0542 54.6333 30.1298 55.8362 29.0264C55.6836 28.8628 55.5845 28.6433 55.3637 28.5486ZM54.9574 23.2346C55.1947 22.7713 54.3524 22.5585 54.1465 22.5533C54.4135 22.7837 54.5275 23.1683 54.9574 23.2346ZM38.3282 0V0.0683339C36.9661 2.03345 35.3124 3.70453 34.4757 6.20027C34.2713 6.58594 33.9113 6.8132 33.6642 7.15436C33.2698 9.09773 32.4706 10.6301 31.8394 12.3327C31.8882 15.2576 30.6705 17.5768 31.0957 20.9174C31.1681 21.4874 31.4938 22.3644 31.8394 22.8256V24.0525C32.5487 25.1774 32.8409 26.7212 33.6642 27.7322C33.4819 29.1874 34.202 29.7332 34.543 30.662C34.7505 32.3926 34.1896 33.3487 33.8666 34.5451C34.5194 34.9137 35.5728 34.4586 35.8953 35.1585C36.0704 36.5407 35.1254 37.9074 34.6108 39.0427C34.5753 40.1423 34.1398 40.8385 33.6642 41.495C33.6206 41.7921 33.7521 42.2653 33.5964 42.449C32.8553 43.6563 32.6334 45.3853 31.8394 46.5367C32.0043 47.8029 31.4249 48.2875 31.0957 49.195C30.9155 51.2253 30.8045 52.9316 29.9468 54.3034V58.2575C30.4835 59.0552 30.7932 60.0839 31.636 60.5736C32.8163 59.1997 34.4541 58.069 34.1373 55.3952C34.1937 54.7709 34.7572 54.657 34.8809 54.0995C34.9061 53.5761 34.4711 53.514 34.543 52.9419C34.6375 51.5354 35.0987 50.2997 34.6781 48.9216C34.7757 48.2937 35.0699 47.8624 35.0165 47.0818C35.488 46.5656 35.6154 45.8808 35.9626 45.1058C36.3683 44.2014 36.7402 43.3591 37.1793 42.3124C37.3883 41.8149 37.4695 41.3034 37.6523 40.8137C37.7879 40.4523 38.2106 40.2313 38.3282 39.8601C38.4124 39.5956 38.2979 39.2182 38.396 38.906C38.6564 38.0824 39.3672 37.3385 39.5454 36.5211C39.6194 36.181 39.493 35.8238 39.5454 35.4997C39.644 34.8888 39.9748 34.3432 40.154 33.6599C40.5582 32.1104 40.0118 30.267 40.2213 28.3446C41.1674 26.511 42.1735 24.4672 42.5197 22.4161C42.0482 21.4129 41.8407 19.5021 42.3168 18.3285C42.5387 18.211 42.6362 17.9692 42.8576 17.8517C47.3875 17.8036 49.0167 14.1156 54.1465 15.1261C54.847 15.4207 55.2861 15.9772 55.9045 16.3525C56.5989 16.0305 56.982 15.3938 57.3919 14.7855C56.9871 13.2521 57.8644 12.8794 58.2028 11.9238C56.6862 10.4981 53.1105 10.8573 50.2929 10.7657C50.1476 10.4572 49.7126 10.4416 49.6848 10.0156C49.7013 8.94191 50.3628 8.51845 50.767 7.83563C50.6083 7.20043 49.805 7.21544 49.8204 6.40475C50.0587 5.75921 50.785 5.60649 51.5779 5.519C52.0494 5.04015 52.3237 4.3625 52.7269 3.81531C52.7186 2.99841 52.3134 2.37512 52.7941 1.77151C54.1156 1.83156 56.3549 1.52768 55.4982 0H83.5524V102H0V0H38.3282Z" fill="#D9A145"/>
<path id="Vector_2" fill-rule="evenodd" clip-rule="evenodd" d="M38.3189 0H55.4889C56.3456 1.52768 54.1063 1.83156 52.7853 1.77151C52.3041 2.3746 52.7098 2.99841 52.7176 3.81531C52.3144 4.3625 52.0401 5.04015 51.5686 5.519C50.7756 5.60649 50.0494 5.75921 49.8111 6.40475C49.7957 7.21544 50.599 7.20043 50.7577 7.83563C50.3535 8.51845 49.6925 8.94191 49.6755 10.0156C49.7038 10.4416 50.1383 10.4572 50.2836 10.7652C53.1012 10.8573 56.6769 10.4981 58.1935 11.9238C57.8556 12.8794 56.9778 13.2521 57.3826 14.7855C56.9727 15.3938 56.5896 16.0305 55.8952 16.3525C55.2768 15.9772 54.8377 15.4207 54.1371 15.1261C49.0073 14.1156 47.3782 17.8036 42.8483 17.8517C42.6269 17.9687 42.5293 18.211 42.3075 18.3285C41.8314 19.5021 42.0389 21.4129 42.5103 22.4161C42.1642 24.4672 41.158 26.5105 40.212 28.3446C40.0024 30.2668 40.5489 32.1103 40.1447 33.6597C39.966 34.343 39.6347 34.8887 39.5361 35.4995C39.4837 35.8236 39.6101 36.1808 39.5361 36.5204C39.3579 37.3383 38.6471 38.0822 38.3867 38.9059C38.2886 39.218 38.4036 39.5954 38.3189 39.86C38.2013 40.2311 37.7786 40.4522 37.643 40.8135C37.4601 41.3033 37.379 41.8147 37.17 42.3122C36.7308 43.359 36.3595 44.2012 35.9538 45.1051C35.6061 45.8801 35.4787 46.5655 35.0072 47.0816C35.0606 47.8623 34.7663 48.2935 34.6688 48.9215C35.0894 50.2995 34.6282 51.5352 34.5337 52.9418C34.4618 53.5138 34.8968 53.5759 34.8721 54.0993C34.7478 54.6568 34.1844 54.7707 34.1279 55.3945C34.4453 58.0684 32.8075 59.1995 31.6267 60.5734C30.7839 60.0837 30.4742 59.0551 29.9375 58.2573V54.3033C30.7957 52.9314 30.9061 51.2251 31.0864 49.1948C31.4156 48.2868 31.995 47.8027 31.8301 46.5365C32.6241 45.3852 32.846 43.6561 33.5871 42.4489C33.7427 42.2651 33.6113 41.792 33.6549 41.4948C34.1305 40.8384 34.566 40.1421 34.6015 39.0425C35.1161 37.9073 36.0611 36.5406 35.886 35.1584C35.5634 34.4585 34.51 34.913 33.8573 34.5449C34.1803 33.348 34.7412 32.3924 34.5337 30.6618C34.1926 29.7331 33.4726 29.1869 33.6549 27.7322C32.8316 26.7212 32.5394 25.1774 31.8301 24.052V22.8256C31.4845 22.3644 31.1593 21.4874 31.0864 20.9174C30.6612 17.5768 31.8789 15.2576 31.8301 12.3327C32.4613 10.6301 33.2605 9.09773 33.6549 7.15436C33.902 6.8132 34.262 6.58594 34.4664 6.20027C35.303 3.70453 36.9568 2.03345 38.3189 0.0683339V0Z" fill="white"/>
<path id="Vector_3" fill-rule="evenodd" clip-rule="evenodd" d="M54.1406 22.5532C54.3461 22.5584 55.1889 22.7709 54.9516 23.2337C54.5217 23.1675 54.4077 22.7838 54.1406 22.5532Z" fill="white"/>
<path id="Vector_4" fill-rule="evenodd" clip-rule="evenodd" d="M55.8343 29.0266C54.6315 30.1297 55.235 33.0541 53.8066 33.9321C52.5134 34.0419 50.5576 33.9792 49.9531 32.9775C49.9875 32.6006 49.9675 32.3873 50.0209 32.1596C51.215 30.4424 52.5375 28.1745 55.3618 28.5488C55.5827 28.6435 55.6818 28.863 55.8343 29.0266Z" fill="white"/>
<path id="Vector_5" fill-rule="evenodd" clip-rule="evenodd" d="M51.5761 37.339C52.3465 38.8361 54.9206 38.1962 55.9704 37.4078C56.2765 37.4839 56.3787 37.7676 56.577 37.9529C56.4624 38.2211 56.2544 38.3981 56.105 38.6332H55.3618C55.0203 38.7445 54.8287 39.0049 54.2797 38.9065C53.7543 39.3755 52.5391 39.1508 52.0496 39.6566C51.5437 40.8064 52.2171 41.9769 52.7923 42.654C53.4209 42.8621 54.3459 42.7777 54.8205 42.4495C55.4702 42.6576 55.7598 43.2291 56.5107 43.3348C57.6555 43.2851 57.8558 42.2833 58.5384 41.7688C58.8142 42.0571 58.9744 42.464 59.147 42.859C59.0936 43.3498 58.6529 43.4502 58.6062 43.9487C57.7516 44.0869 57.1368 44.4654 56.7809 45.1057C55.576 45.3092 54.9936 44.4509 53.7388 44.4944C52.9566 43.8964 52.8139 42.655 51.6434 42.4495C50.8719 41.7962 50.6994 40.5403 49.9531 39.8606V38.3614C50.4256 37.9519 50.6347 37.2768 51.5761 37.339Z" fill="white"/>
<path id="Vector_6" fill-rule="evenodd" clip-rule="evenodd" d="M68.8094 41.6306C68.9799 42.0271 69.3584 42.213 69.4858 42.653C68.8207 43.5957 67.9774 44.3582 67.1192 45.1052C66.7448 45.8191 66.5516 46.7137 65.903 47.1511C65.6374 46.986 65.3426 46.8524 65.2266 46.5366C66.4541 44.9753 65.9348 41.306 68.8094 41.6306Z" fill="white"/>
<path id="Vector_7" fill-rule="evenodd" clip-rule="evenodd" d="M62.5976 46.333C63.0399 46.6369 63.5231 46.8978 63.4086 47.7634C62.5735 48.3758 60.9773 48.2205 61.042 49.7388C60.8175 49.8538 60.6768 50.0531 60.4344 50.1483C59.1083 49.7792 58.0836 50.2508 57.3923 50.8974C57.3507 51.6724 57.1576 52.2967 56.5798 52.5328C56.587 50.9357 56.0282 49.9097 55.2969 49.0581C55.3457 48.2681 56.1125 48.1998 56.6481 47.899C58.2197 48.7822 59.5803 47.5791 61.042 47.3539C61.6665 47.1204 61.7384 46.3299 62.5976 46.333Z" fill="white"/>
<path id="Vector_8" fill-rule="evenodd" clip-rule="evenodd" d="M51.2334 50.7626C51.0875 50.8196 51.0023 50.9376 50.7599 50.8983C50.0958 50.5214 49.67 49.2132 50.1523 48.3093C50.7686 48.3461 50.9283 48.8431 51.3012 49.1262C51.2616 49.6558 51.3818 50.3448 51.2334 50.7626Z" fill="white"/>
<path id="Vector_9" fill-rule="evenodd" clip-rule="evenodd" d="M45.9004 70.113C45.4104 70.7772 45.2301 71.7535 44.6837 72.3607C44.0083 71.7918 43.5091 71.0458 43.5342 69.7718C42.693 68.84 42.5415 67.5696 42.4531 65.956C42.5492 65.9617 42.6447 65.9664 42.656 65.8882C43.7032 67.331 45.3442 68.1748 45.9004 70.113Z" fill="white"/>
<path id="Vector_10" fill-rule="evenodd" clip-rule="evenodd" d="M44.8893 73.1782C45.1574 73.1338 45.082 73.4362 45.0918 73.6545C44.8248 73.6389 44.8022 73.3758 44.8893 73.1782Z" fill="white"/>
<path id="Vector_11" fill-rule="evenodd" clip-rule="evenodd" d="M45.1562 73.7923C46.3894 75.0922 49.9815 74.0159 50.7 75.8361C50.2891 76.6266 49.5619 77.0961 49.0103 77.7443C48.7468 79.6851 50.0123 80.3922 51.3086 81.2868C52.0559 81.8029 52.7256 82.8243 53.8093 83.0588C54.9906 83.1499 55.9474 83.0474 57.1893 83.0588C58.0516 83.7789 58.8872 84.5264 60.2986 84.6942C62.56 83.8379 63.6303 81.7827 65.0309 80.0614C66.0093 80.5496 67.0103 81.0181 67.1258 82.3775C66.2168 83.6412 64.5774 84.1687 63.7469 85.5111C61.2709 85.378 61.7485 88.2211 59.69 88.51C59.2807 87.5642 60.1512 85.92 59.1497 85.4432C58.6777 85.4546 58.5678 85.4707 58.2037 85.5111C57.2648 86.4957 56.214 87.3669 55.0255 88.101C55.0307 88.8004 54.9957 89.5391 55.0938 90.1448C54.2818 90.1433 54.0759 90.7541 53.8093 91.3034C50.9239 89.4636 49.1952 86.4605 49.3482 81.5601C48.1942 78.7253 46.185 76.7524 45.1562 73.7923Z" fill="white"/>
</g>
</svg>
